%TF.GenerationSoftware,KiCad,Pcbnew,9.0.2-9.0.2-0~ubuntu25.04.1*%
%TF.CreationDate,2025-05-27T06:32:49+10:00*%
%TF.ProjectId,front_board,66726f6e-745f-4626-9f61-72642e6b6963,rev?*%
%TF.SameCoordinates,Original*%
%TF.FileFunction,Copper,L2,Bot*%
%TF.FilePolarity,Positive*%
%FSLAX46Y46*%
G04 Gerber Fmt 4.6, Leading zero omitted, Abs format (unit mm)*
G04 Created by KiCad (PCBNEW 9.0.2-9.0.2-0~ubuntu25.04.1) date 2025-05-27 06:32:49*
%MOMM*%
%LPD*%
G01*
G04 APERTURE LIST*
%TA.AperFunction,SMDPad,CuDef*%
%ADD10R,1.200000X0.300000*%
%TD*%
%TA.AperFunction,SMDPad,CuDef*%
%ADD11R,3.000000X2.700000*%
%TD*%
%TA.AperFunction,ViaPad*%
%ADD12C,0.400000*%
%TD*%
%TA.AperFunction,ViaPad*%
%ADD13C,1.500000*%
%TD*%
%TA.AperFunction,Conductor*%
%ADD14C,0.300000*%
%TD*%
%TA.AperFunction,Conductor*%
%ADD15C,0.200000*%
%TD*%
G04 APERTURE END LIST*
D10*
%TO.P,J1,1*%
%TO.N,DISP_DB4*%
X95850000Y-92950000D03*
%TO.P,J1,2*%
%TO.N,DISP_DB5*%
X95850000Y-93450000D03*
%TO.P,J1,3*%
%TO.N,DISP_DB6*%
X95850000Y-93950000D03*
%TO.P,J1,4*%
%TO.N,DISP_DB7*%
X95850000Y-94450000D03*
%TO.P,J1,5*%
%TO.N,DISP_DB8*%
X95850000Y-94950000D03*
%TO.P,J1,6*%
%TO.N,DISP_DB9*%
X95850000Y-95450000D03*
%TO.P,J1,7*%
%TO.N,DISP_DB10*%
X95850000Y-95950000D03*
%TO.P,J1,8*%
%TO.N,DISP_DB11*%
X95850000Y-96450000D03*
%TO.P,J1,9*%
%TO.N,DISP_DB12*%
X95850000Y-96950000D03*
%TO.P,J1,10*%
%TO.N,DISP_DB3*%
X95850000Y-97450000D03*
%TO.P,J1,11*%
%TO.N,DISP_DB2*%
X95850000Y-97950000D03*
%TO.P,J1,12*%
%TO.N,LED_DATA*%
X95850000Y-98450000D03*
%TO.P,J1,13*%
%TO.N,PB_VOL_UP*%
X95850000Y-98950000D03*
%TO.P,J1,14*%
%TO.N,PB_VOL_DOWN*%
X95850000Y-99450000D03*
%TO.P,J1,15*%
%TO.N,PB_PWR*%
X95850000Y-99950000D03*
%TO.P,J1,16*%
%TO.N,PB_MENU_R*%
X95850000Y-100450000D03*
%TO.P,J1,17*%
%TO.N,PB_MENU_L*%
X95850000Y-100950000D03*
%TO.P,J1,18*%
%TO.N,DISP_DB13*%
X95850000Y-101450000D03*
%TO.P,J1,19*%
%TO.N,DISP_DB14*%
X95850000Y-101950000D03*
%TO.P,J1,20*%
%TO.N,DISP_DB15*%
X95850000Y-102450000D03*
%TO.P,J1,21*%
%TO.N,DISP_DC*%
X95850000Y-102950000D03*
%TO.P,J1,22*%
%TO.N,DISP_DB0*%
X95850000Y-103450000D03*
%TO.P,J1,23*%
%TO.N,DISP_DB1*%
X95850000Y-103950000D03*
%TO.P,J1,24*%
%TO.N,PB_9*%
X95850000Y-104450000D03*
%TO.P,J1,25*%
%TO.N,PB_8*%
X95850000Y-104950000D03*
%TO.P,J1,26*%
%TO.N,PB_7*%
X95850000Y-105450000D03*
%TO.P,J1,27*%
%TO.N,PB_6*%
X95850000Y-105950000D03*
%TO.P,J1,28*%
%TO.N,PB_5*%
X95850000Y-106450000D03*
%TO.P,J1,29*%
%TO.N,PB_4*%
X95850000Y-106950000D03*
%TO.P,J1,30*%
%TO.N,PB_3*%
X95850000Y-107450000D03*
%TO.P,J1,31*%
%TO.N,PB_2*%
X95850000Y-107950000D03*
%TO.P,J1,32*%
%TO.N,PB_1*%
X95850000Y-108450000D03*
%TO.P,J1,33*%
%TO.N,PB_HASH*%
X95850000Y-108950000D03*
%TO.P,J1,34*%
%TO.N,DISP_CS*%
X95850000Y-109450000D03*
%TO.P,J1,35*%
%TO.N,DISP_WR*%
X95850000Y-109950000D03*
%TO.P,J1,36*%
%TO.N,DISP_RD*%
X95850000Y-110450000D03*
%TO.P,J1,37*%
%TO.N,DISP_RES*%
X95850000Y-110950000D03*
%TO.P,J1,38*%
%TO.N,DISP_LEDK*%
X95850000Y-111450000D03*
%TO.P,J1,39*%
%TO.N,DISP_LEDA*%
X95850000Y-111950000D03*
%TO.P,J1,40*%
%TO.N,PB_END_CALL*%
X95850000Y-112450000D03*
%TO.P,J1,41*%
%TO.N,PB_CALL*%
X95850000Y-112950000D03*
%TO.P,J1,42*%
%TO.N,PB_DPAD_UP*%
X95850000Y-113450000D03*
%TO.P,J1,43*%
%TO.N,PB_DPAD_DOWN*%
X95850000Y-113950000D03*
%TO.P,J1,44*%
%TO.N,PB_DPAD_RIGHT*%
X95850000Y-114450000D03*
%TO.P,J1,45*%
%TO.N,PB_DPAD_LEFT*%
X95850000Y-114950000D03*
%TO.P,J1,46*%
%TO.N,PB_DPAD_SELECT*%
X95850000Y-115450000D03*
%TO.P,J1,47*%
%TO.N,PB_STAR*%
X95850000Y-115950000D03*
%TO.P,J1,48*%
%TO.N,PB_0*%
X95850000Y-116450000D03*
%TO.P,J1,49*%
%TO.N,GND*%
X95850000Y-116950000D03*
%TO.P,J1,50*%
%TO.N,+3.3V*%
X95850000Y-117450000D03*
D11*
%TO.P,J1,Z1*%
%TO.N,GND*%
X97710000Y-91020000D03*
%TO.P,J1,Z2*%
X97710000Y-119380000D03*
%TD*%
D12*
%TO.N,DISP_LEDK*%
X72750020Y-100050000D03*
%TO.N,PB_STAR*%
X67550000Y-143050000D03*
%TO.N,PB_0*%
X79500000Y-146900000D03*
X79450000Y-142950000D03*
%TO.N,PB_HASH*%
X91500000Y-147000000D03*
X91450000Y-142950000D03*
X93059585Y-108203556D03*
X98950000Y-129150000D03*
%TO.N,PB_1*%
X67400000Y-139950000D03*
X83600000Y-106400000D03*
X91350000Y-107680000D03*
%TO.N,PB_2*%
X90752308Y-107302308D03*
X83346985Y-108546985D03*
X79500000Y-139950000D03*
X79500000Y-135900000D03*
%TO.N,PB_3*%
X93800000Y-107250000D03*
X91400000Y-135950000D03*
X99400000Y-127450000D03*
X91400000Y-139950000D03*
%TO.N,PB_4*%
X77250000Y-108500000D03*
X90000000Y-107100000D03*
X67450000Y-133400000D03*
%TO.N,PB_5*%
X79700000Y-128950000D03*
X82796367Y-107808000D03*
X89150000Y-106500000D03*
X79700000Y-132900000D03*
%TO.N,PB_6*%
X94200000Y-105900000D03*
X99820000Y-126264663D03*
X91500000Y-128900000D03*
X91550000Y-132950000D03*
%TO.N,PB_7*%
X67600000Y-126200000D03*
X91150000Y-105400000D03*
X76300000Y-107600000D03*
%TO.N,PB_8*%
X79600000Y-125950000D03*
X82350000Y-107399000D03*
X79600000Y-121900000D03*
X88750000Y-106150000D03*
%TO.N,PB_9*%
X94250000Y-104450000D03*
X91450000Y-121950000D03*
X91450000Y-125900000D03*
X100350000Y-125150000D03*
%TO.N,PB_DPAD_LEFT*%
X93650000Y-114750000D03*
X88050000Y-112200000D03*
X74400000Y-113400000D03*
%TO.N,PB_DPAD_UP*%
X83550000Y-106950000D03*
%TO.N,PB_DPAD_RIGHT*%
X94200000Y-114400000D03*
%TO.N,PB_DPAD_DOWN*%
X88850000Y-116000000D03*
%TO.N,PB_DPAD_SELECT*%
X79500000Y-110600000D03*
X91750000Y-114370000D03*
X79417500Y-114550000D03*
%TO.N,PB_MENU_L*%
X65000000Y-105750000D03*
%TO.N,PB_MENU_R*%
X91063969Y-109030000D03*
X92550000Y-108100000D03*
X93550000Y-100400000D03*
%TO.N,PB_CALL*%
X65550000Y-118250000D03*
%TO.N,PB_END_CALL*%
X92250000Y-117450000D03*
X94300000Y-112420000D03*
X92250000Y-114814000D03*
%TO.N,PB_VOL_UP*%
X94000000Y-98950000D03*
%TO.N,PB_PWR*%
X93399997Y-98950000D03*
%TO.N,PB_VOL_DOWN*%
X94350000Y-99450000D03*
%TO.N,VLED*%
X67300000Y-116400000D03*
X64300000Y-109150000D03*
X65950000Y-138150000D03*
X66200000Y-144800000D03*
X64500000Y-116300000D03*
X64900000Y-123950000D03*
X69250000Y-145400000D03*
X69300000Y-131350000D03*
X69300000Y-138350000D03*
X65050000Y-131050000D03*
X67400000Y-109500000D03*
X69550000Y-124400000D03*
%TO.N,GND*%
X91350000Y-115800000D03*
X86300000Y-144700000D03*
X89350000Y-95850000D03*
X78050000Y-120100000D03*
X90250000Y-99650000D03*
X70150000Y-99975000D03*
D13*
X99125000Y-48700382D03*
D12*
X96150000Y-86100000D03*
X80550000Y-107625000D03*
X89625000Y-125575000D03*
X69250000Y-117550000D03*
X89825000Y-122400000D03*
X96575000Y-87625000D03*
X67650000Y-143850000D03*
X80375000Y-143350000D03*
X80525000Y-115950000D03*
X79450000Y-97800000D03*
X77150000Y-111100000D03*
X91475000Y-96900000D03*
X84875000Y-81750000D03*
X75050000Y-130700000D03*
X92975000Y-89725000D03*
X100500000Y-130200000D03*
X87700000Y-115250000D03*
X89475000Y-129325000D03*
X89575000Y-136175000D03*
X76050000Y-123550000D03*
X80600000Y-125875000D03*
X80650000Y-136300000D03*
X89875000Y-146600000D03*
X80475000Y-139875000D03*
D13*
X99124618Y-147450000D03*
D12*
X80450000Y-109850000D03*
X70550000Y-112650000D03*
X75200000Y-137700000D03*
X93850000Y-118050000D03*
X98350000Y-126750000D03*
X86500000Y-130700000D03*
X86500000Y-137700000D03*
X80550000Y-122425000D03*
X79475000Y-103075000D03*
X65800000Y-99400000D03*
X96950000Y-126750000D03*
X80650000Y-129425000D03*
X90050000Y-117500000D03*
X89800000Y-143350000D03*
X89475000Y-86125000D03*
X89250000Y-123700000D03*
D13*
X61375382Y-48700000D03*
D12*
X92550000Y-99150000D03*
X85250000Y-119000000D03*
X84750000Y-113650000D03*
D13*
X61375000Y-147449618D03*
D12*
X80325000Y-146825000D03*
X74950000Y-144750000D03*
X84625000Y-90575000D03*
X80650000Y-133100000D03*
X83900000Y-110250000D03*
X89650000Y-132475000D03*
X76825000Y-114975000D03*
%TO.N,+3.3V*%
X94100000Y-120050000D03*
%TO.N,DISP_RES*%
X85800000Y-104900000D03*
%TO.N,DISP_CS*%
X87750021Y-104370000D03*
%TO.N,DISP_DC*%
X87250000Y-102900000D03*
%TO.N,DISP_WR*%
X86750000Y-104370000D03*
%TO.N,DISP_RD*%
X86229997Y-104370000D03*
%TO.N,DISP_DB0*%
X85750000Y-102750000D03*
%TO.N,DISP_DB1*%
X85475000Y-103325000D03*
%TO.N,DISP_DB2*%
X82246446Y-93703554D03*
%TO.N,DISP_DB3*%
X81700000Y-92450000D03*
%TO.N,DISP_DB4*%
X81250000Y-79300000D03*
%TO.N,DISP_DB5*%
X80750000Y-79650000D03*
%TO.N,DISP_DB6*%
X80241199Y-79968001D03*
%TO.N,DISP_DB7*%
X79735642Y-80291136D03*
%TO.N,DISP_DB8*%
X79250000Y-80700000D03*
%TO.N,DISP_DB9*%
X78769998Y-81060002D03*
%TO.N,DISP_DB10*%
X78245977Y-81352243D03*
%TO.N,DISP_DB11*%
X77766426Y-81712844D03*
%TO.N,DISP_DB12*%
X77231588Y-81984785D03*
%TO.N,DISP_DB13*%
X77150000Y-99600000D03*
%TO.N,DISP_DB14*%
X76700000Y-100050000D03*
%TO.N,DISP_DB15*%
X76350000Y-100550000D03*
%TO.N,DISP_LEDA*%
X73750020Y-101750000D03*
%TO.N,LED_DATA*%
X67800000Y-146150000D03*
%TD*%
D14*
%TO.N,DISP_LEDK*%
X72750020Y-100050000D02*
X73950020Y-101250000D01*
X73950020Y-101250000D02*
X80245384Y-101250000D01*
X90445384Y-111450000D02*
X95475000Y-111450000D01*
X80245384Y-101250000D02*
X90445384Y-111450000D01*
D15*
%TO.N,PB_STAR*%
X82279000Y-139421000D02*
X78250000Y-143450000D01*
X95475000Y-115950000D02*
X94500000Y-115950000D01*
X82300000Y-128196038D02*
X82279000Y-128217038D01*
X94500000Y-115950000D02*
X82300000Y-128150000D01*
X67950000Y-143450000D02*
X67550000Y-143050000D01*
X78250000Y-143450000D02*
X67950000Y-143450000D01*
X82300000Y-128150000D02*
X82300000Y-128196038D01*
X82279000Y-128217038D02*
X82279000Y-139421000D01*
%TO.N,PB_0*%
X82600000Y-139800000D02*
X79450000Y-142950000D01*
X79500000Y-146900000D02*
X79500000Y-143000000D01*
X94500000Y-116450000D02*
X82600000Y-128350000D01*
X82600000Y-128350000D02*
X82600000Y-139800000D01*
X79500000Y-143000000D02*
X79450000Y-142950000D01*
X95475000Y-116450000D02*
X94500000Y-116450000D01*
%TO.N,PB_HASH*%
X98950000Y-133950000D02*
X91450000Y-141450000D01*
X93059585Y-108203556D02*
X93806029Y-108950000D01*
X91500000Y-143000000D02*
X91450000Y-142950000D01*
X93806029Y-108950000D02*
X95475000Y-108950000D01*
X91500000Y-147000000D02*
X91500000Y-143000000D01*
X91450000Y-141450000D02*
X91450000Y-142950000D01*
X98950000Y-129150000D02*
X98950000Y-133950000D01*
%TO.N,PB_1*%
X73850000Y-135000000D02*
X68900000Y-139950000D01*
X93490130Y-108040130D02*
X93130000Y-107680000D01*
X68900000Y-139950000D02*
X67400000Y-139950000D01*
X95475000Y-108450000D02*
X93903962Y-108450000D01*
X83600000Y-106400000D02*
X80246038Y-106400000D01*
X93130000Y-107680000D02*
X91350000Y-107680000D01*
X80246038Y-106400000D02*
X73850000Y-112796038D01*
X73850000Y-112796038D02*
X73850000Y-135000000D01*
X93903962Y-108450000D02*
X93494092Y-108040130D01*
X93494092Y-108040130D02*
X93490130Y-108040130D01*
%TO.N,PB_2*%
X93904616Y-107950000D02*
X95475000Y-107950000D01*
X83346985Y-108546985D02*
X81958000Y-109935970D01*
X81958000Y-109935970D02*
X81958000Y-137492000D01*
X81958000Y-137492000D02*
X79500000Y-139950000D01*
X90752308Y-107302308D02*
X90804616Y-107250000D01*
X93204616Y-107250000D02*
X93904616Y-107950000D01*
X79500000Y-139950000D02*
X79500000Y-135900000D01*
X90804616Y-107250000D02*
X93204616Y-107250000D01*
%TO.N,PB_3*%
X91400000Y-139950000D02*
X91400000Y-135950000D01*
X99400000Y-127450000D02*
X99400000Y-128000000D01*
X91400000Y-136000000D02*
X91400000Y-139950000D01*
X93950000Y-107400000D02*
X95425000Y-107400000D01*
X93800000Y-107250000D02*
X93950000Y-107400000D01*
X95425000Y-107400000D02*
X95475000Y-107450000D01*
X99400000Y-128000000D02*
X91400000Y-136000000D01*
%TO.N,PB_4*%
X95354000Y-106829000D02*
X90271000Y-106829000D01*
X69250000Y-133400000D02*
X67450000Y-133400000D01*
X95475000Y-106950000D02*
X95354000Y-106829000D01*
X73500000Y-112250000D02*
X73500000Y-129150000D01*
X73500000Y-129150000D02*
X69250000Y-133400000D01*
X90271000Y-106829000D02*
X90000000Y-107100000D01*
X77250000Y-108500000D02*
X73500000Y-112250000D01*
%TO.N,PB_5*%
X95475000Y-106450000D02*
X89200000Y-106450000D01*
X81637000Y-130963000D02*
X79700000Y-132900000D01*
X81637000Y-108963000D02*
X81637000Y-130963000D01*
X82796367Y-107808000D02*
X82792000Y-107808000D01*
X79700000Y-132900000D02*
X79700000Y-128950000D01*
X82792000Y-107808000D02*
X81637000Y-108963000D01*
X89200000Y-106450000D02*
X89150000Y-106500000D01*
%TO.N,PB_6*%
X99820000Y-126264663D02*
X99820000Y-126280000D01*
X91550000Y-128950000D02*
X91500000Y-128900000D01*
X91550000Y-132950000D02*
X91550000Y-128950000D01*
X95425000Y-105900000D02*
X95475000Y-105950000D01*
X93150000Y-132950000D02*
X91550000Y-132950000D01*
X94200000Y-105900000D02*
X95425000Y-105900000D01*
X99820000Y-126280000D02*
X93150000Y-132950000D01*
%TO.N,PB_7*%
X76300000Y-107600000D02*
X73179000Y-110721000D01*
X70450000Y-126200000D02*
X67600000Y-126200000D01*
X95475000Y-105450000D02*
X91200000Y-105450000D01*
X91200000Y-105450000D02*
X91150000Y-105400000D01*
X73179000Y-110721000D02*
X73179000Y-123471000D01*
X73179000Y-123471000D02*
X70450000Y-126200000D01*
%TO.N,PB_8*%
X81300000Y-124250000D02*
X79600000Y-125950000D01*
X89950000Y-104950000D02*
X88750000Y-106150000D01*
X81300000Y-108449000D02*
X81300000Y-124250000D01*
X95475000Y-104950000D02*
X89950000Y-104950000D01*
X79600000Y-121900000D02*
X79600000Y-125950000D01*
X82350000Y-107399000D02*
X81300000Y-108449000D01*
%TO.N,PB_9*%
X91450000Y-125900000D02*
X99600000Y-125900000D01*
X91450000Y-125900000D02*
X91450000Y-121950000D01*
X99600000Y-125900000D02*
X100350000Y-125150000D01*
X94250000Y-104450000D02*
X95475000Y-104450000D01*
%TO.N,PB_DPAD_LEFT*%
X74400000Y-112700000D02*
X74400000Y-113400000D01*
X93850000Y-114950000D02*
X93650000Y-114750000D01*
X82829000Y-106979000D02*
X80121000Y-106979000D01*
X80121000Y-106979000D02*
X74400000Y-112700000D01*
X95475000Y-114950000D02*
X93850000Y-114950000D01*
X88050000Y-112200000D02*
X82829000Y-106979000D01*
%TO.N,PB_DPAD_UP*%
X83550000Y-107050000D02*
X89950000Y-113450000D01*
X89950000Y-113450000D02*
X95475000Y-113450000D01*
X83550000Y-106950000D02*
X83550000Y-107050000D01*
%TO.N,PB_DPAD_RIGHT*%
X94200000Y-114400000D02*
X95425000Y-114400000D01*
X95425000Y-114400000D02*
X95475000Y-114450000D01*
%TO.N,PB_DPAD_DOWN*%
X90900000Y-113950000D02*
X95475000Y-113950000D01*
X88850000Y-116000000D02*
X90900000Y-113950000D01*
%TO.N,PB_DPAD_SELECT*%
X92401384Y-114370000D02*
X91750000Y-114370000D01*
X79500000Y-110600000D02*
X79500000Y-114467500D01*
X93481384Y-115450000D02*
X92401384Y-114370000D01*
X79500000Y-114467500D02*
X79417500Y-114550000D01*
X95475000Y-115450000D02*
X93481384Y-115450000D01*
%TO.N,PB_MENU_L*%
X68096000Y-99179000D02*
X65000000Y-102275000D01*
X95475000Y-100950000D02*
X87153962Y-100950000D01*
X85382962Y-99179000D02*
X68096000Y-99179000D01*
X65000000Y-102275000D02*
X65000000Y-105750000D01*
X87153962Y-100950000D02*
X85382962Y-99179000D01*
%TO.N,PB_MENU_R*%
X95425000Y-100400000D02*
X95475000Y-100450000D01*
X92500000Y-108150000D02*
X92550000Y-108100000D01*
X91900000Y-108150000D02*
X92500000Y-108150000D01*
X91063969Y-108986031D02*
X91900000Y-108150000D01*
X91063969Y-109030000D02*
X91063969Y-108986031D01*
X93550000Y-100400000D02*
X95425000Y-100400000D01*
%TO.N,PB_CALL*%
X90745384Y-112950000D02*
X95475000Y-112950000D01*
X72858000Y-116142000D02*
X72858000Y-110446616D01*
X83045384Y-105250000D02*
X90745384Y-112950000D01*
X65550000Y-118250000D02*
X70750000Y-118250000D01*
X70750000Y-118250000D02*
X72858000Y-116142000D01*
X72858000Y-110446616D02*
X78054616Y-105250000D01*
X78054616Y-105250000D02*
X83045384Y-105250000D01*
%TO.N,PB_END_CALL*%
X92250000Y-114814000D02*
X92250000Y-117450000D01*
X94300000Y-112420000D02*
X95445000Y-112420000D01*
X95445000Y-112420000D02*
X95475000Y-112450000D01*
%TO.N,PB_VOL_UP*%
X95475000Y-98950000D02*
X94000000Y-98950000D01*
%TO.N,PB_PWR*%
X93399997Y-98950000D02*
X93399997Y-99649997D01*
X93399997Y-99649997D02*
X93700000Y-99950000D01*
X93700000Y-99950000D02*
X95475000Y-99950000D01*
%TO.N,PB_VOL_DOWN*%
X95475000Y-99450000D02*
X94350000Y-99450000D01*
D14*
%TO.N,VLED*%
X69100000Y-123950000D02*
X69550000Y-124400000D01*
X66180000Y-138380000D02*
X69270000Y-138380000D01*
X68913530Y-131350000D02*
X68613530Y-131050000D01*
X64900000Y-123950000D02*
X69100000Y-123950000D01*
X69300000Y-131350000D02*
X68913530Y-131350000D01*
X66800000Y-145400000D02*
X66200000Y-144800000D01*
X69270000Y-138380000D02*
X69300000Y-138350000D01*
X64500000Y-116300000D02*
X67200000Y-116300000D01*
X67050000Y-109150000D02*
X67400000Y-109500000D01*
X64300000Y-109150000D02*
X67050000Y-109150000D01*
X68613530Y-131050000D02*
X65050000Y-131050000D01*
X69250000Y-145400000D02*
X66800000Y-145400000D01*
X65950000Y-138150000D02*
X66180000Y-138380000D01*
X67200000Y-116300000D02*
X67300000Y-116400000D01*
D15*
%TO.N,GND*%
X93850000Y-117600000D02*
X93850000Y-118050000D01*
X94500000Y-116950000D02*
X93850000Y-117600000D01*
X95475000Y-116950000D02*
X94500000Y-116950000D01*
D14*
%TO.N,+3.3V*%
X94850000Y-117450000D02*
X95850000Y-117450000D01*
X94375000Y-117925000D02*
X94850000Y-117450000D01*
X94375000Y-119775000D02*
X94375000Y-117925000D01*
X94100000Y-120050000D02*
X94375000Y-119775000D01*
D15*
%TO.N,DISP_RES*%
X85800000Y-104900000D02*
X85800000Y-106279942D01*
X85800000Y-106279942D02*
X90470058Y-110950000D01*
X90470058Y-110950000D02*
X95475000Y-110950000D01*
%TO.N,DISP_CS*%
X87750021Y-104370000D02*
X87728554Y-104391467D01*
X87728554Y-106846610D02*
X90331944Y-109450000D01*
X87728554Y-104391467D02*
X87728554Y-106846610D01*
X90331944Y-109450000D02*
X95475000Y-109450000D01*
%TO.N,DISP_DC*%
X87250000Y-102950000D02*
X95475000Y-102950000D01*
X87250000Y-102900000D02*
X87250000Y-102950000D01*
%TO.N,DISP_WR*%
X90377982Y-109950000D02*
X95475000Y-109950000D01*
X86833364Y-104453364D02*
X86833364Y-106405382D01*
X86833364Y-106405382D02*
X90377982Y-109950000D01*
X86750000Y-104370000D02*
X86833364Y-104453364D01*
%TO.N,DISP_RD*%
X86229997Y-106255977D02*
X90424020Y-110450000D01*
X90424020Y-110450000D02*
X95475000Y-110450000D01*
X86229997Y-104370000D02*
X86229997Y-106255977D01*
%TO.N,DISP_DB0*%
X86450000Y-103450000D02*
X95475000Y-103450000D01*
X85750000Y-102750000D02*
X86450000Y-103450000D01*
%TO.N,DISP_DB1*%
X86100000Y-103950000D02*
X95475000Y-103950000D01*
X85475000Y-103325000D02*
X86100000Y-103950000D01*
%TO.N,DISP_DB2*%
X95475000Y-97950000D02*
X86492892Y-97950000D01*
X86492892Y-97950000D02*
X82246446Y-93703554D01*
%TO.N,DISP_DB3*%
X86700000Y-97450000D02*
X95475000Y-97450000D01*
X81700000Y-92450000D02*
X86700000Y-97450000D01*
%TO.N,DISP_DB4*%
X94900000Y-92950000D02*
X81250000Y-79300000D01*
X95475000Y-92950000D02*
X94900000Y-92950000D01*
%TO.N,DISP_DB5*%
X94550000Y-93450000D02*
X95475000Y-93450000D01*
X80750000Y-79650000D02*
X94550000Y-93450000D01*
%TO.N,DISP_DB6*%
X94223198Y-93950000D02*
X80241199Y-79968001D01*
X95475000Y-93950000D02*
X94223198Y-93950000D01*
%TO.N,DISP_DB7*%
X93894506Y-94450000D02*
X95475000Y-94450000D01*
X79735642Y-80291136D02*
X93894506Y-94450000D01*
%TO.N,DISP_DB8*%
X79250000Y-80700000D02*
X93500000Y-94950000D01*
X93500000Y-94950000D02*
X95475000Y-94950000D01*
%TO.N,DISP_DB9*%
X78769998Y-81060002D02*
X93159996Y-95450000D01*
X93159996Y-95450000D02*
X95475000Y-95450000D01*
%TO.N,DISP_DB10*%
X78245977Y-81352243D02*
X92843734Y-95950000D01*
X92843734Y-95950000D02*
X95475000Y-95950000D01*
%TO.N,DISP_DB11*%
X92503582Y-96450000D02*
X95475000Y-96450000D01*
X77766426Y-81712844D02*
X92503582Y-96450000D01*
%TO.N,DISP_DB12*%
X77231588Y-81984785D02*
X92196803Y-96950000D01*
X92196803Y-96950000D02*
X95475000Y-96950000D01*
%TO.N,DISP_DB13*%
X85350000Y-99600000D02*
X87200000Y-101450000D01*
X87200000Y-101450000D02*
X95475000Y-101450000D01*
X77150000Y-99600000D02*
X85350000Y-99600000D01*
%TO.N,DISP_DB14*%
X76700000Y-100050000D02*
X85150000Y-100050000D01*
X87050000Y-101950000D02*
X95475000Y-101950000D01*
X85150000Y-100050000D02*
X87050000Y-101950000D01*
%TO.N,DISP_DB15*%
X85000000Y-100550000D02*
X76350000Y-100550000D01*
X95475000Y-102450000D02*
X95424000Y-102399000D01*
X95424000Y-102399000D02*
X86849000Y-102399000D01*
X86849000Y-102399000D02*
X85000000Y-100550000D01*
D14*
%TO.N,DISP_LEDA*%
X74427858Y-102427838D02*
X80827838Y-102427838D01*
X73750020Y-101750000D02*
X74427858Y-102427838D01*
X80827838Y-102427838D02*
X90350000Y-111950000D01*
X90350000Y-111950000D02*
X95475000Y-111950000D01*
D15*
%TO.N,LED_DATA*%
X65650000Y-146150000D02*
X67800000Y-146150000D01*
X95475000Y-98450000D02*
X64200000Y-98450000D01*
X64200000Y-98450000D02*
X61500000Y-101150000D01*
X61500000Y-101150000D02*
X61500000Y-142000000D01*
X61500000Y-142000000D02*
X65650000Y-146150000D01*
%TD*%
%TA.AperFunction,Conductor*%
%TO.N,GND*%
G36*
X83944955Y-108603199D02*
G01*
X83983825Y-108629507D01*
X87570835Y-112216517D01*
X87602927Y-112272102D01*
X87630201Y-112373886D01*
X87689511Y-112476613D01*
X87773387Y-112560489D01*
X87876114Y-112619799D01*
X87990691Y-112650500D01*
X87990694Y-112650500D01*
X88109306Y-112650500D01*
X88109309Y-112650500D01*
X88223886Y-112619799D01*
X88326613Y-112560489D01*
X88358029Y-112529073D01*
X88419352Y-112495588D01*
X88489044Y-112500572D01*
X88533391Y-112529073D01*
X89734788Y-113730470D01*
X89734789Y-113730471D01*
X89734791Y-113730472D01*
X89786780Y-113760487D01*
X89786782Y-113760489D01*
X89805857Y-113771501D01*
X89814712Y-113776614D01*
X89903856Y-113800500D01*
X90254456Y-113800500D01*
X90321495Y-113820185D01*
X90367250Y-113872989D01*
X90377194Y-113942147D01*
X90348169Y-114005703D01*
X90342137Y-114012181D01*
X88833482Y-115520835D01*
X88777895Y-115552928D01*
X88676114Y-115580201D01*
X88676112Y-115580201D01*
X88676112Y-115580202D01*
X88573387Y-115639511D01*
X88573384Y-115639513D01*
X88489513Y-115723384D01*
X88489511Y-115723387D01*
X88430201Y-115826114D01*
X88399500Y-115940691D01*
X88399500Y-116059309D01*
X88430201Y-116173886D01*
X88489511Y-116276613D01*
X88573387Y-116360489D01*
X88676114Y-116419799D01*
X88790691Y-116450500D01*
X88790694Y-116450500D01*
X88909306Y-116450500D01*
X88909309Y-116450500D01*
X89023886Y-116419799D01*
X89126613Y-116360489D01*
X89210489Y-116276613D01*
X89269799Y-116173886D01*
X89297072Y-116072100D01*
X89329162Y-116016519D01*
X91008863Y-114336819D01*
X91035790Y-114322115D01*
X91061609Y-114305523D01*
X91067809Y-114304631D01*
X91070186Y-114303334D01*
X91096544Y-114300500D01*
X91175500Y-114300500D01*
X91242539Y-114320185D01*
X91288294Y-114372989D01*
X91299500Y-114424500D01*
X91299500Y-114429309D01*
X91330201Y-114543886D01*
X91389511Y-114646613D01*
X91473387Y-114730489D01*
X91576114Y-114789799D01*
X91690691Y-114820500D01*
X91690694Y-114820500D01*
X91698751Y-114821561D01*
X91698567Y-114822956D01*
X91757241Y-114840185D01*
X91802996Y-114892989D01*
X91803960Y-114895154D01*
X91807604Y-114903556D01*
X91830201Y-114987886D01*
X91886433Y-115085282D01*
X91889258Y-115091794D01*
X91891837Y-115112543D01*
X91899500Y-115141140D01*
X91899500Y-117122859D01*
X91882887Y-117184859D01*
X91830202Y-117276110D01*
X91830201Y-117276114D01*
X91799500Y-117390691D01*
X91799500Y-117509309D01*
X91830201Y-117623886D01*
X91889511Y-117726613D01*
X91889513Y-117726615D01*
X91970926Y-117808028D01*
X92004411Y-117869351D01*
X91999427Y-117939043D01*
X91970926Y-117983390D01*
X82520181Y-127434136D01*
X82458858Y-127467621D01*
X82389166Y-127462637D01*
X82333233Y-127420765D01*
X82308816Y-127355301D01*
X82308500Y-127346455D01*
X82308500Y-110132513D01*
X82328185Y-110065474D01*
X82344819Y-110044832D01*
X82839151Y-109550500D01*
X83363502Y-109026148D01*
X83419085Y-108994057D01*
X83520871Y-108966784D01*
X83623598Y-108907474D01*
X83707474Y-108823598D01*
X83766784Y-108720871D01*
X83776370Y-108685095D01*
X83812733Y-108625435D01*
X83875579Y-108594905D01*
X83944955Y-108603199D01*
G37*
%TD.AperFunction*%
%TA.AperFunction,Conductor*%
G36*
X95079703Y-116805825D02*
G01*
X95098604Y-116806161D01*
X95126847Y-116819668D01*
X95128605Y-116820185D01*
X95130414Y-116821369D01*
X95131942Y-116822390D01*
X95176753Y-116875996D01*
X95185469Y-116945320D01*
X95155322Y-117008351D01*
X95095883Y-117045078D01*
X95063063Y-117049500D01*
X94797273Y-117049500D01*
X94696375Y-117076535D01*
X94626525Y-117074872D01*
X94568663Y-117035709D01*
X94541159Y-116971480D01*
X94552746Y-116902578D01*
X94576597Y-116869083D01*
X94608865Y-116836815D01*
X94670187Y-116803333D01*
X94696543Y-116800500D01*
X95061566Y-116800500D01*
X95079703Y-116805825D01*
G37*
%TD.AperFunction*%
%TA.AperFunction,Conductor*%
G36*
X92892536Y-98820185D02*
G01*
X92938291Y-98872989D01*
X92949497Y-98924500D01*
X92949497Y-99009309D01*
X92980198Y-99123886D01*
X93032884Y-99215140D01*
X93049497Y-99277140D01*
X93049497Y-99696141D01*
X93050301Y-99699142D01*
X93069152Y-99769498D01*
X93069163Y-99769534D01*
X93073383Y-99785285D01*
X93119524Y-99865205D01*
X93119528Y-99865210D01*
X93195926Y-99941608D01*
X93229411Y-100002931D01*
X93224427Y-100072623D01*
X93195933Y-100116963D01*
X93189516Y-100123380D01*
X93189511Y-100123387D01*
X93131310Y-100224194D01*
X93130201Y-100226114D01*
X93099500Y-100340691D01*
X93099500Y-100340693D01*
X93099500Y-100467436D01*
X93098233Y-100467436D01*
X93088738Y-100528345D01*
X93042360Y-100580603D01*
X92976562Y-100599500D01*
X87350506Y-100599500D01*
X87283467Y-100579815D01*
X87262825Y-100563181D01*
X85711825Y-99012181D01*
X85678340Y-98950858D01*
X85683324Y-98881166D01*
X85725196Y-98825233D01*
X85790660Y-98800816D01*
X85799506Y-98800500D01*
X92825497Y-98800500D01*
X92892536Y-98820185D01*
G37*
%TD.AperFunction*%
%TA.AperFunction,Conductor*%
G36*
X101267539Y-46520185D02*
G01*
X101313294Y-46572989D01*
X101324500Y-46624500D01*
X101324500Y-149525500D01*
X101304815Y-149592539D01*
X101252011Y-149638294D01*
X101200500Y-149649500D01*
X59299500Y-149649500D01*
X59232461Y-149629815D01*
X59186706Y-149577011D01*
X59175500Y-149525500D01*
X59175500Y-101103856D01*
X61149500Y-101103856D01*
X61149500Y-142046143D01*
X61173386Y-142135287D01*
X61173387Y-142135290D01*
X61219527Y-142215208D01*
X61219529Y-142215211D01*
X61219530Y-142215212D01*
X65369531Y-146365212D01*
X65434788Y-146430469D01*
X65434791Y-146430470D01*
X65434794Y-146430473D01*
X65514706Y-146476611D01*
X65514707Y-146476611D01*
X65514712Y-146476614D01*
X65603856Y-146500500D01*
X67472860Y-146500500D01*
X67534859Y-146517112D01*
X67626114Y-146569799D01*
X67740691Y-146600500D01*
X67740694Y-146600500D01*
X67859306Y-146600500D01*
X67859309Y-146600500D01*
X67973886Y-146569799D01*
X68076613Y-146510489D01*
X68160489Y-146426613D01*
X68219799Y-146323886D01*
X68250500Y-146209309D01*
X68250500Y-146090691D01*
X68219799Y-145976114D01*
X68219797Y-145976111D01*
X68219796Y-145976106D01*
X68218073Y-145971945D01*
X68210609Y-145902476D01*
X68241887Y-145839998D01*
X68301979Y-145804350D01*
X68332637Y-145800500D01*
X69009462Y-145800500D01*
X69071463Y-145817114D01*
X69076109Y-145819796D01*
X69076110Y-145819797D01*
X69076114Y-145819799D01*
X69190691Y-145850500D01*
X69190694Y-145850500D01*
X69309306Y-145850500D01*
X69309309Y-145850500D01*
X69423886Y-145819799D01*
X69526613Y-145760489D01*
X69610489Y-145676613D01*
X69669799Y-145573886D01*
X69700500Y-145459309D01*
X69700500Y-145340691D01*
X69669799Y-145226114D01*
X69610489Y-145123387D01*
X69526613Y-145039511D01*
X69423886Y-144980201D01*
X69309309Y-144949500D01*
X69190691Y-144949500D01*
X69121944Y-144967920D01*
X69076112Y-144980201D01*
X69076109Y-144980203D01*
X69071463Y-144982886D01*
X69009462Y-144999500D01*
X67017255Y-144999500D01*
X66950216Y-144979815D01*
X66929574Y-144963181D01*
X66653283Y-144686890D01*
X66621188Y-144631298D01*
X66619799Y-144626114D01*
X66619798Y-144626112D01*
X66560489Y-144523387D01*
X66476613Y-144439511D01*
X66373886Y-144380201D01*
X66259309Y-144349500D01*
X66140691Y-144349500D01*
X66026114Y-144380201D01*
X66026112Y-144380201D01*
X66026112Y-144380202D01*
X65923387Y-144439511D01*
X65923384Y-144439513D01*
X65839513Y-144523384D01*
X65839511Y-144523387D01*
X65780201Y-144626114D01*
X65749500Y-144740691D01*
X65749500Y-144859309D01*
X65780201Y-144973886D01*
X65839511Y-145076613D01*
X65923387Y-145160489D01*
X66026114Y-145219799D01*
X66031298Y-145221188D01*
X66086890Y-145253283D01*
X66421426Y-145587819D01*
X66454911Y-145649142D01*
X66449927Y-145718834D01*
X66408055Y-145774767D01*
X66342591Y-145799184D01*
X66333745Y-145799500D01*
X65846543Y-145799500D01*
X65779504Y-145779815D01*
X65758862Y-145763181D01*
X61886819Y-141891137D01*
X61853334Y-141829814D01*
X61850500Y-141803456D01*
X61850500Y-130990691D01*
X64599500Y-130990691D01*
X64599500Y-131109309D01*
X64630201Y-131223886D01*
X64689511Y-131326613D01*
X64773387Y-131410489D01*
X64876114Y-131469799D01*
X64990691Y-131500500D01*
X64990694Y-131500500D01*
X65109306Y-131500500D01*
X65109309Y-131500500D01*
X65223886Y-131469799D01*
X65228537Y-131467114D01*
X65290538Y-131450500D01*
X68396275Y-131450500D01*
X68463314Y-131470185D01*
X68483956Y-131486819D01*
X68667617Y-131670480D01*
X68758942Y-131723207D01*
X68860803Y-131750500D01*
X69059462Y-131750500D01*
X69121463Y-131767114D01*
X69126109Y-131769796D01*
X69126110Y-131769797D01*
X69126114Y-131769799D01*
X69240691Y-131800500D01*
X69240694Y-131800500D01*
X69359306Y-131800500D01*
X69359309Y-131800500D01*
X69473886Y-131769799D01*
X69576613Y-131710489D01*
X69660489Y-131626613D01*
X69719799Y-131523886D01*
X69750500Y-131409309D01*
X69750500Y-131290691D01*
X69719799Y-131176114D01*
X69660489Y-131073387D01*
X69576613Y-130989511D01*
X69473886Y-130930201D01*
X69359309Y-130899500D01*
X69240691Y-130899500D01*
X69143220Y-130925617D01*
X69073370Y-130923954D01*
X69023446Y-130893523D01*
X68859445Y-130729522D01*
X68859443Y-130729520D01*
X68813780Y-130703156D01*
X68768119Y-130676793D01*
X68717187Y-130663146D01*
X68666257Y-130649500D01*
X68666256Y-130649500D01*
X65290538Y-130649500D01*
X65228537Y-130632886D01*
X65223890Y-130630203D01*
X65223887Y-130630201D01*
X65195241Y-130622525D01*
X65109309Y-130599500D01*
X64990691Y-130599500D01*
X64876114Y-130630201D01*
X64876112Y-130630201D01*
X64876112Y-130630202D01*
X64773387Y-130689511D01*
X64773384Y-130689513D01*
X64689513Y-130773384D01*
X64689511Y-130773387D01*
X64642890Y-130854137D01*
X64630201Y-130876114D01*
X64599500Y-130990691D01*
X61850500Y-130990691D01*
X61850500Y-123890691D01*
X64449500Y-123890691D01*
X64449500Y-124009309D01*
X64480201Y-124123886D01*
X64539511Y-124226613D01*
X64623387Y-124310489D01*
X64726114Y-124369799D01*
X64840691Y-124400500D01*
X64840694Y-124400500D01*
X64959306Y-124400500D01*
X64959309Y-124400500D01*
X65073886Y-124369799D01*
X65078537Y-124367114D01*
X65140538Y-124350500D01*
X68882745Y-124350500D01*
X68912185Y-124359144D01*
X68942172Y-124365668D01*
X68947187Y-124369422D01*
X68949784Y-124370185D01*
X68970426Y-124386819D01*
X69096716Y-124513109D01*
X69128808Y-124568691D01*
X69130198Y-124573881D01*
X69130200Y-124573885D01*
X69155267Y-124617302D01*
X69189511Y-124676613D01*
X69273387Y-124760489D01*
X69376114Y-124819799D01*
X69490691Y-124850500D01*
X69490694Y-124850500D01*
X69609306Y-124850500D01*
X69609309Y-124850500D01*
X69723886Y-124819799D01*
X69826613Y-124760489D01*
X69910489Y-124676613D01*
X69969799Y-124573886D01*
X70000500Y-124459309D01*
X70000500Y-124340691D01*
X69969799Y-124226114D01*
X69910489Y-124123387D01*
X69826613Y-124039511D01*
X69751566Y-123996182D01*
X69723885Y-123980200D01*
X69723881Y-123980198D01*
X69718691Y-123978808D01*
X69663109Y-123946716D01*
X69345915Y-123629522D01*
X69345913Y-123629520D01*
X69300250Y-123603156D01*
X69254589Y-123576793D01*
X69203657Y-123563146D01*
X69152727Y-123549500D01*
X69152726Y-123549500D01*
X65140538Y-123549500D01*
X65078537Y-123532886D01*
X65073890Y-123530203D01*
X65073887Y-123530201D01*
X65045241Y-123522525D01*
X64959309Y-123499500D01*
X64840691Y-123499500D01*
X64726114Y-123530201D01*
X64726112Y-123530201D01*
X64726112Y-123530202D01*
X64623387Y-123589511D01*
X64623384Y-123589513D01*
X64539513Y-123673384D01*
X64539511Y-123673387D01*
X64480201Y-123776114D01*
X64449500Y-123890691D01*
X61850500Y-123890691D01*
X61850500Y-116240691D01*
X64049500Y-116240691D01*
X64049500Y-116359309D01*
X64080201Y-116473886D01*
X64139511Y-116576613D01*
X64223387Y-116660489D01*
X64326114Y-116719799D01*
X64440691Y-116750500D01*
X64440694Y-116750500D01*
X64559306Y-116750500D01*
X64559309Y-116750500D01*
X64673886Y-116719799D01*
X64678537Y-116717114D01*
X64740538Y-116700500D01*
X66912036Y-116700500D01*
X66979075Y-116720185D01*
X66999717Y-116736819D01*
X67023387Y-116760489D01*
X67126114Y-116819799D01*
X67240691Y-116850500D01*
X67240694Y-116850500D01*
X67359306Y-116850500D01*
X67359309Y-116850500D01*
X67473886Y-116819799D01*
X67576613Y-116760489D01*
X67660489Y-116676613D01*
X67719799Y-116573886D01*
X67750500Y-116459309D01*
X67750500Y-116340691D01*
X67719799Y-116226114D01*
X67660489Y-116123387D01*
X67576613Y-116039511D01*
X67502667Y-115996818D01*
X67473885Y-115980200D01*
X67439655Y-115971028D01*
X67409751Y-115958641D01*
X67354591Y-115926794D01*
X67354588Y-115926793D01*
X67252727Y-115899500D01*
X67252726Y-115899500D01*
X64740538Y-115899500D01*
X64678537Y-115882886D01*
X64673890Y-115880203D01*
X64673887Y-115880201D01*
X64645241Y-115872525D01*
X64559309Y-115849500D01*
X64440691Y-115849500D01*
X64326114Y-115880201D01*
X64326112Y-115880201D01*
X64326112Y-115880202D01*
X64223387Y-115939511D01*
X64223384Y-115939513D01*
X64139513Y-116023384D01*
X64139511Y-116023387D01*
X64080201Y-116126114D01*
X64049500Y-116240691D01*
X61850500Y-116240691D01*
X61850500Y-109090691D01*
X63849500Y-109090691D01*
X63849500Y-109209309D01*
X63880201Y-109323886D01*
X63939511Y-109426613D01*
X64023387Y-109510489D01*
X64126114Y-109569799D01*
X64240691Y-109600500D01*
X64240694Y-109600500D01*
X64359306Y-109600500D01*
X64359309Y-109600500D01*
X64473886Y-109569799D01*
X64478537Y-109567114D01*
X64540538Y-109550500D01*
X66832744Y-109550500D01*
X66862183Y-109559144D01*
X66892169Y-109565667D01*
X66897186Y-109569422D01*
X66899783Y-109570185D01*
X66920424Y-109586817D01*
X66946716Y-109613108D01*
X66978810Y-109668696D01*
X66980200Y-109673884D01*
X66980200Y-109673885D01*
X66993973Y-109697740D01*
X67039511Y-109776613D01*
X67123387Y-109860489D01*
X67226114Y-109919799D01*
X67340691Y-109950500D01*
X67340694Y-109950500D01*
X67459306Y-109950500D01*
X67459309Y-109950500D01*
X67573886Y-109919799D01*
X67676613Y-109860489D01*
X67760489Y-109776613D01*
X67819799Y-109673886D01*
X67850500Y-109559309D01*
X67850500Y-109440691D01*
X67819799Y-109326114D01*
X67760489Y-109223387D01*
X67676613Y-109139511D01*
X67592055Y-109090691D01*
X67573885Y-109080200D01*
X67573883Y-109080199D01*
X67568690Y-109078808D01*
X67513109Y-109046717D01*
X67295913Y-108829520D01*
X67257316Y-108807235D01*
X67204589Y-108776793D01*
X67153657Y-108763146D01*
X67102727Y-108749500D01*
X67102726Y-108749500D01*
X64540538Y-108749500D01*
X64478537Y-108732886D01*
X64473890Y-108730203D01*
X64473887Y-108730201D01*
X64439062Y-108720870D01*
X64359309Y-108699500D01*
X64240691Y-108699500D01*
X64126114Y-108730201D01*
X64126112Y-108730201D01*
X64126112Y-108730202D01*
X64023387Y-108789511D01*
X64023384Y-108789513D01*
X63939513Y-108873384D01*
X63939511Y-108873387D01*
X63880201Y-108976114D01*
X63849500Y-109090691D01*
X61850500Y-109090691D01*
X61850500Y-101346544D01*
X61870185Y-101279505D01*
X61886819Y-101258863D01*
X64308863Y-98836819D01*
X64370186Y-98803334D01*
X64396544Y-98800500D01*
X67679456Y-98800500D01*
X67746495Y-98820185D01*
X67792250Y-98872989D01*
X67802194Y-98942147D01*
X67773169Y-99005703D01*
X67767137Y-99012181D01*
X64719531Y-102059786D01*
X64719527Y-102059791D01*
X64685615Y-102118530D01*
X64685615Y-102118531D01*
X64673386Y-102139710D01*
X64649500Y-102228856D01*
X64649500Y-105422859D01*
X64632887Y-105484859D01*
X64580202Y-105576110D01*
X64580201Y-105576114D01*
X64549500Y-105690691D01*
X64549500Y-105809309D01*
X64580201Y-105923886D01*
X64639511Y-106026613D01*
X64723387Y-106110489D01*
X64826114Y-106169799D01*
X64940691Y-106200500D01*
X64940694Y-106200500D01*
X65059306Y-106200500D01*
X65059309Y-106200500D01*
X65173886Y-106169799D01*
X65276613Y-106110489D01*
X65360489Y-106026613D01*
X65419799Y-105923886D01*
X65450500Y-105809309D01*
X65450500Y-105690691D01*
X65419799Y-105576114D01*
X65419797Y-105576110D01*
X65367113Y-105484859D01*
X65350500Y-105422859D01*
X65350500Y-102471544D01*
X65370185Y-102404505D01*
X65386819Y-102383863D01*
X68204863Y-99565819D01*
X68266186Y-99532334D01*
X68292544Y-99529500D01*
X72334056Y-99529500D01*
X72401095Y-99549185D01*
X72446850Y-99601989D01*
X72456794Y-99671147D01*
X72427769Y-99734703D01*
X72421737Y-99741181D01*
X72389533Y-99773384D01*
X72389531Y-99773387D01*
X72330221Y-99876114D01*
X72299520Y-99990691D01*
X72299520Y-100109309D01*
X72330221Y-100223886D01*
X72389531Y-100326613D01*
X72473407Y-100410489D01*
X72557965Y-100459309D01*
X72576134Y-100469799D01*
X72581318Y-100471188D01*
X72636910Y-100503283D01*
X73410591Y-101276964D01*
X73444076Y-101338287D01*
X73439092Y-101407979D01*
X73410593Y-101452325D01*
X73389531Y-101473387D01*
X73330221Y-101576114D01*
X73299520Y-101690691D01*
X73299520Y-101809309D01*
X73330221Y-101923886D01*
X73389531Y-102026613D01*
X73473407Y-102110489D01*
X73576134Y-102169799D01*
X73581318Y-102171188D01*
X73636910Y-102203283D01*
X74107376Y-102673748D01*
X74107378Y-102673751D01*
X74181945Y-102748318D01*
X74237861Y-102780601D01*
X74246498Y-102785587D01*
X74246501Y-102785590D01*
X74273265Y-102801042D01*
X74273268Y-102801044D01*
X74273270Y-102801044D01*
X74273271Y-102801045D01*
X74375131Y-102828339D01*
X74375133Y-102828339D01*
X74488181Y-102828339D01*
X74488197Y-102828338D01*
X80610583Y-102828338D01*
X80677622Y-102848023D01*
X80698264Y-102864657D01*
X82521426Y-104687819D01*
X82554911Y-104749142D01*
X82549927Y-104818834D01*
X82508055Y-104874767D01*
X82442591Y-104899184D01*
X82433745Y-104899500D01*
X78008472Y-104899500D01*
X77919328Y-104923386D01*
X77919325Y-104923387D01*
X77839407Y-104969527D01*
X77839402Y-104969531D01*
X72577531Y-110231402D01*
X72577525Y-110231410D01*
X72537637Y-110300500D01*
X72537635Y-110300505D01*
X72531386Y-110311327D01*
X72507500Y-110400472D01*
X72507500Y-115945456D01*
X72487815Y-116012495D01*
X72471181Y-116033137D01*
X70641137Y-117863181D01*
X70579814Y-117896666D01*
X70553456Y-117899500D01*
X65877140Y-117899500D01*
X65815140Y-117882887D01*
X65723886Y-117830201D01*
X65609309Y-117799500D01*
X65490691Y-117799500D01*
X65376114Y-117830201D01*
X65376112Y-117830201D01*
X65376112Y-117830202D01*
X65273387Y-117889511D01*
X65273384Y-117889513D01*
X65189513Y-117973384D01*
X65189511Y-117973387D01*
X65130201Y-118076114D01*
X65099500Y-118190691D01*
X65099500Y-118309309D01*
X65130201Y-118423886D01*
X65189511Y-118526613D01*
X65273387Y-118610489D01*
X65376114Y-118669799D01*
X65490691Y-118700500D01*
X65490694Y-118700500D01*
X65609306Y-118700500D01*
X65609309Y-118700500D01*
X65723886Y-118669799D01*
X65815140Y-118617112D01*
X65877140Y-118600500D01*
X70796142Y-118600500D01*
X70796144Y-118600500D01*
X70885288Y-118576614D01*
X70965212Y-118530470D01*
X72616819Y-116878863D01*
X72678142Y-116845378D01*
X72747834Y-116850362D01*
X72803767Y-116892234D01*
X72828184Y-116957698D01*
X72828500Y-116966544D01*
X72828500Y-123274456D01*
X72808815Y-123341495D01*
X72792181Y-123362137D01*
X70341137Y-125813181D01*
X70279814Y-125846666D01*
X70253456Y-125849500D01*
X67927140Y-125849500D01*
X67865140Y-125832887D01*
X67773886Y-125780201D01*
X67659309Y-125749500D01*
X67540691Y-125749500D01*
X67426114Y-125780201D01*
X67426112Y-125780201D01*
X67426112Y-125780202D01*
X67323387Y-125839511D01*
X67323384Y-125839513D01*
X67239513Y-125923384D01*
X67239511Y-125923387D01*
X67182516Y-126022105D01*
X67180201Y-126026114D01*
X67149500Y-126140691D01*
X67149500Y-126259309D01*
X67180201Y-126373886D01*
X67239511Y-126476613D01*
X67323387Y-126560489D01*
X67426114Y-126619799D01*
X67540691Y-126650500D01*
X67540694Y-126650500D01*
X67659306Y-126650500D01*
X67659309Y-126650500D01*
X67773886Y-126619799D01*
X67865140Y-126567112D01*
X67927140Y-126550500D01*
X70496142Y-126550500D01*
X70496144Y-126550500D01*
X70585288Y-126526614D01*
X70665212Y-126480470D01*
X72937819Y-124207863D01*
X72999142Y-124174378D01*
X73068834Y-124179362D01*
X73124767Y-124221234D01*
X73149184Y-124286698D01*
X73149500Y-124295544D01*
X73149500Y-128953456D01*
X73129815Y-129020495D01*
X73113181Y-129041137D01*
X69141137Y-133013181D01*
X69079814Y-133046666D01*
X69053456Y-133049500D01*
X67777140Y-133049500D01*
X67715140Y-133032887D01*
X67623886Y-132980201D01*
X67509309Y-132949500D01*
X67390691Y-132949500D01*
X67276114Y-132980201D01*
X67276112Y-132980201D01*
X67276112Y-132980202D01*
X67173387Y-133039511D01*
X67173384Y-133039513D01*
X67089513Y-133123384D01*
X67089511Y-133123387D01*
X67058780Y-133176615D01*
X67030201Y-133226114D01*
X66999500Y-133340691D01*
X66999500Y-133459309D01*
X67030201Y-133573886D01*
X67089511Y-133676613D01*
X67173387Y-133760489D01*
X67276114Y-133819799D01*
X67390691Y-133850500D01*
X67390694Y-133850500D01*
X67509306Y-133850500D01*
X67509309Y-133850500D01*
X67623886Y-133819799D01*
X67715140Y-133767112D01*
X67777140Y-133750500D01*
X69296142Y-133750500D01*
X69296144Y-133750500D01*
X69385288Y-133726614D01*
X69465212Y-133680470D01*
X73287819Y-129857863D01*
X73349142Y-129824378D01*
X73418834Y-129829362D01*
X73474767Y-129871234D01*
X73499184Y-129936698D01*
X73499500Y-129945544D01*
X73499500Y-134803456D01*
X73479815Y-134870495D01*
X73463181Y-134891137D01*
X69962181Y-138392137D01*
X69900858Y-138425622D01*
X69831166Y-138420638D01*
X69775233Y-138378766D01*
X69750816Y-138313302D01*
X69750500Y-138304456D01*
X69750500Y-138290693D01*
X69750500Y-138290691D01*
X69719799Y-138176114D01*
X69660489Y-138073387D01*
X69576613Y-137989511D01*
X69473886Y-137930201D01*
X69359309Y-137899500D01*
X69240691Y-137899500D01*
X69126114Y-137930201D01*
X69069499Y-137962887D01*
X69007500Y-137979500D01*
X66443345Y-137979500D01*
X66376306Y-137959815D01*
X66335958Y-137917501D01*
X66325565Y-137899500D01*
X66310489Y-137873387D01*
X66226613Y-137789511D01*
X66123886Y-137730201D01*
X66009309Y-137699500D01*
X65890691Y-137699500D01*
X65776114Y-137730201D01*
X65776112Y-137730201D01*
X65776112Y-137730202D01*
X65673387Y-137789511D01*
X65673384Y-137789513D01*
X65589513Y-137873384D01*
X65589511Y-137873387D01*
X65556709Y-137930202D01*
X65530201Y-137976114D01*
X65499500Y-138090691D01*
X65499500Y-138209309D01*
X65530201Y-138323886D01*
X65589511Y-138426613D01*
X65673387Y-138510489D01*
X65776114Y-138569799D01*
X65781298Y-138571188D01*
X65836890Y-138603283D01*
X65934087Y-138700480D01*
X66025412Y-138753207D01*
X66127273Y-138780500D01*
X66232727Y-138780500D01*
X69149724Y-138780500D01*
X69172983Y-138782701D01*
X69177442Y-138783552D01*
X69240691Y-138800500D01*
X69266189Y-138800500D01*
X69277715Y-138802701D01*
X69298779Y-138813514D01*
X69321495Y-138820185D01*
X69329286Y-138829176D01*
X69339872Y-138834611D01*
X69351746Y-138855097D01*
X69367250Y-138872989D01*
X69368943Y-138884764D01*
X69374911Y-138895060D01*
X69373824Y-138918713D01*
X69377194Y-138942147D01*
X69372250Y-138952970D01*
X69371705Y-138964856D01*
X69358005Y-138984164D01*
X69348169Y-139005703D01*
X69342137Y-139012181D01*
X68791137Y-139563181D01*
X68729814Y-139596666D01*
X68703456Y-139599500D01*
X67727140Y-139599500D01*
X67665140Y-139582887D01*
X67573886Y-139530201D01*
X67459309Y-139499500D01*
X67340691Y-139499500D01*
X67226114Y-139530201D01*
X67226112Y-139530201D01*
X67226112Y-139530202D01*
X67123387Y-139589511D01*
X67123384Y-139589513D01*
X67039513Y-139673384D01*
X67039511Y-139673387D01*
X66980201Y-139776114D01*
X66949500Y-139890691D01*
X66949500Y-140009309D01*
X66980201Y-140123886D01*
X67039511Y-140226613D01*
X67123387Y-140310489D01*
X67226114Y-140369799D01*
X67340691Y-140400500D01*
X67340694Y-140400500D01*
X67459306Y-140400500D01*
X67459309Y-140400500D01*
X67573886Y-140369799D01*
X67665140Y-140317112D01*
X67727140Y-140300500D01*
X68946142Y-140300500D01*
X68946144Y-140300500D01*
X69035288Y-140276614D01*
X69115212Y-140230470D01*
X74130470Y-135215212D01*
X74176614Y-135135288D01*
X74200500Y-135046144D01*
X74200500Y-114490691D01*
X78967000Y-114490691D01*
X78967000Y-114609309D01*
X78997701Y-114723886D01*
X79057011Y-114826613D01*
X79140887Y-114910489D01*
X79243614Y-114969799D01*
X79358191Y-115000500D01*
X79358194Y-115000500D01*
X79476806Y-115000500D01*
X79476809Y-115000500D01*
X79591386Y-114969799D01*
X79694113Y-114910489D01*
X79777989Y-114826613D01*
X79837299Y-114723886D01*
X79868000Y-114609309D01*
X79868000Y-114490691D01*
X79861740Y-114467329D01*
X79854725Y-114441146D01*
X79850500Y-114409054D01*
X79850500Y-110927140D01*
X79867112Y-110865140D01*
X79919799Y-110773886D01*
X79950500Y-110659309D01*
X79950500Y-110540691D01*
X79919799Y-110426114D01*
X79860489Y-110323387D01*
X79776613Y-110239511D01*
X79673886Y-110180201D01*
X79559309Y-110149500D01*
X79440691Y-110149500D01*
X79326114Y-110180201D01*
X79326112Y-110180201D01*
X79326112Y-110180202D01*
X79223387Y-110239511D01*
X79223384Y-110239513D01*
X79139513Y-110323384D01*
X79139511Y-110323387D01*
X79095006Y-110400472D01*
X79080201Y-110426114D01*
X79049500Y-110540691D01*
X79049500Y-110659309D01*
X79080201Y-110773886D01*
X79132887Y-110865140D01*
X79149500Y-110927140D01*
X79149500Y-114129535D01*
X79129815Y-114196574D01*
X79113182Y-114217216D01*
X79057011Y-114273387D01*
X78997701Y-114376114D01*
X78967000Y-114490691D01*
X74200500Y-114490691D01*
X74200500Y-113973438D01*
X74220185Y-113906399D01*
X74272989Y-113860644D01*
X74332564Y-113851717D01*
X74332564Y-113850500D01*
X74459306Y-113850500D01*
X74459309Y-113850500D01*
X74573886Y-113819799D01*
X74676613Y-113760489D01*
X74760489Y-113676613D01*
X74819799Y-113573886D01*
X74850500Y-113459309D01*
X74850500Y-113340691D01*
X74819799Y-113226114D01*
X74819797Y-113226110D01*
X74767113Y-113134859D01*
X74762962Y-113119370D01*
X74755523Y-113107794D01*
X74750500Y-113072859D01*
X74750500Y-112896544D01*
X74770185Y-112829505D01*
X74786819Y-112808863D01*
X80229863Y-107365819D01*
X80291186Y-107332334D01*
X80317544Y-107329500D01*
X81624456Y-107329500D01*
X81691495Y-107349185D01*
X81737250Y-107401989D01*
X81747194Y-107471147D01*
X81718169Y-107534703D01*
X81712137Y-107541181D01*
X81019531Y-108233786D01*
X81019527Y-108233791D01*
X80989797Y-108285285D01*
X80989798Y-108285286D01*
X80989797Y-108285288D01*
X80973386Y-108313712D01*
X80970063Y-108326114D01*
X80949500Y-108402856D01*
X80949500Y-124053456D01*
X80929815Y-124120495D01*
X80913181Y-124141137D01*
X80162181Y-124892137D01*
X80100858Y-124925622D01*
X80031166Y-124920638D01*
X79975233Y-124878766D01*
X79950816Y-124813302D01*
X79950500Y-124804456D01*
X79950500Y-122227140D01*
X79967112Y-122165140D01*
X80019799Y-122073886D01*
X80050500Y-121959309D01*
X80050500Y-121840691D01*
X80019799Y-121726114D01*
X79960489Y-121623387D01*
X79876613Y-121539511D01*
X79773886Y-121480201D01*
X79659309Y-121449500D01*
X79540691Y-121449500D01*
X79426114Y-121480201D01*
X79426112Y-121480201D01*
X79426112Y-121480202D01*
X79323387Y-121539511D01*
X79323384Y-121539513D01*
X79239513Y-121623384D01*
X79239511Y-121623387D01*
X79180201Y-121726114D01*
X79149500Y-121840691D01*
X79149500Y-121959309D01*
X79180201Y-122073886D01*
X79232887Y-122165140D01*
X79249500Y-122227140D01*
X79249500Y-125622859D01*
X79232887Y-125684859D01*
X79180202Y-125776110D01*
X79180201Y-125776114D01*
X79149500Y-125890691D01*
X79149500Y-126009309D01*
X79180201Y-126123886D01*
X79239511Y-126226613D01*
X79323387Y-126310489D01*
X79426114Y-126369799D01*
X79540691Y-126400500D01*
X79540694Y-126400500D01*
X79659306Y-126400500D01*
X79659309Y-126400500D01*
X79773886Y-126369799D01*
X79876613Y-126310489D01*
X79960489Y-126226613D01*
X80019799Y-126123886D01*
X80047072Y-126022100D01*
X80079162Y-125966519D01*
X81074819Y-124970863D01*
X81136142Y-124937378D01*
X81205834Y-124942362D01*
X81261767Y-124984234D01*
X81286184Y-125049698D01*
X81286500Y-125058544D01*
X81286500Y-130766456D01*
X81266815Y-130833495D01*
X81250181Y-130854137D01*
X80262181Y-131842137D01*
X80200858Y-131875622D01*
X80131166Y-131870638D01*
X80075233Y-131828766D01*
X80050816Y-131763302D01*
X80050500Y-131754456D01*
X80050500Y-129277140D01*
X80067112Y-129215140D01*
X80119799Y-129123886D01*
X80150500Y-129009309D01*
X80150500Y-128890691D01*
X80119799Y-128776114D01*
X80060489Y-128673387D01*
X79976613Y-128589511D01*
X79873886Y-128530201D01*
X79759309Y-128499500D01*
X79640691Y-128499500D01*
X79526114Y-128530201D01*
X79526112Y-128530201D01*
X79526112Y-128530202D01*
X79423387Y-128589511D01*
X79423384Y-128589513D01*
X79339513Y-128673384D01*
X79339511Y-128673387D01*
X79280201Y-128776114D01*
X79249500Y-128890691D01*
X79249500Y-129009309D01*
X79280201Y-129123886D01*
X79332887Y-129215140D01*
X79349500Y-129277140D01*
X79349500Y-132572859D01*
X79332887Y-132634859D01*
X79280202Y-132726110D01*
X79280201Y-132726114D01*
X79249500Y-132840691D01*
X79249500Y-132959309D01*
X79280201Y-133073886D01*
X79339511Y-133176613D01*
X79423387Y-133260489D01*
X79526114Y-133319799D01*
X79640691Y-133350500D01*
X79640694Y-133350500D01*
X79759306Y-133350500D01*
X79759309Y-133350500D01*
X79873886Y-133319799D01*
X79976613Y-133260489D01*
X80060489Y-133176613D01*
X80119799Y-133073886D01*
X80147072Y-132972100D01*
X80179162Y-132916519D01*
X81395819Y-131699863D01*
X81457142Y-131666378D01*
X81526834Y-131671362D01*
X81582767Y-131713234D01*
X81607184Y-131778698D01*
X81607500Y-131787544D01*
X81607500Y-137295456D01*
X81587815Y-137362495D01*
X81571181Y-137383137D01*
X80062181Y-138892137D01*
X80000858Y-138925622D01*
X79931166Y-138920638D01*
X79875233Y-138878766D01*
X79850816Y-138813302D01*
X79850500Y-138804456D01*
X79850500Y-136227140D01*
X79867112Y-136165140D01*
X79919799Y-136073886D01*
X79950500Y-135959309D01*
X79950500Y-135840691D01*
X79919799Y-135726114D01*
X79860489Y-135623387D01*
X79776613Y-135539511D01*
X79673886Y-135480201D01*
X79559309Y-135449500D01*
X79440691Y-135449500D01*
X79326114Y-135480201D01*
X79326112Y-135480201D01*
X79326112Y-135480202D01*
X79223387Y-135539511D01*
X79223384Y-135539513D01*
X79139513Y-135623384D01*
X79139511Y-135623387D01*
X79080201Y-135726114D01*
X79049500Y-135840691D01*
X79049500Y-135959309D01*
X79080201Y-136073886D01*
X79132887Y-136165140D01*
X79149500Y-136227140D01*
X79149500Y-139622859D01*
X79132887Y-139684859D01*
X79080202Y-139776110D01*
X79080201Y-139776114D01*
X79049500Y-139890691D01*
X79049500Y-140009309D01*
X79080201Y-140123886D01*
X79139511Y-140226613D01*
X79223387Y-140310489D01*
X79326114Y-140369799D01*
X79440691Y-140400500D01*
X79440694Y-140400500D01*
X79559306Y-140400500D01*
X79559309Y-140400500D01*
X79673886Y-140369799D01*
X79776613Y-140310489D01*
X79860489Y-140226613D01*
X79919799Y-140123886D01*
X79947072Y-140022100D01*
X79979162Y-139966519D01*
X81716819Y-138228863D01*
X81778142Y-138195378D01*
X81847834Y-138200362D01*
X81903767Y-138242234D01*
X81928184Y-138307698D01*
X81928500Y-138316544D01*
X81928500Y-139224456D01*
X81908815Y-139291495D01*
X81892181Y-139312137D01*
X78141137Y-143063181D01*
X78079814Y-143096666D01*
X78053456Y-143099500D01*
X68146544Y-143099500D01*
X68117101Y-143090854D01*
X68087115Y-143084331D01*
X68082100Y-143080577D01*
X68079505Y-143079815D01*
X68058861Y-143063180D01*
X68029162Y-143033480D01*
X67997071Y-142977895D01*
X67969799Y-142876114D01*
X67910489Y-142773387D01*
X67826613Y-142689511D01*
X67723886Y-142630201D01*
X67609309Y-142599500D01*
X67490691Y-142599500D01*
X67376114Y-142630201D01*
X67376112Y-142630201D01*
X67376112Y-142630202D01*
X67273387Y-142689511D01*
X67273384Y-142689513D01*
X67189513Y-142773384D01*
X67189511Y-142773387D01*
X67130201Y-142876114D01*
X67099500Y-142990691D01*
X67099500Y-143109309D01*
X67130201Y-143223886D01*
X67189511Y-143326613D01*
X67273387Y-143410489D01*
X67376114Y-143469799D01*
X67477897Y-143497072D01*
X67533484Y-143529165D01*
X67669531Y-143665212D01*
X67734788Y-143730469D01*
X67734791Y-143730470D01*
X67734794Y-143730473D01*
X67814706Y-143776611D01*
X67814707Y-143776611D01*
X67814712Y-143776614D01*
X67903856Y-143800500D01*
X67903858Y-143800500D01*
X78296142Y-143800500D01*
X78296144Y-143800500D01*
X78385288Y-143776614D01*
X78465212Y-143730470D01*
X78937819Y-143257861D01*
X78999142Y-143224377D01*
X79068833Y-143229361D01*
X79124767Y-143271232D01*
X79149184Y-143336697D01*
X79149500Y-143345543D01*
X79149500Y-146572859D01*
X79132887Y-146634859D01*
X79080202Y-146726110D01*
X79080201Y-146726114D01*
X79049500Y-146840691D01*
X79049500Y-146959309D01*
X79080201Y-147073886D01*
X79139511Y-147176613D01*
X79223387Y-147260489D01*
X79326114Y-147319799D01*
X79440691Y-147350500D01*
X79440694Y-147350500D01*
X79559306Y-147350500D01*
X79559309Y-147350500D01*
X79673886Y-147319799D01*
X79776613Y-147260489D01*
X79860489Y-147176613D01*
X79919799Y-147073886D01*
X79950500Y-146959309D01*
X79950500Y-146840691D01*
X79919799Y-146726114D01*
X79918225Y-146723387D01*
X79867113Y-146634859D01*
X79850500Y-146572859D01*
X79850500Y-143190537D01*
X79856080Y-143153757D01*
X79860186Y-143140534D01*
X79869799Y-143123886D01*
X79897712Y-143019712D01*
X79898425Y-143017418D01*
X79908692Y-143001974D01*
X79929162Y-142966519D01*
X82880470Y-140015212D01*
X82926614Y-139935288D01*
X82950500Y-139846143D01*
X82950500Y-139753856D01*
X82950500Y-135890691D01*
X90949500Y-135890691D01*
X90949500Y-136009309D01*
X90980201Y-136123886D01*
X91032887Y-136215140D01*
X91049500Y-136277140D01*
X91049500Y-139622859D01*
X91032887Y-139684859D01*
X90980202Y-139776110D01*
X90980201Y-139776114D01*
X90949500Y-139890691D01*
X90949500Y-140009309D01*
X90980201Y-140123886D01*
X91039511Y-140226613D01*
X91123387Y-140310489D01*
X91226114Y-140369799D01*
X91340691Y-140400500D01*
X91340694Y-140400500D01*
X91459306Y-140400500D01*
X91459309Y-140400500D01*
X91573886Y-140369799D01*
X91676613Y-140310489D01*
X91760489Y-140226613D01*
X91819799Y-140123886D01*
X91850500Y-140009309D01*
X91850500Y-139890691D01*
X91819799Y-139776114D01*
X91819797Y-139776110D01*
X91767113Y-139684859D01*
X91750500Y-139622859D01*
X91750500Y-136277140D01*
X91753137Y-136265524D01*
X91752103Y-136257268D01*
X91760123Y-136234756D01*
X91762659Y-136223590D01*
X91764722Y-136219280D01*
X91819799Y-136123886D01*
X91831744Y-136079304D01*
X91836703Y-136068948D01*
X91849159Y-136055089D01*
X91860861Y-136034819D01*
X98387819Y-129507862D01*
X98449142Y-129474377D01*
X98518834Y-129479361D01*
X98574767Y-129521233D01*
X98599184Y-129586697D01*
X98599500Y-129595543D01*
X98599500Y-133753456D01*
X98579815Y-133820495D01*
X98563181Y-133841137D01*
X91169531Y-141234786D01*
X91169527Y-141234791D01*
X91123387Y-141314709D01*
X91123386Y-141314712D01*
X91099500Y-141403856D01*
X91099500Y-142622859D01*
X91082887Y-142684859D01*
X91030202Y-142776110D01*
X91030201Y-142776114D01*
X90999500Y-142890691D01*
X90999500Y-143009309D01*
X91030201Y-143123886D01*
X91089511Y-143226613D01*
X91089513Y-143226615D01*
X91113181Y-143250283D01*
X91146666Y-143311606D01*
X91149500Y-143337964D01*
X91149500Y-146672859D01*
X91132887Y-146734859D01*
X91080202Y-146826110D01*
X91080201Y-146826114D01*
X91049500Y-146940691D01*
X91049500Y-147059309D01*
X91080201Y-147173886D01*
X91139511Y-147276613D01*
X91223387Y-147360489D01*
X91326114Y-147419799D01*
X91440691Y-147450500D01*
X91440694Y-147450500D01*
X91559306Y-147450500D01*
X91559309Y-147450500D01*
X91673886Y-147419799D01*
X91776613Y-147360489D01*
X91860489Y-147276613D01*
X91919799Y-147173886D01*
X91950500Y-147059309D01*
X91950500Y-146940691D01*
X91919799Y-146826114D01*
X91919797Y-146826110D01*
X91867113Y-146734859D01*
X91850500Y-146672859D01*
X91850500Y-143190537D01*
X91867113Y-143128537D01*
X91869799Y-143123886D01*
X91900500Y-143009309D01*
X91900500Y-142890691D01*
X91869799Y-142776114D01*
X91868223Y-142773384D01*
X91817113Y-142684859D01*
X91800500Y-142622859D01*
X91800500Y-141646544D01*
X91820185Y-141579505D01*
X91836819Y-141558863D01*
X95522298Y-137873384D01*
X99230470Y-134165212D01*
X99276614Y-134085288D01*
X99300500Y-133996143D01*
X99300500Y-133903856D01*
X99300500Y-129477140D01*
X99317112Y-129415140D01*
X99369799Y-129323886D01*
X99400500Y-129209309D01*
X99400500Y-129090691D01*
X99369799Y-128976114D01*
X99310489Y-128873387D01*
X99254072Y-128816970D01*
X99220587Y-128755647D01*
X99225571Y-128685955D01*
X99254069Y-128641611D01*
X99680469Y-128215213D01*
X99726614Y-128135288D01*
X99746586Y-128060750D01*
X99746587Y-128060750D01*
X99746587Y-128060744D01*
X99750500Y-128046144D01*
X99750500Y-127777140D01*
X99767112Y-127715140D01*
X99819799Y-127623886D01*
X99850500Y-127509309D01*
X99850500Y-127390691D01*
X99819799Y-127276114D01*
X99760489Y-127173387D01*
X99679072Y-127091970D01*
X99645587Y-127030647D01*
X99650571Y-126960955D01*
X99679070Y-126916610D01*
X99857468Y-126738212D01*
X99913051Y-126706121D01*
X99993886Y-126684462D01*
X100096613Y-126625152D01*
X100180489Y-126541276D01*
X100239799Y-126438549D01*
X100270500Y-126323972D01*
X100270500Y-126205354D01*
X100239799Y-126090777D01*
X100180489Y-125988050D01*
X100180484Y-125988045D01*
X100175542Y-125981604D01*
X100176948Y-125980524D01*
X100148256Y-125927979D01*
X100153240Y-125858287D01*
X100181741Y-125813940D01*
X100219571Y-125776110D01*
X100366519Y-125629162D01*
X100422100Y-125597072D01*
X100523886Y-125569799D01*
X100626613Y-125510489D01*
X100710489Y-125426613D01*
X100769799Y-125323886D01*
X100800500Y-125209309D01*
X100800500Y-125090691D01*
X100769799Y-124976114D01*
X100710489Y-124873387D01*
X100626613Y-124789511D01*
X100523886Y-124730201D01*
X100409309Y-124699500D01*
X100290691Y-124699500D01*
X100176114Y-124730201D01*
X100176112Y-124730201D01*
X100176112Y-124730202D01*
X100073387Y-124789511D01*
X100073384Y-124789513D01*
X99989513Y-124873384D01*
X99989511Y-124873387D01*
X99930201Y-124976114D01*
X99910484Y-125049698D01*
X99902929Y-125077895D01*
X99870835Y-125133482D01*
X99491137Y-125513181D01*
X99429814Y-125546666D01*
X99403456Y-125549500D01*
X91924500Y-125549500D01*
X91857461Y-125529815D01*
X91811706Y-125477011D01*
X91800500Y-125425500D01*
X91800500Y-122277140D01*
X91817112Y-122215140D01*
X91869799Y-122123886D01*
X91900500Y-122009309D01*
X91900500Y-121890691D01*
X91869799Y-121776114D01*
X91810489Y-121673387D01*
X91726613Y-121589511D01*
X91623886Y-121530201D01*
X91509309Y-121499500D01*
X91390691Y-121499500D01*
X91276114Y-121530201D01*
X91276112Y-121530201D01*
X91276112Y-121530202D01*
X91173387Y-121589511D01*
X91173384Y-121589513D01*
X91089513Y-121673384D01*
X91089511Y-121673387D01*
X91030201Y-121776114D01*
X90999500Y-121890691D01*
X90999500Y-122009309D01*
X91030201Y-122123886D01*
X91082887Y-122215140D01*
X91099500Y-122277140D01*
X91099500Y-125572859D01*
X91082887Y-125634859D01*
X91030202Y-125726110D01*
X91030201Y-125726114D01*
X90999500Y-125840691D01*
X90999500Y-125959309D01*
X91030201Y-126073886D01*
X91089511Y-126176613D01*
X91173387Y-126260489D01*
X91276114Y-126319799D01*
X91390691Y-126350500D01*
X91390694Y-126350500D01*
X91509306Y-126350500D01*
X91509309Y-126350500D01*
X91623886Y-126319799D01*
X91715140Y-126267112D01*
X91777140Y-126250500D01*
X99054456Y-126250500D01*
X99121495Y-126270185D01*
X99167250Y-126322989D01*
X99177194Y-126392147D01*
X99148169Y-126455703D01*
X99142137Y-126462181D01*
X93041137Y-132563181D01*
X92979814Y-132596666D01*
X92953456Y-132599500D01*
X92024500Y-132599500D01*
X91957461Y-132579815D01*
X91911706Y-132527011D01*
X91900500Y-132475500D01*
X91900500Y-129140537D01*
X91917113Y-129078537D01*
X91919799Y-129073886D01*
X91950500Y-128959309D01*
X91950500Y-128840691D01*
X91919799Y-128726114D01*
X91860489Y-128623387D01*
X91776613Y-128539511D01*
X91673886Y-128480201D01*
X91559309Y-128449500D01*
X91440691Y-128449500D01*
X91326114Y-128480201D01*
X91326112Y-128480201D01*
X91326112Y-128480202D01*
X91223387Y-128539511D01*
X91223384Y-128539513D01*
X91139513Y-128623384D01*
X91139511Y-128623387D01*
X91080201Y-128726114D01*
X91049500Y-128840691D01*
X91049500Y-128959309D01*
X91080201Y-129073886D01*
X91139511Y-129176613D01*
X91139513Y-129176615D01*
X91163181Y-129200283D01*
X91196666Y-129261606D01*
X91199500Y-129287964D01*
X91199500Y-132622859D01*
X91182887Y-132684859D01*
X91130202Y-132776110D01*
X91130201Y-132776114D01*
X91099500Y-132890691D01*
X91099500Y-133009309D01*
X91130201Y-133123886D01*
X91189511Y-133226613D01*
X91273387Y-133310489D01*
X91376114Y-133369799D01*
X91490691Y-133400500D01*
X91490694Y-133400500D01*
X91609306Y-133400500D01*
X91609309Y-133400500D01*
X91723886Y-133369799D01*
X91815140Y-133317112D01*
X91877140Y-133300500D01*
X93196142Y-133300500D01*
X93196144Y-133300500D01*
X93285288Y-133276614D01*
X93285296Y-133276609D01*
X93292798Y-133273503D01*
X93293980Y-133276358D01*
X93347632Y-133263327D01*
X93413665Y-133286160D01*
X93456871Y-133341069D01*
X93463533Y-133410620D01*
X93431535Y-133472732D01*
X93429448Y-133474869D01*
X91441137Y-135463181D01*
X91379814Y-135496666D01*
X91353456Y-135499500D01*
X91340691Y-135499500D01*
X91226114Y-135530201D01*
X91226112Y-135530201D01*
X91226112Y-135530202D01*
X91123387Y-135589511D01*
X91123384Y-135589513D01*
X91039513Y-135673384D01*
X91039511Y-135673387D01*
X90980201Y-135776114D01*
X90949500Y-135890691D01*
X82950500Y-135890691D01*
X82950500Y-128546543D01*
X82970185Y-128479504D01*
X82986819Y-128458862D01*
X88171225Y-123274456D01*
X93794080Y-117651600D01*
X93855401Y-117618117D01*
X93925093Y-117623101D01*
X93981026Y-117664973D01*
X94005443Y-117730437D01*
X94001534Y-117771375D01*
X93974500Y-117872271D01*
X93974500Y-119530673D01*
X93954815Y-119597712D01*
X93912501Y-119638059D01*
X93823393Y-119689506D01*
X93823384Y-119689513D01*
X93739513Y-119773384D01*
X93739511Y-119773387D01*
X93708138Y-119827727D01*
X93680201Y-119876114D01*
X93649500Y-119990691D01*
X93649500Y-120109309D01*
X93680201Y-120223886D01*
X93739511Y-120326613D01*
X93823387Y-120410489D01*
X93926114Y-120469799D01*
X94040691Y-120500500D01*
X94040694Y-120500500D01*
X94159306Y-120500500D01*
X94159309Y-120500500D01*
X94273886Y-120469799D01*
X94376613Y-120410489D01*
X94460489Y-120326613D01*
X94519799Y-120223886D01*
X94521188Y-120218699D01*
X94553282Y-120163108D01*
X94620911Y-120095481D01*
X94620913Y-120095480D01*
X94695480Y-120020913D01*
X94748207Y-119929587D01*
X94762535Y-119876114D01*
X94775501Y-119827727D01*
X94775501Y-119722273D01*
X94775500Y-119722269D01*
X94775500Y-118142255D01*
X94795185Y-118075216D01*
X94811819Y-118054574D01*
X94979574Y-117886819D01*
X95040897Y-117853334D01*
X95067255Y-117850500D01*
X96474676Y-117850500D01*
X96474677Y-117850499D01*
X96547740Y-117835966D01*
X96630601Y-117780601D01*
X96685966Y-117697740D01*
X96700500Y-117624674D01*
X96700500Y-117275326D01*
X96700500Y-117275323D01*
X96700499Y-117275321D01*
X96685967Y-117202264D01*
X96685966Y-117202260D01*
X96674339Y-117184859D01*
X96630601Y-117119399D01*
X96547740Y-117064034D01*
X96547739Y-117064033D01*
X96537585Y-117057249D01*
X96538409Y-117056015D01*
X96494610Y-117020722D01*
X96472544Y-116954429D01*
X96489822Y-116886729D01*
X96540958Y-116839117D01*
X96547482Y-116836137D01*
X96547737Y-116835966D01*
X96547740Y-116835966D01*
X96630601Y-116780601D01*
X96685966Y-116697740D01*
X96700500Y-116624674D01*
X96700500Y-116275326D01*
X96690328Y-116224188D01*
X96690328Y-116175811D01*
X96700500Y-116124674D01*
X96700500Y-115775326D01*
X96690328Y-115724188D01*
X96690328Y-115675811D01*
X96700500Y-115624674D01*
X96700500Y-115275326D01*
X96690328Y-115224188D01*
X96690328Y-115175811D01*
X96700500Y-115124674D01*
X96700500Y-114775326D01*
X96690328Y-114724188D01*
X96690328Y-114675811D01*
X96700500Y-114624674D01*
X96700500Y-114275326D01*
X96690328Y-114224188D01*
X96690328Y-114175811D01*
X96700500Y-114124674D01*
X96700500Y-113775326D01*
X96690328Y-113724188D01*
X96690328Y-113675811D01*
X96700500Y-113624674D01*
X96700500Y-113275326D01*
X96690328Y-113224188D01*
X96690328Y-113175811D01*
X96700500Y-113124674D01*
X96700500Y-112775326D01*
X96690328Y-112724188D01*
X96690328Y-112675811D01*
X96700500Y-112624674D01*
X96700500Y-112275326D01*
X96690328Y-112224188D01*
X96690328Y-112175811D01*
X96700500Y-112124674D01*
X96700500Y-111775326D01*
X96690328Y-111724188D01*
X96690328Y-111675811D01*
X96700500Y-111624674D01*
X96700500Y-111275326D01*
X96690328Y-111224188D01*
X96690328Y-111175811D01*
X96700500Y-111124674D01*
X96700500Y-110775326D01*
X96690328Y-110724188D01*
X96690328Y-110675811D01*
X96700500Y-110624674D01*
X96700500Y-110275326D01*
X96690328Y-110224188D01*
X96690328Y-110175811D01*
X96700500Y-110124674D01*
X96700500Y-109775326D01*
X96690328Y-109724188D01*
X96690328Y-109675811D01*
X96700500Y-109624674D01*
X96700500Y-109275326D01*
X96690328Y-109224188D01*
X96690328Y-109175811D01*
X96700500Y-109124674D01*
X96700500Y-108775326D01*
X96690328Y-108724188D01*
X96690328Y-108675811D01*
X96700500Y-108624674D01*
X96700500Y-108275326D01*
X96690328Y-108224188D01*
X96690328Y-108175811D01*
X96700500Y-108124674D01*
X96700500Y-107775326D01*
X96690328Y-107724188D01*
X96690328Y-107675811D01*
X96700500Y-107624674D01*
X96700500Y-107275326D01*
X96690328Y-107224188D01*
X96690328Y-107175811D01*
X96700500Y-107124674D01*
X96700500Y-106775326D01*
X96690328Y-106724188D01*
X96690328Y-106675811D01*
X96700500Y-106624674D01*
X96700500Y-106275326D01*
X96690328Y-106224188D01*
X96690328Y-106175811D01*
X96700500Y-106124674D01*
X96700500Y-105775326D01*
X96690328Y-105724188D01*
X96690328Y-105675811D01*
X96700500Y-105624674D01*
X96700500Y-105275326D01*
X96690328Y-105224188D01*
X96690328Y-105175811D01*
X96700500Y-105124674D01*
X96700500Y-104775326D01*
X96690328Y-104724188D01*
X96690328Y-104675811D01*
X96700500Y-104624674D01*
X96700500Y-104275326D01*
X96690328Y-104224188D01*
X96690328Y-104175811D01*
X96700500Y-104124674D01*
X96700500Y-103775326D01*
X96690328Y-103724188D01*
X96690328Y-103675811D01*
X96700500Y-103624674D01*
X96700500Y-103275326D01*
X96690328Y-103224188D01*
X96690328Y-103175811D01*
X96700500Y-103124674D01*
X96700500Y-102775326D01*
X96690328Y-102724188D01*
X96690328Y-102675811D01*
X96700500Y-102624674D01*
X96700500Y-102275326D01*
X96690328Y-102224188D01*
X96690328Y-102175811D01*
X96700500Y-102124674D01*
X96700500Y-101775326D01*
X96690328Y-101724188D01*
X96690328Y-101675811D01*
X96700500Y-101624674D01*
X96700500Y-101275326D01*
X96690328Y-101224188D01*
X96690328Y-101175811D01*
X96700500Y-101124674D01*
X96700500Y-100775326D01*
X96690328Y-100724188D01*
X96690328Y-100675811D01*
X96700500Y-100624674D01*
X96700500Y-100275326D01*
X96690328Y-100224188D01*
X96690328Y-100175811D01*
X96700500Y-100124674D01*
X96700500Y-99775326D01*
X96690328Y-99724188D01*
X96690328Y-99675811D01*
X96700500Y-99624674D01*
X96700500Y-99275326D01*
X96690328Y-99224188D01*
X96690328Y-99175811D01*
X96700500Y-99124674D01*
X96700500Y-98775326D01*
X96690328Y-98724188D01*
X96690328Y-98675811D01*
X96700500Y-98624674D01*
X96700500Y-98275326D01*
X96690328Y-98224188D01*
X96690328Y-98175811D01*
X96700500Y-98124674D01*
X96700500Y-97775326D01*
X96690328Y-97724188D01*
X96690328Y-97675811D01*
X96700500Y-97624674D01*
X96700500Y-97275326D01*
X96690328Y-97224188D01*
X96690328Y-97175811D01*
X96700500Y-97124674D01*
X96700500Y-96775326D01*
X96690328Y-96724188D01*
X96690328Y-96675811D01*
X96700500Y-96624674D01*
X96700500Y-96275326D01*
X96690328Y-96224188D01*
X96690328Y-96175811D01*
X96700500Y-96124674D01*
X96700500Y-95775326D01*
X96690328Y-95724188D01*
X96690328Y-95675811D01*
X96700500Y-95624674D01*
X96700500Y-95275326D01*
X96690328Y-95224188D01*
X96690328Y-95175811D01*
X96700500Y-95124674D01*
X96700500Y-94775326D01*
X96690328Y-94724188D01*
X96690328Y-94675811D01*
X96700500Y-94624674D01*
X96700500Y-94275326D01*
X96690328Y-94224188D01*
X96690328Y-94175811D01*
X96700500Y-94124674D01*
X96700500Y-93775326D01*
X96690328Y-93724188D01*
X96690328Y-93675811D01*
X96700500Y-93624674D01*
X96700500Y-93275326D01*
X96690328Y-93224188D01*
X96690328Y-93175811D01*
X96700500Y-93124674D01*
X96700500Y-92775326D01*
X96700500Y-92775323D01*
X96700499Y-92775321D01*
X96685967Y-92702264D01*
X96685966Y-92702260D01*
X96630601Y-92619399D01*
X96554734Y-92568707D01*
X96547739Y-92564033D01*
X96547735Y-92564032D01*
X96474677Y-92549500D01*
X96474674Y-92549500D01*
X95225326Y-92549500D01*
X95225324Y-92549500D01*
X95152259Y-92564033D01*
X95152254Y-92564035D01*
X95151413Y-92564598D01*
X95149301Y-92565258D01*
X95140977Y-92568707D01*
X95140668Y-92567961D01*
X95084734Y-92585469D01*
X95017355Y-92566978D01*
X94994852Y-92549170D01*
X81729164Y-79283482D01*
X81697071Y-79227897D01*
X81669799Y-79126114D01*
X81610489Y-79023387D01*
X81526613Y-78939511D01*
X81423886Y-78880201D01*
X81309309Y-78849500D01*
X81190691Y-78849500D01*
X81076114Y-78880201D01*
X81076112Y-78880201D01*
X81076112Y-78880202D01*
X80973387Y-78939511D01*
X80973384Y-78939513D01*
X80889513Y-79023384D01*
X80889511Y-79023387D01*
X80830203Y-79126112D01*
X80826138Y-79133152D01*
X80824195Y-79132030D01*
X80787670Y-79177356D01*
X80721376Y-79199421D01*
X80716950Y-79199500D01*
X80690691Y-79199500D01*
X80576114Y-79230201D01*
X80576112Y-79230201D01*
X80576112Y-79230202D01*
X80473387Y-79289511D01*
X80473384Y-79289513D01*
X80389513Y-79373384D01*
X80389508Y-79373390D01*
X80342102Y-79455501D01*
X80291535Y-79503717D01*
X80234715Y-79517501D01*
X80181890Y-79517501D01*
X80067313Y-79548202D01*
X80067311Y-79548202D01*
X80067311Y-79548203D01*
X79964586Y-79607512D01*
X79964583Y-79607514D01*
X79880712Y-79691385D01*
X79880708Y-79691391D01*
X79830337Y-79778636D01*
X79779770Y-79826852D01*
X79722950Y-79840636D01*
X79676333Y-79840636D01*
X79561756Y-79871337D01*
X79561754Y-79871337D01*
X79561754Y-79871338D01*
X79459029Y-79930647D01*
X79459026Y-79930649D01*
X79375155Y-80014520D01*
X79375153Y-80014523D01*
X79315844Y-80117247D01*
X79305033Y-80157595D01*
X79268667Y-80217255D01*
X79205820Y-80247783D01*
X79198742Y-80248374D01*
X79198751Y-80248439D01*
X79190694Y-80249499D01*
X79156653Y-80258620D01*
X79076114Y-80280201D01*
X79076112Y-80280201D01*
X79076112Y-80280202D01*
X78973387Y-80339511D01*
X78973384Y-80339513D01*
X78889513Y-80423384D01*
X78889511Y-80423387D01*
X78830201Y-80526112D01*
X78827371Y-80532948D01*
X78783533Y-80587354D01*
X78717240Y-80609423D01*
X78712807Y-80609502D01*
X78710689Y-80609502D01*
X78596112Y-80640203D01*
X78596110Y-80640203D01*
X78596110Y-80640204D01*
X78493385Y-80699513D01*
X78493382Y-80699515D01*
X78409511Y-80783386D01*
X78409507Y-80783392D01*
X78376973Y-80839743D01*
X78326406Y-80887959D01*
X78269586Y-80901743D01*
X78186668Y-80901743D01*
X78072091Y-80932444D01*
X78072089Y-80932444D01*
X78072089Y-80932445D01*
X77969364Y-80991754D01*
X77969361Y-80991756D01*
X77885490Y-81075627D01*
X77885488Y-81075630D01*
X77826179Y-81178355D01*
X77823100Y-81185790D01*
X77779262Y-81240196D01*
X77712969Y-81262265D01*
X77708536Y-81262344D01*
X77707117Y-81262344D01*
X77592540Y-81293045D01*
X77592538Y-81293045D01*
X77592538Y-81293046D01*
X77489813Y-81352355D01*
X77489810Y-81352357D01*
X77405939Y-81436228D01*
X77405934Y-81436234D01*
X77385121Y-81472285D01*
X77334554Y-81520501D01*
X77277734Y-81534285D01*
X77172279Y-81534285D01*
X77057702Y-81564986D01*
X77057700Y-81564986D01*
X77057700Y-81564987D01*
X76954975Y-81624296D01*
X76954972Y-81624298D01*
X76871101Y-81708169D01*
X76871099Y-81708172D01*
X76811789Y-81810899D01*
X76781088Y-81925476D01*
X76781088Y-82044094D01*
X76811789Y-82158671D01*
X76871099Y-82261398D01*
X76954975Y-82345274D01*
X77057702Y-82404584D01*
X77159485Y-82431856D01*
X77215070Y-82463949D01*
X91638940Y-96887819D01*
X91672425Y-96949142D01*
X91667441Y-97018834D01*
X91625569Y-97074767D01*
X91560105Y-97099184D01*
X91551259Y-97099500D01*
X86896544Y-97099500D01*
X86829505Y-97079815D01*
X86808863Y-97063181D01*
X82179164Y-92433482D01*
X82147071Y-92377897D01*
X82119799Y-92276114D01*
X82060489Y-92173387D01*
X81976613Y-92089511D01*
X81873886Y-92030201D01*
X81759309Y-91999500D01*
X81640691Y-91999500D01*
X81526114Y-92030201D01*
X81526112Y-92030201D01*
X81526112Y-92030202D01*
X81423387Y-92089511D01*
X81423384Y-92089513D01*
X81339513Y-92173384D01*
X81339511Y-92173387D01*
X81280201Y-92276114D01*
X81249500Y-92390691D01*
X81249500Y-92509309D01*
X81280201Y-92623886D01*
X81339511Y-92726613D01*
X81423387Y-92810489D01*
X81526114Y-92869799D01*
X81627897Y-92897071D01*
X81683482Y-92929164D01*
X81945927Y-93191609D01*
X81979412Y-93252932D01*
X81974428Y-93322624D01*
X81945927Y-93366971D01*
X81885959Y-93426938D01*
X81885957Y-93426941D01*
X81826647Y-93529668D01*
X81795946Y-93644245D01*
X81795946Y-93762863D01*
X81826647Y-93877440D01*
X81885957Y-93980167D01*
X81969833Y-94064043D01*
X82072560Y-94123353D01*
X82174343Y-94150625D01*
X82229928Y-94182718D01*
X85935029Y-97887819D01*
X85968514Y-97949142D01*
X85963530Y-98018834D01*
X85921658Y-98074767D01*
X85856194Y-98099184D01*
X85847348Y-98099500D01*
X64153856Y-98099500D01*
X64079591Y-98119399D01*
X64079590Y-98119398D01*
X64064714Y-98123385D01*
X64064709Y-98123387D01*
X63984791Y-98169527D01*
X63984786Y-98169531D01*
X61219532Y-100934785D01*
X61219528Y-100934791D01*
X61184106Y-100996142D01*
X61184107Y-100996143D01*
X61173386Y-101014711D01*
X61173386Y-101014712D01*
X61149500Y-101103856D01*
X59175500Y-101103856D01*
X59175500Y-46624500D01*
X59195185Y-46557461D01*
X59247989Y-46511706D01*
X59299500Y-46500500D01*
X101200500Y-46500500D01*
X101267539Y-46520185D01*
G37*
%TD.AperFunction*%
%TD*%
M02*
