%TF.GenerationSoftware,KiCad,Pcbnew,9.0.2-9.0.2-0~ubuntu25.04.1*%
%TF.CreationDate,2025-05-27T06:32:49+10:00*%
%TF.ProjectId,front_board,66726f6e-745f-4626-9f61-72642e6b6963,rev?*%
%TF.SameCoordinates,Original*%
%TF.FileFunction,Copper,L1,Top*%
%TF.FilePolarity,Positive*%
%FSLAX46Y46*%
G04 Gerber Fmt 4.6, Leading zero omitted, Abs format (unit mm)*
G04 Created by KiCad (PCBNEW 9.0.2-9.0.2-0~ubuntu25.04.1) date 2025-05-27 06:32:49*
%MOMM*%
%LPD*%
G01*
G04 APERTURE LIST*
G04 Aperture macros list*
%AMRoundRect*
0 Rectangle with rounded corners*
0 $1 Rounding radius*
0 $2 $3 $4 $5 $6 $7 $8 $9 X,Y pos of 4 corners*
0 Add a 4 corners polygon primitive as box body*
4,1,4,$2,$3,$4,$5,$6,$7,$8,$9,$2,$3,0*
0 Add four circle primitives for the rounded corners*
1,1,$1+$1,$2,$3*
1,1,$1+$1,$4,$5*
1,1,$1+$1,$6,$7*
1,1,$1+$1,$8,$9*
0 Add four rect primitives between the rounded corners*
20,1,$1+$1,$2,$3,$4,$5,0*
20,1,$1+$1,$4,$5,$6,$7,0*
20,1,$1+$1,$6,$7,$8,$9,0*
20,1,$1+$1,$8,$9,$2,$3,0*%
%AMFreePoly0*
4,1,14,0.800000,-1.200000,-0.787300,-1.200000,-0.791020,-1.208980,-0.800000,-1.212700,-1.600000,-1.212700,-1.608980,-1.208980,-1.612700,-1.200000,-1.612700,0.400000,-1.608980,0.408980,-1.600000,0.412700,-0.800000,0.412700,-0.800000,1.200000,0.800000,1.200000,0.800000,-1.200000,0.800000,-1.200000,$1*%
%AMFreePoly1*
4,1,14,0.800000,0.412700,1.600000,0.412700,1.608980,0.408980,1.612700,0.400000,1.612700,-1.200000,1.608980,-1.208980,1.600000,-1.212700,0.800000,-1.212700,0.791020,-1.208980,0.787300,-1.200000,-0.800000,-1.200000,-0.800000,1.200000,0.800000,1.200000,0.800000,0.412700,0.800000,0.412700,$1*%
G04 Aperture macros list end*
%TA.AperFunction,SMDPad,CuDef*%
%ADD10R,0.450000X0.450000*%
%TD*%
%TA.AperFunction,SMDPad,CuDef*%
%ADD11R,0.550000X0.550000*%
%TD*%
%TA.AperFunction,SMDPad,CuDef*%
%ADD12R,0.900000X1.400000*%
%TD*%
%TA.AperFunction,SMDPad,CuDef*%
%ADD13RoundRect,0.200000X0.200000X0.275000X-0.200000X0.275000X-0.200000X-0.275000X0.200000X-0.275000X0*%
%TD*%
%TA.AperFunction,SMDPad,CuDef*%
%ADD14R,0.300000X1.200000*%
%TD*%
%TA.AperFunction,SMDPad,CuDef*%
%ADD15FreePoly0,0.000000*%
%TD*%
%TA.AperFunction,SMDPad,CuDef*%
%ADD16FreePoly1,0.000000*%
%TD*%
%TA.AperFunction,ViaPad*%
%ADD17C,0.400000*%
%TD*%
%TA.AperFunction,ViaPad*%
%ADD18C,1.500000*%
%TD*%
%TA.AperFunction,Conductor*%
%ADD19C,0.200000*%
%TD*%
%TA.AperFunction,Conductor*%
%ADD20C,0.300000*%
%TD*%
G04 APERTURE END LIST*
D10*
%TO.P,LED9,1,DO*%
%TO.N,Net-(LED15-DI)*%
X80687500Y-130530000D03*
%TO.P,LED9,2,VDD*%
%TO.N,VLED*%
X80687500Y-131380000D03*
%TO.P,LED9,3,GND*%
%TO.N,GND*%
X79837500Y-130530000D03*
%TO.P,LED9,4,DI*%
%TO.N,Net-(LED4-DO)*%
X79837500Y-131380000D03*
%TD*%
D11*
%TO.P,SW40,1,1*%
%TO.N,PB_CALL*%
X65000000Y-117700000D03*
%TO.P,SW40,2,2*%
%TO.N,GND*%
X67650000Y-117700000D03*
%TO.P,SW40,3,3*%
%TO.N,PB_CALL*%
X65000000Y-118450000D03*
%TO.P,SW40,4,4*%
%TO.N,GND*%
X67650000Y-118450000D03*
%TD*%
%TO.P,SW24,1,1*%
%TO.N,PB_9*%
X90900000Y-125550000D03*
%TO.P,SW24,2,2*%
%TO.N,GND*%
X93550000Y-125550000D03*
%TO.P,SW24,3,3*%
%TO.N,PB_9*%
X90900000Y-126300000D03*
%TO.P,SW24,4,4*%
%TO.N,GND*%
X93550000Y-126300000D03*
%TD*%
D12*
%TO.P,SW44,1,1*%
%TO.N,PB_PWR*%
X100125000Y-61850000D03*
%TO.P,SW44,2,2*%
X100125000Y-58250000D03*
%TO.P,SW44,3,3*%
%TO.N,GND*%
X98825000Y-61850000D03*
%TO.P,SW44,4,4*%
X98825000Y-58250000D03*
%TD*%
D11*
%TO.P,SW18,1,1*%
%TO.N,PB_6*%
X90900000Y-132550000D03*
%TO.P,SW18,2,2*%
%TO.N,GND*%
X93550000Y-132550000D03*
%TO.P,SW18,3,3*%
%TO.N,PB_6*%
X90900000Y-133300000D03*
%TO.P,SW18,4,4*%
%TO.N,GND*%
X93550000Y-133300000D03*
%TD*%
D10*
%TO.P,LED8,1,DO*%
%TO.N,Net-(LED14-DI)*%
X80687500Y-123530000D03*
%TO.P,LED8,2,VDD*%
%TO.N,VLED*%
X80687500Y-124380000D03*
%TO.P,LED8,3,GND*%
%TO.N,GND*%
X79837500Y-123530000D03*
%TO.P,LED8,4,DI*%
%TO.N,Net-(LED3-DO)*%
X79837500Y-124380000D03*
%TD*%
D11*
%TO.P,SW6,1,1*%
%TO.N,PB_HASH*%
X90900000Y-146550000D03*
%TO.P,SW6,2,2*%
%TO.N,GND*%
X93550000Y-146550000D03*
%TO.P,SW6,3,3*%
%TO.N,PB_HASH*%
X90900000Y-147300000D03*
%TO.P,SW6,4,4*%
%TO.N,GND*%
X93550000Y-147300000D03*
%TD*%
%TO.P,SW4,1,1*%
%TO.N,PB_0*%
X78950000Y-146550000D03*
%TO.P,SW4,2,2*%
%TO.N,GND*%
X81600000Y-146550000D03*
%TO.P,SW4,3,3*%
%TO.N,PB_0*%
X78950000Y-147300000D03*
%TO.P,SW4,4,4*%
%TO.N,GND*%
X81600000Y-147300000D03*
%TD*%
%TO.P,SW41,1,1*%
%TO.N,PB_END_CALL*%
X92900000Y-113700000D03*
%TO.P,SW41,2,2*%
%TO.N,GND*%
X95550000Y-113700000D03*
%TO.P,SW41,3,3*%
%TO.N,PB_END_CALL*%
X92900000Y-114450000D03*
%TO.P,SW41,4,4*%
%TO.N,GND*%
X95550000Y-114450000D03*
%TD*%
%TO.P,SW39,1,1*%
%TO.N,PB_CALL*%
X65000000Y-113700000D03*
%TO.P,SW39,2,2*%
%TO.N,GND*%
X67650000Y-113700000D03*
%TO.P,SW39,3,3*%
%TO.N,PB_CALL*%
X65000000Y-114450000D03*
%TO.P,SW39,4,4*%
%TO.N,GND*%
X67650000Y-114450000D03*
%TD*%
%TO.P,SW15,1,1*%
%TO.N,PB_5*%
X78950000Y-128550000D03*
%TO.P,SW15,2,2*%
%TO.N,GND*%
X81600000Y-128550000D03*
%TO.P,SW15,3,3*%
%TO.N,PB_5*%
X78950000Y-129300000D03*
%TO.P,SW15,4,4*%
%TO.N,GND*%
X81600000Y-129300000D03*
%TD*%
D13*
%TO.P,R23,1*%
%TO.N,VLED*%
X62500000Y-104550000D03*
%TO.P,R23,2*%
%TO.N,+3.3V*%
X60850000Y-104550000D03*
%TD*%
D11*
%TO.P,SW35,1,1*%
%TO.N,PB_MENU_L*%
X65000000Y-106700000D03*
%TO.P,SW35,2,2*%
%TO.N,GND*%
X67650000Y-106700000D03*
%TO.P,SW35,3,3*%
%TO.N,PB_MENU_L*%
X65000000Y-107450000D03*
%TO.P,SW35,4,4*%
%TO.N,GND*%
X67650000Y-107450000D03*
%TD*%
%TO.P,SW22,1,1*%
%TO.N,PB_8*%
X78950000Y-125550000D03*
%TO.P,SW22,2,2*%
%TO.N,GND*%
X81600000Y-125550000D03*
%TO.P,SW22,3,3*%
%TO.N,PB_8*%
X78950000Y-126300000D03*
%TO.P,SW22,4,4*%
%TO.N,GND*%
X81600000Y-126300000D03*
%TD*%
D10*
%TO.P,LED11,1,DO*%
%TO.N,Net-(LED11-DO)*%
X80687500Y-144512500D03*
%TO.P,LED11,2,VDD*%
%TO.N,VLED*%
X80687500Y-145362500D03*
%TO.P,LED11,3,GND*%
%TO.N,GND*%
X79837500Y-144512500D03*
%TO.P,LED11,4,DI*%
%TO.N,Net-(LED11-DI)*%
X79837500Y-145362500D03*
%TD*%
D11*
%TO.P,SW19,1,1*%
%TO.N,PB_7*%
X66950000Y-121550000D03*
%TO.P,SW19,2,2*%
%TO.N,GND*%
X69600000Y-121550000D03*
%TO.P,SW19,3,3*%
%TO.N,PB_7*%
X66950000Y-122300000D03*
%TO.P,SW19,4,4*%
%TO.N,GND*%
X69600000Y-122300000D03*
%TD*%
D12*
%TO.P,SW43,1,1*%
%TO.N,PB_VOL_UP*%
X100125000Y-73350000D03*
%TO.P,SW43,2,2*%
X100125000Y-69750000D03*
%TO.P,SW43,3,3*%
%TO.N,GND*%
X98825000Y-73350000D03*
%TO.P,SW43,4,4*%
X98825000Y-69750000D03*
%TD*%
D11*
%TO.P,SW1,1,1*%
%TO.N,PB_STAR*%
X66950000Y-142550000D03*
%TO.P,SW1,2,2*%
%TO.N,GND*%
X69600000Y-142550000D03*
%TO.P,SW1,3,3*%
%TO.N,PB_STAR*%
X66950000Y-143300000D03*
%TO.P,SW1,4,4*%
%TO.N,GND*%
X69600000Y-143300000D03*
%TD*%
D10*
%TO.P,LED14,1,DO*%
%TO.N,Net-(LED14-DO)*%
X92637500Y-123530000D03*
%TO.P,LED14,2,VDD*%
%TO.N,VLED*%
X92637500Y-124380000D03*
%TO.P,LED14,3,GND*%
%TO.N,GND*%
X91787500Y-123530000D03*
%TO.P,LED14,4,DI*%
%TO.N,Net-(LED14-DI)*%
X91787500Y-124380000D03*
%TD*%
%TO.P,LED17,1,DO*%
%TO.N,Net-(LED17-DO)*%
X92637500Y-144530000D03*
%TO.P,LED17,2,VDD*%
%TO.N,VLED*%
X92637500Y-145380000D03*
%TO.P,LED17,3,GND*%
%TO.N,GND*%
X91787500Y-144530000D03*
%TO.P,LED17,4,DI*%
%TO.N,Net-(LED11-DO)*%
X91787500Y-145380000D03*
%TD*%
D11*
%TO.P,SW8,1,1*%
%TO.N,PB_1*%
X66950000Y-139550000D03*
%TO.P,SW8,2,2*%
%TO.N,GND*%
X69600000Y-139550000D03*
%TO.P,SW8,3,3*%
%TO.N,PB_1*%
X66950000Y-140300000D03*
%TO.P,SW8,4,4*%
%TO.N,GND*%
X69600000Y-140300000D03*
%TD*%
D10*
%TO.P,LED16,1,DO*%
%TO.N,Net-(LED16-DO)*%
X92637500Y-137530000D03*
%TO.P,LED16,2,VDD*%
%TO.N,VLED*%
X92637500Y-138380000D03*
%TO.P,LED16,3,GND*%
%TO.N,GND*%
X91787500Y-137530000D03*
%TO.P,LED16,4,DI*%
%TO.N,Net-(LED10-DO)*%
X91787500Y-138380000D03*
%TD*%
D11*
%TO.P,SW31,1,1*%
%TO.N,PB_DPAD_DOWN*%
X78950000Y-118350000D03*
%TO.P,SW31,2,2*%
%TO.N,GND*%
X81600000Y-118350000D03*
%TO.P,SW31,3,3*%
%TO.N,PB_DPAD_DOWN*%
X78950000Y-119100000D03*
%TO.P,SW31,4,4*%
%TO.N,GND*%
X81600000Y-119100000D03*
%TD*%
D10*
%TO.P,LED2,1,DO*%
%TO.N,Net-(LED2-DO)*%
X66737500Y-115680000D03*
%TO.P,LED2,2,VDD*%
%TO.N,VLED*%
X66737500Y-116530000D03*
%TO.P,LED2,3,GND*%
%TO.N,GND*%
X65887500Y-115680000D03*
%TO.P,LED2,4,DI*%
%TO.N,Net-(LED14-DO)*%
X65887500Y-116530000D03*
%TD*%
%TO.P,LED1,1,DO*%
%TO.N,Net-(LED1-DO)*%
X66737500Y-108680000D03*
%TO.P,LED1,2,VDD*%
%TO.N,VLED*%
X66737500Y-109530000D03*
%TO.P,LED1,3,GND*%
%TO.N,GND*%
X65887500Y-108680000D03*
%TO.P,LED1,4,DI*%
%TO.N,Net-(LED1-DI)*%
X65887500Y-109530000D03*
%TD*%
%TO.P,LED13,1,DO*%
%TO.N,Net-(LED1-DI)*%
X94637500Y-115680000D03*
%TO.P,LED13,2,VDD*%
%TO.N,VLED*%
X94637500Y-116530000D03*
%TO.P,LED13,3,GND*%
%TO.N,GND*%
X93787500Y-115680000D03*
%TO.P,LED13,4,DI*%
%TO.N,Net-(LED13-DI)*%
X93787500Y-116530000D03*
%TD*%
D11*
%TO.P,SW9,1,1*%
%TO.N,PB_2*%
X78950000Y-135550000D03*
%TO.P,SW9,2,2*%
%TO.N,GND*%
X81600000Y-135550000D03*
%TO.P,SW9,3,3*%
%TO.N,PB_2*%
X78950000Y-136300000D03*
%TO.P,SW9,4,4*%
%TO.N,GND*%
X81600000Y-136300000D03*
%TD*%
%TO.P,SW5,1,1*%
%TO.N,PB_HASH*%
X90900000Y-142550000D03*
%TO.P,SW5,2,2*%
%TO.N,GND*%
X93550000Y-142550000D03*
%TO.P,SW5,3,3*%
%TO.N,PB_HASH*%
X90900000Y-143300000D03*
%TO.P,SW5,4,4*%
%TO.N,GND*%
X93550000Y-143300000D03*
%TD*%
%TO.P,SW36,1,1*%
%TO.N,PB_MENU_L*%
X65000000Y-110700000D03*
%TO.P,SW36,2,2*%
%TO.N,GND*%
X67650000Y-110700000D03*
%TO.P,SW36,3,3*%
%TO.N,PB_MENU_L*%
X65000000Y-111450000D03*
%TO.P,SW36,4,4*%
%TO.N,GND*%
X67650000Y-111450000D03*
%TD*%
%TO.P,SW16,1,1*%
%TO.N,PB_5*%
X78950000Y-132550000D03*
%TO.P,SW16,2,2*%
%TO.N,GND*%
X81600000Y-132550000D03*
%TO.P,SW16,3,3*%
%TO.N,PB_5*%
X78950000Y-133300000D03*
%TO.P,SW16,4,4*%
%TO.N,GND*%
X81600000Y-133300000D03*
%TD*%
%TO.P,SW23,1,1*%
%TO.N,PB_9*%
X90900000Y-121550000D03*
%TO.P,SW23,2,2*%
%TO.N,GND*%
X93550000Y-121550000D03*
%TO.P,SW23,3,3*%
%TO.N,PB_9*%
X90900000Y-122300000D03*
%TO.P,SW23,4,4*%
%TO.N,GND*%
X93550000Y-122300000D03*
%TD*%
%TO.P,SW42,1,1*%
%TO.N,PB_END_CALL*%
X92900000Y-117700000D03*
%TO.P,SW42,2,2*%
%TO.N,GND*%
X95550000Y-117700000D03*
%TO.P,SW42,3,3*%
%TO.N,PB_END_CALL*%
X92900000Y-118450000D03*
%TO.P,SW42,4,4*%
%TO.N,GND*%
X95550000Y-118450000D03*
%TD*%
%TO.P,SW37,1,1*%
%TO.N,PB_MENU_R*%
X92900000Y-106700000D03*
%TO.P,SW37,2,2*%
%TO.N,GND*%
X95550000Y-106700000D03*
%TO.P,SW37,3,3*%
%TO.N,PB_MENU_R*%
X92900000Y-107450000D03*
%TO.P,SW37,4,4*%
%TO.N,GND*%
X95550000Y-107450000D03*
%TD*%
D10*
%TO.P,LED15,1,DO*%
%TO.N,Net-(LED15-DO)*%
X92637500Y-130530000D03*
%TO.P,LED15,2,VDD*%
%TO.N,VLED*%
X92637500Y-131380000D03*
%TO.P,LED15,3,GND*%
%TO.N,GND*%
X91787500Y-130530000D03*
%TO.P,LED15,4,DI*%
%TO.N,Net-(LED15-DI)*%
X91787500Y-131380000D03*
%TD*%
D11*
%TO.P,SW34,1,1*%
%TO.N,PB_DPAD_SELECT*%
X78950000Y-114200000D03*
%TO.P,SW34,2,2*%
%TO.N,GND*%
X81600000Y-114200000D03*
%TO.P,SW34,3,3*%
%TO.N,PB_DPAD_SELECT*%
X78950000Y-114950000D03*
%TO.P,SW34,4,4*%
%TO.N,GND*%
X81600000Y-114950000D03*
%TD*%
D10*
%TO.P,LED12,1,DO*%
%TO.N,unconnected-(LED12-DO-Pad1)*%
X94637500Y-108680000D03*
%TO.P,LED12,2,VDD*%
%TO.N,VLED*%
X94637500Y-109530000D03*
%TO.P,LED12,3,GND*%
%TO.N,GND*%
X93787500Y-108680000D03*
%TO.P,LED12,4,DI*%
%TO.N,Net-(LED1-DO)*%
X93787500Y-109530000D03*
%TD*%
D14*
%TO.P,J9,1,GND*%
%TO.N,GND*%
X91250000Y-78152010D03*
%TO.P,J9,2,VCI*%
%TO.N,+3.3V*%
X90750000Y-78152010D03*
%TO.P,J9,3,IOVCC*%
X90250000Y-78152010D03*
%TO.P,J9,4,IM2*%
%TO.N,GND*%
X89750020Y-78152010D03*
%TO.P,J9,5,IM1*%
X89250020Y-78152010D03*
%TO.P,J9,6,IM0*%
%TO.N,+3.3V*%
X88750020Y-78152010D03*
%TO.P,J9,7,RESET*%
%TO.N,DISP_RES*%
X88250020Y-78152010D03*
%TO.P,J9,8,CS*%
%TO.N,DISP_CS*%
X87750020Y-78152010D03*
%TO.P,J9,9,DC*%
%TO.N,DISP_DC*%
X87250020Y-78152010D03*
%TO.P,J9,10,WR*%
%TO.N,DISP_WR*%
X86750020Y-78152010D03*
%TO.P,J9,11,RD*%
%TO.N,DISP_RD*%
X86250020Y-78152010D03*
%TO.P,J9,12,VSYNC*%
%TO.N,GND*%
X85750020Y-78152010D03*
%TO.P,J9,13,HSYNC*%
X85250020Y-78152010D03*
%TO.P,J9,14,ENABLE*%
X84750020Y-78152010D03*
%TO.P,J9,15,DOTCLK*%
X84250020Y-78152010D03*
%TO.P,J9,16,SDA*%
X83750020Y-78152010D03*
%TO.P,J9,17,DB0*%
%TO.N,DISP_DB0*%
X83250020Y-78152010D03*
%TO.P,J9,18,DB1*%
%TO.N,DISP_DB1*%
X82750020Y-78152010D03*
%TO.P,J9,19,DB2*%
%TO.N,DISP_DB2*%
X82250020Y-78152010D03*
%TO.P,J9,20,DB3*%
%TO.N,DISP_DB3*%
X81750020Y-78152010D03*
%TO.P,J9,21,DB4*%
%TO.N,DISP_DB4*%
X81250020Y-78152010D03*
%TO.P,J9,22,DB5*%
%TO.N,DISP_DB5*%
X80750022Y-78152010D03*
%TO.P,J9,23,DB6*%
%TO.N,DISP_DB6*%
X80250022Y-78152010D03*
%TO.P,J9,24,DB7*%
%TO.N,DISP_DB7*%
X79750022Y-78152010D03*
%TO.P,J9,25,DB8*%
%TO.N,DISP_DB8*%
X79250022Y-78152010D03*
%TO.P,J9,26,DB9*%
%TO.N,DISP_DB9*%
X78750020Y-78152010D03*
%TO.P,J9,27,DB10*%
%TO.N,DISP_DB10*%
X78250020Y-78152010D03*
%TO.P,J9,28,DB11*%
%TO.N,DISP_DB11*%
X77750020Y-78152010D03*
%TO.P,J9,29,DB12*%
%TO.N,DISP_DB12*%
X77250020Y-78152010D03*
%TO.P,J9,30,DB13*%
%TO.N,DISP_DB13*%
X76750020Y-78152010D03*
%TO.P,J9,31,DB14*%
%TO.N,DISP_DB14*%
X76250020Y-78152010D03*
%TO.P,J9,32,DB15*%
%TO.N,DISP_DB15*%
X75750020Y-78152010D03*
%TO.P,J9,33,DB16*%
%TO.N,unconnected-(J9-DB16-Pad33)*%
X75250020Y-78152010D03*
%TO.P,J9,34,DB17*%
%TO.N,unconnected-(J9-DB17-Pad34)*%
X74750020Y-78152010D03*
%TO.P,J9,35,SDO*%
%TO.N,unconnected-(J9-SDO-Pad35)*%
X74250020Y-78152010D03*
%TO.P,J9,36,LEDA*%
%TO.N,DISP_LEDA*%
X73750020Y-78152010D03*
%TO.P,J9,37,LEDK1*%
%TO.N,DISP_LEDK*%
X73250020Y-78152010D03*
%TO.P,J9,38,LEDK2*%
X72750020Y-78152010D03*
%TO.P,J9,39,LEDK3*%
X72250020Y-78152010D03*
%TO.P,J9,40,LEDK4*%
X71750020Y-78152010D03*
%TO.P,J9,41,XR(NC)*%
%TO.N,unconnected-(J9-XR(NC)-Pad41)*%
X71250020Y-78152010D03*
%TO.P,J9,42,YU(NC)*%
%TO.N,unconnected-(J9-YU(NC)-Pad42)*%
X70750020Y-78152010D03*
%TO.P,J9,43,XL(NC)*%
%TO.N,unconnected-(J9-XL(NC)-Pad43)*%
X70250020Y-78152010D03*
%TO.P,J9,44,YD(NC)*%
%TO.N,unconnected-(J9-YD(NC)-Pad44)*%
X69750000Y-78152010D03*
%TO.P,J9,45,GND*%
%TO.N,GND*%
X69250000Y-78152010D03*
D15*
%TO.P,J9,P1*%
X67550000Y-80851600D03*
D16*
%TO.P,J9,P2*%
X92950000Y-80850000D03*
%TD*%
D11*
%TO.P,SW12,1,1*%
%TO.N,PB_3*%
X90900000Y-139550000D03*
%TO.P,SW12,2,2*%
%TO.N,GND*%
X93550000Y-139550000D03*
%TO.P,SW12,3,3*%
%TO.N,PB_3*%
X90900000Y-140300000D03*
%TO.P,SW12,4,4*%
%TO.N,GND*%
X93550000Y-140300000D03*
%TD*%
%TO.P,SW14,1,1*%
%TO.N,PB_4*%
X66950000Y-132550000D03*
%TO.P,SW14,2,2*%
%TO.N,GND*%
X69600000Y-132550000D03*
%TO.P,SW14,3,3*%
%TO.N,PB_4*%
X66950000Y-133300000D03*
%TO.P,SW14,4,4*%
%TO.N,GND*%
X69600000Y-133300000D03*
%TD*%
%TO.P,SW17,1,1*%
%TO.N,PB_6*%
X90900000Y-128550000D03*
%TO.P,SW17,2,2*%
%TO.N,GND*%
X93550000Y-128550000D03*
%TO.P,SW17,3,3*%
%TO.N,PB_6*%
X90900000Y-129300000D03*
%TO.P,SW17,4,4*%
%TO.N,GND*%
X93550000Y-129300000D03*
%TD*%
D10*
%TO.P,LED4,1,DO*%
%TO.N,Net-(LED4-DO)*%
X68687500Y-130530000D03*
%TO.P,LED4,2,VDD*%
%TO.N,VLED*%
X68687500Y-131380000D03*
%TO.P,LED4,3,GND*%
%TO.N,GND*%
X67837500Y-130530000D03*
%TO.P,LED4,4,DI*%
%TO.N,Net-(LED16-DO)*%
X67837500Y-131380000D03*
%TD*%
D11*
%TO.P,SW20,1,1*%
%TO.N,PB_7*%
X66950000Y-125550000D03*
%TO.P,SW20,2,2*%
%TO.N,GND*%
X69600000Y-125550000D03*
%TO.P,SW20,3,3*%
%TO.N,PB_7*%
X66950000Y-126300000D03*
%TO.P,SW20,4,4*%
%TO.N,GND*%
X69600000Y-126300000D03*
%TD*%
%TO.P,SW38,1,1*%
%TO.N,PB_MENU_R*%
X92900000Y-110700000D03*
%TO.P,SW38,2,2*%
%TO.N,GND*%
X95550000Y-110700000D03*
%TO.P,SW38,3,3*%
%TO.N,PB_MENU_R*%
X92900000Y-111450000D03*
%TO.P,SW38,4,4*%
%TO.N,GND*%
X95550000Y-111450000D03*
%TD*%
%TO.P,SW29,1,1*%
%TO.N,PB_DPAD_RIGHT*%
X86950000Y-111300000D03*
%TO.P,SW29,2,2*%
%TO.N,GND*%
X86950000Y-113950000D03*
%TO.P,SW29,3,3*%
%TO.N,PB_DPAD_RIGHT*%
X86200000Y-111300000D03*
%TO.P,SW29,4,4*%
%TO.N,GND*%
X86200000Y-113950000D03*
%TD*%
D10*
%TO.P,LED7,1,DO*%
%TO.N,Net-(LED13-DI)*%
X80687500Y-112312500D03*
%TO.P,LED7,2,VDD*%
%TO.N,VLED*%
X80687500Y-113162500D03*
%TO.P,LED7,3,GND*%
%TO.N,GND*%
X79837500Y-112312500D03*
%TO.P,LED7,4,DI*%
%TO.N,Net-(LED2-DO)*%
X79837500Y-113162500D03*
%TD*%
D11*
%TO.P,SW21,1,1*%
%TO.N,PB_8*%
X78950000Y-121550000D03*
%TO.P,SW21,2,2*%
%TO.N,GND*%
X81600000Y-121550000D03*
%TO.P,SW21,3,3*%
%TO.N,PB_8*%
X78950000Y-122300000D03*
%TO.P,SW21,4,4*%
%TO.N,GND*%
X81600000Y-122300000D03*
%TD*%
D12*
%TO.P,SW45,1,1*%
%TO.N,PB_VOL_DOWN*%
X100175000Y-86350000D03*
%TO.P,SW45,2,2*%
X100175000Y-82750000D03*
%TO.P,SW45,3,3*%
%TO.N,GND*%
X98875000Y-86350000D03*
%TO.P,SW45,4,4*%
X98875000Y-82750000D03*
%TD*%
D10*
%TO.P,LED6,1,DO*%
%TO.N,Net-(LED11-DI)*%
X68687500Y-144512500D03*
%TO.P,LED6,2,VDD*%
%TO.N,VLED*%
X68687500Y-145362500D03*
%TO.P,LED6,3,GND*%
%TO.N,GND*%
X67837500Y-144512500D03*
%TO.P,LED6,4,DI*%
%TO.N,LED_DATA*%
X67837500Y-145362500D03*
%TD*%
D11*
%TO.P,SW10,1,1*%
%TO.N,PB_2*%
X78950000Y-139550000D03*
%TO.P,SW10,2,2*%
%TO.N,GND*%
X81600000Y-139550000D03*
%TO.P,SW10,3,3*%
%TO.N,PB_2*%
X78950000Y-140300000D03*
%TO.P,SW10,4,4*%
%TO.N,GND*%
X81600000Y-140300000D03*
%TD*%
%TO.P,SW13,1,1*%
%TO.N,PB_4*%
X66950000Y-128550000D03*
%TO.P,SW13,2,2*%
%TO.N,GND*%
X69600000Y-128550000D03*
%TO.P,SW13,3,3*%
%TO.N,PB_4*%
X66950000Y-129300000D03*
%TO.P,SW13,4,4*%
%TO.N,GND*%
X69600000Y-129300000D03*
%TD*%
%TO.P,SW3,1,1*%
%TO.N,PB_0*%
X78950000Y-142550000D03*
%TO.P,SW3,2,2*%
%TO.N,GND*%
X81600000Y-142550000D03*
%TO.P,SW3,3,3*%
%TO.N,PB_0*%
X78950000Y-143300000D03*
%TO.P,SW3,4,4*%
%TO.N,GND*%
X81600000Y-143300000D03*
%TD*%
D10*
%TO.P,LED5,1,DO*%
%TO.N,Net-(LED10-DI)*%
X68687500Y-137530000D03*
%TO.P,LED5,2,VDD*%
%TO.N,VLED*%
X68687500Y-138380000D03*
%TO.P,LED5,3,GND*%
%TO.N,GND*%
X67837500Y-137530000D03*
%TO.P,LED5,4,DI*%
%TO.N,Net-(LED17-DO)*%
X67837500Y-138380000D03*
%TD*%
D11*
%TO.P,SW27,1,1*%
%TO.N,PB_DPAD_UP*%
X78950000Y-106000000D03*
%TO.P,SW27,2,2*%
%TO.N,GND*%
X81600000Y-106000000D03*
%TO.P,SW27,3,3*%
%TO.N,PB_DPAD_UP*%
X78950000Y-106750000D03*
%TO.P,SW27,4,4*%
%TO.N,GND*%
X81600000Y-106750000D03*
%TD*%
%TO.P,SW2,1,1*%
%TO.N,PB_STAR*%
X66950000Y-146550000D03*
%TO.P,SW2,2,2*%
%TO.N,GND*%
X69600000Y-146550000D03*
%TO.P,SW2,3,3*%
%TO.N,PB_STAR*%
X66950000Y-147300000D03*
%TO.P,SW2,4,4*%
%TO.N,GND*%
X69600000Y-147300000D03*
%TD*%
%TO.P,SW7,1,1*%
%TO.N,PB_1*%
X66950000Y-135550000D03*
%TO.P,SW7,2,2*%
%TO.N,GND*%
X69600000Y-135550000D03*
%TO.P,SW7,3,3*%
%TO.N,PB_1*%
X66950000Y-136300000D03*
%TO.P,SW7,4,4*%
%TO.N,GND*%
X69600000Y-136300000D03*
%TD*%
%TO.P,SW11,1,1*%
%TO.N,PB_3*%
X90900000Y-135550000D03*
%TO.P,SW11,2,2*%
%TO.N,GND*%
X93550000Y-135550000D03*
%TO.P,SW11,3,3*%
%TO.N,PB_3*%
X90900000Y-136300000D03*
%TO.P,SW11,4,4*%
%TO.N,GND*%
X93550000Y-136300000D03*
%TD*%
%TO.P,SW25,1,1*%
%TO.N,PB_DPAD_LEFT*%
X73650000Y-113900000D03*
%TO.P,SW25,2,2*%
%TO.N,GND*%
X73650000Y-111250000D03*
%TO.P,SW25,3,3*%
%TO.N,PB_DPAD_LEFT*%
X74400000Y-113900000D03*
%TO.P,SW25,4,4*%
%TO.N,GND*%
X74400000Y-111250000D03*
%TD*%
D10*
%TO.P,LED10,1,DO*%
%TO.N,Net-(LED10-DO)*%
X80687500Y-137530000D03*
%TO.P,LED10,2,VDD*%
%TO.N,VLED*%
X80687500Y-138380000D03*
%TO.P,LED10,3,GND*%
%TO.N,GND*%
X79837500Y-137530000D03*
%TO.P,LED10,4,DI*%
%TO.N,Net-(LED10-DI)*%
X79837500Y-138380000D03*
%TD*%
D11*
%TO.P,SW33,1,1*%
%TO.N,PB_DPAD_SELECT*%
X78950000Y-110200000D03*
%TO.P,SW33,2,2*%
%TO.N,GND*%
X81600000Y-110200000D03*
%TO.P,SW33,3,3*%
%TO.N,PB_DPAD_SELECT*%
X78950000Y-110950000D03*
%TO.P,SW33,4,4*%
%TO.N,GND*%
X81600000Y-110950000D03*
%TD*%
D10*
%TO.P,LED3,1,DO*%
%TO.N,Net-(LED3-DO)*%
X68687500Y-123530000D03*
%TO.P,LED3,2,VDD*%
%TO.N,VLED*%
X68687500Y-124380000D03*
%TO.P,LED3,3,GND*%
%TO.N,GND*%
X67837500Y-123530000D03*
%TO.P,LED3,4,DI*%
%TO.N,Net-(LED15-DO)*%
X67837500Y-124380000D03*
%TD*%
D17*
%TO.N,DISP_LEDK*%
X72750020Y-100050000D03*
%TO.N,PB_STAR*%
X67550000Y-143050000D03*
%TO.N,PB_0*%
X79500000Y-146900000D03*
X79450000Y-142950000D03*
%TO.N,PB_HASH*%
X91500000Y-147000000D03*
X91450000Y-142950000D03*
X93059585Y-108203556D03*
X98950000Y-129150000D03*
%TO.N,PB_1*%
X67400000Y-139950000D03*
X83600000Y-106400000D03*
X91350000Y-107680000D03*
%TO.N,PB_2*%
X90752308Y-107302308D03*
X83346985Y-108546985D03*
X79500000Y-139950000D03*
X79500000Y-135900000D03*
%TO.N,PB_3*%
X93800000Y-107250000D03*
X91400000Y-135950000D03*
X99400000Y-127450000D03*
X91400000Y-139950000D03*
%TO.N,PB_4*%
X77250000Y-108500000D03*
X90000000Y-107100000D03*
X67450000Y-133400000D03*
%TO.N,PB_5*%
X79700000Y-128950000D03*
X82796367Y-107808000D03*
X89150000Y-106500000D03*
X79700000Y-132900000D03*
%TO.N,PB_6*%
X94200000Y-105900000D03*
X99820000Y-126264663D03*
X91500000Y-128900000D03*
X91550000Y-132950000D03*
%TO.N,PB_7*%
X67600000Y-126200000D03*
X91150000Y-105400000D03*
X76300000Y-107600000D03*
%TO.N,PB_8*%
X79600000Y-125950000D03*
X82350000Y-107399000D03*
X79600000Y-121900000D03*
X88750000Y-106150000D03*
%TO.N,PB_9*%
X94250000Y-104450000D03*
X91450000Y-121950000D03*
X91450000Y-125900000D03*
X100350000Y-125150000D03*
%TO.N,PB_DPAD_LEFT*%
X93650000Y-114750000D03*
X88050000Y-112200000D03*
X74400000Y-113400000D03*
%TO.N,PB_DPAD_UP*%
X83550000Y-106950000D03*
%TO.N,PB_DPAD_RIGHT*%
X94200000Y-114400000D03*
%TO.N,PB_DPAD_DOWN*%
X88850000Y-116000000D03*
%TO.N,PB_DPAD_SELECT*%
X79500000Y-110600000D03*
X91750000Y-114370000D03*
X79417500Y-114550000D03*
%TO.N,PB_MENU_L*%
X65000000Y-105750000D03*
%TO.N,PB_MENU_R*%
X91063969Y-109030000D03*
X92550000Y-108100000D03*
X93550000Y-100400000D03*
%TO.N,PB_CALL*%
X65550000Y-118250000D03*
%TO.N,PB_END_CALL*%
X92250000Y-117450000D03*
X94300000Y-112420000D03*
X92250000Y-114814000D03*
%TO.N,PB_VOL_UP*%
X94000000Y-98950000D03*
%TO.N,PB_PWR*%
X93399997Y-98950000D03*
%TO.N,PB_VOL_DOWN*%
X94350000Y-99450000D03*
%TO.N,VLED*%
X67300000Y-116400000D03*
X64300000Y-109150000D03*
X65950000Y-138150000D03*
X66200000Y-144800000D03*
X64500000Y-116300000D03*
X64900000Y-123950000D03*
X69250000Y-145400000D03*
X69300000Y-131350000D03*
X69300000Y-138350000D03*
X65050000Y-131050000D03*
X67400000Y-109500000D03*
X69550000Y-124400000D03*
%TO.N,GND*%
X91350000Y-115800000D03*
X86300000Y-144700000D03*
X89350000Y-95850000D03*
X78050000Y-120100000D03*
X90250000Y-99650000D03*
X70150000Y-99975000D03*
D18*
X99125000Y-48700382D03*
D17*
X96150000Y-86100000D03*
X80550000Y-107625000D03*
X89625000Y-125575000D03*
X69250000Y-117550000D03*
X89825000Y-122400000D03*
X96575000Y-87625000D03*
X67650000Y-143850000D03*
X80375000Y-143350000D03*
X80525000Y-115950000D03*
X79450000Y-97800000D03*
X77150000Y-111100000D03*
X91475000Y-96900000D03*
X84875000Y-81750000D03*
X75050000Y-130700000D03*
X92975000Y-89725000D03*
X100500000Y-130200000D03*
X87700000Y-115250000D03*
X89475000Y-129325000D03*
X89575000Y-136175000D03*
X76050000Y-123550000D03*
X80600000Y-125875000D03*
X80650000Y-136300000D03*
X89875000Y-146600000D03*
X80475000Y-139875000D03*
D18*
X99124618Y-147450000D03*
D17*
X80450000Y-109850000D03*
X70550000Y-112650000D03*
X75200000Y-137700000D03*
X93850000Y-118050000D03*
X98350000Y-126750000D03*
X86500000Y-130700000D03*
X86500000Y-137700000D03*
X80550000Y-122425000D03*
X79475000Y-103075000D03*
X65800000Y-99400000D03*
X96950000Y-126750000D03*
X80650000Y-129425000D03*
X90050000Y-117500000D03*
X89800000Y-143350000D03*
X89475000Y-86125000D03*
X89250000Y-123700000D03*
D18*
X61375382Y-48700000D03*
D17*
X92550000Y-99150000D03*
X85250000Y-119000000D03*
X84750000Y-113650000D03*
D18*
X61375000Y-147449618D03*
D17*
X80325000Y-146825000D03*
X74950000Y-144750000D03*
X84625000Y-90575000D03*
X80650000Y-133100000D03*
X83900000Y-110250000D03*
X89650000Y-132475000D03*
X76825000Y-114975000D03*
%TO.N,+3.3V*%
X94100000Y-120050000D03*
%TO.N,DISP_RES*%
X85800000Y-104900000D03*
%TO.N,DISP_CS*%
X87750021Y-104370000D03*
%TO.N,DISP_DC*%
X87250000Y-102900000D03*
%TO.N,DISP_WR*%
X86750000Y-104370000D03*
%TO.N,DISP_RD*%
X86229997Y-104370000D03*
%TO.N,DISP_DB0*%
X85750000Y-102750000D03*
%TO.N,DISP_DB1*%
X85475000Y-103325000D03*
%TO.N,DISP_DB2*%
X82246446Y-93703554D03*
%TO.N,DISP_DB3*%
X81700000Y-92450000D03*
%TO.N,DISP_DB4*%
X81250000Y-79300000D03*
%TO.N,DISP_DB5*%
X80750000Y-79650000D03*
%TO.N,DISP_DB6*%
X80241199Y-79968001D03*
%TO.N,DISP_DB7*%
X79735642Y-80291136D03*
%TO.N,DISP_DB8*%
X79250000Y-80700000D03*
%TO.N,DISP_DB9*%
X78769998Y-81060002D03*
%TO.N,DISP_DB10*%
X78245977Y-81352243D03*
%TO.N,DISP_DB11*%
X77766426Y-81712844D03*
%TO.N,DISP_DB12*%
X77231588Y-81984785D03*
%TO.N,DISP_DB13*%
X77150000Y-99600000D03*
%TO.N,DISP_DB14*%
X76700000Y-100050000D03*
%TO.N,DISP_DB15*%
X76350000Y-100550000D03*
%TO.N,DISP_LEDA*%
X73750020Y-101750000D03*
%TO.N,LED_DATA*%
X67800000Y-146150000D03*
%TD*%
D19*
%TO.N,DISP_LEDK*%
X71750020Y-78152010D02*
X73250020Y-78152010D01*
D20*
X72750020Y-100050000D02*
X72750020Y-78152010D01*
D19*
%TO.N,Net-(LED1-DO)*%
X90891000Y-108609000D02*
X91259000Y-108609000D01*
X91259000Y-108609000D02*
X92180000Y-109530000D01*
X67057500Y-109000000D02*
X90500000Y-109000000D01*
X66737500Y-108680000D02*
X67057500Y-109000000D01*
X90500000Y-109000000D02*
X90891000Y-108609000D01*
X92180000Y-109530000D02*
X93787500Y-109530000D01*
%TO.N,Net-(LED1-DI)*%
X94637500Y-115680000D02*
X94191500Y-115234000D01*
X89837962Y-115234000D02*
X87032962Y-112429000D01*
X78808000Y-111800000D02*
X76984000Y-109976000D01*
X94191500Y-115234000D02*
X89837962Y-115234000D01*
X81729000Y-112429000D02*
X81100000Y-111800000D01*
X87032962Y-112429000D02*
X81729000Y-112429000D01*
X81100000Y-111800000D02*
X78808000Y-111800000D01*
X76984000Y-109976000D02*
X66333500Y-109976000D01*
X66333500Y-109976000D02*
X65887500Y-109530000D01*
%TO.N,Net-(LED2-DO)*%
X79837500Y-114962500D02*
X79837500Y-113162500D01*
X79120000Y-115680000D02*
X79837500Y-114962500D01*
X66737500Y-115680000D02*
X79120000Y-115680000D01*
%TO.N,Net-(LED14-DO)*%
X92191500Y-123084000D02*
X92637500Y-123530000D01*
X78742000Y-123084000D02*
X92191500Y-123084000D01*
X72700500Y-117042500D02*
X78742000Y-123084000D01*
X65887500Y-116530000D02*
X66400000Y-117042500D01*
X66400000Y-117042500D02*
X72700500Y-117042500D01*
%TO.N,Net-(LED15-DO)*%
X67837500Y-125795500D02*
X72126000Y-130084000D01*
X92191500Y-130084000D02*
X92637500Y-130530000D01*
X67837500Y-124380000D02*
X67837500Y-125795500D01*
X72126000Y-130084000D02*
X92191500Y-130084000D01*
%TO.N,Net-(LED3-DO)*%
X69780000Y-123530000D02*
X70650000Y-124400000D01*
X70650000Y-124400000D02*
X79817500Y-124400000D01*
X79817500Y-124400000D02*
X79837500Y-124380000D01*
X68687500Y-123530000D02*
X69780000Y-123530000D01*
%TO.N,Net-(LED4-DO)*%
X68687500Y-130530000D02*
X69380000Y-130530000D01*
X70250000Y-131400000D02*
X79817500Y-131400000D01*
X69380000Y-130530000D02*
X70250000Y-131400000D01*
X79817500Y-131400000D02*
X79837500Y-131380000D01*
%TO.N,Net-(LED16-DO)*%
X67837500Y-131380000D02*
X67837500Y-132795500D01*
X92191500Y-137084000D02*
X92637500Y-137530000D01*
X72126000Y-137084000D02*
X92191500Y-137084000D01*
X67837500Y-132795500D02*
X72126000Y-137084000D01*
%TO.N,Net-(LED10-DI)*%
X71500000Y-138400000D02*
X79817500Y-138400000D01*
X70630000Y-137530000D02*
X71500000Y-138400000D01*
X79817500Y-138400000D02*
X79837500Y-138380000D01*
X68687500Y-137530000D02*
X70630000Y-137530000D01*
%TO.N,Net-(LED17-DO)*%
X67837500Y-138380000D02*
X67837500Y-142529500D01*
X67837500Y-142529500D02*
X69374500Y-144066500D01*
X69374500Y-144066500D02*
X92174000Y-144066500D01*
X92174000Y-144066500D02*
X92637500Y-144530000D01*
%TO.N,Net-(LED11-DI)*%
X68687500Y-144512500D02*
X69762500Y-144512500D01*
X69762500Y-144512500D02*
X70650000Y-145400000D01*
X70650000Y-145400000D02*
X79800000Y-145400000D01*
X79800000Y-145400000D02*
X79837500Y-145362500D01*
%TO.N,Net-(LED13-DI)*%
X90680000Y-116530000D02*
X93787500Y-116530000D01*
X86900000Y-112750000D02*
X90680000Y-116530000D01*
X80687500Y-112312500D02*
X81125000Y-112750000D01*
X81125000Y-112750000D02*
X86900000Y-112750000D01*
%TO.N,Net-(LED14-DI)*%
X80687500Y-123530000D02*
X81557500Y-124400000D01*
X81557500Y-124400000D02*
X91767500Y-124400000D01*
X91767500Y-124400000D02*
X91787500Y-124380000D01*
%TO.N,Net-(LED15-DI)*%
X91767500Y-131400000D02*
X91787500Y-131380000D01*
X81557500Y-131400000D02*
X91767500Y-131400000D01*
X80687500Y-130530000D02*
X81557500Y-131400000D01*
%TO.N,Net-(LED10-DO)*%
X80687500Y-137530000D02*
X81557500Y-138400000D01*
X81557500Y-138400000D02*
X91767500Y-138400000D01*
X91767500Y-138400000D02*
X91787500Y-138380000D01*
%TO.N,Net-(LED11-DO)*%
X80687500Y-144512500D02*
X81575000Y-145400000D01*
X91767500Y-145400000D02*
X91787500Y-145380000D01*
X81575000Y-145400000D02*
X91767500Y-145400000D01*
%TO.N,PB_STAR*%
X66950000Y-147300000D02*
X66950000Y-142900000D01*
X67550000Y-143050000D02*
X67100000Y-143050000D01*
X66950000Y-147300000D02*
X66950000Y-146550000D01*
X66950000Y-142900000D02*
X66950000Y-142550000D01*
X67100000Y-143050000D02*
X66950000Y-142900000D01*
%TO.N,PB_0*%
X78950000Y-143300000D02*
X78950000Y-142900000D01*
X78950000Y-147300000D02*
X78950000Y-146950000D01*
X78950000Y-146950000D02*
X78950000Y-146550000D01*
X78950000Y-146950000D02*
X79450000Y-146950000D01*
X78950000Y-142900000D02*
X78950000Y-142550000D01*
X79450000Y-142950000D02*
X79000000Y-142950000D01*
X79450000Y-146950000D02*
X79500000Y-146900000D01*
X79000000Y-142950000D02*
X78950000Y-142900000D01*
%TO.N,PB_HASH*%
X93096444Y-108203556D02*
X93600000Y-107700000D01*
X97579000Y-126475616D02*
X97579000Y-127779000D01*
X91450000Y-146950000D02*
X91500000Y-147000000D01*
X93600000Y-107700000D02*
X94900000Y-107700000D01*
X90900000Y-147300000D02*
X90900000Y-146950000D01*
X90900000Y-146950000D02*
X91450000Y-146950000D01*
X97579000Y-127779000D02*
X98950000Y-129150000D01*
X90900000Y-146950000D02*
X90900000Y-146550000D01*
X91400000Y-142900000D02*
X90900000Y-142900000D01*
X93059585Y-108203556D02*
X93096444Y-108203556D01*
X91450000Y-142950000D02*
X91400000Y-142900000D01*
X98050000Y-110850000D02*
X98050000Y-126004616D01*
X98050000Y-126004616D02*
X97579000Y-126475616D01*
X90900000Y-142900000D02*
X90900000Y-142550000D01*
X90900000Y-143300000D02*
X90900000Y-142900000D01*
X94900000Y-107700000D02*
X98050000Y-110850000D01*
%TO.N,PB_1*%
X83600000Y-106400000D02*
X85804616Y-106400000D01*
X66950000Y-140300000D02*
X66950000Y-139550000D01*
X66950000Y-135550000D02*
X66950000Y-136300000D01*
X85804616Y-106400000D02*
X86275616Y-106871000D01*
X87433616Y-106871000D02*
X88575616Y-105729000D01*
X91771000Y-106925616D02*
X91771000Y-107274384D01*
X90574384Y-105729000D02*
X91771000Y-106925616D01*
X66950000Y-139550000D02*
X66950000Y-135550000D01*
X91365384Y-107680000D02*
X91350000Y-107680000D01*
X86275616Y-106871000D02*
X87433616Y-106871000D01*
X91771000Y-107274384D02*
X91365384Y-107680000D01*
X66950000Y-139550000D02*
X67000000Y-139550000D01*
X88575616Y-105729000D02*
X90574384Y-105729000D01*
X67000000Y-139550000D02*
X67400000Y-139950000D01*
%TO.N,PB_2*%
X78950000Y-136300000D02*
X78950000Y-135950000D01*
X78950000Y-139950000D02*
X79500000Y-139950000D01*
X79000000Y-135900000D02*
X78950000Y-135950000D01*
X83346985Y-108546985D02*
X84326985Y-108546985D01*
X79500000Y-135900000D02*
X79000000Y-135900000D01*
X84326985Y-108546985D02*
X84330000Y-108550000D01*
X78950000Y-135950000D02*
X78950000Y-135550000D01*
X78950000Y-140300000D02*
X78950000Y-139950000D01*
X89504616Y-108550000D02*
X90752308Y-107302308D01*
X84330000Y-108550000D02*
X89504616Y-108550000D01*
X78950000Y-139950000D02*
X78950000Y-139550000D01*
%TO.N,PB_3*%
X99400000Y-127450000D02*
X99400000Y-109558000D01*
X91400000Y-135950000D02*
X90900000Y-135950000D01*
X90900000Y-140300000D02*
X90900000Y-139950000D01*
X90900000Y-139950000D02*
X91400000Y-139950000D01*
X96046000Y-106204000D02*
X95096000Y-106204000D01*
X95096000Y-106204000D02*
X94050000Y-107250000D01*
X90900000Y-136300000D02*
X90900000Y-135950000D01*
X99400000Y-109558000D02*
X96046000Y-106204000D01*
X90900000Y-139950000D02*
X90900000Y-139550000D01*
X90900000Y-135950000D02*
X90900000Y-135550000D01*
X94050000Y-107250000D02*
X93800000Y-107250000D01*
%TO.N,PB_4*%
X66950000Y-132550000D02*
X66950000Y-133300000D01*
X67350000Y-133300000D02*
X67450000Y-133400000D01*
X83200000Y-108100000D02*
X82800000Y-108500000D01*
X66950000Y-128550000D02*
X66950000Y-129300000D01*
X89000000Y-108100000D02*
X83200000Y-108100000D01*
X66950000Y-133300000D02*
X67350000Y-133300000D01*
X66950000Y-133300000D02*
X66950000Y-128550000D01*
X82800000Y-108500000D02*
X77250000Y-108500000D01*
X90000000Y-107100000D02*
X89000000Y-108100000D01*
%TO.N,PB_5*%
X82895367Y-107709000D02*
X87941000Y-107709000D01*
X79700000Y-128950000D02*
X79000000Y-128950000D01*
X78950000Y-133300000D02*
X78950000Y-132900000D01*
X78950000Y-128900000D02*
X78950000Y-128550000D01*
X78950000Y-132900000D02*
X78950000Y-132550000D01*
X82796367Y-107808000D02*
X82895367Y-107709000D01*
X78950000Y-129300000D02*
X78950000Y-128900000D01*
X87941000Y-107709000D02*
X89150000Y-106500000D01*
X79000000Y-128950000D02*
X78950000Y-128900000D01*
X78950000Y-132900000D02*
X79700000Y-132900000D01*
%TO.N,PB_6*%
X96178962Y-105883000D02*
X94217000Y-105883000D01*
X90900000Y-133300000D02*
X90900000Y-132950000D01*
X90900000Y-132950000D02*
X90900000Y-132550000D01*
X90900000Y-132950000D02*
X91550000Y-132950000D01*
X90950000Y-128900000D02*
X90900000Y-128850000D01*
X91500000Y-128900000D02*
X90950000Y-128900000D01*
X94217000Y-105883000D02*
X94200000Y-105900000D01*
X90900000Y-129300000D02*
X90900000Y-128850000D01*
X99800000Y-109504038D02*
X96178962Y-105883000D01*
X90900000Y-128850000D02*
X90900000Y-128550000D01*
X99820000Y-126264663D02*
X99800000Y-126244663D01*
X99800000Y-126244663D02*
X99800000Y-109504038D01*
%TO.N,PB_7*%
X67500000Y-126300000D02*
X67600000Y-126200000D01*
X66950000Y-125550000D02*
X66950000Y-126300000D01*
X82236962Y-105183000D02*
X82453962Y-105400000D01*
X82453962Y-105400000D02*
X91150000Y-105400000D01*
X66950000Y-126300000D02*
X66950000Y-121550000D01*
X76300000Y-107600000D02*
X78717000Y-105183000D01*
X66950000Y-122300000D02*
X66950000Y-121550000D01*
X66950000Y-126300000D02*
X67500000Y-126300000D01*
X78717000Y-105183000D02*
X82236962Y-105183000D01*
%TO.N,PB_8*%
X79550000Y-121950000D02*
X79600000Y-121900000D01*
X82350000Y-107399000D02*
X82361000Y-107388000D01*
X87512000Y-107388000D02*
X88750000Y-106150000D01*
X78950000Y-125900000D02*
X78950000Y-125550000D01*
X78950000Y-126300000D02*
X78950000Y-125900000D01*
X79600000Y-125950000D02*
X79000000Y-125950000D01*
X78950000Y-121550000D02*
X78950000Y-121950000D01*
X78950000Y-121950000D02*
X79550000Y-121950000D01*
X79000000Y-125950000D02*
X78950000Y-125900000D01*
X78950000Y-121950000D02*
X78950000Y-122300000D01*
X82361000Y-107388000D02*
X87512000Y-107388000D01*
%TO.N,PB_9*%
X95199924Y-104450000D02*
X94250000Y-104450000D01*
X90950000Y-121950000D02*
X90900000Y-121900000D01*
X90900000Y-125900000D02*
X90900000Y-125550000D01*
X100350000Y-109600076D02*
X95199924Y-104450000D01*
X90900000Y-125900000D02*
X91450000Y-125900000D01*
X91450000Y-121950000D02*
X90950000Y-121950000D01*
X90900000Y-121900000D02*
X90900000Y-121550000D01*
X90900000Y-126300000D02*
X90900000Y-125900000D01*
X90900000Y-122300000D02*
X90900000Y-121900000D01*
X100350000Y-125150000D02*
X100350000Y-109600076D01*
%TO.N,PB_DPAD_LEFT*%
X74400000Y-113400000D02*
X74400000Y-113900000D01*
X88050000Y-112200000D02*
X92296038Y-112200000D01*
X93650000Y-113553962D02*
X93650000Y-114750000D01*
X92296038Y-112200000D02*
X93650000Y-113553962D01*
X73650000Y-113900000D02*
X74400000Y-113900000D01*
%TO.N,PB_DPAD_UP*%
X79446000Y-105504000D02*
X78950000Y-106000000D01*
X83550000Y-106950000D02*
X82104000Y-105504000D01*
X82104000Y-105504000D02*
X79446000Y-105504000D01*
X78950000Y-106750000D02*
X78950000Y-106000000D01*
%TO.N,PB_DPAD_RIGHT*%
X86950000Y-111300000D02*
X91850000Y-111300000D01*
X94200000Y-113650000D02*
X94200000Y-114400000D01*
X86200000Y-111300000D02*
X86950000Y-111300000D01*
X91850000Y-111300000D02*
X94200000Y-113650000D01*
%TO.N,PB_DPAD_DOWN*%
X82050000Y-116000000D02*
X88850000Y-116000000D01*
X78950000Y-119100000D02*
X78950000Y-118350000D01*
X78950000Y-119100000D02*
X82050000Y-116000000D01*
%TO.N,PB_DPAD_SELECT*%
X80346000Y-111446000D02*
X85354000Y-111446000D01*
X87258000Y-112108000D02*
X89520000Y-114370000D01*
X79367500Y-114600000D02*
X78950000Y-114600000D01*
X86016000Y-112108000D02*
X87258000Y-112108000D01*
X79417500Y-114550000D02*
X79367500Y-114600000D01*
X78950000Y-114950000D02*
X78950000Y-114600000D01*
X78950000Y-110600000D02*
X78950000Y-110200000D01*
X85354000Y-111446000D02*
X86016000Y-112108000D01*
X89520000Y-114370000D02*
X91750000Y-114370000D01*
X78950000Y-110950000D02*
X78950000Y-110600000D01*
X78950000Y-110600000D02*
X79500000Y-110600000D01*
X79500000Y-110600000D02*
X80346000Y-111446000D01*
X78950000Y-114600000D02*
X78950000Y-114200000D01*
%TO.N,PB_MENU_L*%
X65000000Y-105750000D02*
X65000000Y-106700000D01*
X65000000Y-106700000D02*
X65000000Y-107450000D01*
X65000000Y-110700000D02*
X65000000Y-111450000D01*
X65000000Y-111450000D02*
X65000000Y-106700000D01*
%TO.N,PB_MENU_R*%
X92900000Y-106700000D02*
X92900000Y-101050000D01*
X92900000Y-101050000D02*
X93550000Y-100400000D01*
X92550000Y-107800000D02*
X92900000Y-107450000D01*
X91063969Y-109030000D02*
X92733969Y-110700000D01*
X92900000Y-111450000D02*
X92900000Y-110700000D01*
X92733969Y-110700000D02*
X92900000Y-110700000D01*
X92900000Y-107450000D02*
X92900000Y-106700000D01*
X92550000Y-108100000D02*
X92550000Y-107800000D01*
%TO.N,PB_CALL*%
X65350000Y-118450000D02*
X65550000Y-118250000D01*
X65000000Y-113700000D02*
X65000000Y-114450000D01*
X65000000Y-118450000D02*
X65000000Y-117700000D01*
X65000000Y-113700000D02*
X65000000Y-118450000D01*
X65000000Y-118450000D02*
X65350000Y-118450000D01*
%TO.N,PB_END_CALL*%
X92900000Y-114450000D02*
X92900000Y-114050000D01*
X92850000Y-114050000D02*
X92900000Y-114050000D01*
X95900000Y-119350000D02*
X96700000Y-118550000D01*
X92650000Y-117450000D02*
X92900000Y-117700000D01*
X96700000Y-118550000D02*
X96700000Y-113858000D01*
X92900000Y-114050000D02*
X92900000Y-113700000D01*
X95262000Y-112420000D02*
X94300000Y-112420000D01*
X93200000Y-119350000D02*
X95900000Y-119350000D01*
X92250000Y-114650000D02*
X92850000Y-114050000D01*
X96700000Y-113858000D02*
X95262000Y-112420000D01*
X92250000Y-117450000D02*
X92650000Y-117450000D01*
X92900000Y-118450000D02*
X92900000Y-117700000D01*
X92250000Y-114814000D02*
X92250000Y-114650000D01*
X92250000Y-117450000D02*
X92250000Y-118400000D01*
X92250000Y-118400000D02*
X93200000Y-119350000D01*
%TO.N,PB_VOL_UP*%
X100125000Y-73350000D02*
X100125000Y-69750000D01*
X100125000Y-73850000D02*
X98395000Y-75580000D01*
X100125000Y-73350000D02*
X100125000Y-73850000D01*
X95350000Y-83753962D02*
X95350000Y-97600000D01*
X95350000Y-97600000D02*
X94000000Y-98950000D01*
X98395000Y-75580000D02*
X98395000Y-80708962D01*
X98395000Y-80708962D02*
X95350000Y-83753962D01*
%TO.N,PB_PWR*%
X98074000Y-64801000D02*
X100125000Y-62750000D01*
X93499000Y-98742479D02*
X94949000Y-97292479D01*
X100125000Y-61700000D02*
X100474000Y-62049000D01*
X93499000Y-98850997D02*
X93499000Y-98742479D01*
X94949000Y-83701000D02*
X98074000Y-80576000D01*
X100125000Y-58250000D02*
X100125000Y-61700000D01*
X100125000Y-62750000D02*
X100125000Y-61850000D01*
X93399997Y-98950000D02*
X93499000Y-98850997D01*
X98074000Y-80576000D02*
X98074000Y-64801000D01*
X94949000Y-97292479D02*
X94949000Y-83701000D01*
%TO.N,PB_VOL_DOWN*%
X94350000Y-99450000D02*
X95849000Y-97951000D01*
X95849000Y-97951000D02*
X95849000Y-87351000D01*
X100175000Y-83675000D02*
X100175000Y-82750000D01*
X95849000Y-87351000D02*
X99449000Y-83751000D01*
X100099000Y-83751000D02*
X100175000Y-83675000D01*
X99449000Y-83751000D02*
X100099000Y-83751000D01*
X100175000Y-82750000D02*
X100175000Y-86350000D01*
D20*
%TO.N,VLED*%
X69300000Y-138350000D02*
X68717500Y-138350000D01*
X94671000Y-114529000D02*
X94671000Y-113457095D01*
X80046000Y-146004000D02*
X80687500Y-145362500D01*
X80191500Y-124876000D02*
X80687500Y-124380000D01*
X88012095Y-114496000D02*
X82988000Y-114496000D01*
X62500000Y-107350000D02*
X64300000Y-109150000D01*
X93829000Y-112615095D02*
X93829000Y-110338500D01*
X69183500Y-124876000D02*
X80191500Y-124876000D01*
X80687500Y-131380000D02*
X81207500Y-131900000D01*
X92141500Y-138876000D02*
X81183500Y-138876000D01*
X80191500Y-138876000D02*
X69183500Y-138876000D01*
X92141500Y-145876000D02*
X92637500Y-145380000D01*
X78924673Y-116400000D02*
X80687500Y-114637173D01*
X65950000Y-138150000D02*
X65950000Y-144600000D01*
X69212500Y-145362500D02*
X69250000Y-145400000D01*
X64300000Y-109150000D02*
X64300000Y-116100000D01*
X93291500Y-116901000D02*
X90417095Y-116901000D01*
X62500000Y-104550000D02*
X62500000Y-107350000D01*
X81654500Y-113162500D02*
X80687500Y-113162500D01*
X81183500Y-138876000D02*
X80687500Y-138380000D01*
X68707500Y-124400000D02*
X68687500Y-124380000D01*
X93829000Y-110338500D02*
X94637500Y-109530000D01*
X80687500Y-124380000D02*
X81307500Y-125000000D01*
X64900000Y-130900000D02*
X65050000Y-131050000D01*
X68687500Y-145362500D02*
X69212500Y-145362500D01*
X64300000Y-116100000D02*
X64500000Y-116300000D01*
X94637500Y-116530000D02*
X94141500Y-117026000D01*
X81207500Y-131900000D02*
X92117500Y-131900000D01*
X65950000Y-144600000D02*
X66150000Y-144800000D01*
X65050000Y-131050000D02*
X65050000Y-137250000D01*
X68717500Y-131350000D02*
X68687500Y-131380000D01*
X90417095Y-116901000D02*
X88012095Y-114496000D01*
X66150000Y-144800000D02*
X66200000Y-144800000D01*
X68687500Y-124380000D02*
X69183500Y-124876000D01*
X80687500Y-138380000D02*
X80191500Y-138876000D01*
X67300000Y-116400000D02*
X78924673Y-116400000D01*
X95133500Y-116034000D02*
X95133500Y-114991500D01*
X94141500Y-117026000D02*
X93416500Y-117026000D01*
X69183500Y-131876000D02*
X80191500Y-131876000D01*
X68687500Y-131380000D02*
X69183500Y-131876000D01*
X64500000Y-116300000D02*
X64454000Y-116346000D01*
X66867500Y-116400000D02*
X66737500Y-116530000D01*
X69250000Y-145400000D02*
X69854000Y-146004000D01*
X64454000Y-123504000D02*
X64900000Y-123950000D01*
X80687500Y-114637173D02*
X80687500Y-113162500D01*
X69550000Y-124400000D02*
X68707500Y-124400000D01*
X82988000Y-114496000D02*
X81654500Y-113162500D01*
X66767500Y-109500000D02*
X66737500Y-109530000D01*
X68717500Y-138350000D02*
X68687500Y-138380000D01*
X69300000Y-131350000D02*
X68717500Y-131350000D01*
X67300000Y-116400000D02*
X66867500Y-116400000D01*
X93416500Y-117026000D02*
X93291500Y-116901000D01*
X80687500Y-145362500D02*
X81201000Y-145876000D01*
X81201000Y-145876000D02*
X92141500Y-145876000D01*
X80191500Y-131876000D02*
X80687500Y-131380000D01*
X92117500Y-131900000D02*
X92637500Y-131380000D01*
X65050000Y-137250000D02*
X65950000Y-138150000D01*
X81307500Y-125000000D02*
X92017500Y-125000000D01*
X95133500Y-114991500D02*
X94671000Y-114529000D01*
X64454000Y-116346000D02*
X64454000Y-123504000D01*
X94671000Y-113457095D02*
X93829000Y-112615095D01*
X67400000Y-109500000D02*
X66767500Y-109500000D01*
X92017500Y-125000000D02*
X92637500Y-124380000D01*
X92637500Y-138380000D02*
X92141500Y-138876000D01*
X69854000Y-146004000D02*
X80046000Y-146004000D01*
X64900000Y-123950000D02*
X64900000Y-130900000D01*
X94637500Y-116530000D02*
X95133500Y-116034000D01*
X69183500Y-138876000D02*
X68687500Y-138380000D01*
D19*
%TO.N,GND*%
X67837500Y-144512500D02*
X67837500Y-144037500D01*
X67837500Y-144037500D02*
X67650000Y-143850000D01*
D20*
%TO.N,+3.3V*%
X90250000Y-77202010D02*
X89823995Y-76776005D01*
X90829000Y-77781010D02*
X86797990Y-73750000D01*
X90250000Y-78152010D02*
X90250000Y-77202010D01*
X94971000Y-99921000D02*
X92396000Y-99921000D01*
X94100000Y-120050000D02*
X94096000Y-120054000D01*
X92396000Y-99921000D02*
X90829000Y-98354000D01*
X86797990Y-73750000D02*
X89823995Y-76776005D01*
X89823995Y-76776005D02*
X90750000Y-77702010D01*
X90829000Y-98354000D02*
X90829000Y-77781010D01*
X100821000Y-105771000D02*
X94971000Y-99921000D01*
X60850000Y-81450000D02*
X68550000Y-73750000D01*
X90750000Y-77702010D02*
X90750000Y-78152010D01*
X94096000Y-124962095D02*
X98754905Y-129621000D01*
X99145095Y-129621000D02*
X100821000Y-127945095D01*
X60850000Y-104550000D02*
X60850000Y-81450000D01*
X68550000Y-73750000D02*
X86797990Y-73750000D01*
X88750020Y-78152010D02*
X88750020Y-75702030D01*
X100821000Y-127945095D02*
X100821000Y-105771000D01*
X94096000Y-120054000D02*
X94096000Y-124962095D01*
X88750020Y-75702030D02*
X86797990Y-73750000D01*
X98754905Y-129621000D02*
X99145095Y-129621000D01*
D19*
%TO.N,DISP_RES*%
X88250020Y-104649980D02*
X88250020Y-78152010D01*
X85800000Y-104900000D02*
X88000000Y-104900000D01*
X88000000Y-104900000D02*
X88250020Y-104649980D01*
%TO.N,DISP_CS*%
X87750021Y-104370000D02*
X87750021Y-102499981D01*
X87750021Y-102499981D02*
X87750020Y-102499980D01*
X87750020Y-102499980D02*
X87750020Y-78152010D01*
%TO.N,DISP_DC*%
X87250000Y-102900000D02*
X87250000Y-98600000D01*
X87250000Y-98600000D02*
X87250020Y-98599980D01*
X87250020Y-98599980D02*
X87250020Y-78152010D01*
%TO.N,DISP_WR*%
X86750020Y-93782920D02*
X86750020Y-78152010D01*
X86750000Y-104370000D02*
X86750000Y-93782940D01*
X86750000Y-93782940D02*
X86750020Y-93782920D01*
%TO.N,DISP_RD*%
X86229997Y-104370000D02*
X86250000Y-104349997D01*
X86250000Y-100800040D02*
X86250020Y-100800020D01*
X86250020Y-100800020D02*
X86250020Y-78152010D01*
X86250000Y-104349997D02*
X86250000Y-100800040D01*
%TO.N,DISP_DB0*%
X85750000Y-102750000D02*
X83250019Y-100250019D01*
X83250019Y-94082921D02*
X83250020Y-94082920D01*
X83250019Y-100250019D02*
X83250019Y-94082921D01*
X83250020Y-94082920D02*
X83250020Y-78152010D01*
%TO.N,DISP_DB1*%
X85475000Y-103324962D02*
X82750019Y-100599981D01*
X82750019Y-94799981D02*
X82750020Y-94799980D01*
X85475000Y-103325000D02*
X85475000Y-103324962D01*
X82750019Y-100599981D02*
X82750019Y-94799981D01*
X82750020Y-94799980D02*
X82750020Y-78152010D01*
%TO.N,DISP_DB2*%
X82246446Y-93703554D02*
X82246446Y-92003594D01*
X82246446Y-92003594D02*
X82250020Y-92000020D01*
X82250020Y-92000020D02*
X82250020Y-78152010D01*
%TO.N,DISP_DB3*%
X81750020Y-92250020D02*
X81750020Y-78152010D01*
X81700000Y-92450000D02*
X81700000Y-92300040D01*
X81700000Y-92300040D02*
X81750020Y-92250020D01*
%TO.N,DISP_DB4*%
X81250000Y-79300000D02*
X81250000Y-78152030D01*
X81250000Y-78152030D02*
X81250020Y-78152010D01*
%TO.N,DISP_DB5*%
X80750022Y-78152010D02*
X80750022Y-79649978D01*
X80750022Y-79649978D02*
X80750000Y-79650000D01*
%TO.N,DISP_DB6*%
X80241199Y-78160833D02*
X80250022Y-78152010D01*
X80241199Y-79968001D02*
X80241199Y-78160833D01*
%TO.N,DISP_DB7*%
X79735642Y-78166390D02*
X79735642Y-80291136D01*
X79750022Y-78152010D02*
X79735642Y-78166390D01*
%TO.N,DISP_DB8*%
X79250022Y-78152010D02*
X79234642Y-78167390D01*
X79234642Y-78167390D02*
X79234642Y-80684642D01*
X79234642Y-80684642D02*
X79250000Y-80700000D01*
%TO.N,DISP_DB9*%
X78750020Y-78152010D02*
X78750020Y-81040024D01*
X78750020Y-81040024D02*
X78769998Y-81060002D01*
%TO.N,DISP_DB10*%
X78250020Y-81348200D02*
X78245977Y-81352243D01*
X78250020Y-78152010D02*
X78250020Y-81348200D01*
%TO.N,DISP_DB11*%
X77737333Y-81683751D02*
X77766426Y-81712844D01*
X77737333Y-78164697D02*
X77737333Y-81683751D01*
X77750020Y-78152010D02*
X77737333Y-78164697D01*
%TO.N,DISP_DB12*%
X77250020Y-78152010D02*
X77250020Y-81966353D01*
X77250020Y-81966353D02*
X77231588Y-81984785D01*
%TO.N,DISP_DB13*%
X76730588Y-78171442D02*
X76750020Y-78152010D01*
X77150000Y-99600000D02*
X76730588Y-99180588D01*
X76730588Y-99180588D02*
X76730588Y-78171442D01*
%TO.N,DISP_DB14*%
X76250020Y-78152010D02*
X76250020Y-99600020D01*
X76250020Y-99600020D02*
X76700000Y-100050000D01*
%TO.N,DISP_DB15*%
X76350000Y-100550000D02*
X75750020Y-99950020D01*
X75750020Y-99950020D02*
X75750020Y-78152010D01*
D20*
%TO.N,DISP_LEDA*%
X73750020Y-101750000D02*
X73750020Y-78152010D01*
D19*
%TO.N,LED_DATA*%
X67800000Y-145400000D02*
X67837500Y-145362500D01*
X67800000Y-146150000D02*
X67800000Y-145400000D01*
%TD*%
%TA.AperFunction,Conductor*%
%TO.N,GND*%
G36*
X101267539Y-46520185D02*
G01*
X101313294Y-46572989D01*
X101324500Y-46624500D01*
X101324500Y-105408745D01*
X101304815Y-105475784D01*
X101252011Y-105521539D01*
X101182853Y-105531483D01*
X101119297Y-105502458D01*
X101112819Y-105496426D01*
X95216915Y-99600522D01*
X95216913Y-99600520D01*
X95171250Y-99574156D01*
X95125589Y-99547793D01*
X95085284Y-99536993D01*
X95035160Y-99523563D01*
X94975500Y-99487199D01*
X94944971Y-99424353D01*
X94953265Y-99354977D01*
X94979570Y-99316111D01*
X96129470Y-98166212D01*
X96175614Y-98086288D01*
X96189753Y-98033520D01*
X96199500Y-97997144D01*
X96199500Y-87547544D01*
X96219185Y-87480505D01*
X96235819Y-87459863D01*
X99557863Y-84137819D01*
X99584790Y-84123115D01*
X99610609Y-84106523D01*
X99616809Y-84105631D01*
X99619186Y-84104334D01*
X99645544Y-84101500D01*
X99700500Y-84101500D01*
X99767539Y-84121185D01*
X99813294Y-84173989D01*
X99824500Y-84225500D01*
X99824500Y-85275500D01*
X99804815Y-85342539D01*
X99752011Y-85388294D01*
X99706320Y-85398233D01*
X99706386Y-85398903D01*
X99700645Y-85399468D01*
X99700500Y-85399500D01*
X99700323Y-85399500D01*
X99627264Y-85414032D01*
X99627260Y-85414033D01*
X99544399Y-85469399D01*
X99489033Y-85552260D01*
X99489032Y-85552264D01*
X99474500Y-85625321D01*
X99474500Y-87074678D01*
X99489032Y-87147735D01*
X99489033Y-87147739D01*
X99489034Y-87147740D01*
X99544399Y-87230601D01*
X99627260Y-87285966D01*
X99627264Y-87285967D01*
X99700321Y-87300499D01*
X99700324Y-87300500D01*
X99700326Y-87300500D01*
X100649676Y-87300500D01*
X100649677Y-87300499D01*
X100722740Y-87285966D01*
X100805601Y-87230601D01*
X100860966Y-87147740D01*
X100875500Y-87074674D01*
X100875500Y-85625326D01*
X100875500Y-85625323D01*
X100875499Y-85625321D01*
X100860967Y-85552264D01*
X100860966Y-85552260D01*
X100805601Y-85469399D01*
X100722740Y-85414034D01*
X100722739Y-85414033D01*
X100722735Y-85414032D01*
X100649677Y-85399500D01*
X100649674Y-85399500D01*
X100649500Y-85399500D01*
X100649410Y-85399473D01*
X100643614Y-85398903D01*
X100643722Y-85397803D01*
X100582461Y-85379815D01*
X100536706Y-85327011D01*
X100525500Y-85275500D01*
X100525500Y-83824500D01*
X100545185Y-83757461D01*
X100597989Y-83711706D01*
X100643679Y-83701766D01*
X100643614Y-83701097D01*
X100649354Y-83700531D01*
X100649500Y-83700500D01*
X100649676Y-83700500D01*
X100649677Y-83700499D01*
X100722740Y-83685966D01*
X100805601Y-83630601D01*
X100860966Y-83547740D01*
X100875500Y-83474674D01*
X100875500Y-82025326D01*
X100875500Y-82025323D01*
X100875499Y-82025321D01*
X100860967Y-81952264D01*
X100860966Y-81952260D01*
X100805601Y-81869399D01*
X100722740Y-81814034D01*
X100722739Y-81814033D01*
X100722735Y-81814032D01*
X100649677Y-81799500D01*
X100649674Y-81799500D01*
X99700326Y-81799500D01*
X99700323Y-81799500D01*
X99627264Y-81814032D01*
X99627260Y-81814033D01*
X99544399Y-81869399D01*
X99489033Y-81952260D01*
X99489032Y-81952264D01*
X99474500Y-82025321D01*
X99474500Y-83286154D01*
X99454815Y-83353193D01*
X99402011Y-83398948D01*
X99382596Y-83405928D01*
X99313712Y-83424386D01*
X99313711Y-83424386D01*
X99313709Y-83424387D01*
X99233791Y-83470527D01*
X99233786Y-83470531D01*
X95912181Y-86792137D01*
X95850858Y-86825622D01*
X95781166Y-86820638D01*
X95725233Y-86778766D01*
X95700816Y-86713302D01*
X95700500Y-86704456D01*
X95700500Y-83950505D01*
X95720185Y-83883466D01*
X95736819Y-83862824D01*
X97195061Y-82404582D01*
X98675469Y-80924174D01*
X98721614Y-80844250D01*
X98726822Y-80824812D01*
X98745500Y-80755106D01*
X98745500Y-75776544D01*
X98765185Y-75709505D01*
X98781819Y-75688863D01*
X100133863Y-74336819D01*
X100195186Y-74303334D01*
X100221544Y-74300500D01*
X100599676Y-74300500D01*
X100599677Y-74300499D01*
X100672740Y-74285966D01*
X100755601Y-74230601D01*
X100810966Y-74147740D01*
X100825500Y-74074674D01*
X100825500Y-72625326D01*
X100825500Y-72625323D01*
X100825499Y-72625321D01*
X100810967Y-72552264D01*
X100810966Y-72552260D01*
X100755601Y-72469399D01*
X100672740Y-72414034D01*
X100672739Y-72414033D01*
X100672735Y-72414032D01*
X100599677Y-72399500D01*
X100599674Y-72399500D01*
X100599500Y-72399500D01*
X100599410Y-72399473D01*
X100593614Y-72398903D01*
X100593722Y-72397803D01*
X100532461Y-72379815D01*
X100486706Y-72327011D01*
X100475500Y-72275500D01*
X100475500Y-70824500D01*
X100495185Y-70757461D01*
X100547989Y-70711706D01*
X100593679Y-70701766D01*
X100593614Y-70701097D01*
X100599354Y-70700531D01*
X100599500Y-70700500D01*
X100599676Y-70700500D01*
X100599677Y-70700499D01*
X100672740Y-70685966D01*
X100755601Y-70630601D01*
X100810966Y-70547740D01*
X100825500Y-70474674D01*
X100825500Y-69025326D01*
X100825500Y-69025323D01*
X100825499Y-69025321D01*
X100810967Y-68952264D01*
X100810966Y-68952260D01*
X100755601Y-68869399D01*
X100672740Y-68814034D01*
X100672739Y-68814033D01*
X100672735Y-68814032D01*
X100599677Y-68799500D01*
X100599674Y-68799500D01*
X99650326Y-68799500D01*
X99650323Y-68799500D01*
X99577264Y-68814032D01*
X99577260Y-68814033D01*
X99494399Y-68869399D01*
X99439033Y-68952260D01*
X99439032Y-68952264D01*
X99424500Y-69025321D01*
X99424500Y-70474678D01*
X99439032Y-70547735D01*
X99439033Y-70547739D01*
X99439034Y-70547740D01*
X99494399Y-70630601D01*
X99577260Y-70685966D01*
X99577264Y-70685967D01*
X99650321Y-70700499D01*
X99650324Y-70700500D01*
X99650326Y-70700500D01*
X99650500Y-70700500D01*
X99650589Y-70700526D01*
X99656386Y-70701097D01*
X99656277Y-70702196D01*
X99717539Y-70720185D01*
X99763294Y-70772989D01*
X99774500Y-70824500D01*
X99774500Y-72275500D01*
X99754815Y-72342539D01*
X99702011Y-72388294D01*
X99656320Y-72398233D01*
X99656386Y-72398903D01*
X99650645Y-72399468D01*
X99650500Y-72399500D01*
X99650323Y-72399500D01*
X99577264Y-72414032D01*
X99577260Y-72414033D01*
X99494399Y-72469399D01*
X99439033Y-72552260D01*
X99439032Y-72552264D01*
X99424500Y-72625321D01*
X99424500Y-74003456D01*
X99404815Y-74070495D01*
X99388181Y-74091137D01*
X98636181Y-74843137D01*
X98574858Y-74876622D01*
X98505166Y-74871638D01*
X98449233Y-74829766D01*
X98424816Y-74764302D01*
X98424500Y-74755456D01*
X98424500Y-64997544D01*
X98444185Y-64930505D01*
X98460819Y-64909863D01*
X98784896Y-64585786D01*
X100405470Y-62965212D01*
X100451614Y-62885288D01*
X100451616Y-62885279D01*
X100454723Y-62877781D01*
X100457838Y-62879071D01*
X100486055Y-62832761D01*
X100548896Y-62802221D01*
X100569481Y-62800500D01*
X100599676Y-62800500D01*
X100599677Y-62800499D01*
X100672740Y-62785966D01*
X100755601Y-62730601D01*
X100810966Y-62647740D01*
X100825500Y-62574674D01*
X100825500Y-61125326D01*
X100825500Y-61125323D01*
X100825499Y-61125321D01*
X100810967Y-61052264D01*
X100810966Y-61052260D01*
X100755601Y-60969399D01*
X100672740Y-60914034D01*
X100672739Y-60914033D01*
X100672735Y-60914032D01*
X100599677Y-60899500D01*
X100599674Y-60899500D01*
X100599500Y-60899500D01*
X100599410Y-60899473D01*
X100593614Y-60898903D01*
X100593722Y-60897803D01*
X100532461Y-60879815D01*
X100486706Y-60827011D01*
X100475500Y-60775500D01*
X100475500Y-59324500D01*
X100495185Y-59257461D01*
X100547989Y-59211706D01*
X100593679Y-59201766D01*
X100593614Y-59201097D01*
X100599354Y-59200531D01*
X100599500Y-59200500D01*
X100599676Y-59200500D01*
X100599677Y-59200499D01*
X100672740Y-59185966D01*
X100755601Y-59130601D01*
X100810966Y-59047740D01*
X100825500Y-58974674D01*
X100825500Y-57525326D01*
X100825500Y-57525323D01*
X100825499Y-57525321D01*
X100810967Y-57452264D01*
X100810966Y-57452260D01*
X100755601Y-57369399D01*
X100672740Y-57314034D01*
X100672739Y-57314033D01*
X100672735Y-57314032D01*
X100599677Y-57299500D01*
X100599674Y-57299500D01*
X99650326Y-57299500D01*
X99650323Y-57299500D01*
X99577264Y-57314032D01*
X99577260Y-57314033D01*
X99494399Y-57369399D01*
X99439033Y-57452260D01*
X99439032Y-57452264D01*
X99424500Y-57525321D01*
X99424500Y-58974678D01*
X99439032Y-59047735D01*
X99439033Y-59047739D01*
X99439034Y-59047740D01*
X99494399Y-59130601D01*
X99577260Y-59185966D01*
X99577264Y-59185967D01*
X99650321Y-59200499D01*
X99650324Y-59200500D01*
X99650326Y-59200500D01*
X99650500Y-59200500D01*
X99650589Y-59200526D01*
X99656386Y-59201097D01*
X99656277Y-59202196D01*
X99717539Y-59220185D01*
X99763294Y-59272989D01*
X99774500Y-59324500D01*
X99774500Y-60775500D01*
X99754815Y-60842539D01*
X99702011Y-60888294D01*
X99656320Y-60898233D01*
X99656386Y-60898903D01*
X99650645Y-60899468D01*
X99650500Y-60899500D01*
X99650323Y-60899500D01*
X99577264Y-60914032D01*
X99577260Y-60914033D01*
X99494399Y-60969399D01*
X99439033Y-61052260D01*
X99439032Y-61052264D01*
X99424500Y-61125321D01*
X99424500Y-62574678D01*
X99439032Y-62647735D01*
X99439033Y-62647739D01*
X99499673Y-62738494D01*
X99520550Y-62805172D01*
X99502065Y-62872552D01*
X99484251Y-62895065D01*
X97793531Y-64585786D01*
X97793527Y-64585791D01*
X97747387Y-64665709D01*
X97747386Y-64665712D01*
X97723500Y-64754856D01*
X97723500Y-80379456D01*
X97703815Y-80446495D01*
X97687181Y-80467137D01*
X94668532Y-83485785D01*
X94668530Y-83485787D01*
X94668530Y-83485788D01*
X94637397Y-83539712D01*
X94637396Y-83539712D01*
X94622387Y-83565709D01*
X94622386Y-83565712D01*
X94598500Y-83654856D01*
X94598500Y-97095935D01*
X94578815Y-97162974D01*
X94562181Y-97183616D01*
X93212780Y-98533017D01*
X93187101Y-98552722D01*
X93123384Y-98589510D01*
X93039507Y-98673387D01*
X92980199Y-98776112D01*
X92980198Y-98776114D01*
X92949497Y-98890691D01*
X92949497Y-99009309D01*
X92980198Y-99123886D01*
X93039508Y-99226613D01*
X93039510Y-99226615D01*
X93121714Y-99308819D01*
X93155199Y-99370142D01*
X93150215Y-99439834D01*
X93108343Y-99495767D01*
X93042879Y-99520184D01*
X93034033Y-99520500D01*
X92613254Y-99520500D01*
X92546215Y-99500815D01*
X92525573Y-99484181D01*
X91265819Y-98224426D01*
X91232334Y-98163103D01*
X91229500Y-98136745D01*
X91229500Y-77728285D01*
X91229500Y-77728283D01*
X91202207Y-77626423D01*
X91202207Y-77626422D01*
X91162415Y-77557501D01*
X91161311Y-77555405D01*
X91160456Y-77551176D01*
X91149398Y-77521796D01*
X91135966Y-77454270D01*
X91080601Y-77371409D01*
X91000000Y-77317554D01*
X90997739Y-77316043D01*
X90997736Y-77316042D01*
X90950603Y-77306667D01*
X90888692Y-77274282D01*
X90887114Y-77272731D01*
X87043905Y-73429522D01*
X87043903Y-73429520D01*
X86986093Y-73396143D01*
X86952579Y-73376793D01*
X86901647Y-73363146D01*
X86850717Y-73349500D01*
X68497273Y-73349500D01*
X68395413Y-73376793D01*
X68395410Y-73376794D01*
X68361896Y-73396143D01*
X68361896Y-73396144D01*
X68304087Y-73429520D01*
X68304084Y-73429522D01*
X60529522Y-81204084D01*
X60529520Y-81204087D01*
X60476794Y-81295410D01*
X60451309Y-81390516D01*
X60451310Y-81390517D01*
X60449500Y-81397274D01*
X60449500Y-103800470D01*
X60429815Y-103867509D01*
X60399134Y-103900240D01*
X60327850Y-103952850D01*
X60247207Y-104062117D01*
X60247206Y-104062119D01*
X60202353Y-104190298D01*
X60202353Y-104190300D01*
X60199500Y-104220730D01*
X60199500Y-104879269D01*
X60202353Y-104909699D01*
X60202353Y-104909701D01*
X60244384Y-105029815D01*
X60247207Y-105037882D01*
X60327850Y-105147150D01*
X60437118Y-105227793D01*
X60479845Y-105242744D01*
X60565299Y-105272646D01*
X60595730Y-105275500D01*
X60595734Y-105275500D01*
X61104270Y-105275500D01*
X61134699Y-105272646D01*
X61134701Y-105272646D01*
X61198790Y-105250219D01*
X61262882Y-105227793D01*
X61372150Y-105147150D01*
X61452793Y-105037882D01*
X61483719Y-104949500D01*
X61497646Y-104909701D01*
X61497646Y-104909699D01*
X61500500Y-104879269D01*
X61500500Y-104220730D01*
X61497646Y-104190300D01*
X61497646Y-104190298D01*
X61452793Y-104062119D01*
X61452792Y-104062117D01*
X61429237Y-104030201D01*
X61372150Y-103952850D01*
X61300866Y-103900240D01*
X61258615Y-103844592D01*
X61250500Y-103800470D01*
X61250500Y-81667255D01*
X61270185Y-81600216D01*
X61286819Y-81579574D01*
X68679574Y-74186819D01*
X68740897Y-74153334D01*
X68767255Y-74150500D01*
X86580735Y-74150500D01*
X86647774Y-74170185D01*
X86668416Y-74186819D01*
X88313201Y-75831604D01*
X88346686Y-75892927D01*
X88349520Y-75919285D01*
X88349520Y-77177510D01*
X88347951Y-77182850D01*
X88349049Y-77188308D01*
X88338214Y-77216012D01*
X88329835Y-77244549D01*
X88325628Y-77248193D01*
X88323601Y-77253379D01*
X88299505Y-77270829D01*
X88277031Y-77290304D01*
X88270332Y-77291957D01*
X88267014Y-77294361D01*
X88245763Y-77298022D01*
X88232412Y-77301318D01*
X88228963Y-77301510D01*
X88075346Y-77301510D01*
X88015649Y-77313384D01*
X88006912Y-77313871D01*
X87997558Y-77311681D01*
X87975830Y-77311681D01*
X87924694Y-77301510D01*
X87575346Y-77301510D01*
X87524210Y-77311681D01*
X87475830Y-77311681D01*
X87424694Y-77301510D01*
X87075346Y-77301510D01*
X87024210Y-77311681D01*
X86975830Y-77311681D01*
X86924694Y-77301510D01*
X86575346Y-77301510D01*
X86524210Y-77311681D01*
X86475830Y-77311681D01*
X86424694Y-77301510D01*
X86075346Y-77301510D01*
X86075343Y-77301510D01*
X86002284Y-77316042D01*
X86002280Y-77316043D01*
X85919419Y-77371409D01*
X85864053Y-77454270D01*
X85864052Y-77454274D01*
X85849520Y-77527331D01*
X85849520Y-78776688D01*
X85864052Y-78849745D01*
X85864054Y-78849749D01*
X85864054Y-78849750D01*
X85878621Y-78871552D01*
X85899500Y-78938227D01*
X85899520Y-78940442D01*
X85899520Y-100745652D01*
X85899500Y-100745961D01*
X85899500Y-102104456D01*
X85879815Y-102171495D01*
X85827011Y-102217250D01*
X85757853Y-102227194D01*
X85694297Y-102198169D01*
X85687819Y-102192137D01*
X83636838Y-100141156D01*
X83603353Y-100079833D01*
X83600519Y-100053475D01*
X83600519Y-94139066D01*
X83600520Y-94139053D01*
X83600520Y-78940442D01*
X83620205Y-78873403D01*
X83621378Y-78871612D01*
X83635986Y-78849750D01*
X83650520Y-78776684D01*
X83650520Y-77527336D01*
X83650520Y-77527333D01*
X83650519Y-77527331D01*
X83635987Y-77454274D01*
X83635986Y-77454270D01*
X83580621Y-77371409D01*
X83500020Y-77317554D01*
X83497759Y-77316043D01*
X83497755Y-77316042D01*
X83424697Y-77301510D01*
X83424694Y-77301510D01*
X83075346Y-77301510D01*
X83024210Y-77311681D01*
X82975830Y-77311681D01*
X82924694Y-77301510D01*
X82575346Y-77301510D01*
X82524210Y-77311681D01*
X82475830Y-77311681D01*
X82424694Y-77301510D01*
X82075346Y-77301510D01*
X82024210Y-77311681D01*
X81975830Y-77311681D01*
X81924694Y-77301510D01*
X81575346Y-77301510D01*
X81524210Y-77311681D01*
X81475830Y-77311681D01*
X81424694Y-77301510D01*
X81075346Y-77301510D01*
X81075344Y-77301510D01*
X81024213Y-77311681D01*
X80975829Y-77311681D01*
X80924698Y-77301510D01*
X80924696Y-77301510D01*
X80575348Y-77301510D01*
X80524212Y-77311681D01*
X80475832Y-77311681D01*
X80424696Y-77301510D01*
X80075348Y-77301510D01*
X80024212Y-77311681D01*
X79975832Y-77311681D01*
X79924696Y-77301510D01*
X79575348Y-77301510D01*
X79524212Y-77311681D01*
X79475832Y-77311681D01*
X79424696Y-77301510D01*
X79075348Y-77301510D01*
X79075345Y-77301510D01*
X79024212Y-77311681D01*
X78975830Y-77311681D01*
X78924697Y-77301510D01*
X78924694Y-77301510D01*
X78575346Y-77301510D01*
X78524210Y-77311681D01*
X78475830Y-77311681D01*
X78424694Y-77301510D01*
X78075346Y-77301510D01*
X78024210Y-77311681D01*
X77975830Y-77311681D01*
X77924694Y-77301510D01*
X77575346Y-77301510D01*
X77524210Y-77311681D01*
X77475830Y-77311681D01*
X77424694Y-77301510D01*
X77075346Y-77301510D01*
X77024210Y-77311681D01*
X76975830Y-77311681D01*
X76924694Y-77301510D01*
X76575346Y-77301510D01*
X76524210Y-77311681D01*
X76475830Y-77311681D01*
X76424694Y-77301510D01*
X76075346Y-77301510D01*
X76024210Y-77311681D01*
X75975830Y-77311681D01*
X75924694Y-77301510D01*
X75575346Y-77301510D01*
X75524210Y-77311681D01*
X75475830Y-77311681D01*
X75424694Y-77301510D01*
X75075346Y-77301510D01*
X75024210Y-77311681D01*
X74975830Y-77311681D01*
X74924694Y-77301510D01*
X74575346Y-77301510D01*
X74524210Y-77311681D01*
X74475830Y-77311681D01*
X74424694Y-77301510D01*
X74075346Y-77301510D01*
X74024210Y-77311681D01*
X73975830Y-77311681D01*
X73924694Y-77301510D01*
X73575346Y-77301510D01*
X73524210Y-77311681D01*
X73475830Y-77311681D01*
X73424694Y-77301510D01*
X73075346Y-77301510D01*
X73024210Y-77311681D01*
X72975830Y-77311681D01*
X72924694Y-77301510D01*
X72575346Y-77301510D01*
X72524210Y-77311681D01*
X72475830Y-77311681D01*
X72424694Y-77301510D01*
X72075346Y-77301510D01*
X72024210Y-77311681D01*
X71975830Y-77311681D01*
X71924694Y-77301510D01*
X71575346Y-77301510D01*
X71524210Y-77311681D01*
X71475830Y-77311681D01*
X71424694Y-77301510D01*
X71075346Y-77301510D01*
X71024210Y-77311681D01*
X70975830Y-77311681D01*
X70924694Y-77301510D01*
X70575346Y-77301510D01*
X70524210Y-77311681D01*
X70475830Y-77311681D01*
X70424694Y-77301510D01*
X70075346Y-77301510D01*
X70075344Y-77301510D01*
X70024202Y-77311683D01*
X69975818Y-77311683D01*
X69924676Y-77301510D01*
X69924674Y-77301510D01*
X69575326Y-77301510D01*
X69575323Y-77301510D01*
X69502264Y-77316042D01*
X69502260Y-77316043D01*
X69419399Y-77371409D01*
X69364033Y-77454270D01*
X69364032Y-77454274D01*
X69349500Y-77527331D01*
X69349500Y-78776688D01*
X69364032Y-78849745D01*
X69364033Y-78849749D01*
X69364034Y-78849750D01*
X69419399Y-78932611D01*
X69499990Y-78986459D01*
X69502260Y-78987976D01*
X69502264Y-78987977D01*
X69575321Y-79002509D01*
X69575324Y-79002510D01*
X69575326Y-79002510D01*
X69924674Y-79002510D01*
X69975821Y-78992336D01*
X70024199Y-78992336D01*
X70075346Y-79002510D01*
X70424694Y-79002510D01*
X70475831Y-78992338D01*
X70524209Y-78992338D01*
X70575346Y-79002510D01*
X70924694Y-79002510D01*
X70975831Y-78992338D01*
X71024209Y-78992338D01*
X71075346Y-79002510D01*
X71424694Y-79002510D01*
X71475831Y-78992338D01*
X71524209Y-78992338D01*
X71575346Y-79002510D01*
X71924694Y-79002510D01*
X71975833Y-78992337D01*
X72006913Y-78990147D01*
X72015635Y-78990632D01*
X72075346Y-79002510D01*
X72228964Y-79002510D01*
X72232413Y-79002702D01*
X72262215Y-79013285D01*
X72292559Y-79022195D01*
X72294893Y-79024889D01*
X72298255Y-79026083D01*
X72317610Y-79051105D01*
X72338314Y-79074999D01*
X72339183Y-79078995D01*
X72341003Y-79081348D01*
X72341881Y-79091397D01*
X72349520Y-79126510D01*
X72349520Y-99809461D01*
X72332909Y-99871458D01*
X72330222Y-99876111D01*
X72330221Y-99876112D01*
X72314870Y-99933402D01*
X72299520Y-99990691D01*
X72299520Y-100109309D01*
X72330221Y-100223886D01*
X72389531Y-100326613D01*
X72473407Y-100410489D01*
X72576134Y-100469799D01*
X72690711Y-100500500D01*
X72690714Y-100500500D01*
X72809326Y-100500500D01*
X72809329Y-100500500D01*
X72923906Y-100469799D01*
X73026633Y-100410489D01*
X73110509Y-100326613D01*
X73118133Y-100313408D01*
X73168700Y-100265192D01*
X73237308Y-100251970D01*
X73302172Y-100277938D01*
X73342700Y-100334852D01*
X73349520Y-100375408D01*
X73349520Y-101509461D01*
X73332909Y-101571458D01*
X73330222Y-101576111D01*
X73330221Y-101576112D01*
X73314870Y-101633402D01*
X73299520Y-101690691D01*
X73299520Y-101809309D01*
X73330221Y-101923886D01*
X73389531Y-102026613D01*
X73473407Y-102110489D01*
X73576134Y-102169799D01*
X73690711Y-102200500D01*
X73690714Y-102200500D01*
X73809326Y-102200500D01*
X73809329Y-102200500D01*
X73923906Y-102169799D01*
X74026633Y-102110489D01*
X74110509Y-102026613D01*
X74169819Y-101923886D01*
X74200520Y-101809309D01*
X74200520Y-101690691D01*
X74169819Y-101576114D01*
X74167131Y-101571458D01*
X74150520Y-101509461D01*
X74150520Y-79126510D01*
X74152088Y-79121169D01*
X74150991Y-79115713D01*
X74161825Y-79088007D01*
X74170205Y-79059471D01*
X74174410Y-79055827D01*
X74176438Y-79050642D01*
X74200535Y-79033189D01*
X74223009Y-79013716D01*
X74229705Y-79012062D01*
X74233025Y-79009659D01*
X74254275Y-79005997D01*
X74267627Y-79002702D01*
X74271076Y-79002510D01*
X74424694Y-79002510D01*
X74484404Y-78990632D01*
X74493127Y-78990147D01*
X74502486Y-78992338D01*
X74524209Y-78992338D01*
X74575346Y-79002510D01*
X74924694Y-79002510D01*
X74975831Y-78992338D01*
X75024209Y-78992338D01*
X75075346Y-79002510D01*
X75275520Y-79002510D01*
X75342559Y-79022195D01*
X75388314Y-79074999D01*
X75399520Y-79126510D01*
X75399520Y-99996164D01*
X75405853Y-100019797D01*
X75420212Y-100073386D01*
X75420213Y-100073393D01*
X75423402Y-100085297D01*
X75423405Y-100085305D01*
X75423406Y-100085308D01*
X75437263Y-100109309D01*
X75469549Y-100165231D01*
X75870835Y-100566517D01*
X75902927Y-100622102D01*
X75930201Y-100723886D01*
X75989511Y-100826613D01*
X76073387Y-100910489D01*
X76176114Y-100969799D01*
X76290691Y-101000500D01*
X76290694Y-101000500D01*
X76409306Y-101000500D01*
X76409309Y-101000500D01*
X76523886Y-100969799D01*
X76626613Y-100910489D01*
X76710489Y-100826613D01*
X76769799Y-100723886D01*
X76800500Y-100609309D01*
X76800500Y-100583050D01*
X76820185Y-100516011D01*
X76867507Y-100475006D01*
X76866847Y-100473863D01*
X76872778Y-100470438D01*
X76872989Y-100470256D01*
X76873417Y-100470069D01*
X76873883Y-100469799D01*
X76873886Y-100469799D01*
X76976613Y-100410489D01*
X77060489Y-100326613D01*
X77119799Y-100223886D01*
X77144399Y-100132076D01*
X77180763Y-100072419D01*
X77232076Y-100044399D01*
X77323886Y-100019799D01*
X77426613Y-99960489D01*
X77510489Y-99876613D01*
X77569799Y-99773886D01*
X77600500Y-99659309D01*
X77600500Y-99540691D01*
X77569799Y-99426114D01*
X77510489Y-99323387D01*
X77426613Y-99239511D01*
X77323886Y-99180201D01*
X77222102Y-99152927D01*
X77208216Y-99144910D01*
X77194771Y-99141986D01*
X77166517Y-99120835D01*
X77117407Y-99071725D01*
X77083922Y-99010402D01*
X77081088Y-98984044D01*
X77081088Y-82559285D01*
X77100773Y-82492246D01*
X77153577Y-82446491D01*
X77205088Y-82435285D01*
X77290894Y-82435285D01*
X77290897Y-82435285D01*
X77405474Y-82404584D01*
X77508201Y-82345274D01*
X77592077Y-82261398D01*
X77612893Y-82225344D01*
X77663460Y-82177128D01*
X77720280Y-82163344D01*
X77825732Y-82163344D01*
X77825735Y-82163344D01*
X77940312Y-82132643D01*
X78043039Y-82073333D01*
X78126915Y-81989457D01*
X78186225Y-81886730D01*
X78186227Y-81886719D01*
X78189303Y-81879297D01*
X78233141Y-81824891D01*
X78299434Y-81802822D01*
X78303867Y-81802743D01*
X78305283Y-81802743D01*
X78305286Y-81802743D01*
X78419863Y-81772042D01*
X78522590Y-81712732D01*
X78606466Y-81628856D01*
X78639002Y-81572501D01*
X78689569Y-81524286D01*
X78746389Y-81510502D01*
X78829304Y-81510502D01*
X78829307Y-81510502D01*
X78943884Y-81479801D01*
X79046611Y-81420491D01*
X79130487Y-81336615D01*
X79189797Y-81233888D01*
X79189798Y-81233883D01*
X79192627Y-81227054D01*
X79236465Y-81172648D01*
X79302758Y-81150579D01*
X79307191Y-81150500D01*
X79309306Y-81150500D01*
X79309309Y-81150500D01*
X79423886Y-81119799D01*
X79526613Y-81060489D01*
X79610489Y-80976613D01*
X79669799Y-80873886D01*
X79680609Y-80833539D01*
X79716975Y-80773881D01*
X79779822Y-80743353D01*
X79786899Y-80742761D01*
X79786891Y-80742697D01*
X79794947Y-80741636D01*
X79794951Y-80741636D01*
X79909528Y-80710935D01*
X80012255Y-80651625D01*
X80096131Y-80567749D01*
X80118456Y-80529080D01*
X80146506Y-80480500D01*
X80197073Y-80432285D01*
X80253892Y-80418501D01*
X80300505Y-80418501D01*
X80300508Y-80418501D01*
X80415085Y-80387800D01*
X80517812Y-80328490D01*
X80601688Y-80244614D01*
X80649097Y-80162500D01*
X80699664Y-80114284D01*
X80756484Y-80100500D01*
X80809306Y-80100500D01*
X80809309Y-80100500D01*
X80923886Y-80069799D01*
X81026613Y-80010489D01*
X81110489Y-79926613D01*
X81168133Y-79826770D01*
X81218701Y-79778556D01*
X81287308Y-79765334D01*
X81352172Y-79791302D01*
X81392700Y-79848216D01*
X81399520Y-79888772D01*
X81399520Y-92062016D01*
X81379835Y-92129055D01*
X81363201Y-92149697D01*
X81339513Y-92173384D01*
X81339511Y-92173387D01*
X81280201Y-92276114D01*
X81249500Y-92390691D01*
X81249500Y-92509309D01*
X81280201Y-92623886D01*
X81339511Y-92726613D01*
X81423387Y-92810489D01*
X81526114Y-92869799D01*
X81640691Y-92900500D01*
X81640694Y-92900500D01*
X81767436Y-92900500D01*
X81767436Y-92902789D01*
X81824790Y-92911730D01*
X81877048Y-92958107D01*
X81895946Y-93023906D01*
X81895946Y-93376413D01*
X81879333Y-93438413D01*
X81826648Y-93529664D01*
X81826647Y-93529668D01*
X81795946Y-93644245D01*
X81795946Y-93762863D01*
X81826647Y-93877440D01*
X81885957Y-93980167D01*
X81969833Y-94064043D01*
X82072560Y-94123353D01*
X82187137Y-94154054D01*
X82187140Y-94154054D01*
X82275520Y-94154054D01*
X82342559Y-94173739D01*
X82388314Y-94226543D01*
X82399520Y-94278054D01*
X82399520Y-94746224D01*
X82399519Y-94746242D01*
X82399519Y-100646125D01*
X82410013Y-100685289D01*
X82423404Y-100735268D01*
X82469546Y-100815189D01*
X82469550Y-100815194D01*
X84995821Y-103341465D01*
X85027914Y-103397050D01*
X85055201Y-103498886D01*
X85114511Y-103601613D01*
X85198387Y-103685489D01*
X85301114Y-103744799D01*
X85415691Y-103775500D01*
X85415694Y-103775500D01*
X85534306Y-103775500D01*
X85534309Y-103775500D01*
X85648886Y-103744799D01*
X85713500Y-103707493D01*
X85719400Y-103706061D01*
X85723989Y-103702086D01*
X85752953Y-103697921D01*
X85781398Y-103691020D01*
X85787136Y-103693006D01*
X85793147Y-103692142D01*
X85819767Y-103704299D01*
X85847425Y-103713871D01*
X85851178Y-103718644D01*
X85856703Y-103721167D01*
X85872526Y-103745788D01*
X85890617Y-103768792D01*
X85892033Y-103776143D01*
X85894477Y-103779945D01*
X85899500Y-103814880D01*
X85899500Y-104012208D01*
X85879815Y-104079247D01*
X85873877Y-104087693D01*
X85869510Y-104093384D01*
X85821357Y-104176787D01*
X85810198Y-104196114D01*
X85779497Y-104310691D01*
X85779497Y-104310693D01*
X85779497Y-104343953D01*
X85759812Y-104410992D01*
X85707008Y-104456747D01*
X85687592Y-104463727D01*
X85626115Y-104480200D01*
X85626114Y-104480200D01*
X85523387Y-104539511D01*
X85523384Y-104539513D01*
X85439513Y-104623384D01*
X85439511Y-104623387D01*
X85380201Y-104726114D01*
X85349500Y-104840691D01*
X85349500Y-104840693D01*
X85349500Y-104925500D01*
X85329815Y-104992539D01*
X85277011Y-105038294D01*
X85225500Y-105049500D01*
X82650506Y-105049500D01*
X82583467Y-105029815D01*
X82562824Y-105013181D01*
X82526654Y-104977011D01*
X82452174Y-104902530D01*
X82389141Y-104866138D01*
X82372252Y-104856387D01*
X82372251Y-104856386D01*
X82372250Y-104856386D01*
X82283106Y-104832500D01*
X78670856Y-104832500D01*
X78581712Y-104856386D01*
X78581709Y-104856387D01*
X78501791Y-104902527D01*
X78501786Y-104902531D01*
X76283482Y-107120835D01*
X76227895Y-107152928D01*
X76126114Y-107180201D01*
X76126112Y-107180201D01*
X76126112Y-107180202D01*
X76023387Y-107239511D01*
X76023384Y-107239513D01*
X75939513Y-107323384D01*
X75939511Y-107323387D01*
X75885091Y-107417645D01*
X75880201Y-107426114D01*
X75849500Y-107540691D01*
X75849500Y-107659309D01*
X75880201Y-107773886D01*
X75939511Y-107876613D01*
X76023387Y-107960489D01*
X76126114Y-108019799D01*
X76240691Y-108050500D01*
X76240694Y-108050500D01*
X76359306Y-108050500D01*
X76359309Y-108050500D01*
X76473886Y-108019799D01*
X76576613Y-107960489D01*
X76660489Y-107876613D01*
X76719799Y-107773886D01*
X76747072Y-107672100D01*
X76779162Y-107616519D01*
X78212819Y-106182863D01*
X78225887Y-106175726D01*
X78235898Y-106164702D01*
X78255934Y-106159320D01*
X78274142Y-106149378D01*
X78288993Y-106150440D01*
X78303376Y-106146577D01*
X78323140Y-106152882D01*
X78343834Y-106154362D01*
X78355755Y-106163286D01*
X78369941Y-106167812D01*
X78383158Y-106183801D01*
X78399767Y-106196234D01*
X78405720Y-106211092D01*
X78414459Y-106221663D01*
X78419195Y-106244722D01*
X78423614Y-106255749D01*
X78424500Y-106263121D01*
X78424500Y-106299674D01*
X78435596Y-106355460D01*
X78436167Y-106360205D01*
X78434671Y-106369134D01*
X78434671Y-106399190D01*
X78424500Y-106450326D01*
X78424500Y-107049678D01*
X78439032Y-107122735D01*
X78439033Y-107122739D01*
X78445719Y-107132745D01*
X78494399Y-107205601D01*
X78565410Y-107253048D01*
X78577260Y-107260966D01*
X78577264Y-107260967D01*
X78650321Y-107275499D01*
X78650324Y-107275500D01*
X78650326Y-107275500D01*
X79249676Y-107275500D01*
X79249677Y-107275499D01*
X79322740Y-107260966D01*
X79405601Y-107205601D01*
X79460966Y-107122740D01*
X79475500Y-107049674D01*
X79475500Y-106450326D01*
X79465328Y-106399188D01*
X79465328Y-106350811D01*
X79475500Y-106299674D01*
X79475500Y-106021544D01*
X79484144Y-105992103D01*
X79490668Y-105962117D01*
X79494422Y-105957101D01*
X79495185Y-105954505D01*
X79511819Y-105933863D01*
X79554863Y-105890819D01*
X79616186Y-105857334D01*
X79642544Y-105854500D01*
X81907456Y-105854500D01*
X81974495Y-105874185D01*
X81995137Y-105890819D01*
X82930137Y-106825819D01*
X82963622Y-106887142D01*
X82958638Y-106956834D01*
X82916766Y-107012767D01*
X82851302Y-107037184D01*
X82842456Y-107037500D01*
X82658088Y-107037500D01*
X82596088Y-107020887D01*
X82523886Y-106979201D01*
X82409309Y-106948500D01*
X82290691Y-106948500D01*
X82176114Y-106979201D01*
X82176112Y-106979201D01*
X82176112Y-106979202D01*
X82073387Y-107038511D01*
X82073384Y-107038513D01*
X81989513Y-107122384D01*
X81989511Y-107122387D01*
X81932908Y-107220426D01*
X81930201Y-107225114D01*
X81899500Y-107339691D01*
X81899500Y-107458309D01*
X81930201Y-107572886D01*
X81989511Y-107675613D01*
X82073387Y-107759489D01*
X82176114Y-107818799D01*
X82275843Y-107845521D01*
X82285652Y-107851500D01*
X82297001Y-107853312D01*
X82314948Y-107869356D01*
X82335502Y-107881885D01*
X82341861Y-107893417D01*
X82349090Y-107899880D01*
X82362512Y-107930866D01*
X82363252Y-107932208D01*
X82363399Y-107932739D01*
X82376568Y-107981886D01*
X82377410Y-107983344D01*
X82379921Y-107992413D01*
X82379493Y-108020044D01*
X82382446Y-108047521D01*
X82378959Y-108054485D01*
X82378839Y-108062274D01*
X82363538Y-108085289D01*
X82351169Y-108109999D01*
X82344470Y-108113973D01*
X82340158Y-108120460D01*
X82314841Y-108131551D01*
X82291078Y-108145649D01*
X82279277Y-108147131D01*
X82276160Y-108148497D01*
X82272744Y-108147951D01*
X82260417Y-108149500D01*
X77577140Y-108149500D01*
X77515140Y-108132887D01*
X77423886Y-108080201D01*
X77309309Y-108049500D01*
X77190691Y-108049500D01*
X77076114Y-108080201D01*
X77076112Y-108080201D01*
X77076112Y-108080202D01*
X76973387Y-108139511D01*
X76973384Y-108139513D01*
X76889513Y-108223384D01*
X76889511Y-108223387D01*
X76860355Y-108273887D01*
X76830201Y-108326114D01*
X76799500Y-108440691D01*
X76799500Y-108440693D01*
X76799500Y-108525500D01*
X76779815Y-108592539D01*
X76727011Y-108638294D01*
X76675500Y-108649500D01*
X67337000Y-108649500D01*
X67269961Y-108629815D01*
X67224206Y-108577011D01*
X67213000Y-108525500D01*
X67213000Y-108430323D01*
X67212999Y-108430321D01*
X67198467Y-108357264D01*
X67198466Y-108357260D01*
X67179270Y-108328531D01*
X67143101Y-108274399D01*
X67066755Y-108223387D01*
X67060239Y-108219033D01*
X67060235Y-108219032D01*
X66987177Y-108204500D01*
X66987174Y-108204500D01*
X66487826Y-108204500D01*
X66487823Y-108204500D01*
X66414764Y-108219032D01*
X66414760Y-108219033D01*
X66331899Y-108274399D01*
X66276533Y-108357260D01*
X66276532Y-108357264D01*
X66262000Y-108430321D01*
X66262000Y-108930500D01*
X66242315Y-108997539D01*
X66189511Y-109043294D01*
X66138000Y-109054500D01*
X65637823Y-109054500D01*
X65564764Y-109069032D01*
X65564760Y-109069033D01*
X65543390Y-109083313D01*
X65476712Y-109104190D01*
X65409332Y-109085705D01*
X65362643Y-109033726D01*
X65350500Y-108980210D01*
X65350500Y-108042105D01*
X65370185Y-107975066D01*
X65405609Y-107939003D01*
X65455601Y-107905601D01*
X65510966Y-107822740D01*
X65525500Y-107749674D01*
X65525500Y-107150326D01*
X65515328Y-107099188D01*
X65515328Y-107050810D01*
X65525500Y-106999674D01*
X65525500Y-106400326D01*
X65525500Y-106400323D01*
X65525499Y-106400321D01*
X65510967Y-106327264D01*
X65510966Y-106327260D01*
X65492533Y-106299673D01*
X65455601Y-106244399D01*
X65405608Y-106210995D01*
X65400517Y-106204903D01*
X65393297Y-106201606D01*
X65378433Y-106178477D01*
X65360804Y-106157382D01*
X65358852Y-106148008D01*
X65355523Y-106142828D01*
X65350500Y-106107893D01*
X65350500Y-106077140D01*
X65367112Y-106015140D01*
X65419799Y-105923886D01*
X65450500Y-105809309D01*
X65450500Y-105690691D01*
X65419799Y-105576114D01*
X65360489Y-105473387D01*
X65276613Y-105389511D01*
X65173886Y-105330201D01*
X65059309Y-105299500D01*
X64940691Y-105299500D01*
X64826114Y-105330201D01*
X64826112Y-105330201D01*
X64826112Y-105330202D01*
X64723387Y-105389511D01*
X64723384Y-105389513D01*
X64639513Y-105473384D01*
X64639511Y-105473387D01*
X64619662Y-105507767D01*
X64580201Y-105576114D01*
X64549500Y-105690691D01*
X64549500Y-105809309D01*
X64580201Y-105923886D01*
X64632887Y-106015140D01*
X64637037Y-106030628D01*
X64644477Y-106042205D01*
X64649500Y-106077140D01*
X64649500Y-106107893D01*
X64629815Y-106174932D01*
X64594392Y-106210995D01*
X64544399Y-106244399D01*
X64489033Y-106327260D01*
X64489032Y-106327264D01*
X64474500Y-106400321D01*
X64474500Y-106999673D01*
X64484671Y-107050810D01*
X64484671Y-107099190D01*
X64474500Y-107150326D01*
X64474500Y-107749678D01*
X64489032Y-107822735D01*
X64489033Y-107822739D01*
X64502827Y-107843384D01*
X64544399Y-107905601D01*
X64594390Y-107939003D01*
X64639195Y-107992613D01*
X64649500Y-108042105D01*
X64649500Y-108617363D01*
X64641392Y-108644974D01*
X64636174Y-108673286D01*
X64631668Y-108678088D01*
X64629815Y-108684402D01*
X64608070Y-108703243D01*
X64588371Y-108724243D01*
X64581984Y-108725847D01*
X64577011Y-108730157D01*
X64548521Y-108734253D01*
X64520606Y-108741266D01*
X64512351Y-108739454D01*
X64507853Y-108740101D01*
X64485897Y-108734869D01*
X64476465Y-108731690D01*
X64473886Y-108730201D01*
X64464910Y-108727796D01*
X64461187Y-108726541D01*
X64444330Y-108714742D01*
X64413109Y-108696716D01*
X62936819Y-107220426D01*
X62903334Y-107159103D01*
X62900500Y-107132745D01*
X62900500Y-105299529D01*
X62920185Y-105232490D01*
X62950867Y-105199759D01*
X62957393Y-105194942D01*
X63022150Y-105147150D01*
X63102793Y-105037882D01*
X63133719Y-104949500D01*
X63147646Y-104909701D01*
X63147646Y-104909699D01*
X63150500Y-104879269D01*
X63150500Y-104220730D01*
X63147646Y-104190300D01*
X63147646Y-104190298D01*
X63102793Y-104062119D01*
X63102792Y-104062117D01*
X63079237Y-104030201D01*
X63022150Y-103952850D01*
X62912882Y-103872207D01*
X62912880Y-103872206D01*
X62784700Y-103827353D01*
X62754270Y-103824500D01*
X62754266Y-103824500D01*
X62245734Y-103824500D01*
X62245730Y-103824500D01*
X62215300Y-103827353D01*
X62215298Y-103827353D01*
X62087119Y-103872206D01*
X62087117Y-103872207D01*
X61977850Y-103952850D01*
X61897207Y-104062117D01*
X61897206Y-104062119D01*
X61852353Y-104190298D01*
X61852353Y-104190300D01*
X61849500Y-104220730D01*
X61849500Y-104879269D01*
X61852353Y-104909699D01*
X61852353Y-104909701D01*
X61894384Y-105029815D01*
X61897207Y-105037882D01*
X61977849Y-105147149D01*
X61977851Y-105147151D01*
X62049133Y-105199759D01*
X62091384Y-105255406D01*
X62099500Y-105299529D01*
X62099500Y-107297273D01*
X62099500Y-107402727D01*
X62106394Y-107428456D01*
X62126793Y-107504589D01*
X62129704Y-107509630D01*
X62179520Y-107595913D01*
X62179522Y-107595915D01*
X63846716Y-109263109D01*
X63851347Y-109270039D01*
X63855585Y-109272982D01*
X63862792Y-109287168D01*
X63873595Y-109303335D01*
X63876707Y-109310849D01*
X63880201Y-109323886D01*
X63886950Y-109335575D01*
X63890060Y-109343083D01*
X63892255Y-109363503D01*
X63899500Y-109390538D01*
X63899500Y-116047273D01*
X63899500Y-116152727D01*
X63906674Y-116179500D01*
X63926793Y-116254589D01*
X63979522Y-116345916D01*
X64017180Y-116383573D01*
X64050666Y-116444896D01*
X64053500Y-116471255D01*
X64053500Y-123451273D01*
X64053500Y-123556727D01*
X64061038Y-123584858D01*
X64080793Y-123658589D01*
X64089337Y-123673387D01*
X64133520Y-123749913D01*
X64133522Y-123749915D01*
X64446716Y-124063109D01*
X64451347Y-124070039D01*
X64455585Y-124072982D01*
X64462792Y-124087168D01*
X64473595Y-124103335D01*
X64476707Y-124110849D01*
X64480201Y-124123886D01*
X64486950Y-124135575D01*
X64490060Y-124143083D01*
X64492255Y-124163503D01*
X64499500Y-124190537D01*
X64499500Y-130847273D01*
X64499500Y-130952727D01*
X64505307Y-130974399D01*
X64526793Y-131054589D01*
X64553156Y-131100250D01*
X64579520Y-131145913D01*
X64579522Y-131145915D01*
X64596716Y-131163109D01*
X64601347Y-131170039D01*
X64605585Y-131172982D01*
X64612792Y-131187168D01*
X64623595Y-131203335D01*
X64626707Y-131210849D01*
X64630201Y-131223886D01*
X64636950Y-131235575D01*
X64640060Y-131243083D01*
X64642255Y-131263503D01*
X64649500Y-131290538D01*
X64649500Y-137302726D01*
X64676793Y-137404589D01*
X64680272Y-137410614D01*
X64729520Y-137495913D01*
X64729522Y-137495915D01*
X65496716Y-138263109D01*
X65501347Y-138270039D01*
X65505585Y-138272982D01*
X65512792Y-138287168D01*
X65523595Y-138303335D01*
X65526707Y-138310849D01*
X65530201Y-138323886D01*
X65536950Y-138335575D01*
X65540060Y-138343083D01*
X65542255Y-138363503D01*
X65549500Y-138390538D01*
X65549500Y-144652726D01*
X65576793Y-144754589D01*
X65591279Y-144779678D01*
X65629520Y-144845913D01*
X65799679Y-145016071D01*
X65819379Y-145041745D01*
X65839511Y-145076613D01*
X65923387Y-145160489D01*
X66026114Y-145219799D01*
X66140691Y-145250500D01*
X66140694Y-145250500D01*
X66259306Y-145250500D01*
X66259309Y-145250500D01*
X66373886Y-145219799D01*
X66413501Y-145196927D01*
X66481397Y-145180454D01*
X66547425Y-145203305D01*
X66590617Y-145258225D01*
X66599500Y-145304314D01*
X66599500Y-145957893D01*
X66579815Y-146024932D01*
X66544392Y-146060995D01*
X66494399Y-146094399D01*
X66439033Y-146177260D01*
X66439032Y-146177264D01*
X66424500Y-146250321D01*
X66424500Y-146849673D01*
X66434671Y-146900810D01*
X66434671Y-146949190D01*
X66424500Y-147000326D01*
X66424500Y-147599678D01*
X66439032Y-147672735D01*
X66439033Y-147672739D01*
X66439034Y-147672740D01*
X66494399Y-147755601D01*
X66577260Y-147810966D01*
X66577264Y-147810967D01*
X66650321Y-147825499D01*
X66650324Y-147825500D01*
X66650326Y-147825500D01*
X67249676Y-147825500D01*
X67249677Y-147825499D01*
X67322740Y-147810966D01*
X67405601Y-147755601D01*
X67460966Y-147672740D01*
X67475500Y-147599674D01*
X67475500Y-147000326D01*
X67465327Y-146949185D01*
X67463123Y-146918355D01*
X67463597Y-146909510D01*
X67475500Y-146849674D01*
X67475500Y-146687712D01*
X67475678Y-146684396D01*
X67486243Y-146654453D01*
X67495185Y-146624002D01*
X67497782Y-146621751D01*
X67498927Y-146618508D01*
X67524006Y-146599027D01*
X67547989Y-146578247D01*
X67551390Y-146577757D01*
X67554107Y-146575648D01*
X67585732Y-146572820D01*
X67617147Y-146568303D01*
X67622945Y-146569492D01*
X67623699Y-146569425D01*
X67624396Y-146569789D01*
X67631572Y-146571261D01*
X67740691Y-146600500D01*
X67740694Y-146600500D01*
X67859306Y-146600500D01*
X67859309Y-146600500D01*
X67973886Y-146569799D01*
X68076613Y-146510489D01*
X68160489Y-146426613D01*
X68219799Y-146323886D01*
X68250500Y-146209309D01*
X68250500Y-146090691D01*
X68220043Y-145977024D01*
X68221706Y-145907178D01*
X68260868Y-145849315D01*
X68325096Y-145821811D01*
X68364010Y-145823317D01*
X68437823Y-145838000D01*
X68437826Y-145838000D01*
X68937176Y-145838000D01*
X68937177Y-145837999D01*
X68954219Y-145834609D01*
X69022219Y-145821084D01*
X69022914Y-145824582D01*
X69071614Y-145819339D01*
X69134098Y-145850603D01*
X69137298Y-145853691D01*
X69608087Y-146324480D01*
X69699412Y-146377207D01*
X69801273Y-146404500D01*
X78300500Y-146404500D01*
X78367539Y-146424185D01*
X78413294Y-146476989D01*
X78424500Y-146528500D01*
X78424500Y-146849673D01*
X78434671Y-146900810D01*
X78434671Y-146949190D01*
X78424500Y-147000326D01*
X78424500Y-147599678D01*
X78439032Y-147672735D01*
X78439033Y-147672739D01*
X78439034Y-147672740D01*
X78494399Y-147755601D01*
X78577260Y-147810966D01*
X78577264Y-147810967D01*
X78650321Y-147825499D01*
X78650324Y-147825500D01*
X78650326Y-147825500D01*
X79249676Y-147825500D01*
X79249677Y-147825499D01*
X79322740Y-147810966D01*
X79405601Y-147755601D01*
X79460966Y-147672740D01*
X79475500Y-147599674D01*
X79475500Y-147468104D01*
X79495185Y-147401065D01*
X79547989Y-147355310D01*
X79567394Y-147348333D01*
X79673886Y-147319799D01*
X79776613Y-147260489D01*
X79860489Y-147176613D01*
X79919799Y-147073886D01*
X79950500Y-146959309D01*
X79950500Y-146840691D01*
X79919799Y-146726114D01*
X79860489Y-146623387D01*
X79853283Y-146616181D01*
X79819798Y-146554858D01*
X79824782Y-146485166D01*
X79866654Y-146429233D01*
X79932118Y-146404816D01*
X79940964Y-146404500D01*
X80098725Y-146404500D01*
X80098727Y-146404500D01*
X80200588Y-146377207D01*
X80291913Y-146324480D01*
X80599819Y-146016572D01*
X80607764Y-146012234D01*
X80613190Y-146004987D01*
X80637949Y-145995752D01*
X80661142Y-145983088D01*
X80670171Y-145983733D01*
X80678654Y-145980570D01*
X80704474Y-145986186D01*
X80730833Y-145988072D01*
X80739886Y-145993890D01*
X80746927Y-145995422D01*
X80775181Y-146016573D01*
X80876179Y-146117571D01*
X80876189Y-146117582D01*
X80955088Y-146196481D01*
X80977308Y-146209309D01*
X80977307Y-146209309D01*
X80977310Y-146209310D01*
X81046407Y-146249204D01*
X81046410Y-146249206D01*
X81046412Y-146249206D01*
X81046413Y-146249207D01*
X81148273Y-146276501D01*
X81148275Y-146276501D01*
X81261323Y-146276501D01*
X81261339Y-146276500D01*
X90250500Y-146276500D01*
X90317539Y-146296185D01*
X90363294Y-146348989D01*
X90374500Y-146400500D01*
X90374500Y-146849673D01*
X90384671Y-146900810D01*
X90384671Y-146949190D01*
X90374500Y-147000326D01*
X90374500Y-147599678D01*
X90389032Y-147672735D01*
X90389033Y-147672739D01*
X90389034Y-147672740D01*
X90444399Y-147755601D01*
X90527260Y-147810966D01*
X90527264Y-147810967D01*
X90600321Y-147825499D01*
X90600324Y-147825500D01*
X90600326Y-147825500D01*
X91199676Y-147825500D01*
X91199677Y-147825499D01*
X91272740Y-147810966D01*
X91355601Y-147755601D01*
X91410966Y-147672740D01*
X91425500Y-147599674D01*
X91425500Y-147574500D01*
X91445185Y-147507461D01*
X91497989Y-147461706D01*
X91549500Y-147450500D01*
X91559306Y-147450500D01*
X91559309Y-147450500D01*
X91673886Y-147419799D01*
X91776613Y-147360489D01*
X91860489Y-147276613D01*
X91919799Y-147173886D01*
X91950500Y-147059309D01*
X91950500Y-146940691D01*
X91919799Y-146826114D01*
X91860489Y-146723387D01*
X91776613Y-146639511D01*
X91673886Y-146580201D01*
X91559309Y-146549500D01*
X91549500Y-146549500D01*
X91540814Y-146546949D01*
X91531853Y-146548238D01*
X91507812Y-146537259D01*
X91482461Y-146529815D01*
X91476533Y-146522974D01*
X91468297Y-146519213D01*
X91454007Y-146496978D01*
X91436706Y-146477011D01*
X91434418Y-146466496D01*
X91430523Y-146460435D01*
X91425500Y-146425500D01*
X91425500Y-146400500D01*
X91445185Y-146333461D01*
X91497989Y-146287706D01*
X91549500Y-146276500D01*
X92194225Y-146276500D01*
X92194227Y-146276500D01*
X92296088Y-146249207D01*
X92387413Y-146196480D01*
X92692074Y-145891819D01*
X92753397Y-145858334D01*
X92779755Y-145855500D01*
X92887176Y-145855500D01*
X92887177Y-145855499D01*
X92960240Y-145840966D01*
X93043101Y-145785601D01*
X93098466Y-145702740D01*
X93113000Y-145629674D01*
X93113000Y-145130326D01*
X93113000Y-145130323D01*
X93112999Y-145130321D01*
X93098467Y-145057264D01*
X93098467Y-145057262D01*
X93098466Y-145057260D01*
X93076167Y-145023887D01*
X93055291Y-144957214D01*
X93073775Y-144889834D01*
X93076128Y-144886170D01*
X93098466Y-144852740D01*
X93113000Y-144779674D01*
X93113000Y-144280326D01*
X93113000Y-144280323D01*
X93112999Y-144280321D01*
X93098467Y-144207264D01*
X93098466Y-144207260D01*
X93086773Y-144189760D01*
X93043101Y-144124399D01*
X92960240Y-144069034D01*
X92960239Y-144069033D01*
X92960235Y-144069032D01*
X92887177Y-144054500D01*
X92887174Y-144054500D01*
X92709044Y-144054500D01*
X92642005Y-144034815D01*
X92621363Y-144018181D01*
X92389213Y-143786031D01*
X92389208Y-143786027D01*
X92309290Y-143739887D01*
X92309289Y-143739886D01*
X92309288Y-143739886D01*
X92220144Y-143716000D01*
X92220143Y-143716000D01*
X91549500Y-143716000D01*
X91540814Y-143713449D01*
X91531853Y-143714738D01*
X91507812Y-143703759D01*
X91482461Y-143696315D01*
X91476533Y-143689474D01*
X91468297Y-143685713D01*
X91454007Y-143663478D01*
X91436706Y-143643511D01*
X91434418Y-143632996D01*
X91430523Y-143626935D01*
X91425500Y-143592000D01*
X91425500Y-143518104D01*
X91445185Y-143451065D01*
X91497989Y-143405310D01*
X91517394Y-143398333D01*
X91623886Y-143369799D01*
X91726613Y-143310489D01*
X91810489Y-143226613D01*
X91869799Y-143123886D01*
X91900500Y-143009309D01*
X91900500Y-142890691D01*
X91869799Y-142776114D01*
X91810489Y-142673387D01*
X91726613Y-142589511D01*
X91623886Y-142530201D01*
X91517404Y-142501669D01*
X91457746Y-142465305D01*
X91427217Y-142402458D01*
X91425500Y-142381895D01*
X91425500Y-142250323D01*
X91425499Y-142250321D01*
X91410967Y-142177264D01*
X91410966Y-142177260D01*
X91355601Y-142094399D01*
X91272740Y-142039034D01*
X91272739Y-142039033D01*
X91272735Y-142039032D01*
X91199677Y-142024500D01*
X91199674Y-142024500D01*
X90600326Y-142024500D01*
X90600323Y-142024500D01*
X90527264Y-142039032D01*
X90527260Y-142039033D01*
X90444399Y-142094399D01*
X90389033Y-142177260D01*
X90389032Y-142177264D01*
X90374500Y-142250321D01*
X90374500Y-142849673D01*
X90384671Y-142900810D01*
X90384671Y-142949190D01*
X90374500Y-143000326D01*
X90374500Y-143592000D01*
X90354815Y-143659039D01*
X90302011Y-143704794D01*
X90250500Y-143716000D01*
X79599500Y-143716000D01*
X79590814Y-143713449D01*
X79581853Y-143714738D01*
X79557812Y-143703759D01*
X79532461Y-143696315D01*
X79526533Y-143689474D01*
X79518297Y-143685713D01*
X79504007Y-143663478D01*
X79486706Y-143643511D01*
X79484418Y-143632996D01*
X79480523Y-143626935D01*
X79475500Y-143592000D01*
X79475500Y-143504707D01*
X79495185Y-143437668D01*
X79547989Y-143391913D01*
X79567400Y-143384934D01*
X79623886Y-143369799D01*
X79726613Y-143310489D01*
X79810489Y-143226613D01*
X79869799Y-143123886D01*
X79900500Y-143009309D01*
X79900500Y-142890691D01*
X79869799Y-142776114D01*
X79810489Y-142673387D01*
X79726613Y-142589511D01*
X79623888Y-142530202D01*
X79623885Y-142530200D01*
X79567405Y-142515066D01*
X79507745Y-142478701D01*
X79477217Y-142415853D01*
X79475500Y-142395292D01*
X79475500Y-142250323D01*
X79475499Y-142250321D01*
X79460967Y-142177264D01*
X79460966Y-142177260D01*
X79405601Y-142094399D01*
X79322740Y-142039034D01*
X79322739Y-142039033D01*
X79322735Y-142039032D01*
X79249677Y-142024500D01*
X79249674Y-142024500D01*
X78650326Y-142024500D01*
X78650323Y-142024500D01*
X78577264Y-142039032D01*
X78577260Y-142039033D01*
X78494399Y-142094399D01*
X78439033Y-142177260D01*
X78439032Y-142177264D01*
X78424500Y-142250321D01*
X78424500Y-142849673D01*
X78434671Y-142900810D01*
X78434671Y-142949190D01*
X78424500Y-143000326D01*
X78424500Y-143592000D01*
X78404815Y-143659039D01*
X78352011Y-143704794D01*
X78300500Y-143716000D01*
X69571043Y-143716000D01*
X69504004Y-143696315D01*
X69483362Y-143679681D01*
X68224319Y-142420637D01*
X68190834Y-142359314D01*
X68188000Y-142332956D01*
X68188000Y-138953328D01*
X68207685Y-138886289D01*
X68260489Y-138840534D01*
X68325827Y-138830101D01*
X68353074Y-138833158D01*
X68364760Y-138840966D01*
X68437826Y-138855500D01*
X68552183Y-138855500D01*
X68559072Y-138856273D01*
X68585151Y-138867218D01*
X68612284Y-138875185D01*
X68621139Y-138882321D01*
X68623498Y-138883311D01*
X68624901Y-138885352D01*
X68632926Y-138891819D01*
X68937587Y-139196480D01*
X69028912Y-139249207D01*
X69130773Y-139276500D01*
X69236227Y-139276500D01*
X78300500Y-139276500D01*
X78367539Y-139296185D01*
X78413294Y-139348989D01*
X78424500Y-139400500D01*
X78424500Y-139849673D01*
X78434671Y-139900810D01*
X78434671Y-139949190D01*
X78424500Y-140000326D01*
X78424500Y-140599678D01*
X78439032Y-140672735D01*
X78439033Y-140672739D01*
X78439034Y-140672740D01*
X78494399Y-140755601D01*
X78543390Y-140788335D01*
X78577260Y-140810966D01*
X78577264Y-140810967D01*
X78650321Y-140825499D01*
X78650324Y-140825500D01*
X78650326Y-140825500D01*
X79249676Y-140825500D01*
X79249677Y-140825499D01*
X79322740Y-140810966D01*
X79405601Y-140755601D01*
X79460966Y-140672740D01*
X79475500Y-140599674D01*
X79475500Y-140518104D01*
X79495185Y-140451065D01*
X79547989Y-140405310D01*
X79567394Y-140398333D01*
X79673886Y-140369799D01*
X79776613Y-140310489D01*
X79860489Y-140226613D01*
X79919799Y-140123886D01*
X79950500Y-140009309D01*
X79950500Y-139890691D01*
X79919799Y-139776114D01*
X79860489Y-139673387D01*
X79776613Y-139589511D01*
X79673886Y-139530201D01*
X79636838Y-139520274D01*
X79577180Y-139483910D01*
X79546651Y-139421063D01*
X79554946Y-139351687D01*
X79599431Y-139297809D01*
X79665983Y-139276535D01*
X79668934Y-139276500D01*
X80244225Y-139276500D01*
X80244227Y-139276500D01*
X80346088Y-139249207D01*
X80437413Y-139196480D01*
X80599819Y-139034074D01*
X80661142Y-139000589D01*
X80730834Y-139005573D01*
X80775181Y-139034074D01*
X80937587Y-139196480D01*
X81028912Y-139249207D01*
X81130773Y-139276500D01*
X81236227Y-139276500D01*
X90250500Y-139276500D01*
X90317539Y-139296185D01*
X90363294Y-139348989D01*
X90374500Y-139400500D01*
X90374500Y-139849673D01*
X90384671Y-139900810D01*
X90384671Y-139949190D01*
X90374500Y-140000326D01*
X90374500Y-140599678D01*
X90389032Y-140672735D01*
X90389033Y-140672739D01*
X90389034Y-140672740D01*
X90444399Y-140755601D01*
X90493390Y-140788335D01*
X90527260Y-140810966D01*
X90527264Y-140810967D01*
X90600321Y-140825499D01*
X90600324Y-140825500D01*
X90600326Y-140825500D01*
X91199676Y-140825500D01*
X91199677Y-140825499D01*
X91272740Y-140810966D01*
X91355601Y-140755601D01*
X91410966Y-140672740D01*
X91425500Y-140599674D01*
X91425500Y-140504707D01*
X91445185Y-140437668D01*
X91497989Y-140391913D01*
X91517400Y-140384934D01*
X91573886Y-140369799D01*
X91676613Y-140310489D01*
X91760489Y-140226613D01*
X91819799Y-140123886D01*
X91850500Y-140009309D01*
X91850500Y-139890691D01*
X91819799Y-139776114D01*
X91760489Y-139673387D01*
X91676613Y-139589511D01*
X91573886Y-139530201D01*
X91536838Y-139520274D01*
X91477180Y-139483910D01*
X91446651Y-139421063D01*
X91454946Y-139351687D01*
X91499431Y-139297809D01*
X91565983Y-139276535D01*
X91568934Y-139276500D01*
X92194225Y-139276500D01*
X92194227Y-139276500D01*
X92296088Y-139249207D01*
X92387413Y-139196480D01*
X92692074Y-138891819D01*
X92753397Y-138858334D01*
X92779755Y-138855500D01*
X92887176Y-138855500D01*
X92887177Y-138855499D01*
X92960240Y-138840966D01*
X93043101Y-138785601D01*
X93098466Y-138702740D01*
X93113000Y-138629674D01*
X93113000Y-138130326D01*
X93113000Y-138130323D01*
X93112999Y-138130321D01*
X93098467Y-138057264D01*
X93098467Y-138057262D01*
X93098466Y-138057260D01*
X93076167Y-138023887D01*
X93055291Y-137957214D01*
X93073775Y-137889834D01*
X93076128Y-137886170D01*
X93098466Y-137852740D01*
X93113000Y-137779674D01*
X93113000Y-137280326D01*
X93113000Y-137280323D01*
X93112999Y-137280321D01*
X93098467Y-137207264D01*
X93098466Y-137207260D01*
X93095878Y-137203387D01*
X93043101Y-137124399D01*
X92960240Y-137069034D01*
X92960239Y-137069033D01*
X92960235Y-137069032D01*
X92887177Y-137054500D01*
X92887174Y-137054500D01*
X92709044Y-137054500D01*
X92642005Y-137034815D01*
X92621363Y-137018181D01*
X92406713Y-136803531D01*
X92406708Y-136803527D01*
X92326788Y-136757386D01*
X92320128Y-136755601D01*
X92320127Y-136755601D01*
X92278885Y-136744550D01*
X92237644Y-136733500D01*
X92237643Y-136733500D01*
X91549132Y-136733500D01*
X91540235Y-136730887D01*
X91531054Y-136732175D01*
X91507245Y-136721200D01*
X91482093Y-136713815D01*
X91476021Y-136706808D01*
X91467601Y-136702927D01*
X91453503Y-136680821D01*
X91436338Y-136661011D01*
X91434021Y-136650271D01*
X91430033Y-136644017D01*
X91428063Y-136622649D01*
X91425133Y-136609065D01*
X91425159Y-136601383D01*
X91425500Y-136599674D01*
X91425500Y-136504556D01*
X91425501Y-136504272D01*
X91435390Y-136471022D01*
X91445185Y-136437668D01*
X91445356Y-136437519D01*
X91445421Y-136437302D01*
X91471851Y-136414561D01*
X91497989Y-136391913D01*
X91498307Y-136391798D01*
X91498385Y-136391732D01*
X91498561Y-136391707D01*
X91517400Y-136384934D01*
X91573886Y-136369799D01*
X91676613Y-136310489D01*
X91760489Y-136226613D01*
X91819799Y-136123886D01*
X91850500Y-136009309D01*
X91850500Y-135890691D01*
X91819799Y-135776114D01*
X91760489Y-135673387D01*
X91676613Y-135589511D01*
X91590015Y-135539513D01*
X91573885Y-135530200D01*
X91517405Y-135515066D01*
X91457745Y-135478701D01*
X91427217Y-135415853D01*
X91425500Y-135395292D01*
X91425500Y-135250323D01*
X91425499Y-135250321D01*
X91410967Y-135177264D01*
X91410966Y-135177260D01*
X91355601Y-135094399D01*
X91272740Y-135039034D01*
X91272739Y-135039033D01*
X91272735Y-135039032D01*
X91199677Y-135024500D01*
X91199674Y-135024500D01*
X90600326Y-135024500D01*
X90600323Y-135024500D01*
X90527264Y-135039032D01*
X90527260Y-135039033D01*
X90444399Y-135094399D01*
X90389033Y-135177260D01*
X90389032Y-135177264D01*
X90374500Y-135250321D01*
X90374500Y-135849673D01*
X90384671Y-135900810D01*
X90384671Y-135949190D01*
X90374500Y-136000326D01*
X90374500Y-136605766D01*
X90372672Y-136605766D01*
X90361256Y-136665985D01*
X90313194Y-136716698D01*
X90250868Y-136733500D01*
X79599132Y-136733500D01*
X79590291Y-136730904D01*
X79581166Y-136732192D01*
X79557295Y-136721215D01*
X79532093Y-136713815D01*
X79526058Y-136706851D01*
X79517686Y-136703001D01*
X79503539Y-136680862D01*
X79486338Y-136661011D01*
X79484028Y-136650329D01*
X79480064Y-136644125D01*
X79478097Y-136622892D01*
X79475132Y-136609177D01*
X79475152Y-136601422D01*
X79475500Y-136599674D01*
X79475500Y-136467781D01*
X79485466Y-136434160D01*
X79495185Y-136401065D01*
X79495310Y-136400956D01*
X79495359Y-136400793D01*
X79521967Y-136377857D01*
X79547989Y-136355310D01*
X79548224Y-136355225D01*
X79548282Y-136355176D01*
X79548413Y-136355157D01*
X79567394Y-136348333D01*
X79673886Y-136319799D01*
X79776613Y-136260489D01*
X79860489Y-136176613D01*
X79919799Y-136073886D01*
X79950500Y-135959309D01*
X79950500Y-135840691D01*
X79919799Y-135726114D01*
X79860489Y-135623387D01*
X79776613Y-135539511D01*
X79673886Y-135480201D01*
X79567404Y-135451669D01*
X79507746Y-135415305D01*
X79477217Y-135352458D01*
X79475500Y-135331895D01*
X79475500Y-135250323D01*
X79475499Y-135250321D01*
X79460967Y-135177264D01*
X79460966Y-135177260D01*
X79405601Y-135094399D01*
X79322740Y-135039034D01*
X79322739Y-135039033D01*
X79322735Y-135039032D01*
X79249677Y-135024500D01*
X79249674Y-135024500D01*
X78650326Y-135024500D01*
X78650323Y-135024500D01*
X78577264Y-135039032D01*
X78577260Y-135039033D01*
X78494399Y-135094399D01*
X78439033Y-135177260D01*
X78439032Y-135177264D01*
X78424500Y-135250321D01*
X78424500Y-135849673D01*
X78434671Y-135900810D01*
X78434671Y-135949190D01*
X78424500Y-136000326D01*
X78424500Y-136605766D01*
X78422672Y-136605766D01*
X78411256Y-136665985D01*
X78363194Y-136716698D01*
X78300868Y-136733500D01*
X72322544Y-136733500D01*
X72255505Y-136713815D01*
X72234863Y-136697181D01*
X68224319Y-132686637D01*
X68190834Y-132625314D01*
X68188000Y-132598956D01*
X68188000Y-131953328D01*
X68207685Y-131886289D01*
X68260489Y-131840534D01*
X68325827Y-131830101D01*
X68353074Y-131833158D01*
X68364760Y-131840966D01*
X68437826Y-131855500D01*
X68552183Y-131855500D01*
X68559072Y-131856273D01*
X68585151Y-131867218D01*
X68612284Y-131875185D01*
X68621139Y-131882321D01*
X68623498Y-131883311D01*
X68624901Y-131885352D01*
X68632926Y-131891819D01*
X68937587Y-132196480D01*
X69028912Y-132249207D01*
X69130773Y-132276500D01*
X69236227Y-132276500D01*
X78300500Y-132276500D01*
X78367539Y-132296185D01*
X78413294Y-132348989D01*
X78424500Y-132400500D01*
X78424500Y-132849673D01*
X78434671Y-132900810D01*
X78434671Y-132949190D01*
X78424500Y-133000326D01*
X78424500Y-133599678D01*
X78439032Y-133672735D01*
X78439033Y-133672739D01*
X78439034Y-133672740D01*
X78494399Y-133755601D01*
X78577260Y-133810966D01*
X78577264Y-133810967D01*
X78650321Y-133825499D01*
X78650324Y-133825500D01*
X78650326Y-133825500D01*
X79249676Y-133825500D01*
X79249677Y-133825499D01*
X79322740Y-133810966D01*
X79405601Y-133755601D01*
X79460966Y-133672740D01*
X79475500Y-133599674D01*
X79475500Y-133467836D01*
X79495185Y-133400797D01*
X79547989Y-133355042D01*
X79617147Y-133345098D01*
X79631586Y-133348060D01*
X79640691Y-133350500D01*
X79640693Y-133350500D01*
X79759306Y-133350500D01*
X79759309Y-133350500D01*
X79873886Y-133319799D01*
X79976613Y-133260489D01*
X80060489Y-133176613D01*
X80119799Y-133073886D01*
X80150500Y-132959309D01*
X80150500Y-132840691D01*
X80119799Y-132726114D01*
X80060489Y-132623387D01*
X79976613Y-132539511D01*
X79921838Y-132507886D01*
X79873624Y-132457319D01*
X79860402Y-132388712D01*
X79886370Y-132323847D01*
X79943285Y-132283319D01*
X79983840Y-132276500D01*
X80244225Y-132276500D01*
X80244227Y-132276500D01*
X80346088Y-132249207D01*
X80437413Y-132196480D01*
X80599819Y-132034074D01*
X80661142Y-132000589D01*
X80730834Y-132005573D01*
X80775181Y-132034074D01*
X80961587Y-132220480D01*
X81052912Y-132273207D01*
X81154773Y-132300500D01*
X90250500Y-132300500D01*
X90317539Y-132320185D01*
X90363294Y-132372989D01*
X90374500Y-132424500D01*
X90374500Y-132849673D01*
X90384671Y-132900810D01*
X90384671Y-132949190D01*
X90374500Y-133000326D01*
X90374500Y-133599678D01*
X90389032Y-133672735D01*
X90389033Y-133672739D01*
X90389034Y-133672740D01*
X90444399Y-133755601D01*
X90527260Y-133810966D01*
X90527264Y-133810967D01*
X90600321Y-133825499D01*
X90600324Y-133825500D01*
X90600326Y-133825500D01*
X91199676Y-133825500D01*
X91199677Y-133825499D01*
X91272740Y-133810966D01*
X91355601Y-133755601D01*
X91410966Y-133672740D01*
X91425500Y-133599674D01*
X91425500Y-133524500D01*
X91445185Y-133457461D01*
X91497989Y-133411706D01*
X91549500Y-133400500D01*
X91609306Y-133400500D01*
X91609309Y-133400500D01*
X91723886Y-133369799D01*
X91826613Y-133310489D01*
X91910489Y-133226613D01*
X91969799Y-133123886D01*
X92000500Y-133009309D01*
X92000500Y-132890691D01*
X91969799Y-132776114D01*
X91910489Y-132673387D01*
X91826613Y-132589511D01*
X91726805Y-132531886D01*
X91678591Y-132481319D01*
X91665369Y-132412712D01*
X91691337Y-132347848D01*
X91748251Y-132307320D01*
X91788807Y-132300500D01*
X92170225Y-132300500D01*
X92170227Y-132300500D01*
X92272088Y-132273207D01*
X92363413Y-132220480D01*
X92692074Y-131891819D01*
X92753397Y-131858334D01*
X92779755Y-131855500D01*
X92887176Y-131855500D01*
X92887177Y-131855499D01*
X92960240Y-131840966D01*
X93043101Y-131785601D01*
X93098466Y-131702740D01*
X93113000Y-131629674D01*
X93113000Y-131130326D01*
X93113000Y-131130323D01*
X93112999Y-131130321D01*
X93098467Y-131057264D01*
X93098467Y-131057262D01*
X93096681Y-131054589D01*
X93076167Y-131023887D01*
X93055291Y-130957214D01*
X93073775Y-130889834D01*
X93076128Y-130886170D01*
X93098466Y-130852740D01*
X93113000Y-130779674D01*
X93113000Y-130280326D01*
X93113000Y-130280323D01*
X93112999Y-130280321D01*
X93098467Y-130207264D01*
X93098466Y-130207260D01*
X93095878Y-130203387D01*
X93043101Y-130124399D01*
X92960240Y-130069034D01*
X92960239Y-130069033D01*
X92960235Y-130069032D01*
X92887177Y-130054500D01*
X92887174Y-130054500D01*
X92709044Y-130054500D01*
X92642005Y-130034815D01*
X92621363Y-130018181D01*
X92406713Y-129803531D01*
X92406708Y-129803527D01*
X92326788Y-129757386D01*
X92320128Y-129755601D01*
X92320127Y-129755601D01*
X92278885Y-129744550D01*
X92237644Y-129733500D01*
X92237643Y-129733500D01*
X91549132Y-129733500D01*
X91540282Y-129730901D01*
X91531150Y-129732189D01*
X91507289Y-129721213D01*
X91482093Y-129713815D01*
X91476054Y-129706845D01*
X91467674Y-129702991D01*
X91453533Y-129680856D01*
X91436338Y-129661011D01*
X91434027Y-129650320D01*
X91430060Y-129644110D01*
X91428092Y-129622861D01*
X91425132Y-129609162D01*
X91425153Y-129601417D01*
X91425500Y-129599674D01*
X91425500Y-129474162D01*
X91435430Y-129440680D01*
X91445185Y-129407461D01*
X91445317Y-129407346D01*
X91445368Y-129407176D01*
X91471875Y-129384333D01*
X91497989Y-129361706D01*
X91498182Y-129361663D01*
X91498296Y-129361566D01*
X91499252Y-129361431D01*
X91549500Y-129350500D01*
X91559306Y-129350500D01*
X91559309Y-129350500D01*
X91673886Y-129319799D01*
X91776613Y-129260489D01*
X91860489Y-129176613D01*
X91919799Y-129073886D01*
X91950500Y-128959309D01*
X91950500Y-128840691D01*
X91919799Y-128726114D01*
X91860489Y-128623387D01*
X91776613Y-128539511D01*
X91673886Y-128480201D01*
X91559309Y-128449500D01*
X91549500Y-128449500D01*
X91482461Y-128429815D01*
X91436706Y-128377011D01*
X91425500Y-128325500D01*
X91425500Y-128250323D01*
X91425499Y-128250321D01*
X91410967Y-128177264D01*
X91410966Y-128177260D01*
X91355601Y-128094399D01*
X91272740Y-128039034D01*
X91272739Y-128039033D01*
X91272735Y-128039032D01*
X91199677Y-128024500D01*
X91199674Y-128024500D01*
X90600326Y-128024500D01*
X90600323Y-128024500D01*
X90527264Y-128039032D01*
X90527260Y-128039033D01*
X90444399Y-128094399D01*
X90389033Y-128177260D01*
X90389032Y-128177264D01*
X90374500Y-128250321D01*
X90374500Y-128849673D01*
X90384671Y-128900810D01*
X90384671Y-128949190D01*
X90374500Y-129000326D01*
X90374500Y-129605766D01*
X90372672Y-129605766D01*
X90361256Y-129665985D01*
X90313194Y-129716698D01*
X90250868Y-129733500D01*
X79599132Y-129733500D01*
X79590205Y-129730878D01*
X79580992Y-129732166D01*
X79557215Y-129721191D01*
X79532093Y-129713815D01*
X79526001Y-129706784D01*
X79517554Y-129702886D01*
X79503484Y-129680799D01*
X79486338Y-129661011D01*
X79484017Y-129650238D01*
X79480016Y-129643957D01*
X79478044Y-129622518D01*
X79475133Y-129609002D01*
X79475163Y-129601364D01*
X79475500Y-129599674D01*
X79475500Y-129517587D01*
X79475501Y-129517338D01*
X79485418Y-129484056D01*
X79495185Y-129450797D01*
X79495380Y-129450627D01*
X79495455Y-129450378D01*
X79521842Y-129427697D01*
X79547989Y-129405042D01*
X79548245Y-129405005D01*
X79548442Y-129404836D01*
X79582794Y-129400037D01*
X79617147Y-129395098D01*
X79617555Y-129395181D01*
X79617640Y-129395170D01*
X79617753Y-129395222D01*
X79631586Y-129398060D01*
X79640691Y-129400500D01*
X79640693Y-129400500D01*
X79759306Y-129400500D01*
X79759309Y-129400500D01*
X79873886Y-129369799D01*
X79976613Y-129310489D01*
X80060489Y-129226613D01*
X80119799Y-129123886D01*
X80150500Y-129009309D01*
X80150500Y-128890691D01*
X80119799Y-128776114D01*
X80060489Y-128673387D01*
X79976613Y-128589511D01*
X79873886Y-128530201D01*
X79759309Y-128499500D01*
X79640691Y-128499500D01*
X79640689Y-128499500D01*
X79631592Y-128501938D01*
X79561742Y-128500275D01*
X79503880Y-128461112D01*
X79476377Y-128396883D01*
X79475500Y-128382163D01*
X79475500Y-128250323D01*
X79475499Y-128250321D01*
X79460967Y-128177264D01*
X79460966Y-128177260D01*
X79405601Y-128094399D01*
X79322740Y-128039034D01*
X79322739Y-128039033D01*
X79322735Y-128039032D01*
X79249677Y-128024500D01*
X79249674Y-128024500D01*
X78650326Y-128024500D01*
X78650323Y-128024500D01*
X78577264Y-128039032D01*
X78577260Y-128039033D01*
X78494399Y-128094399D01*
X78439033Y-128177260D01*
X78439032Y-128177264D01*
X78424500Y-128250321D01*
X78424500Y-128849673D01*
X78434671Y-128900810D01*
X78434671Y-128949190D01*
X78424500Y-129000326D01*
X78424500Y-129605766D01*
X78422672Y-129605766D01*
X78411256Y-129665985D01*
X78363194Y-129716698D01*
X78300868Y-129733500D01*
X72322544Y-129733500D01*
X72255505Y-129713815D01*
X72234863Y-129697181D01*
X68224319Y-125686637D01*
X68190834Y-125625314D01*
X68188000Y-125598956D01*
X68188000Y-124953328D01*
X68207685Y-124886289D01*
X68260489Y-124840534D01*
X68325827Y-124830101D01*
X68353074Y-124833158D01*
X68364760Y-124840966D01*
X68437826Y-124855500D01*
X68552183Y-124855500D01*
X68559072Y-124856273D01*
X68585151Y-124867218D01*
X68612284Y-124875185D01*
X68621139Y-124882321D01*
X68623498Y-124883311D01*
X68624901Y-124885352D01*
X68632926Y-124891819D01*
X68937587Y-125196480D01*
X69028912Y-125249207D01*
X69130773Y-125276500D01*
X69236227Y-125276500D01*
X78300500Y-125276500D01*
X78367539Y-125296185D01*
X78413294Y-125348989D01*
X78424500Y-125400500D01*
X78424500Y-125849673D01*
X78434671Y-125900810D01*
X78434671Y-125949190D01*
X78424500Y-126000326D01*
X78424500Y-126599678D01*
X78439032Y-126672735D01*
X78439033Y-126672739D01*
X78439034Y-126672740D01*
X78494399Y-126755601D01*
X78577260Y-126810966D01*
X78577264Y-126810967D01*
X78650321Y-126825499D01*
X78650324Y-126825500D01*
X78650326Y-126825500D01*
X79249676Y-126825500D01*
X79249677Y-126825499D01*
X79322740Y-126810966D01*
X79405601Y-126755601D01*
X79460966Y-126672740D01*
X79475500Y-126599674D01*
X79475500Y-126524500D01*
X79495185Y-126457461D01*
X79547989Y-126411706D01*
X79599500Y-126400500D01*
X79659306Y-126400500D01*
X79659309Y-126400500D01*
X79773886Y-126369799D01*
X79876613Y-126310489D01*
X79960489Y-126226613D01*
X80019799Y-126123886D01*
X80050500Y-126009309D01*
X80050500Y-125890691D01*
X80019799Y-125776114D01*
X79960489Y-125673387D01*
X79876613Y-125589511D01*
X79773886Y-125530201D01*
X79736838Y-125520274D01*
X79677180Y-125483910D01*
X79646651Y-125421063D01*
X79654946Y-125351687D01*
X79699431Y-125297809D01*
X79765983Y-125276535D01*
X79768934Y-125276500D01*
X80244225Y-125276500D01*
X80244227Y-125276500D01*
X80346088Y-125249207D01*
X80437413Y-125196480D01*
X80599819Y-125034074D01*
X80661142Y-125000589D01*
X80730834Y-125005573D01*
X80775181Y-125034074D01*
X80987019Y-125245912D01*
X80987020Y-125245913D01*
X81061587Y-125320480D01*
X81152913Y-125373207D01*
X81254773Y-125400500D01*
X90250500Y-125400500D01*
X90317539Y-125420185D01*
X90363294Y-125472989D01*
X90374500Y-125524500D01*
X90374500Y-125849673D01*
X90384671Y-125900810D01*
X90384671Y-125949190D01*
X90374500Y-126000326D01*
X90374500Y-126599678D01*
X90389032Y-126672735D01*
X90389033Y-126672739D01*
X90389034Y-126672740D01*
X90444399Y-126755601D01*
X90527260Y-126810966D01*
X90527264Y-126810967D01*
X90600321Y-126825499D01*
X90600324Y-126825500D01*
X90600326Y-126825500D01*
X91199676Y-126825500D01*
X91199677Y-126825499D01*
X91272740Y-126810966D01*
X91355601Y-126755601D01*
X91410966Y-126672740D01*
X91425500Y-126599674D01*
X91425500Y-126468104D01*
X91445185Y-126401065D01*
X91497989Y-126355310D01*
X91517394Y-126348333D01*
X91623886Y-126319799D01*
X91726613Y-126260489D01*
X91810489Y-126176613D01*
X91869799Y-126073886D01*
X91900500Y-125959309D01*
X91900500Y-125840691D01*
X91869799Y-125726114D01*
X91810489Y-125623387D01*
X91799283Y-125612181D01*
X91765798Y-125550858D01*
X91770782Y-125481166D01*
X91812654Y-125425233D01*
X91878118Y-125400816D01*
X91886964Y-125400500D01*
X92070225Y-125400500D01*
X92070227Y-125400500D01*
X92172088Y-125373207D01*
X92263413Y-125320480D01*
X92692074Y-124891819D01*
X92753397Y-124858334D01*
X92779755Y-124855500D01*
X92887176Y-124855500D01*
X92887177Y-124855499D01*
X92960240Y-124840966D01*
X93043101Y-124785601D01*
X93098466Y-124702740D01*
X93113000Y-124629674D01*
X93113000Y-124130326D01*
X93113000Y-124130323D01*
X93112999Y-124130321D01*
X93098467Y-124057264D01*
X93098467Y-124057262D01*
X93098466Y-124057260D01*
X93076167Y-124023887D01*
X93055291Y-123957214D01*
X93073775Y-123889834D01*
X93076128Y-123886170D01*
X93098466Y-123852740D01*
X93113000Y-123779674D01*
X93113000Y-123280326D01*
X93113000Y-123280323D01*
X93112999Y-123280321D01*
X93098467Y-123207264D01*
X93098466Y-123207260D01*
X93095878Y-123203387D01*
X93043101Y-123124399D01*
X92960240Y-123069034D01*
X92960239Y-123069033D01*
X92960235Y-123069032D01*
X92887177Y-123054500D01*
X92887174Y-123054500D01*
X92709044Y-123054500D01*
X92642005Y-123034815D01*
X92621363Y-123018181D01*
X92406713Y-122803531D01*
X92406708Y-122803527D01*
X92326788Y-122757386D01*
X92320128Y-122755601D01*
X92320127Y-122755601D01*
X92278885Y-122744550D01*
X92237644Y-122733500D01*
X92237643Y-122733500D01*
X91549132Y-122733500D01*
X91540205Y-122730878D01*
X91530991Y-122732166D01*
X91507214Y-122721191D01*
X91482093Y-122713815D01*
X91476000Y-122706784D01*
X91467553Y-122702885D01*
X91453483Y-122680797D01*
X91436338Y-122661011D01*
X91434017Y-122650238D01*
X91430015Y-122643956D01*
X91428044Y-122622513D01*
X91425133Y-122609001D01*
X91425163Y-122601364D01*
X91425500Y-122599674D01*
X91425500Y-122517853D01*
X91425501Y-122517605D01*
X91435438Y-122484256D01*
X91445185Y-122451065D01*
X91445380Y-122450895D01*
X91445455Y-122450645D01*
X91471924Y-122427895D01*
X91497989Y-122405310D01*
X91498355Y-122405178D01*
X91498443Y-122405103D01*
X91498642Y-122405075D01*
X91517394Y-122398333D01*
X91623886Y-122369799D01*
X91726613Y-122310489D01*
X91810489Y-122226613D01*
X91869799Y-122123886D01*
X91900500Y-122009309D01*
X91900500Y-121890691D01*
X91869799Y-121776114D01*
X91810489Y-121673387D01*
X91726613Y-121589511D01*
X91623886Y-121530201D01*
X91517404Y-121501669D01*
X91457746Y-121465305D01*
X91427217Y-121402458D01*
X91425500Y-121381895D01*
X91425500Y-121250323D01*
X91425499Y-121250321D01*
X91410967Y-121177264D01*
X91410966Y-121177260D01*
X91355601Y-121094399D01*
X91272740Y-121039034D01*
X91272739Y-121039033D01*
X91272735Y-121039032D01*
X91199677Y-121024500D01*
X91199674Y-121024500D01*
X90600326Y-121024500D01*
X90600323Y-121024500D01*
X90527264Y-121039032D01*
X90527260Y-121039033D01*
X90444399Y-121094399D01*
X90389033Y-121177260D01*
X90389032Y-121177264D01*
X90374500Y-121250321D01*
X90374500Y-121849673D01*
X90384671Y-121900810D01*
X90384671Y-121949190D01*
X90374500Y-122000326D01*
X90374500Y-122605766D01*
X90372672Y-122605766D01*
X90361256Y-122665985D01*
X90313194Y-122716698D01*
X90250868Y-122733500D01*
X79599132Y-122733500D01*
X79590282Y-122730901D01*
X79581150Y-122732189D01*
X79557289Y-122721213D01*
X79532093Y-122713815D01*
X79526054Y-122706845D01*
X79517674Y-122702991D01*
X79503533Y-122680856D01*
X79486338Y-122661011D01*
X79484027Y-122650320D01*
X79480060Y-122644110D01*
X79478092Y-122622861D01*
X79475132Y-122609162D01*
X79475153Y-122601417D01*
X79475500Y-122599674D01*
X79475500Y-122474162D01*
X79485430Y-122440680D01*
X79495185Y-122407461D01*
X79495317Y-122407346D01*
X79495368Y-122407176D01*
X79521875Y-122384333D01*
X79547989Y-122361706D01*
X79548182Y-122361663D01*
X79548296Y-122361566D01*
X79549252Y-122361431D01*
X79599500Y-122350500D01*
X79659306Y-122350500D01*
X79659309Y-122350500D01*
X79773886Y-122319799D01*
X79876613Y-122260489D01*
X79960489Y-122176613D01*
X80019799Y-122073886D01*
X80050500Y-121959309D01*
X80050500Y-121840691D01*
X80019799Y-121726114D01*
X79960489Y-121623387D01*
X79876613Y-121539511D01*
X79773886Y-121480201D01*
X79659309Y-121449500D01*
X79599500Y-121449500D01*
X79532461Y-121429815D01*
X79486706Y-121377011D01*
X79475500Y-121325500D01*
X79475500Y-121250323D01*
X79475499Y-121250321D01*
X79460967Y-121177264D01*
X79460966Y-121177260D01*
X79405601Y-121094399D01*
X79322740Y-121039034D01*
X79322739Y-121039033D01*
X79322735Y-121039032D01*
X79249677Y-121024500D01*
X79249674Y-121024500D01*
X78650326Y-121024500D01*
X78650323Y-121024500D01*
X78577264Y-121039032D01*
X78577260Y-121039033D01*
X78494399Y-121094399D01*
X78439033Y-121177260D01*
X78439032Y-121177264D01*
X78424500Y-121250321D01*
X78424500Y-121849673D01*
X78434671Y-121900810D01*
X78434671Y-121909148D01*
X78436559Y-121913947D01*
X78434671Y-121949191D01*
X78424881Y-121998410D01*
X78392496Y-122060321D01*
X78331780Y-122094895D01*
X78262011Y-122091156D01*
X78215582Y-122061900D01*
X73165863Y-117012181D01*
X73132378Y-116950858D01*
X73137362Y-116881166D01*
X73179234Y-116825233D01*
X73244698Y-116800816D01*
X73253544Y-116800500D01*
X78977398Y-116800500D01*
X78977400Y-116800500D01*
X79079261Y-116773207D01*
X79170586Y-116720480D01*
X81007980Y-114883086D01*
X81060707Y-114791761D01*
X81088000Y-114689900D01*
X81088000Y-114584446D01*
X81088000Y-113687000D01*
X81090550Y-113678314D01*
X81089262Y-113669353D01*
X81100240Y-113645312D01*
X81107685Y-113619961D01*
X81114525Y-113614033D01*
X81118287Y-113605797D01*
X81140521Y-113591507D01*
X81160489Y-113574206D01*
X81171003Y-113571918D01*
X81177065Y-113568023D01*
X81212000Y-113563000D01*
X81437245Y-113563000D01*
X81504284Y-113582685D01*
X81524926Y-113599319D01*
X82663179Y-114737571D01*
X82663189Y-114737582D01*
X82667520Y-114741913D01*
X82742087Y-114816480D01*
X82777478Y-114836913D01*
X82833412Y-114869207D01*
X82935273Y-114896500D01*
X83040727Y-114896500D01*
X87794840Y-114896500D01*
X87861879Y-114916185D01*
X87882521Y-114932819D01*
X88387521Y-115437819D01*
X88421006Y-115499142D01*
X88416022Y-115568834D01*
X88374150Y-115624767D01*
X88308686Y-115649184D01*
X88299840Y-115649500D01*
X82003856Y-115649500D01*
X81914712Y-115673386D01*
X81914709Y-115673387D01*
X81834791Y-115719527D01*
X81834786Y-115719531D01*
X79614306Y-117940011D01*
X79552983Y-117973496D01*
X79483291Y-117968512D01*
X79427358Y-117926640D01*
X79423523Y-117921222D01*
X79405601Y-117894399D01*
X79322740Y-117839034D01*
X79322739Y-117839033D01*
X79322735Y-117839032D01*
X79249677Y-117824500D01*
X79249674Y-117824500D01*
X78650326Y-117824500D01*
X78650323Y-117824500D01*
X78577264Y-117839032D01*
X78577260Y-117839033D01*
X78494399Y-117894399D01*
X78439033Y-117977260D01*
X78439032Y-117977264D01*
X78424500Y-118050321D01*
X78424500Y-118649673D01*
X78434671Y-118700810D01*
X78434671Y-118749190D01*
X78424500Y-118800326D01*
X78424500Y-119399678D01*
X78439032Y-119472735D01*
X78439033Y-119472739D01*
X78439034Y-119472740D01*
X78494399Y-119555601D01*
X78577260Y-119610966D01*
X78577264Y-119610967D01*
X78650321Y-119625499D01*
X78650324Y-119625500D01*
X78650326Y-119625500D01*
X79249676Y-119625500D01*
X79249677Y-119625499D01*
X79322740Y-119610966D01*
X79405601Y-119555601D01*
X79460966Y-119472740D01*
X79475500Y-119399674D01*
X79475500Y-119121544D01*
X79495185Y-119054505D01*
X79511819Y-119033863D01*
X82158863Y-116386819D01*
X82220186Y-116353334D01*
X82246544Y-116350500D01*
X88522860Y-116350500D01*
X88584859Y-116367112D01*
X88676114Y-116419799D01*
X88790691Y-116450500D01*
X88790694Y-116450500D01*
X88909306Y-116450500D01*
X88909309Y-116450500D01*
X89023886Y-116419799D01*
X89126613Y-116360489D01*
X89130720Y-116356381D01*
X89192038Y-116322896D01*
X89261730Y-116327877D01*
X89306080Y-116356378D01*
X90096613Y-117146910D01*
X90096615Y-117146913D01*
X90171182Y-117221480D01*
X90233938Y-117257712D01*
X90242259Y-117262516D01*
X90262506Y-117274206D01*
X90262507Y-117274206D01*
X90262508Y-117274207D01*
X90364368Y-117301501D01*
X90364370Y-117301501D01*
X90477418Y-117301501D01*
X90477434Y-117301500D01*
X91675500Y-117301500D01*
X91742539Y-117321185D01*
X91788294Y-117373989D01*
X91799500Y-117425500D01*
X91799500Y-117509309D01*
X91830201Y-117623886D01*
X91882887Y-117715140D01*
X91899500Y-117777140D01*
X91899500Y-118446143D01*
X91914963Y-118503855D01*
X91923384Y-118535283D01*
X91923387Y-118535290D01*
X91969527Y-118615208D01*
X91969529Y-118615211D01*
X91969530Y-118615212D01*
X92984788Y-119630470D01*
X93064712Y-119676614D01*
X93153856Y-119700500D01*
X93567363Y-119700500D01*
X93634402Y-119720185D01*
X93680157Y-119772989D01*
X93690101Y-119842147D01*
X93681927Y-119871945D01*
X93680203Y-119876106D01*
X93680201Y-119876114D01*
X93649500Y-119990691D01*
X93649500Y-120109309D01*
X93680201Y-120223886D01*
X93680202Y-120223887D01*
X93683311Y-120231393D01*
X93681688Y-120232065D01*
X93695500Y-120283609D01*
X93695500Y-124909368D01*
X93695500Y-125014822D01*
X93707872Y-125060995D01*
X93722793Y-125116684D01*
X93749156Y-125162345D01*
X93775520Y-125208008D01*
X93775521Y-125208009D01*
X93775522Y-125208010D01*
X98430084Y-129862571D01*
X98430094Y-129862582D01*
X98434424Y-129866912D01*
X98434425Y-129866913D01*
X98508992Y-129941480D01*
X98600318Y-129994207D01*
X98702178Y-130021501D01*
X98702180Y-130021501D01*
X98815228Y-130021501D01*
X98815244Y-130021500D01*
X99197820Y-130021500D01*
X99197822Y-130021500D01*
X99299683Y-129994207D01*
X99391008Y-129941480D01*
X101066910Y-128265576D01*
X101066913Y-128265575D01*
X101112823Y-128219664D01*
X101165015Y-128191168D01*
X101174142Y-128186184D01*
X101174143Y-128186184D01*
X101174145Y-128186183D01*
X101216467Y-128189210D01*
X101243834Y-128191168D01*
X101243835Y-128191168D01*
X101243837Y-128191169D01*
X101281902Y-128219666D01*
X101299767Y-128233040D01*
X101299769Y-128233042D01*
X101308443Y-128256300D01*
X101324184Y-128298504D01*
X101324500Y-128307350D01*
X101324500Y-149525500D01*
X101304815Y-149592539D01*
X101252011Y-149638294D01*
X101200500Y-149649500D01*
X59299500Y-149649500D01*
X59232461Y-149629815D01*
X59186706Y-149577011D01*
X59175500Y-149525500D01*
X59175500Y-46624500D01*
X59195185Y-46557461D01*
X59247989Y-46511706D01*
X59299500Y-46500500D01*
X101200500Y-46500500D01*
X101267539Y-46520185D01*
G37*
%TD.AperFunction*%
%TA.AperFunction,Conductor*%
G36*
X80155039Y-144436685D02*
G01*
X80200794Y-144489489D01*
X80212000Y-144541000D01*
X80212000Y-144763000D01*
X80192315Y-144830039D01*
X80139511Y-144875794D01*
X80088000Y-144887000D01*
X79587823Y-144887000D01*
X79514764Y-144901532D01*
X79514760Y-144901533D01*
X79463774Y-144935601D01*
X79434742Y-144955000D01*
X79431898Y-144956900D01*
X79422854Y-144970435D01*
X79406848Y-144994390D01*
X79353239Y-145039195D01*
X79303747Y-145049500D01*
X70846544Y-145049500D01*
X70779505Y-145029815D01*
X70758863Y-145013181D01*
X70374363Y-144628681D01*
X70340878Y-144567358D01*
X70345862Y-144497666D01*
X70387734Y-144441733D01*
X70453198Y-144417316D01*
X70462044Y-144417000D01*
X80088000Y-144417000D01*
X80155039Y-144436685D01*
G37*
%TD.AperFunction*%
%TA.AperFunction,Conductor*%
G36*
X92044495Y-144436685D02*
G01*
X92065137Y-144453319D01*
X92125681Y-144513863D01*
X92159166Y-144575186D01*
X92162000Y-144601544D01*
X92162000Y-144780500D01*
X92142315Y-144847539D01*
X92089511Y-144893294D01*
X92038000Y-144904500D01*
X91537823Y-144904500D01*
X91464764Y-144919032D01*
X91464760Y-144919033D01*
X91381898Y-144974399D01*
X91368541Y-144994391D01*
X91314929Y-145039196D01*
X91265439Y-145049500D01*
X81771544Y-145049500D01*
X81704505Y-145029815D01*
X81683863Y-145013181D01*
X81299363Y-144628681D01*
X81265878Y-144567358D01*
X81270862Y-144497666D01*
X81312734Y-144441733D01*
X81378198Y-144417316D01*
X81387044Y-144417000D01*
X91977456Y-144417000D01*
X92044495Y-144436685D01*
G37*
%TD.AperFunction*%
%TA.AperFunction,Conductor*%
G36*
X68097342Y-143286263D02*
G01*
X68108373Y-143296054D01*
X68637638Y-143825319D01*
X68671123Y-143886642D01*
X68666139Y-143956334D01*
X68624267Y-144012267D01*
X68558803Y-144036684D01*
X68549957Y-144037000D01*
X68437823Y-144037000D01*
X68364764Y-144051532D01*
X68364760Y-144051533D01*
X68281899Y-144106899D01*
X68226533Y-144189760D01*
X68226532Y-144189764D01*
X68212000Y-144262821D01*
X68212000Y-144763000D01*
X68192315Y-144830039D01*
X68139511Y-144875794D01*
X68088000Y-144887000D01*
X67587823Y-144887000D01*
X67514764Y-144901532D01*
X67514760Y-144901533D01*
X67493390Y-144915813D01*
X67426712Y-144936690D01*
X67359332Y-144918205D01*
X67312643Y-144866226D01*
X67300500Y-144812710D01*
X67300500Y-143892105D01*
X67320185Y-143825066D01*
X67355609Y-143789003D01*
X67405601Y-143755601D01*
X67460966Y-143672740D01*
X67468872Y-143632996D01*
X67475374Y-143600309D01*
X67507759Y-143538398D01*
X67568474Y-143503824D01*
X67596991Y-143500500D01*
X67609306Y-143500500D01*
X67609309Y-143500500D01*
X67723886Y-143469799D01*
X67826613Y-143410489D01*
X67910489Y-143326613D01*
X67913304Y-143321736D01*
X67963870Y-143273520D01*
X68032477Y-143260296D01*
X68097342Y-143286263D01*
G37*
%TD.AperFunction*%
%TA.AperFunction,Conductor*%
G36*
X65543389Y-116976687D02*
G01*
X65564760Y-116990966D01*
X65564762Y-116990966D01*
X65564764Y-116990967D01*
X65637821Y-117005499D01*
X65637824Y-117005500D01*
X65637826Y-117005500D01*
X65815956Y-117005500D01*
X65882995Y-117025185D01*
X65903637Y-117041819D01*
X66184787Y-117322969D01*
X66225504Y-117346477D01*
X66225509Y-117346480D01*
X66225510Y-117346481D01*
X66264706Y-117369111D01*
X66264707Y-117369111D01*
X66264712Y-117369114D01*
X66353856Y-117393000D01*
X72503956Y-117393000D01*
X72570995Y-117412685D01*
X72591637Y-117429319D01*
X78461531Y-123299212D01*
X78526788Y-123364469D01*
X78526791Y-123364470D01*
X78526794Y-123364473D01*
X78606706Y-123410611D01*
X78606707Y-123410611D01*
X78606712Y-123410614D01*
X78695856Y-123434500D01*
X80088000Y-123434500D01*
X80096685Y-123437050D01*
X80105647Y-123435762D01*
X80129687Y-123446740D01*
X80155039Y-123454185D01*
X80160966Y-123461025D01*
X80169203Y-123464787D01*
X80183492Y-123487021D01*
X80200794Y-123506989D01*
X80203081Y-123517503D01*
X80206977Y-123523565D01*
X80212000Y-123558500D01*
X80212000Y-123780500D01*
X80192315Y-123847539D01*
X80139511Y-123893294D01*
X80088000Y-123904500D01*
X79587823Y-123904500D01*
X79514764Y-123919032D01*
X79514760Y-123919033D01*
X79431898Y-123974399D01*
X79418541Y-123994391D01*
X79364929Y-124039196D01*
X79315439Y-124049500D01*
X70846544Y-124049500D01*
X70779505Y-124029815D01*
X70758863Y-124013181D01*
X69995213Y-123249531D01*
X69995208Y-123249527D01*
X69915290Y-123203387D01*
X69915289Y-123203386D01*
X69915288Y-123203386D01*
X69826144Y-123179500D01*
X69826143Y-123179500D01*
X69196197Y-123179500D01*
X69129158Y-123159815D01*
X69101813Y-123132953D01*
X69101734Y-123133033D01*
X69093103Y-123124402D01*
X69093101Y-123124399D01*
X69010240Y-123069034D01*
X69010238Y-123069033D01*
X69010235Y-123069032D01*
X68937177Y-123054500D01*
X68937174Y-123054500D01*
X68437826Y-123054500D01*
X68437823Y-123054500D01*
X68364764Y-123069032D01*
X68364760Y-123069033D01*
X68281899Y-123124399D01*
X68226533Y-123207260D01*
X68226532Y-123207264D01*
X68212000Y-123280321D01*
X68212000Y-123780500D01*
X68192315Y-123847539D01*
X68139511Y-123893294D01*
X68088000Y-123904500D01*
X67587823Y-123904500D01*
X67514764Y-123919032D01*
X67514760Y-123919033D01*
X67493390Y-123933313D01*
X67426712Y-123954190D01*
X67359332Y-123935705D01*
X67312643Y-123883726D01*
X67300500Y-123830210D01*
X67300500Y-122892105D01*
X67320185Y-122825066D01*
X67355609Y-122789003D01*
X67405601Y-122755601D01*
X67460966Y-122672740D01*
X67475500Y-122599674D01*
X67475500Y-122000326D01*
X67465328Y-121949188D01*
X67465328Y-121900810D01*
X67475500Y-121849674D01*
X67475500Y-121250326D01*
X67475500Y-121250323D01*
X67475499Y-121250321D01*
X67460967Y-121177264D01*
X67460966Y-121177260D01*
X67405601Y-121094399D01*
X67322740Y-121039034D01*
X67322739Y-121039033D01*
X67322735Y-121039032D01*
X67249677Y-121024500D01*
X67249674Y-121024500D01*
X66650326Y-121024500D01*
X66650323Y-121024500D01*
X66577264Y-121039032D01*
X66577260Y-121039033D01*
X66494399Y-121094399D01*
X66439033Y-121177260D01*
X66439032Y-121177264D01*
X66424500Y-121250321D01*
X66424500Y-121849673D01*
X66434671Y-121900810D01*
X66434671Y-121949190D01*
X66424500Y-122000326D01*
X66424500Y-122599678D01*
X66439032Y-122672735D01*
X66439033Y-122672739D01*
X66439034Y-122672740D01*
X66494399Y-122755601D01*
X66544390Y-122789003D01*
X66589195Y-122842613D01*
X66599500Y-122892105D01*
X66599500Y-124957893D01*
X66579815Y-125024932D01*
X66544392Y-125060995D01*
X66494399Y-125094399D01*
X66439033Y-125177260D01*
X66439032Y-125177264D01*
X66424500Y-125250321D01*
X66424500Y-125849673D01*
X66434671Y-125900810D01*
X66434671Y-125949190D01*
X66424500Y-126000326D01*
X66424500Y-126599678D01*
X66439032Y-126672735D01*
X66439033Y-126672739D01*
X66439034Y-126672740D01*
X66494399Y-126755601D01*
X66577260Y-126810966D01*
X66577264Y-126810967D01*
X66650321Y-126825499D01*
X66650324Y-126825500D01*
X66650326Y-126825500D01*
X67249676Y-126825500D01*
X67249677Y-126825499D01*
X67322740Y-126810966D01*
X67405601Y-126755601D01*
X67425133Y-126726369D01*
X67439004Y-126705610D01*
X67492616Y-126660804D01*
X67542106Y-126650500D01*
X67659306Y-126650500D01*
X67659309Y-126650500D01*
X67773886Y-126619799D01*
X67876613Y-126560489D01*
X67904029Y-126533073D01*
X67965352Y-126499588D01*
X68035044Y-126504572D01*
X68079391Y-126533073D01*
X71910788Y-130364470D01*
X71963169Y-130394712D01*
X71963171Y-130394713D01*
X71990709Y-130410613D01*
X71990711Y-130410613D01*
X71990712Y-130410614D01*
X72079856Y-130434500D01*
X80088000Y-130434500D01*
X80096685Y-130437050D01*
X80105647Y-130435762D01*
X80129687Y-130446740D01*
X80155039Y-130454185D01*
X80160966Y-130461025D01*
X80169203Y-130464787D01*
X80183492Y-130487021D01*
X80200794Y-130506989D01*
X80203081Y-130517503D01*
X80206977Y-130523565D01*
X80212000Y-130558500D01*
X80212000Y-130780500D01*
X80192315Y-130847539D01*
X80139511Y-130893294D01*
X80088000Y-130904500D01*
X79587823Y-130904500D01*
X79514764Y-130919032D01*
X79514760Y-130919033D01*
X79431898Y-130974399D01*
X79418541Y-130994391D01*
X79364929Y-131039196D01*
X79315439Y-131049500D01*
X70446544Y-131049500D01*
X70379505Y-131029815D01*
X70358863Y-131013181D01*
X69595213Y-130249531D01*
X69595208Y-130249527D01*
X69515290Y-130203387D01*
X69515289Y-130203386D01*
X69515288Y-130203386D01*
X69426144Y-130179500D01*
X69426143Y-130179500D01*
X69196197Y-130179500D01*
X69129158Y-130159815D01*
X69101813Y-130132953D01*
X69101734Y-130133033D01*
X69093103Y-130124402D01*
X69093101Y-130124399D01*
X69010240Y-130069034D01*
X69010238Y-130069033D01*
X69010235Y-130069032D01*
X68937177Y-130054500D01*
X68937174Y-130054500D01*
X68437826Y-130054500D01*
X68437823Y-130054500D01*
X68364764Y-130069032D01*
X68364760Y-130069033D01*
X68281899Y-130124399D01*
X68226533Y-130207260D01*
X68226532Y-130207264D01*
X68212000Y-130280321D01*
X68212000Y-130780500D01*
X68192315Y-130847539D01*
X68139511Y-130893294D01*
X68088000Y-130904500D01*
X67587823Y-130904500D01*
X67514764Y-130919032D01*
X67514760Y-130919033D01*
X67493390Y-130933313D01*
X67426712Y-130954190D01*
X67359332Y-130935705D01*
X67312643Y-130883726D01*
X67300500Y-130830210D01*
X67300500Y-129892105D01*
X67320185Y-129825066D01*
X67355609Y-129789003D01*
X67405601Y-129755601D01*
X67460966Y-129672740D01*
X67475500Y-129599674D01*
X67475500Y-129000326D01*
X67465328Y-128949188D01*
X67465328Y-128900810D01*
X67475500Y-128849674D01*
X67475500Y-128250326D01*
X67475500Y-128250323D01*
X67475499Y-128250321D01*
X67460967Y-128177264D01*
X67460966Y-128177260D01*
X67405601Y-128094399D01*
X67322740Y-128039034D01*
X67322739Y-128039033D01*
X67322735Y-128039032D01*
X67249677Y-128024500D01*
X67249674Y-128024500D01*
X66650326Y-128024500D01*
X66650323Y-128024500D01*
X66577264Y-128039032D01*
X66577260Y-128039033D01*
X66494399Y-128094399D01*
X66439033Y-128177260D01*
X66439032Y-128177264D01*
X66424500Y-128250321D01*
X66424500Y-128849673D01*
X66434671Y-128900810D01*
X66434671Y-128949190D01*
X66424500Y-129000326D01*
X66424500Y-129599678D01*
X66439032Y-129672735D01*
X66439033Y-129672739D01*
X66439034Y-129672740D01*
X66494399Y-129755601D01*
X66544390Y-129789003D01*
X66589195Y-129842613D01*
X66599500Y-129892105D01*
X66599500Y-131957893D01*
X66579815Y-132024932D01*
X66544392Y-132060995D01*
X66494399Y-132094399D01*
X66439033Y-132177260D01*
X66439032Y-132177264D01*
X66424500Y-132250321D01*
X66424500Y-132849673D01*
X66434671Y-132900810D01*
X66434671Y-132949190D01*
X66424500Y-133000326D01*
X66424500Y-133599678D01*
X66439032Y-133672735D01*
X66439033Y-133672739D01*
X66439034Y-133672740D01*
X66494399Y-133755601D01*
X66577260Y-133810966D01*
X66577264Y-133810967D01*
X66650321Y-133825499D01*
X66650324Y-133825500D01*
X66650326Y-133825500D01*
X67249678Y-133825500D01*
X67255741Y-133824903D01*
X67255842Y-133825930D01*
X67304985Y-133827534D01*
X67390691Y-133850500D01*
X67390694Y-133850500D01*
X67509306Y-133850500D01*
X67509309Y-133850500D01*
X67623886Y-133819799D01*
X67726613Y-133760489D01*
X67810489Y-133676613D01*
X67869799Y-133573886D01*
X67869802Y-133573872D01*
X67872116Y-133568288D01*
X67915950Y-133513880D01*
X67982242Y-133491807D01*
X68049943Y-133509077D01*
X68074364Y-133528046D01*
X71910788Y-137364470D01*
X71963169Y-137394712D01*
X71963171Y-137394713D01*
X71990709Y-137410613D01*
X71990711Y-137410613D01*
X71990712Y-137410614D01*
X72079856Y-137434500D01*
X80088000Y-137434500D01*
X80096685Y-137437050D01*
X80105647Y-137435762D01*
X80129687Y-137446740D01*
X80155039Y-137454185D01*
X80160966Y-137461025D01*
X80169203Y-137464787D01*
X80183492Y-137487021D01*
X80200794Y-137506989D01*
X80203081Y-137517503D01*
X80206977Y-137523565D01*
X80212000Y-137558500D01*
X80212000Y-137780500D01*
X80192315Y-137847539D01*
X80139511Y-137893294D01*
X80088000Y-137904500D01*
X79587823Y-137904500D01*
X79514764Y-137919032D01*
X79514760Y-137919033D01*
X79431898Y-137974399D01*
X79418541Y-137994391D01*
X79364929Y-138039196D01*
X79315439Y-138049500D01*
X71696544Y-138049500D01*
X71629505Y-138029815D01*
X71608863Y-138013181D01*
X70845213Y-137249531D01*
X70845208Y-137249527D01*
X70765290Y-137203387D01*
X70765289Y-137203386D01*
X70765288Y-137203386D01*
X70676144Y-137179500D01*
X70676143Y-137179500D01*
X69196197Y-137179500D01*
X69129158Y-137159815D01*
X69101813Y-137132953D01*
X69101734Y-137133033D01*
X69093103Y-137124402D01*
X69093101Y-137124399D01*
X69010240Y-137069034D01*
X69010238Y-137069033D01*
X69010235Y-137069032D01*
X68937177Y-137054500D01*
X68937174Y-137054500D01*
X68437826Y-137054500D01*
X68437823Y-137054500D01*
X68364764Y-137069032D01*
X68364760Y-137069033D01*
X68281899Y-137124399D01*
X68226533Y-137207260D01*
X68226532Y-137207264D01*
X68212000Y-137280321D01*
X68212000Y-137780500D01*
X68192315Y-137847539D01*
X68139511Y-137893294D01*
X68088000Y-137904500D01*
X67587823Y-137904500D01*
X67514764Y-137919032D01*
X67514760Y-137919033D01*
X67493390Y-137933313D01*
X67426712Y-137954190D01*
X67359332Y-137935705D01*
X67312643Y-137883726D01*
X67300500Y-137830210D01*
X67300500Y-136892105D01*
X67320185Y-136825066D01*
X67355609Y-136789003D01*
X67405601Y-136755601D01*
X67460966Y-136672740D01*
X67475500Y-136599674D01*
X67475500Y-136000326D01*
X67465328Y-135949188D01*
X67465328Y-135900810D01*
X67475500Y-135849674D01*
X67475500Y-135250326D01*
X67475500Y-135250323D01*
X67475499Y-135250321D01*
X67460967Y-135177264D01*
X67460966Y-135177260D01*
X67405601Y-135094399D01*
X67322740Y-135039034D01*
X67322739Y-135039033D01*
X67322735Y-135039032D01*
X67249677Y-135024500D01*
X67249674Y-135024500D01*
X66650326Y-135024500D01*
X66650323Y-135024500D01*
X66577264Y-135039032D01*
X66577260Y-135039033D01*
X66494399Y-135094399D01*
X66439033Y-135177260D01*
X66439032Y-135177264D01*
X66424500Y-135250321D01*
X66424500Y-135849673D01*
X66434671Y-135900810D01*
X66434671Y-135949190D01*
X66424500Y-136000326D01*
X66424500Y-136599678D01*
X66439032Y-136672735D01*
X66439033Y-136672739D01*
X66439034Y-136672740D01*
X66494399Y-136755601D01*
X66544390Y-136789003D01*
X66589195Y-136842613D01*
X66599500Y-136892105D01*
X66599500Y-137911192D01*
X66579815Y-137978231D01*
X66527011Y-138023986D01*
X66457853Y-138033930D01*
X66394297Y-138004905D01*
X66368114Y-137973193D01*
X66319724Y-137889383D01*
X66310489Y-137873387D01*
X66226613Y-137789511D01*
X66167302Y-137755267D01*
X66123885Y-137730200D01*
X66123881Y-137730198D01*
X66118691Y-137728808D01*
X66063109Y-137696716D01*
X65486819Y-137120426D01*
X65453334Y-137059103D01*
X65450500Y-137032745D01*
X65450500Y-131290537D01*
X65467113Y-131228537D01*
X65469799Y-131223886D01*
X65500500Y-131109309D01*
X65500500Y-130990691D01*
X65469799Y-130876114D01*
X65410489Y-130773387D01*
X65336818Y-130699716D01*
X65303334Y-130638392D01*
X65300500Y-130612035D01*
X65300500Y-124190537D01*
X65317113Y-124128537D01*
X65319799Y-124123886D01*
X65350500Y-124009309D01*
X65350500Y-123890691D01*
X65319799Y-123776114D01*
X65260489Y-123673387D01*
X65176613Y-123589511D01*
X65092230Y-123540792D01*
X65073885Y-123530200D01*
X65073881Y-123530198D01*
X65068691Y-123528808D01*
X65054806Y-123520791D01*
X65041363Y-123517867D01*
X65013109Y-123496716D01*
X64890819Y-123374426D01*
X64857334Y-123313103D01*
X64854500Y-123286745D01*
X64854500Y-119099500D01*
X64874185Y-119032461D01*
X64926989Y-118986706D01*
X64978500Y-118975500D01*
X65299676Y-118975500D01*
X65299677Y-118975499D01*
X65372740Y-118960966D01*
X65455601Y-118905601D01*
X65510966Y-118822740D01*
X65513749Y-118808744D01*
X65524703Y-118787805D01*
X65531518Y-118765176D01*
X65543052Y-118752726D01*
X65546134Y-118746835D01*
X65554815Y-118738663D01*
X65562719Y-118731908D01*
X65565212Y-118730470D01*
X65569957Y-118725724D01*
X65573647Y-118722572D01*
X65592848Y-118713963D01*
X65622102Y-118697071D01*
X65723886Y-118669799D01*
X65826613Y-118610489D01*
X65910489Y-118526613D01*
X65969799Y-118423886D01*
X66000500Y-118309309D01*
X66000500Y-118190691D01*
X65969799Y-118076114D01*
X65910489Y-117973387D01*
X65826613Y-117889511D01*
X65723886Y-117830201D01*
X65617404Y-117801669D01*
X65557746Y-117765305D01*
X65527217Y-117702458D01*
X65525500Y-117681895D01*
X65525500Y-117400323D01*
X65525499Y-117400321D01*
X65510967Y-117327264D01*
X65510966Y-117327260D01*
X65506907Y-117321185D01*
X65455601Y-117244399D01*
X65405608Y-117210995D01*
X65400517Y-117204903D01*
X65393297Y-117201606D01*
X65378433Y-117178477D01*
X65360804Y-117157382D01*
X65358852Y-117148008D01*
X65355523Y-117142828D01*
X65350500Y-117107893D01*
X65350500Y-117079789D01*
X65370185Y-117012750D01*
X65422989Y-116966995D01*
X65492147Y-116957051D01*
X65543389Y-116976687D01*
G37*
%TD.AperFunction*%
%TA.AperFunction,Conductor*%
G36*
X92061994Y-137454185D02*
G01*
X92082635Y-137470818D01*
X92125680Y-137513862D01*
X92159166Y-137575184D01*
X92162000Y-137601544D01*
X92162000Y-137780500D01*
X92142315Y-137847539D01*
X92089511Y-137893294D01*
X92038000Y-137904500D01*
X91537823Y-137904500D01*
X91464764Y-137919032D01*
X91464760Y-137919033D01*
X91381898Y-137974399D01*
X91368541Y-137994391D01*
X91314929Y-138039196D01*
X91265439Y-138049500D01*
X81754044Y-138049500D01*
X81687005Y-138029815D01*
X81666363Y-138013181D01*
X81299363Y-137646181D01*
X81265878Y-137584858D01*
X81270862Y-137515166D01*
X81312734Y-137459233D01*
X81378198Y-137434816D01*
X81387044Y-137434500D01*
X91994955Y-137434500D01*
X92061994Y-137454185D01*
G37*
%TD.AperFunction*%
%TA.AperFunction,Conductor*%
G36*
X92024391Y-130443143D02*
G01*
X92054381Y-130449667D01*
X92059397Y-130453422D01*
X92061994Y-130454185D01*
X92082635Y-130470818D01*
X92125680Y-130513862D01*
X92159166Y-130575184D01*
X92162000Y-130601544D01*
X92162000Y-130780500D01*
X92142315Y-130847539D01*
X92089511Y-130893294D01*
X92038000Y-130904500D01*
X91537823Y-130904500D01*
X91464764Y-130919032D01*
X91464760Y-130919033D01*
X91381898Y-130974399D01*
X91368541Y-130994391D01*
X91314929Y-131039196D01*
X91265439Y-131049500D01*
X81754044Y-131049500D01*
X81687005Y-131029815D01*
X81666363Y-131013181D01*
X81299363Y-130646181D01*
X81265878Y-130584858D01*
X81270862Y-130515166D01*
X81312734Y-130459233D01*
X81378198Y-130434816D01*
X81387044Y-130434500D01*
X91994955Y-130434500D01*
X92024391Y-130443143D01*
G37*
%TD.AperFunction*%
%TA.AperFunction,Conductor*%
G36*
X95916495Y-106574185D02*
G01*
X95937137Y-106590819D01*
X99013181Y-109666862D01*
X99046666Y-109728185D01*
X99049500Y-109754543D01*
X99049500Y-127122859D01*
X99032887Y-127184859D01*
X98980202Y-127276110D01*
X98980201Y-127276114D01*
X98949500Y-127390691D01*
X98949500Y-127509309D01*
X98980201Y-127623886D01*
X99039511Y-127726613D01*
X99123387Y-127810489D01*
X99226114Y-127869799D01*
X99340691Y-127900500D01*
X99340694Y-127900500D01*
X99459306Y-127900500D01*
X99459309Y-127900500D01*
X99573886Y-127869799D01*
X99676613Y-127810489D01*
X99760489Y-127726613D01*
X99819799Y-127623886D01*
X99850500Y-127509309D01*
X99850500Y-127390691D01*
X99819799Y-127276114D01*
X99819797Y-127276110D01*
X99767113Y-127184859D01*
X99750500Y-127122859D01*
X99750500Y-126839163D01*
X99770185Y-126772124D01*
X99822989Y-126726369D01*
X99874500Y-126715163D01*
X99879306Y-126715163D01*
X99879309Y-126715163D01*
X99993886Y-126684462D01*
X100096613Y-126625152D01*
X100180489Y-126541276D01*
X100189114Y-126526336D01*
X100239680Y-126478123D01*
X100308288Y-126464901D01*
X100373152Y-126490869D01*
X100413680Y-126547783D01*
X100420500Y-126588339D01*
X100420500Y-127727839D01*
X100400815Y-127794878D01*
X100384181Y-127815520D01*
X99406082Y-128793618D01*
X99344759Y-128827103D01*
X99275067Y-128822119D01*
X99230720Y-128793618D01*
X99226615Y-128789513D01*
X99226613Y-128789511D01*
X99123886Y-128730201D01*
X99022102Y-128702927D01*
X98966517Y-128670835D01*
X97965819Y-127670137D01*
X97932334Y-127608814D01*
X97929500Y-127582456D01*
X97929500Y-126672160D01*
X97949185Y-126605121D01*
X97965819Y-126584479D01*
X98138592Y-126411706D01*
X98330470Y-126219828D01*
X98376614Y-126139904D01*
X98384794Y-126109375D01*
X98400500Y-126050760D01*
X98400500Y-110803856D01*
X98376614Y-110714712D01*
X98374451Y-110710966D01*
X98330470Y-110634788D01*
X95115212Y-107419530D01*
X95115211Y-107419529D01*
X95115208Y-107419527D01*
X95035290Y-107373387D01*
X95035283Y-107373384D01*
X95021902Y-107369798D01*
X95021902Y-107369799D01*
X94984022Y-107359649D01*
X94946144Y-107349500D01*
X94946143Y-107349500D01*
X94745544Y-107349500D01*
X94678505Y-107329815D01*
X94632750Y-107277011D01*
X94622806Y-107207853D01*
X94651831Y-107144297D01*
X94657863Y-107137819D01*
X95204862Y-106590819D01*
X95266185Y-106557334D01*
X95292543Y-106554500D01*
X95849456Y-106554500D01*
X95916495Y-106574185D01*
G37*
%TD.AperFunction*%
%TA.AperFunction,Conductor*%
G36*
X95318203Y-108614331D02*
G01*
X95324681Y-108620363D01*
X97663181Y-110958863D01*
X97696666Y-111020186D01*
X97699500Y-111046544D01*
X97699500Y-125808072D01*
X97679815Y-125875111D01*
X97663181Y-125895753D01*
X97298532Y-126260401D01*
X97298528Y-126260407D01*
X97261829Y-126323972D01*
X97252387Y-126340325D01*
X97252386Y-126340328D01*
X97228500Y-126429472D01*
X97228500Y-127228840D01*
X97208815Y-127295879D01*
X97156011Y-127341634D01*
X97086853Y-127351578D01*
X97023297Y-127322553D01*
X97016819Y-127316521D01*
X94532819Y-124832521D01*
X94499334Y-124771198D01*
X94496500Y-124744840D01*
X94496500Y-120297465D01*
X94513113Y-120235465D01*
X94519799Y-120223886D01*
X94550500Y-120109309D01*
X94550500Y-119990691D01*
X94519799Y-119876114D01*
X94519797Y-119876111D01*
X94519796Y-119876106D01*
X94518073Y-119871945D01*
X94510609Y-119802476D01*
X94541887Y-119739998D01*
X94601979Y-119704350D01*
X94632637Y-119700500D01*
X95946142Y-119700500D01*
X95946144Y-119700500D01*
X96035288Y-119676614D01*
X96115212Y-119630470D01*
X96980470Y-118765212D01*
X97026614Y-118685288D01*
X97050500Y-118596144D01*
X97050500Y-118503856D01*
X97050500Y-113811856D01*
X97026614Y-113722712D01*
X97026613Y-113722711D01*
X97026613Y-113722709D01*
X97013214Y-113699503D01*
X97013212Y-113699500D01*
X96980470Y-113642788D01*
X95477212Y-112139530D01*
X95477211Y-112139529D01*
X95477208Y-112139527D01*
X95397290Y-112093387D01*
X95397289Y-112093386D01*
X95397288Y-112093386D01*
X95308144Y-112069500D01*
X95308143Y-112069500D01*
X94627140Y-112069500D01*
X94565140Y-112052887D01*
X94473886Y-112000201D01*
X94359309Y-111969500D01*
X94353500Y-111969500D01*
X94286461Y-111949815D01*
X94240706Y-111897011D01*
X94229500Y-111845500D01*
X94229500Y-110555754D01*
X94249185Y-110488715D01*
X94265819Y-110468073D01*
X94692073Y-110041819D01*
X94753396Y-110008334D01*
X94779754Y-110005500D01*
X94887176Y-110005500D01*
X94887177Y-110005499D01*
X94960240Y-109990966D01*
X95043101Y-109935601D01*
X95098466Y-109852740D01*
X95113000Y-109779674D01*
X95113000Y-109280326D01*
X95113000Y-109280323D01*
X95112999Y-109280321D01*
X95098467Y-109207264D01*
X95098467Y-109207262D01*
X95098466Y-109207260D01*
X95076167Y-109173887D01*
X95055291Y-109107214D01*
X95073775Y-109039834D01*
X95076128Y-109036170D01*
X95098466Y-109002740D01*
X95113000Y-108929674D01*
X95113000Y-108708044D01*
X95132685Y-108641005D01*
X95185489Y-108595250D01*
X95254647Y-108585306D01*
X95318203Y-108614331D01*
G37*
%TD.AperFunction*%
%TA.AperFunction,Conductor*%
G36*
X92061994Y-123454185D02*
G01*
X92082635Y-123470818D01*
X92125680Y-123513862D01*
X92140385Y-123540792D01*
X92156977Y-123566609D01*
X92157868Y-123572807D01*
X92159166Y-123575184D01*
X92162000Y-123601544D01*
X92162000Y-123780500D01*
X92142315Y-123847539D01*
X92089511Y-123893294D01*
X92038000Y-123904500D01*
X91537823Y-123904500D01*
X91464764Y-123919032D01*
X91464760Y-123919033D01*
X91381898Y-123974399D01*
X91368541Y-123994391D01*
X91314929Y-124039196D01*
X91265439Y-124049500D01*
X81754044Y-124049500D01*
X81687005Y-124029815D01*
X81666363Y-124013181D01*
X81299363Y-123646181D01*
X81265878Y-123584858D01*
X81270862Y-123515166D01*
X81312734Y-123459233D01*
X81378198Y-123434816D01*
X81387044Y-123434500D01*
X91994955Y-123434500D01*
X92061994Y-123454185D01*
G37*
%TD.AperFunction*%
%TA.AperFunction,Conductor*%
G36*
X95132495Y-112790185D02*
G01*
X95153137Y-112806819D01*
X96313181Y-113966863D01*
X96346666Y-114028186D01*
X96349500Y-114054544D01*
X96349500Y-118353456D01*
X96329815Y-118420495D01*
X96313181Y-118441137D01*
X95791137Y-118963181D01*
X95729814Y-118996666D01*
X95703456Y-118999500D01*
X93523329Y-118999500D01*
X93456290Y-118979815D01*
X93410535Y-118927011D01*
X93400591Y-118857853D01*
X93408768Y-118828046D01*
X93410963Y-118822744D01*
X93410966Y-118822740D01*
X93425500Y-118749674D01*
X93425500Y-118150326D01*
X93415328Y-118099188D01*
X93415328Y-118050811D01*
X93425500Y-117999674D01*
X93425500Y-117550500D01*
X93445185Y-117483461D01*
X93497989Y-117437706D01*
X93549500Y-117426500D01*
X94194225Y-117426500D01*
X94194227Y-117426500D01*
X94296088Y-117399207D01*
X94387413Y-117346480D01*
X94692074Y-117041819D01*
X94753397Y-117008334D01*
X94779755Y-117005500D01*
X94887176Y-117005500D01*
X94887177Y-117005499D01*
X94960240Y-116990966D01*
X95043101Y-116935601D01*
X95098466Y-116852740D01*
X95113000Y-116779674D01*
X95113000Y-116672255D01*
X95132685Y-116605216D01*
X95149319Y-116584574D01*
X95288997Y-116444896D01*
X95453980Y-116279913D01*
X95506707Y-116188588D01*
X95534000Y-116086727D01*
X95534000Y-115981273D01*
X95534000Y-114938773D01*
X95530011Y-114923886D01*
X95506707Y-114836912D01*
X95465310Y-114765212D01*
X95453980Y-114745587D01*
X95379413Y-114671020D01*
X95379410Y-114671018D01*
X95107819Y-114399426D01*
X95074334Y-114338103D01*
X95071500Y-114311745D01*
X95071500Y-113404370D01*
X95071499Y-113404366D01*
X95070694Y-113401362D01*
X95063497Y-113374500D01*
X95044207Y-113302507D01*
X94991480Y-113211182D01*
X94762479Y-112982181D01*
X94751866Y-112962744D01*
X94737366Y-112946011D01*
X94735449Y-112932679D01*
X94728994Y-112920858D01*
X94730573Y-112898771D01*
X94727422Y-112876853D01*
X94733017Y-112864601D01*
X94733978Y-112851166D01*
X94747248Y-112833439D01*
X94756447Y-112813297D01*
X94767778Y-112806014D01*
X94775850Y-112795233D01*
X94796595Y-112787495D01*
X94815225Y-112775523D01*
X94837143Y-112772371D01*
X94841314Y-112770816D01*
X94850160Y-112770500D01*
X95065456Y-112770500D01*
X95132495Y-112790185D01*
G37*
%TD.AperFunction*%
%TA.AperFunction,Conductor*%
G36*
X94061994Y-115604185D02*
G01*
X94082635Y-115620818D01*
X94125680Y-115663862D01*
X94159166Y-115725184D01*
X94162000Y-115751544D01*
X94162000Y-115930500D01*
X94142315Y-115997539D01*
X94089511Y-116043294D01*
X94038000Y-116054500D01*
X93537823Y-116054500D01*
X93464764Y-116069032D01*
X93464760Y-116069034D01*
X93381901Y-116124397D01*
X93373266Y-116133033D01*
X93372490Y-116132257D01*
X93328296Y-116169195D01*
X93278803Y-116179500D01*
X90876543Y-116179500D01*
X90809504Y-116159815D01*
X90788862Y-116143181D01*
X90441862Y-115796181D01*
X90408377Y-115734858D01*
X90413361Y-115665166D01*
X90455233Y-115609233D01*
X90520697Y-115584816D01*
X90529543Y-115584500D01*
X93994955Y-115584500D01*
X94061994Y-115604185D01*
G37*
%TD.AperFunction*%
%TA.AperFunction,Conductor*%
G36*
X65543389Y-109976687D02*
G01*
X65564760Y-109990966D01*
X65564762Y-109990966D01*
X65564764Y-109990967D01*
X65637821Y-110005499D01*
X65637824Y-110005500D01*
X65637826Y-110005500D01*
X65815957Y-110005500D01*
X65882996Y-110025185D01*
X65903638Y-110041819D01*
X66053031Y-110191212D01*
X66118288Y-110256469D01*
X66118291Y-110256470D01*
X66118294Y-110256473D01*
X66198206Y-110302611D01*
X66198207Y-110302611D01*
X66198212Y-110302614D01*
X66287356Y-110326500D01*
X76787456Y-110326500D01*
X76854495Y-110346185D01*
X76875137Y-110362819D01*
X78592788Y-112080470D01*
X78672712Y-112126614D01*
X78761856Y-112150500D01*
X78761857Y-112150500D01*
X78854144Y-112150500D01*
X80088000Y-112150500D01*
X80155039Y-112170185D01*
X80200794Y-112222989D01*
X80212000Y-112274500D01*
X80212000Y-112563000D01*
X80192315Y-112630039D01*
X80139511Y-112675794D01*
X80088000Y-112687000D01*
X79587823Y-112687000D01*
X79514764Y-112701532D01*
X79514760Y-112701533D01*
X79431899Y-112756899D01*
X79376533Y-112839760D01*
X79376532Y-112839764D01*
X79362000Y-112912821D01*
X79362000Y-113412178D01*
X79376532Y-113485235D01*
X79381207Y-113496521D01*
X79379712Y-113497139D01*
X79396383Y-113550378D01*
X79377898Y-113617758D01*
X79325919Y-113664448D01*
X79256949Y-113675624D01*
X79250525Y-113674583D01*
X79249677Y-113674500D01*
X79249674Y-113674500D01*
X78650326Y-113674500D01*
X78650323Y-113674500D01*
X78577264Y-113689032D01*
X78577260Y-113689033D01*
X78494399Y-113744399D01*
X78439033Y-113827260D01*
X78439032Y-113827264D01*
X78424500Y-113900321D01*
X78424500Y-114499673D01*
X78434671Y-114550810D01*
X78434671Y-114599190D01*
X78424500Y-114650326D01*
X78424500Y-115205500D01*
X78404815Y-115272539D01*
X78352011Y-115318294D01*
X78300500Y-115329500D01*
X67246197Y-115329500D01*
X67179158Y-115309815D01*
X67151813Y-115282953D01*
X67151734Y-115283033D01*
X67143103Y-115274402D01*
X67143101Y-115274399D01*
X67060240Y-115219034D01*
X67060238Y-115219033D01*
X67060235Y-115219032D01*
X66987177Y-115204500D01*
X66987174Y-115204500D01*
X66487826Y-115204500D01*
X66487823Y-115204500D01*
X66414764Y-115219032D01*
X66414760Y-115219033D01*
X66331899Y-115274399D01*
X66276533Y-115357260D01*
X66276532Y-115357264D01*
X66262000Y-115430321D01*
X66262000Y-115930500D01*
X66242315Y-115997539D01*
X66189511Y-116043294D01*
X66138000Y-116054500D01*
X65637823Y-116054500D01*
X65564764Y-116069032D01*
X65564760Y-116069033D01*
X65543390Y-116083313D01*
X65476712Y-116104190D01*
X65409332Y-116085705D01*
X65362643Y-116033726D01*
X65350500Y-115980210D01*
X65350500Y-115042105D01*
X65370185Y-114975066D01*
X65405609Y-114939003D01*
X65455601Y-114905601D01*
X65510966Y-114822740D01*
X65525500Y-114749674D01*
X65525500Y-114150326D01*
X65515328Y-114099188D01*
X65515328Y-114050811D01*
X65525500Y-113999674D01*
X65525500Y-113600321D01*
X73124500Y-113600321D01*
X73124500Y-114199678D01*
X73139032Y-114272735D01*
X73139033Y-114272739D01*
X73139034Y-114272740D01*
X73194399Y-114355601D01*
X73259989Y-114399426D01*
X73277260Y-114410966D01*
X73277264Y-114410967D01*
X73350321Y-114425499D01*
X73350324Y-114425500D01*
X73350326Y-114425500D01*
X73949674Y-114425500D01*
X74000811Y-114415328D01*
X74049189Y-114415328D01*
X74100326Y-114425500D01*
X74699676Y-114425500D01*
X74699677Y-114425499D01*
X74772740Y-114410966D01*
X74855601Y-114355601D01*
X74910966Y-114272740D01*
X74925500Y-114199674D01*
X74925500Y-113600326D01*
X74925500Y-113600323D01*
X74925499Y-113600321D01*
X74910967Y-113527264D01*
X74910966Y-113527260D01*
X74871397Y-113468040D01*
X74850520Y-113401362D01*
X74850500Y-113399150D01*
X74850500Y-113340693D01*
X74850500Y-113340691D01*
X74819799Y-113226114D01*
X74760489Y-113123387D01*
X74676613Y-113039511D01*
X74573886Y-112980201D01*
X74459309Y-112949500D01*
X74340691Y-112949500D01*
X74226114Y-112980201D01*
X74226112Y-112980201D01*
X74226112Y-112980202D01*
X74123387Y-113039511D01*
X74123384Y-113039513D01*
X74039513Y-113123384D01*
X74039511Y-113123387D01*
X73980201Y-113226112D01*
X73973571Y-113250858D01*
X73965066Y-113282594D01*
X73928703Y-113342254D01*
X73865856Y-113372783D01*
X73845293Y-113374500D01*
X73350323Y-113374500D01*
X73277264Y-113389032D01*
X73277260Y-113389033D01*
X73194399Y-113444399D01*
X73139033Y-113527260D01*
X73139032Y-113527264D01*
X73124500Y-113600321D01*
X65525500Y-113600321D01*
X65525500Y-113400326D01*
X65525500Y-113400323D01*
X65525499Y-113400321D01*
X65510967Y-113327264D01*
X65510966Y-113327260D01*
X65494426Y-113302506D01*
X65455601Y-113244399D01*
X65372740Y-113189034D01*
X65372739Y-113189033D01*
X65372735Y-113189032D01*
X65299677Y-113174500D01*
X65299674Y-113174500D01*
X64824500Y-113174500D01*
X64757461Y-113154815D01*
X64711706Y-113102011D01*
X64700500Y-113050500D01*
X64700500Y-112099500D01*
X64720185Y-112032461D01*
X64772989Y-111986706D01*
X64824500Y-111975500D01*
X65299676Y-111975500D01*
X65299677Y-111975499D01*
X65372740Y-111960966D01*
X65455601Y-111905601D01*
X65510966Y-111822740D01*
X65525500Y-111749674D01*
X65525500Y-111150326D01*
X65515328Y-111099188D01*
X65515328Y-111050811D01*
X65525500Y-110999674D01*
X65525500Y-110400326D01*
X65525500Y-110400323D01*
X65525499Y-110400321D01*
X65510967Y-110327264D01*
X65510966Y-110327260D01*
X65494496Y-110302611D01*
X65455601Y-110244399D01*
X65405608Y-110210995D01*
X65400517Y-110204903D01*
X65393297Y-110201606D01*
X65378433Y-110178477D01*
X65360804Y-110157382D01*
X65358852Y-110148008D01*
X65355523Y-110142828D01*
X65350500Y-110107893D01*
X65350500Y-110079789D01*
X65370185Y-110012750D01*
X65422989Y-109966995D01*
X65492147Y-109957051D01*
X65543389Y-109976687D01*
G37*
%TD.AperFunction*%
%TA.AperFunction,Conductor*%
G36*
X86770495Y-113120185D02*
G01*
X86791137Y-113136819D01*
X87538137Y-113883819D01*
X87571622Y-113945142D01*
X87566638Y-114014834D01*
X87524766Y-114070767D01*
X87459302Y-114095184D01*
X87450456Y-114095500D01*
X83205254Y-114095500D01*
X83138215Y-114075815D01*
X83117573Y-114059181D01*
X82370574Y-113312181D01*
X82337089Y-113250858D01*
X82342073Y-113181166D01*
X82383945Y-113125233D01*
X82449409Y-113100816D01*
X82458255Y-113100500D01*
X86703456Y-113100500D01*
X86770495Y-113120185D01*
G37*
%TD.AperFunction*%
%TA.AperFunction,Conductor*%
G36*
X90705541Y-109328168D02*
G01*
X90755466Y-109358599D01*
X90787356Y-109390489D01*
X90890083Y-109449799D01*
X90991866Y-109477071D01*
X91047451Y-109509164D01*
X92338181Y-110799894D01*
X92352033Y-110825263D01*
X92368383Y-110849109D01*
X92369750Y-110857709D01*
X92371666Y-110861217D01*
X92374445Y-110883878D01*
X92374500Y-110885721D01*
X92374500Y-110999674D01*
X92378498Y-111019774D01*
X92378807Y-111030121D01*
X92372480Y-111054313D01*
X92370252Y-111079219D01*
X92363793Y-111087532D01*
X92361130Y-111097718D01*
X92342728Y-111114649D01*
X92327388Y-111134396D01*
X92317459Y-111137898D01*
X92309713Y-111145026D01*
X92285080Y-111149320D01*
X92261498Y-111157640D01*
X92251252Y-111155218D01*
X92240882Y-111157027D01*
X92217838Y-111147322D01*
X92193502Y-111141572D01*
X92180332Y-111131528D01*
X92176489Y-111129910D01*
X92174602Y-111127159D01*
X92167181Y-111121499D01*
X92065213Y-111019531D01*
X92065208Y-111019527D01*
X91985290Y-110973387D01*
X91985289Y-110973386D01*
X91985288Y-110973386D01*
X91896144Y-110949500D01*
X91896143Y-110949500D01*
X87542106Y-110949500D01*
X87475067Y-110929815D01*
X87439004Y-110894390D01*
X87405602Y-110844400D01*
X87393349Y-110836213D01*
X87344923Y-110803856D01*
X87322739Y-110789033D01*
X87322735Y-110789032D01*
X87249677Y-110774500D01*
X87249674Y-110774500D01*
X86650326Y-110774500D01*
X86599190Y-110784671D01*
X86550810Y-110784671D01*
X86499674Y-110774500D01*
X85900326Y-110774500D01*
X85900323Y-110774500D01*
X85827264Y-110789032D01*
X85827260Y-110789033D01*
X85744399Y-110844399D01*
X85689033Y-110927260D01*
X85689032Y-110927264D01*
X85674500Y-111000321D01*
X85674500Y-111011543D01*
X85654815Y-111078582D01*
X85602011Y-111124337D01*
X85532853Y-111134281D01*
X85497048Y-111121891D01*
X85496798Y-111122497D01*
X85489290Y-111119387D01*
X85489288Y-111119386D01*
X85400144Y-111095500D01*
X85400143Y-111095500D01*
X80542544Y-111095500D01*
X80475505Y-111075815D01*
X80454863Y-111059181D01*
X79979164Y-110583482D01*
X79947071Y-110527897D01*
X79919799Y-110426114D01*
X79860489Y-110323387D01*
X79776613Y-110239511D01*
X79673886Y-110180201D01*
X79567404Y-110151669D01*
X79507746Y-110115305D01*
X79477217Y-110052458D01*
X79475500Y-110031895D01*
X79475500Y-109900323D01*
X79475499Y-109900321D01*
X79460967Y-109827264D01*
X79460966Y-109827260D01*
X79429173Y-109779678D01*
X79405601Y-109744399D01*
X79322740Y-109689034D01*
X79322739Y-109689033D01*
X79322735Y-109689032D01*
X79249677Y-109674500D01*
X79249674Y-109674500D01*
X78650326Y-109674500D01*
X78650323Y-109674500D01*
X78577264Y-109689032D01*
X78577260Y-109689033D01*
X78494399Y-109744399D01*
X78439033Y-109827260D01*
X78439032Y-109827264D01*
X78424500Y-109900321D01*
X78424500Y-109900326D01*
X78424500Y-110499674D01*
X78426585Y-110510159D01*
X78434671Y-110550810D01*
X78434671Y-110559148D01*
X78436559Y-110563947D01*
X78434671Y-110599191D01*
X78424881Y-110648410D01*
X78392496Y-110710321D01*
X78331780Y-110744895D01*
X78262011Y-110741156D01*
X78215582Y-110711900D01*
X77199213Y-109695531D01*
X77199208Y-109695527D01*
X77119290Y-109649387D01*
X77119289Y-109649386D01*
X77119288Y-109649386D01*
X77030144Y-109625500D01*
X77030143Y-109625500D01*
X67974500Y-109625500D01*
X67965814Y-109622949D01*
X67956853Y-109624238D01*
X67932812Y-109613259D01*
X67907461Y-109605815D01*
X67901533Y-109598974D01*
X67893297Y-109595213D01*
X67879007Y-109572978D01*
X67861706Y-109553011D01*
X67859418Y-109542496D01*
X67855523Y-109536435D01*
X67850500Y-109501500D01*
X67850500Y-109474500D01*
X67870185Y-109407461D01*
X67922989Y-109361706D01*
X67974500Y-109350500D01*
X90546141Y-109350500D01*
X90546144Y-109350500D01*
X90635288Y-109326614D01*
X90635291Y-109326612D01*
X90635691Y-109326505D01*
X90705541Y-109328168D01*
G37*
%TD.AperFunction*%
%TA.AperFunction,Conductor*%
G36*
X89355723Y-76874572D02*
G01*
X89362201Y-76880604D01*
X89813181Y-77331584D01*
X89846666Y-77392907D01*
X89849500Y-77419265D01*
X89849500Y-78776688D01*
X89864032Y-78849745D01*
X89864033Y-78849749D01*
X89864034Y-78849750D01*
X89919399Y-78932611D01*
X89999990Y-78986459D01*
X90002260Y-78987976D01*
X90002264Y-78987977D01*
X90075321Y-79002509D01*
X90075324Y-79002510D01*
X90304500Y-79002510D01*
X90371539Y-79022195D01*
X90417294Y-79074999D01*
X90428500Y-79126510D01*
X90428500Y-98406726D01*
X90455793Y-98508589D01*
X90466577Y-98527267D01*
X90508520Y-98599913D01*
X92075518Y-100166910D01*
X92075520Y-100166913D01*
X92150087Y-100241480D01*
X92198673Y-100269531D01*
X92241413Y-100294207D01*
X92343273Y-100321501D01*
X92343275Y-100321501D01*
X92456323Y-100321501D01*
X92456339Y-100321500D01*
X92833456Y-100321500D01*
X92900495Y-100341185D01*
X92946250Y-100393989D01*
X92956194Y-100463147D01*
X92927169Y-100526703D01*
X92921137Y-100533181D01*
X92619532Y-100834785D01*
X92619530Y-100834788D01*
X92593910Y-100879164D01*
X92581590Y-100900502D01*
X92573388Y-100914708D01*
X92573386Y-100914711D01*
X92573386Y-100914712D01*
X92549500Y-101003856D01*
X92549500Y-101003858D01*
X92549500Y-106107893D01*
X92529815Y-106174932D01*
X92494392Y-106210995D01*
X92444399Y-106244399D01*
X92389033Y-106327260D01*
X92389032Y-106327264D01*
X92374500Y-106400321D01*
X92374500Y-106999673D01*
X92384671Y-107050810D01*
X92384671Y-107099190D01*
X92374500Y-107150326D01*
X92374500Y-107428456D01*
X92354815Y-107495495D01*
X92338180Y-107516138D01*
X92289562Y-107564755D01*
X92242349Y-107590534D01*
X92227948Y-107656738D01*
X92226506Y-107659307D01*
X92223386Y-107664709D01*
X92199500Y-107753856D01*
X92199500Y-107772859D01*
X92190525Y-107803423D01*
X92183137Y-107834424D01*
X92182887Y-107834859D01*
X92130202Y-107926110D01*
X92130201Y-107926114D01*
X92099500Y-108040691D01*
X92099500Y-108159309D01*
X92130201Y-108273886D01*
X92189511Y-108376613D01*
X92273387Y-108460489D01*
X92376114Y-108519799D01*
X92490691Y-108550500D01*
X92490694Y-108550500D01*
X92609307Y-108550500D01*
X92609309Y-108550500D01*
X92666438Y-108535192D01*
X92736286Y-108536853D01*
X92775332Y-108560653D01*
X92776526Y-108559098D01*
X92782967Y-108564040D01*
X92782972Y-108564045D01*
X92885699Y-108623355D01*
X93000276Y-108654056D01*
X93000279Y-108654056D01*
X93118891Y-108654056D01*
X93118894Y-108654056D01*
X93233471Y-108623355D01*
X93336198Y-108564045D01*
X93420074Y-108480169D01*
X93479384Y-108377442D01*
X93493165Y-108326009D01*
X93525255Y-108270425D01*
X93708864Y-108086816D01*
X93770187Y-108053334D01*
X93796544Y-108050500D01*
X94158215Y-108050500D01*
X94225254Y-108070185D01*
X94271009Y-108122989D01*
X94280953Y-108192147D01*
X94251928Y-108255703D01*
X94240530Y-108265758D01*
X94240535Y-108265763D01*
X94231901Y-108274396D01*
X94176533Y-108357260D01*
X94176532Y-108357264D01*
X94162000Y-108430321D01*
X94162000Y-108930500D01*
X94142315Y-108997539D01*
X94089511Y-109043294D01*
X94038000Y-109054500D01*
X93537823Y-109054500D01*
X93464764Y-109069032D01*
X93464760Y-109069034D01*
X93381901Y-109124397D01*
X93373266Y-109133033D01*
X93372490Y-109132257D01*
X93328296Y-109169195D01*
X93278803Y-109179500D01*
X92376544Y-109179500D01*
X92309505Y-109159815D01*
X92288863Y-109143181D01*
X91474213Y-108328531D01*
X91467761Y-108323580D01*
X91469416Y-108321422D01*
X91430403Y-108280503D01*
X91417183Y-108211896D01*
X91443154Y-108147032D01*
X91500069Y-108106506D01*
X91508495Y-108103922D01*
X91523886Y-108099799D01*
X91626613Y-108040489D01*
X91710489Y-107956613D01*
X91769799Y-107853886D01*
X91791440Y-107773117D01*
X91800147Y-107758035D01*
X91803577Y-107743647D01*
X91814538Y-107733110D01*
X91823531Y-107717533D01*
X92031437Y-107509628D01*
X92078647Y-107483849D01*
X92093050Y-107417645D01*
X92094475Y-107415108D01*
X92097614Y-107409672D01*
X92121500Y-107320527D01*
X92121500Y-107228240D01*
X92121500Y-106879472D01*
X92097614Y-106790328D01*
X92091922Y-106780469D01*
X92051470Y-106710404D01*
X91334803Y-105993737D01*
X91301318Y-105932414D01*
X91306302Y-105862722D01*
X91348174Y-105806789D01*
X91360484Y-105798669D01*
X91409819Y-105770185D01*
X91426613Y-105760489D01*
X91510489Y-105676613D01*
X91569799Y-105573886D01*
X91600500Y-105459309D01*
X91600500Y-105340691D01*
X91569799Y-105226114D01*
X91510489Y-105123387D01*
X91426613Y-105039511D01*
X91323886Y-104980201D01*
X91209309Y-104949500D01*
X91090691Y-104949500D01*
X90976114Y-104980201D01*
X90884859Y-105032887D01*
X90822860Y-105049500D01*
X88638854Y-105049500D01*
X88571815Y-105029815D01*
X88526060Y-104977011D01*
X88516116Y-104907853D01*
X88531467Y-104863500D01*
X88544634Y-104840693D01*
X88576634Y-104785268D01*
X88591317Y-104730469D01*
X88600520Y-104696124D01*
X88600520Y-79126510D01*
X88620205Y-79059471D01*
X88673009Y-79013716D01*
X88724520Y-79002510D01*
X88924696Y-79002510D01*
X88924697Y-79002509D01*
X88997760Y-78987976D01*
X89080621Y-78932611D01*
X89135986Y-78849750D01*
X89150520Y-78776684D01*
X89150520Y-77527336D01*
X89150520Y-76968285D01*
X89170205Y-76901246D01*
X89223009Y-76855491D01*
X89292167Y-76845547D01*
X89355723Y-76874572D01*
G37*
%TD.AperFunction*%
%TD*%
M02*
