M48
; DRILL file {KiCad 9.0.2-9.0.2-0~ubuntu25.04.1} date 2025-05-27T06:33:51+1000
; FORMAT={-:-/ absolute / metric / decimal}
; #@! TF.CreationDate,2025-05-27T06:33:51+10:00
; #@! TF.GenerationSoftware,Kicad,Pcbnew,9.0.2-9.0.2-0~ubuntu25.04.1
; #@! TF.FileFunction,Plated,1,2,PTH
FMAT,2
METRIC
; #@! TA.AperFunction,Plated,PTH,ViaDrill
T1C0.200
; #@! TA.AperFunction,Plated,PTH,ViaDrill
T2C1.250
%
G90
G05
T1
X64.3Y-109.15
X64.5Y-116.3
X64.9Y-123.95
X65.0Y-105.75
X65.05Y-131.05
X65.55Y-118.25
X65.8Y-99.4
X65.95Y-138.15
X66.2Y-144.8
X67.3Y-116.4
X67.4Y-109.5
X67.4Y-139.95
X67.45Y-133.4
X67.55Y-143.05
X67.6Y-126.2
X67.65Y-143.85
X67.8Y-146.15
X69.25Y-117.55
X69.25Y-145.4
X69.3Y-131.35
X69.3Y-138.35
X69.55Y-124.4
X70.15Y-99.975
X70.55Y-112.65
X72.75Y-100.05
X73.75Y-101.75
X74.4Y-113.4
X74.95Y-144.75
X75.05Y-130.7
X75.2Y-137.7
X76.05Y-123.55
X76.3Y-107.6
X76.35Y-100.55
X76.7Y-100.05
X76.825Y-114.975
X77.15Y-99.6
X77.15Y-111.1
X77.232Y-81.985
X77.25Y-108.5
X77.766Y-81.713
X78.05Y-120.1
X78.246Y-81.352
X78.77Y-81.06
X79.25Y-80.7
X79.417Y-114.55
X79.45Y-97.8
X79.45Y-142.95
X79.475Y-103.075
X79.5Y-110.6
X79.5Y-135.9
X79.5Y-139.95
X79.5Y-146.9
X79.6Y-121.9
X79.6Y-125.95
X79.7Y-128.95
X79.7Y-132.9
X79.736Y-80.291
X80.241Y-79.968
X80.325Y-146.825
X80.375Y-143.35
X80.45Y-109.85
X80.475Y-139.875
X80.525Y-115.95
X80.55Y-107.625
X80.55Y-122.425
X80.6Y-125.875
X80.65Y-129.425
X80.65Y-133.1
X80.65Y-136.3
X80.75Y-79.65
X81.25Y-79.3
X81.7Y-92.45
X82.246Y-93.704
X82.35Y-107.399
X82.796Y-107.808
X83.347Y-108.547
X83.55Y-106.95
X83.6Y-106.4
X83.9Y-110.25
X84.625Y-90.575
X84.75Y-113.65
X84.875Y-81.75
X85.25Y-119.0
X85.475Y-103.325
X85.75Y-102.75
X85.8Y-104.9
X86.23Y-104.37
X86.3Y-144.7
X86.5Y-130.7
X86.5Y-137.7
X86.75Y-104.37
X87.25Y-102.9
X87.7Y-115.25
X87.75Y-104.37
X88.05Y-112.2
X88.75Y-106.15
X88.85Y-116.0
X89.15Y-106.5
X89.25Y-123.7
X89.35Y-95.85
X89.475Y-86.125
X89.475Y-129.325
X89.575Y-136.175
X89.625Y-125.575
X89.65Y-132.475
X89.8Y-143.35
X89.825Y-122.4
X89.875Y-146.6
X90.0Y-107.1
X90.05Y-117.5
X90.25Y-99.65
X90.752Y-107.302
X91.064Y-109.03
X91.15Y-105.4
X91.35Y-107.68
X91.35Y-115.8
X91.4Y-135.95
X91.4Y-139.95
X91.45Y-121.95
X91.45Y-125.9
X91.45Y-142.95
X91.475Y-96.9
X91.5Y-128.9
X91.5Y-147.0
X91.55Y-132.95
X91.75Y-114.37
X92.25Y-114.814
X92.25Y-117.45
X92.55Y-99.15
X92.55Y-108.1
X92.975Y-89.725
X93.06Y-108.204
X93.4Y-98.95
X93.55Y-100.4
X93.65Y-114.75
X93.8Y-107.25
X93.85Y-118.05
X94.0Y-98.95
X94.1Y-120.05
X94.2Y-105.9
X94.2Y-114.4
X94.25Y-104.45
X94.3Y-112.42
X94.35Y-99.45
X96.15Y-86.1
X96.575Y-87.625
X96.95Y-126.75
X98.35Y-126.75
X98.95Y-129.15
X99.4Y-127.45
X99.82Y-126.265
X100.35Y-125.15
X100.5Y-130.2
T2
X61.375Y-147.45
X61.375Y-48.7
X99.125Y-147.45
X99.125Y-48.7
M30
