%TF.GenerationSoftware,KiCad,Pcbnew,9.0.2-9.0.2-0~ubuntu25.04.1*%
%TF.CreationDate,2025-05-27T06:33:51+10:00*%
%TF.ProjectId,front_board,66726f6e-745f-4626-9f61-72642e6b6963,rev?*%
%TF.SameCoordinates,Original*%
%TF.FileFunction,Drillmap*%
%TF.FilePolarity,Positive*%
%FSLAX45Y45*%
G04 Gerber Fmt 4.5, Leading zero omitted, Abs format (unit mm)*
G04 Created by KiCad (PCBNEW 9.0.2-9.0.2-0~ubuntu25.04.1) date 2025-05-27 06:33:51*
%MOMM*%
%LPD*%
G01*
G04 APERTURE LIST*
%ADD10C,0.050000*%
%ADD11C,0.200000*%
%ADD12C,0.100000*%
%ADD13C,0.125000*%
G04 APERTURE END LIST*
D10*
X5887500Y-4620000D02*
X10162500Y-4620000D01*
X10162500Y-14995000D01*
X5887500Y-14995000D01*
X5887500Y-4620000D01*
D11*
D12*
X6420000Y-10905000D02*
X6440000Y-10925000D01*
X6440000Y-10905000D02*
X6420000Y-10925000D01*
X6440000Y-11620000D02*
X6460000Y-11640000D01*
X6460000Y-11620000D02*
X6440000Y-11640000D01*
X6480000Y-12385000D02*
X6500000Y-12405000D01*
X6500000Y-12385000D02*
X6480000Y-12405000D01*
X6490000Y-10565000D02*
X6510000Y-10585000D01*
X6510000Y-10565000D02*
X6490000Y-10585000D01*
X6495000Y-13095000D02*
X6515000Y-13115000D01*
X6515000Y-13095000D02*
X6495000Y-13115000D01*
X6545000Y-11815000D02*
X6565000Y-11835000D01*
X6565000Y-11815000D02*
X6545000Y-11835000D01*
X6570000Y-9930000D02*
X6590000Y-9950000D01*
X6590000Y-9930000D02*
X6570000Y-9950000D01*
X6585000Y-13805000D02*
X6605000Y-13825000D01*
X6605000Y-13805000D02*
X6585000Y-13825000D01*
X6610000Y-14470000D02*
X6630000Y-14490000D01*
X6630000Y-14470000D02*
X6610000Y-14490000D01*
X6720000Y-11630000D02*
X6740000Y-11650000D01*
X6740000Y-11630000D02*
X6720000Y-11650000D01*
X6730000Y-10940000D02*
X6750000Y-10960000D01*
X6750000Y-10940000D02*
X6730000Y-10960000D01*
X6730000Y-13985000D02*
X6750000Y-14005000D01*
X6750000Y-13985000D02*
X6730000Y-14005000D01*
X6735000Y-13330000D02*
X6755000Y-13350000D01*
X6755000Y-13330000D02*
X6735000Y-13350000D01*
X6745000Y-14295000D02*
X6765000Y-14315000D01*
X6765000Y-14295000D02*
X6745000Y-14315000D01*
X6750000Y-12610000D02*
X6770000Y-12630000D01*
X6770000Y-12610000D02*
X6750000Y-12630000D01*
X6755000Y-14375000D02*
X6775000Y-14395000D01*
X6775000Y-14375000D02*
X6755000Y-14395000D01*
X6770000Y-14605000D02*
X6790000Y-14625000D01*
X6790000Y-14605000D02*
X6770000Y-14625000D01*
X6915000Y-11745000D02*
X6935000Y-11765000D01*
X6935000Y-11745000D02*
X6915000Y-11765000D01*
X6915000Y-14530000D02*
X6935000Y-14550000D01*
X6935000Y-14530000D02*
X6915000Y-14550000D01*
X6920000Y-13125000D02*
X6940000Y-13145000D01*
X6940000Y-13125000D02*
X6920000Y-13145000D01*
X6920000Y-13825000D02*
X6940000Y-13845000D01*
X6940000Y-13825000D02*
X6920000Y-13845000D01*
X6945000Y-12430000D02*
X6965000Y-12450000D01*
X6965000Y-12430000D02*
X6945000Y-12450000D01*
X7005000Y-9987500D02*
X7025000Y-10007500D01*
X7025000Y-9987500D02*
X7005000Y-10007500D01*
X7045000Y-11255000D02*
X7065000Y-11275000D01*
X7065000Y-11255000D02*
X7045000Y-11275000D01*
X7265002Y-9995000D02*
X7285002Y-10015000D01*
X7285002Y-9995000D02*
X7265002Y-10015000D01*
X7365002Y-10165000D02*
X7385002Y-10185000D01*
X7385002Y-10165000D02*
X7365002Y-10185000D01*
X7430000Y-11330000D02*
X7450000Y-11350000D01*
X7450000Y-11330000D02*
X7430000Y-11350000D01*
X7485000Y-14465000D02*
X7505000Y-14485000D01*
X7505000Y-14465000D02*
X7485000Y-14485000D01*
X7495000Y-13060000D02*
X7515000Y-13080000D01*
X7515000Y-13060000D02*
X7495000Y-13080000D01*
X7510000Y-13760000D02*
X7530000Y-13780000D01*
X7530000Y-13760000D02*
X7510000Y-13780000D01*
X7595000Y-12345000D02*
X7615000Y-12365000D01*
X7615000Y-12345000D02*
X7595000Y-12365000D01*
X7620000Y-10750000D02*
X7640000Y-10770000D01*
X7640000Y-10750000D02*
X7620000Y-10770000D01*
X7625000Y-10045000D02*
X7645000Y-10065000D01*
X7645000Y-10045000D02*
X7625000Y-10065000D01*
X7660000Y-9995000D02*
X7680000Y-10015000D01*
X7680000Y-9995000D02*
X7660000Y-10015000D01*
X7672500Y-11487500D02*
X7692500Y-11507500D01*
X7692500Y-11487500D02*
X7672500Y-11507500D01*
X7705000Y-9950000D02*
X7725000Y-9970000D01*
X7725000Y-9950000D02*
X7705000Y-9970000D01*
X7705000Y-11100000D02*
X7725000Y-11120000D01*
X7725000Y-11100000D02*
X7705000Y-11120000D01*
X7713159Y-8188478D02*
X7733159Y-8208478D01*
X7733159Y-8188478D02*
X7713159Y-8208478D01*
X7715000Y-10840000D02*
X7735000Y-10860000D01*
X7735000Y-10840000D02*
X7715000Y-10860000D01*
X7766643Y-8161284D02*
X7786643Y-8181284D01*
X7786643Y-8161284D02*
X7766643Y-8181284D01*
X7795000Y-12000000D02*
X7815000Y-12020000D01*
X7815000Y-12000000D02*
X7795000Y-12020000D01*
X7814598Y-8125224D02*
X7834598Y-8145224D01*
X7834598Y-8125224D02*
X7814598Y-8145224D01*
X7867000Y-8096000D02*
X7887000Y-8116000D01*
X7887000Y-8096000D02*
X7867000Y-8116000D01*
X7915000Y-8060000D02*
X7935000Y-8080000D01*
X7935000Y-8060000D02*
X7915000Y-8080000D01*
X7931750Y-11445000D02*
X7951750Y-11465000D01*
X7951750Y-11445000D02*
X7931750Y-11465000D01*
X7935000Y-9770000D02*
X7955000Y-9790000D01*
X7955000Y-9770000D02*
X7935000Y-9790000D01*
X7935000Y-14285000D02*
X7955000Y-14305000D01*
X7955000Y-14285000D02*
X7935000Y-14305000D01*
X7937500Y-10297500D02*
X7957500Y-10317500D01*
X7957500Y-10297500D02*
X7937500Y-10317500D01*
X7940000Y-11050000D02*
X7960000Y-11070000D01*
X7960000Y-11050000D02*
X7940000Y-11070000D01*
X7940000Y-13580000D02*
X7960000Y-13600000D01*
X7960000Y-13580000D02*
X7940000Y-13600000D01*
X7940000Y-13985000D02*
X7960000Y-14005000D01*
X7960000Y-13985000D02*
X7940000Y-14005000D01*
X7940000Y-14680000D02*
X7960000Y-14700000D01*
X7960000Y-14680000D02*
X7940000Y-14700000D01*
X7950000Y-12180000D02*
X7970000Y-12200000D01*
X7970000Y-12180000D02*
X7950000Y-12200000D01*
X7950000Y-12585000D02*
X7970000Y-12605000D01*
X7970000Y-12585000D02*
X7950000Y-12605000D01*
X7960000Y-12885000D02*
X7980000Y-12905000D01*
X7980000Y-12885000D02*
X7960000Y-12905000D01*
X7960000Y-13280000D02*
X7980000Y-13300000D01*
X7980000Y-13280000D02*
X7960000Y-13300000D01*
X7963564Y-8019114D02*
X7983564Y-8039114D01*
X7983564Y-8019114D02*
X7963564Y-8039114D01*
X8014120Y-7986800D02*
X8034120Y-8006800D01*
X8034120Y-7986800D02*
X8014120Y-8006800D01*
X8022500Y-14672500D02*
X8042500Y-14692500D01*
X8042500Y-14672500D02*
X8022500Y-14692500D01*
X8027500Y-14325000D02*
X8047500Y-14345000D01*
X8047500Y-14325000D02*
X8027500Y-14345000D01*
X8035000Y-10975000D02*
X8055000Y-10995000D01*
X8055000Y-10975000D02*
X8035000Y-10995000D01*
X8037500Y-13977500D02*
X8057500Y-13997500D01*
X8057500Y-13977500D02*
X8037500Y-13997500D01*
X8042500Y-11585000D02*
X8062500Y-11605000D01*
X8062500Y-11585000D02*
X8042500Y-11605000D01*
X8045000Y-10752500D02*
X8065000Y-10772500D01*
X8065000Y-10752500D02*
X8045000Y-10772500D01*
X8045000Y-12232500D02*
X8065000Y-12252500D01*
X8065000Y-12232500D02*
X8045000Y-12252500D01*
X8050000Y-12577500D02*
X8070000Y-12597500D01*
X8070000Y-12577500D02*
X8050000Y-12597500D01*
X8055000Y-12932500D02*
X8075000Y-12952500D01*
X8075000Y-12932500D02*
X8055000Y-12952500D01*
X8055000Y-13300000D02*
X8075000Y-13320000D01*
X8075000Y-13300000D02*
X8055000Y-13320000D01*
X8055000Y-13620000D02*
X8075000Y-13640000D01*
X8075000Y-13620000D02*
X8055000Y-13640000D01*
X8065000Y-7955000D02*
X8085000Y-7975000D01*
X8085000Y-7955000D02*
X8065000Y-7975000D01*
X8115000Y-7920000D02*
X8135000Y-7940000D01*
X8135000Y-7920000D02*
X8115000Y-7940000D01*
X8160000Y-9235000D02*
X8180000Y-9255000D01*
X8180000Y-9235000D02*
X8160000Y-9255000D01*
X8214645Y-9360355D02*
X8234645Y-9380355D01*
X8234645Y-9360355D02*
X8214645Y-9380355D01*
X8225000Y-10729900D02*
X8245000Y-10749900D01*
X8245000Y-10729900D02*
X8225000Y-10749900D01*
X8269637Y-10770800D02*
X8289637Y-10790800D01*
X8289637Y-10770800D02*
X8269637Y-10790800D01*
X8324698Y-10844699D02*
X8344698Y-10864699D01*
X8344698Y-10844699D02*
X8324698Y-10864699D01*
X8345000Y-10685000D02*
X8365000Y-10705000D01*
X8365000Y-10685000D02*
X8345000Y-10705000D01*
X8350000Y-10630000D02*
X8370000Y-10650000D01*
X8370000Y-10630000D02*
X8350000Y-10650000D01*
X8380000Y-11015000D02*
X8400000Y-11035000D01*
X8400000Y-11015000D02*
X8380000Y-11035000D01*
X8452500Y-9047500D02*
X8472500Y-9067500D01*
X8472500Y-9047500D02*
X8452500Y-9067500D01*
X8465000Y-11355000D02*
X8485000Y-11375000D01*
X8485000Y-11355000D02*
X8465000Y-11375000D01*
X8477500Y-8165000D02*
X8497500Y-8185000D01*
X8497500Y-8165000D02*
X8477500Y-8185000D01*
X8515000Y-11890000D02*
X8535000Y-11910000D01*
X8535000Y-11890000D02*
X8515000Y-11910000D01*
X8537500Y-10322500D02*
X8557500Y-10342500D01*
X8557500Y-10322500D02*
X8537500Y-10342500D01*
X8565000Y-10265000D02*
X8585000Y-10285000D01*
X8585000Y-10265000D02*
X8565000Y-10285000D01*
X8570000Y-10480000D02*
X8590000Y-10500000D01*
X8590000Y-10480000D02*
X8570000Y-10500000D01*
X8613000Y-10427000D02*
X8633000Y-10447000D01*
X8633000Y-10427000D02*
X8613000Y-10447000D01*
X8620000Y-14460000D02*
X8640000Y-14480000D01*
X8640000Y-14460000D02*
X8620000Y-14480000D01*
X8640000Y-13060000D02*
X8660000Y-13080000D01*
X8660000Y-13060000D02*
X8640000Y-13080000D01*
X8640000Y-13760000D02*
X8660000Y-13780000D01*
X8660000Y-13760000D02*
X8640000Y-13780000D01*
X8665000Y-10427000D02*
X8685000Y-10447000D01*
X8685000Y-10427000D02*
X8665000Y-10447000D01*
X8715000Y-10280000D02*
X8735000Y-10300000D01*
X8735000Y-10280000D02*
X8715000Y-10300000D01*
X8760000Y-11515000D02*
X8780000Y-11535000D01*
X8780000Y-11515000D02*
X8760000Y-11535000D01*
X8765002Y-10427000D02*
X8785002Y-10447000D01*
X8785002Y-10427000D02*
X8765002Y-10447000D01*
X8795000Y-11210000D02*
X8815000Y-11230000D01*
X8815000Y-11210000D02*
X8795000Y-11230000D01*
X8865000Y-10605000D02*
X8885000Y-10625000D01*
X8885000Y-10605000D02*
X8865000Y-10625000D01*
X8875000Y-11590000D02*
X8895000Y-11610000D01*
X8895000Y-11590000D02*
X8875000Y-11610000D01*
X8905000Y-10640000D02*
X8925000Y-10660000D01*
X8925000Y-10640000D02*
X8905000Y-10660000D01*
X8915000Y-12360000D02*
X8935000Y-12380000D01*
X8935000Y-12360000D02*
X8915000Y-12380000D01*
X8925000Y-9575000D02*
X8945000Y-9595000D01*
X8945000Y-9575000D02*
X8925000Y-9595000D01*
X8937500Y-8602500D02*
X8957500Y-8622500D01*
X8957500Y-8602500D02*
X8937500Y-8622500D01*
X8937500Y-12922500D02*
X8957500Y-12942500D01*
X8957500Y-12922500D02*
X8937500Y-12942500D01*
X8947500Y-13607500D02*
X8967500Y-13627500D01*
X8967500Y-13607500D02*
X8947500Y-13627500D01*
X8952500Y-12547500D02*
X8972500Y-12567500D01*
X8972500Y-12547500D02*
X8952500Y-12567500D01*
X8955000Y-13237500D02*
X8975000Y-13257500D01*
X8975000Y-13237500D02*
X8955000Y-13257500D01*
X8970000Y-14325000D02*
X8990000Y-14345000D01*
X8990000Y-14325000D02*
X8970000Y-14345000D01*
X8972500Y-12230000D02*
X8992500Y-12250000D01*
X8992500Y-12230000D02*
X8972500Y-12250000D01*
X8977500Y-14650000D02*
X8997500Y-14670000D01*
X8997500Y-14650000D02*
X8977500Y-14670000D01*
X8990000Y-10700000D02*
X9010000Y-10720000D01*
X9010000Y-10700000D02*
X8990000Y-10720000D01*
X8995000Y-11740000D02*
X9015000Y-11760000D01*
X9015000Y-11740000D02*
X8995000Y-11760000D01*
X9015000Y-9955000D02*
X9035000Y-9975000D01*
X9035000Y-9955000D02*
X9015000Y-9975000D01*
X9065231Y-10720231D02*
X9085231Y-10740231D01*
X9085231Y-10720231D02*
X9065231Y-10740231D01*
X9096397Y-10893000D02*
X9116397Y-10913000D01*
X9116397Y-10893000D02*
X9096397Y-10913000D01*
X9105000Y-10530000D02*
X9125000Y-10550000D01*
X9125000Y-10530000D02*
X9105000Y-10550000D01*
X9125000Y-10758000D02*
X9145000Y-10778000D01*
X9145000Y-10758000D02*
X9125000Y-10778000D01*
X9125000Y-11570000D02*
X9145000Y-11590000D01*
X9145000Y-11570000D02*
X9125000Y-11590000D01*
X9130000Y-13585000D02*
X9150000Y-13605000D01*
X9150000Y-13585000D02*
X9130000Y-13605000D01*
X9130000Y-13985000D02*
X9150000Y-14005000D01*
X9150000Y-13985000D02*
X9130000Y-14005000D01*
X9135000Y-12185000D02*
X9155000Y-12205000D01*
X9155000Y-12185000D02*
X9135000Y-12205000D01*
X9135000Y-12580000D02*
X9155000Y-12600000D01*
X9155000Y-12580000D02*
X9135000Y-12600000D01*
X9135000Y-14285000D02*
X9155000Y-14305000D01*
X9155000Y-14285000D02*
X9135000Y-14305000D01*
X9137500Y-9680000D02*
X9157500Y-9700000D01*
X9157500Y-9680000D02*
X9137500Y-9700000D01*
X9140000Y-12880000D02*
X9160000Y-12900000D01*
X9160000Y-12880000D02*
X9140000Y-12900000D01*
X9140000Y-14690000D02*
X9160000Y-14710000D01*
X9160000Y-14690000D02*
X9140000Y-14710000D01*
X9145000Y-13285000D02*
X9165000Y-13305000D01*
X9165000Y-13285000D02*
X9145000Y-13305000D01*
X9165000Y-11427000D02*
X9185000Y-11447000D01*
X9185000Y-11427000D02*
X9165000Y-11447000D01*
X9215000Y-11471400D02*
X9235000Y-11491400D01*
X9235000Y-11471400D02*
X9215000Y-11491400D01*
X9215000Y-11735000D02*
X9235000Y-11755000D01*
X9235000Y-11735000D02*
X9215000Y-11755000D01*
X9245000Y-9905000D02*
X9265000Y-9925000D01*
X9265000Y-9905000D02*
X9245000Y-9925000D01*
X9245000Y-10800000D02*
X9265000Y-10820000D01*
X9265000Y-10800000D02*
X9245000Y-10820000D01*
X9287500Y-8962500D02*
X9307500Y-8982500D01*
X9307500Y-8962500D02*
X9287500Y-8982500D01*
X9295959Y-10810356D02*
X9315959Y-10830356D01*
X9315959Y-10810356D02*
X9295959Y-10830356D01*
X9330000Y-9885000D02*
X9350000Y-9905000D01*
X9350000Y-9885000D02*
X9330000Y-9905000D01*
X9345000Y-10030000D02*
X9365000Y-10050000D01*
X9365000Y-10030000D02*
X9345000Y-10050000D01*
X9355000Y-11465000D02*
X9375000Y-11485000D01*
X9375000Y-11465000D02*
X9355000Y-11485000D01*
X9370000Y-10715000D02*
X9390000Y-10735000D01*
X9390000Y-10715000D02*
X9370000Y-10735000D01*
X9375000Y-11795000D02*
X9395000Y-11815000D01*
X9395000Y-11795000D02*
X9375000Y-11815000D01*
X9390000Y-9885000D02*
X9410000Y-9905000D01*
X9410000Y-9885000D02*
X9390000Y-9905000D01*
X9400000Y-11995000D02*
X9420000Y-12015000D01*
X9420000Y-11995000D02*
X9400000Y-12015000D01*
X9410000Y-10580000D02*
X9430000Y-10600000D01*
X9430000Y-10580000D02*
X9410000Y-10600000D01*
X9410000Y-11430000D02*
X9430000Y-11450000D01*
X9430000Y-11430000D02*
X9410000Y-11450000D01*
X9415000Y-10435000D02*
X9435000Y-10455000D01*
X9435000Y-10435000D02*
X9415000Y-10455000D01*
X9420000Y-11232000D02*
X9440000Y-11252000D01*
X9440000Y-11232000D02*
X9420000Y-11252000D01*
X9425000Y-9935000D02*
X9445000Y-9955000D01*
X9445000Y-9935000D02*
X9425000Y-9955000D01*
X9605000Y-8600000D02*
X9625000Y-8620000D01*
X9625000Y-8600000D02*
X9605000Y-8620000D01*
X9647500Y-8752500D02*
X9667500Y-8772500D01*
X9667500Y-8752500D02*
X9647500Y-8772500D01*
X9685000Y-12665000D02*
X9705000Y-12685000D01*
X9705000Y-12665000D02*
X9685000Y-12685000D01*
X9825000Y-12665000D02*
X9845000Y-12685000D01*
X9845000Y-12665000D02*
X9825000Y-12685000D01*
X9885000Y-12905000D02*
X9905000Y-12925000D01*
X9905000Y-12905000D02*
X9885000Y-12925000D01*
X9930000Y-12735000D02*
X9950000Y-12755000D01*
X9950000Y-12735000D02*
X9930000Y-12755000D01*
X9972000Y-12616466D02*
X9992000Y-12636466D01*
X9992000Y-12616466D02*
X9972000Y-12636466D01*
X10025000Y-12505000D02*
X10045000Y-12525000D01*
X10045000Y-12505000D02*
X10025000Y-12525000D01*
X10040000Y-13010000D02*
X10060000Y-13030000D01*
X10060000Y-13010000D02*
X10040000Y-13030000D01*
D13*
X6200000Y-14744962D02*
G75*
G02*
X6075000Y-14744962I-62500J0D01*
G01*
X6075000Y-14744962D02*
G75*
G02*
X6200000Y-14744962I62500J0D01*
G01*
X6200038Y-4870000D02*
G75*
G02*
X6075038Y-4870000I-62500J0D01*
G01*
X6075038Y-4870000D02*
G75*
G02*
X6200038Y-4870000I62500J0D01*
G01*
X9974962Y-14745000D02*
G75*
G02*
X9849962Y-14745000I-62500J0D01*
G01*
X9849962Y-14745000D02*
G75*
G02*
X9974962Y-14745000I62500J0D01*
G01*
X9975000Y-4870038D02*
G75*
G02*
X9850000Y-4870038I-62500J0D01*
G01*
X9850000Y-4870038D02*
G75*
G02*
X9975000Y-4870038I62500J0D01*
G01*
D11*
X6145777Y-15308984D02*
X6145777Y-15108984D01*
X6145777Y-15108984D02*
X6193396Y-15108984D01*
X6193396Y-15108984D02*
X6221967Y-15118508D01*
X6221967Y-15118508D02*
X6241015Y-15137555D01*
X6241015Y-15137555D02*
X6250539Y-15156603D01*
X6250539Y-15156603D02*
X6260062Y-15194698D01*
X6260062Y-15194698D02*
X6260062Y-15223269D01*
X6260062Y-15223269D02*
X6250539Y-15261365D01*
X6250539Y-15261365D02*
X6241015Y-15280412D01*
X6241015Y-15280412D02*
X6221967Y-15299460D01*
X6221967Y-15299460D02*
X6193396Y-15308984D01*
X6193396Y-15308984D02*
X6145777Y-15308984D01*
X6345777Y-15308984D02*
X6345777Y-15175650D01*
X6345777Y-15213746D02*
X6355301Y-15194698D01*
X6355301Y-15194698D02*
X6364824Y-15185174D01*
X6364824Y-15185174D02*
X6383872Y-15175650D01*
X6383872Y-15175650D02*
X6402920Y-15175650D01*
X6469586Y-15308984D02*
X6469586Y-15175650D01*
X6469586Y-15108984D02*
X6460062Y-15118508D01*
X6460062Y-15118508D02*
X6469586Y-15128031D01*
X6469586Y-15128031D02*
X6479110Y-15118508D01*
X6479110Y-15118508D02*
X6469586Y-15108984D01*
X6469586Y-15108984D02*
X6469586Y-15128031D01*
X6593396Y-15308984D02*
X6574348Y-15299460D01*
X6574348Y-15299460D02*
X6564824Y-15280412D01*
X6564824Y-15280412D02*
X6564824Y-15108984D01*
X6698158Y-15308984D02*
X6679110Y-15299460D01*
X6679110Y-15299460D02*
X6669586Y-15280412D01*
X6669586Y-15280412D02*
X6669586Y-15108984D01*
X6926729Y-15308984D02*
X6926729Y-15108984D01*
X6926729Y-15108984D02*
X6993396Y-15251841D01*
X6993396Y-15251841D02*
X7060062Y-15108984D01*
X7060062Y-15108984D02*
X7060062Y-15308984D01*
X7241015Y-15308984D02*
X7241015Y-15204222D01*
X7241015Y-15204222D02*
X7231491Y-15185174D01*
X7231491Y-15185174D02*
X7212443Y-15175650D01*
X7212443Y-15175650D02*
X7174348Y-15175650D01*
X7174348Y-15175650D02*
X7155301Y-15185174D01*
X7241015Y-15299460D02*
X7221967Y-15308984D01*
X7221967Y-15308984D02*
X7174348Y-15308984D01*
X7174348Y-15308984D02*
X7155301Y-15299460D01*
X7155301Y-15299460D02*
X7145777Y-15280412D01*
X7145777Y-15280412D02*
X7145777Y-15261365D01*
X7145777Y-15261365D02*
X7155301Y-15242317D01*
X7155301Y-15242317D02*
X7174348Y-15232793D01*
X7174348Y-15232793D02*
X7221967Y-15232793D01*
X7221967Y-15232793D02*
X7241015Y-15223269D01*
X7336253Y-15175650D02*
X7336253Y-15375650D01*
X7336253Y-15185174D02*
X7355301Y-15175650D01*
X7355301Y-15175650D02*
X7393396Y-15175650D01*
X7393396Y-15175650D02*
X7412443Y-15185174D01*
X7412443Y-15185174D02*
X7421967Y-15194698D01*
X7421967Y-15194698D02*
X7431491Y-15213746D01*
X7431491Y-15213746D02*
X7431491Y-15270888D01*
X7431491Y-15270888D02*
X7421967Y-15289936D01*
X7421967Y-15289936D02*
X7412443Y-15299460D01*
X7412443Y-15299460D02*
X7393396Y-15308984D01*
X7393396Y-15308984D02*
X7355301Y-15308984D01*
X7355301Y-15308984D02*
X7336253Y-15299460D01*
X7517205Y-15289936D02*
X7526729Y-15299460D01*
X7526729Y-15299460D02*
X7517205Y-15308984D01*
X7517205Y-15308984D02*
X7507682Y-15299460D01*
X7507682Y-15299460D02*
X7517205Y-15289936D01*
X7517205Y-15289936D02*
X7517205Y-15308984D01*
X7517205Y-15185174D02*
X7526729Y-15194698D01*
X7526729Y-15194698D02*
X7517205Y-15204222D01*
X7517205Y-15204222D02*
X7507682Y-15194698D01*
X7507682Y-15194698D02*
X7517205Y-15185174D01*
X7517205Y-15185174D02*
X7517205Y-15204222D01*
D12*
X5865000Y-15627500D02*
X5885000Y-15647500D01*
X5885000Y-15627500D02*
X5865000Y-15647500D01*
D11*
X6183872Y-15528984D02*
X6202920Y-15528984D01*
X6202920Y-15528984D02*
X6221967Y-15538508D01*
X6221967Y-15538508D02*
X6231491Y-15548031D01*
X6231491Y-15548031D02*
X6241015Y-15567079D01*
X6241015Y-15567079D02*
X6250539Y-15605174D01*
X6250539Y-15605174D02*
X6250539Y-15652793D01*
X6250539Y-15652793D02*
X6241015Y-15690888D01*
X6241015Y-15690888D02*
X6231491Y-15709936D01*
X6231491Y-15709936D02*
X6221967Y-15719460D01*
X6221967Y-15719460D02*
X6202920Y-15728984D01*
X6202920Y-15728984D02*
X6183872Y-15728984D01*
X6183872Y-15728984D02*
X6164824Y-15719460D01*
X6164824Y-15719460D02*
X6155301Y-15709936D01*
X6155301Y-15709936D02*
X6145777Y-15690888D01*
X6145777Y-15690888D02*
X6136253Y-15652793D01*
X6136253Y-15652793D02*
X6136253Y-15605174D01*
X6136253Y-15605174D02*
X6145777Y-15567079D01*
X6145777Y-15567079D02*
X6155301Y-15548031D01*
X6155301Y-15548031D02*
X6164824Y-15538508D01*
X6164824Y-15538508D02*
X6183872Y-15528984D01*
X6336253Y-15709936D02*
X6345777Y-15719460D01*
X6345777Y-15719460D02*
X6336253Y-15728984D01*
X6336253Y-15728984D02*
X6326729Y-15719460D01*
X6326729Y-15719460D02*
X6336253Y-15709936D01*
X6336253Y-15709936D02*
X6336253Y-15728984D01*
X6421967Y-15548031D02*
X6431491Y-15538508D01*
X6431491Y-15538508D02*
X6450539Y-15528984D01*
X6450539Y-15528984D02*
X6498158Y-15528984D01*
X6498158Y-15528984D02*
X6517205Y-15538508D01*
X6517205Y-15538508D02*
X6526729Y-15548031D01*
X6526729Y-15548031D02*
X6536253Y-15567079D01*
X6536253Y-15567079D02*
X6536253Y-15586127D01*
X6536253Y-15586127D02*
X6526729Y-15614698D01*
X6526729Y-15614698D02*
X6412443Y-15728984D01*
X6412443Y-15728984D02*
X6536253Y-15728984D01*
X6660062Y-15528984D02*
X6679110Y-15528984D01*
X6679110Y-15528984D02*
X6698158Y-15538508D01*
X6698158Y-15538508D02*
X6707682Y-15548031D01*
X6707682Y-15548031D02*
X6717205Y-15567079D01*
X6717205Y-15567079D02*
X6726729Y-15605174D01*
X6726729Y-15605174D02*
X6726729Y-15652793D01*
X6726729Y-15652793D02*
X6717205Y-15690888D01*
X6717205Y-15690888D02*
X6707682Y-15709936D01*
X6707682Y-15709936D02*
X6698158Y-15719460D01*
X6698158Y-15719460D02*
X6679110Y-15728984D01*
X6679110Y-15728984D02*
X6660062Y-15728984D01*
X6660062Y-15728984D02*
X6641015Y-15719460D01*
X6641015Y-15719460D02*
X6631491Y-15709936D01*
X6631491Y-15709936D02*
X6621967Y-15690888D01*
X6621967Y-15690888D02*
X6612443Y-15652793D01*
X6612443Y-15652793D02*
X6612443Y-15605174D01*
X6612443Y-15605174D02*
X6621967Y-15567079D01*
X6621967Y-15567079D02*
X6631491Y-15548031D01*
X6631491Y-15548031D02*
X6641015Y-15538508D01*
X6641015Y-15538508D02*
X6660062Y-15528984D01*
X6850539Y-15528984D02*
X6869586Y-15528984D01*
X6869586Y-15528984D02*
X6888634Y-15538508D01*
X6888634Y-15538508D02*
X6898158Y-15548031D01*
X6898158Y-15548031D02*
X6907682Y-15567079D01*
X6907682Y-15567079D02*
X6917205Y-15605174D01*
X6917205Y-15605174D02*
X6917205Y-15652793D01*
X6917205Y-15652793D02*
X6907682Y-15690888D01*
X6907682Y-15690888D02*
X6898158Y-15709936D01*
X6898158Y-15709936D02*
X6888634Y-15719460D01*
X6888634Y-15719460D02*
X6869586Y-15728984D01*
X6869586Y-15728984D02*
X6850539Y-15728984D01*
X6850539Y-15728984D02*
X6831491Y-15719460D01*
X6831491Y-15719460D02*
X6821967Y-15709936D01*
X6821967Y-15709936D02*
X6812443Y-15690888D01*
X6812443Y-15690888D02*
X6802920Y-15652793D01*
X6802920Y-15652793D02*
X6802920Y-15605174D01*
X6802920Y-15605174D02*
X6812443Y-15567079D01*
X6812443Y-15567079D02*
X6821967Y-15548031D01*
X6821967Y-15548031D02*
X6831491Y-15538508D01*
X6831491Y-15538508D02*
X6850539Y-15528984D01*
X7002920Y-15728984D02*
X7002920Y-15595650D01*
X7002920Y-15614698D02*
X7012443Y-15605174D01*
X7012443Y-15605174D02*
X7031491Y-15595650D01*
X7031491Y-15595650D02*
X7060063Y-15595650D01*
X7060063Y-15595650D02*
X7079110Y-15605174D01*
X7079110Y-15605174D02*
X7088634Y-15624222D01*
X7088634Y-15624222D02*
X7088634Y-15728984D01*
X7088634Y-15624222D02*
X7098158Y-15605174D01*
X7098158Y-15605174D02*
X7117205Y-15595650D01*
X7117205Y-15595650D02*
X7145777Y-15595650D01*
X7145777Y-15595650D02*
X7164824Y-15605174D01*
X7164824Y-15605174D02*
X7174348Y-15624222D01*
X7174348Y-15624222D02*
X7174348Y-15728984D01*
X7269586Y-15728984D02*
X7269586Y-15595650D01*
X7269586Y-15614698D02*
X7279110Y-15605174D01*
X7279110Y-15605174D02*
X7298158Y-15595650D01*
X7298158Y-15595650D02*
X7326729Y-15595650D01*
X7326729Y-15595650D02*
X7345777Y-15605174D01*
X7345777Y-15605174D02*
X7355301Y-15624222D01*
X7355301Y-15624222D02*
X7355301Y-15728984D01*
X7355301Y-15624222D02*
X7364824Y-15605174D01*
X7364824Y-15605174D02*
X7383872Y-15595650D01*
X7383872Y-15595650D02*
X7412443Y-15595650D01*
X7412443Y-15595650D02*
X7431491Y-15605174D01*
X7431491Y-15605174D02*
X7441015Y-15624222D01*
X7441015Y-15624222D02*
X7441015Y-15728984D01*
X7831491Y-15519460D02*
X7660063Y-15776603D01*
X8088634Y-15528984D02*
X8107682Y-15528984D01*
X8107682Y-15528984D02*
X8126729Y-15538508D01*
X8126729Y-15538508D02*
X8136253Y-15548031D01*
X8136253Y-15548031D02*
X8145777Y-15567079D01*
X8145777Y-15567079D02*
X8155301Y-15605174D01*
X8155301Y-15605174D02*
X8155301Y-15652793D01*
X8155301Y-15652793D02*
X8145777Y-15690888D01*
X8145777Y-15690888D02*
X8136253Y-15709936D01*
X8136253Y-15709936D02*
X8126729Y-15719460D01*
X8126729Y-15719460D02*
X8107682Y-15728984D01*
X8107682Y-15728984D02*
X8088634Y-15728984D01*
X8088634Y-15728984D02*
X8069586Y-15719460D01*
X8069586Y-15719460D02*
X8060063Y-15709936D01*
X8060063Y-15709936D02*
X8050539Y-15690888D01*
X8050539Y-15690888D02*
X8041015Y-15652793D01*
X8041015Y-15652793D02*
X8041015Y-15605174D01*
X8041015Y-15605174D02*
X8050539Y-15567079D01*
X8050539Y-15567079D02*
X8060063Y-15548031D01*
X8060063Y-15548031D02*
X8069586Y-15538508D01*
X8069586Y-15538508D02*
X8088634Y-15528984D01*
X8241015Y-15709936D02*
X8250539Y-15719460D01*
X8250539Y-15719460D02*
X8241015Y-15728984D01*
X8241015Y-15728984D02*
X8231491Y-15719460D01*
X8231491Y-15719460D02*
X8241015Y-15709936D01*
X8241015Y-15709936D02*
X8241015Y-15728984D01*
X8374348Y-15528984D02*
X8393396Y-15528984D01*
X8393396Y-15528984D02*
X8412444Y-15538508D01*
X8412444Y-15538508D02*
X8421968Y-15548031D01*
X8421968Y-15548031D02*
X8431491Y-15567079D01*
X8431491Y-15567079D02*
X8441015Y-15605174D01*
X8441015Y-15605174D02*
X8441015Y-15652793D01*
X8441015Y-15652793D02*
X8431491Y-15690888D01*
X8431491Y-15690888D02*
X8421968Y-15709936D01*
X8421968Y-15709936D02*
X8412444Y-15719460D01*
X8412444Y-15719460D02*
X8393396Y-15728984D01*
X8393396Y-15728984D02*
X8374348Y-15728984D01*
X8374348Y-15728984D02*
X8355301Y-15719460D01*
X8355301Y-15719460D02*
X8345777Y-15709936D01*
X8345777Y-15709936D02*
X8336253Y-15690888D01*
X8336253Y-15690888D02*
X8326729Y-15652793D01*
X8326729Y-15652793D02*
X8326729Y-15605174D01*
X8326729Y-15605174D02*
X8336253Y-15567079D01*
X8336253Y-15567079D02*
X8345777Y-15548031D01*
X8345777Y-15548031D02*
X8355301Y-15538508D01*
X8355301Y-15538508D02*
X8374348Y-15528984D01*
X8564825Y-15528984D02*
X8583872Y-15528984D01*
X8583872Y-15528984D02*
X8602920Y-15538508D01*
X8602920Y-15538508D02*
X8612444Y-15548031D01*
X8612444Y-15548031D02*
X8621968Y-15567079D01*
X8621968Y-15567079D02*
X8631491Y-15605174D01*
X8631491Y-15605174D02*
X8631491Y-15652793D01*
X8631491Y-15652793D02*
X8621968Y-15690888D01*
X8621968Y-15690888D02*
X8612444Y-15709936D01*
X8612444Y-15709936D02*
X8602920Y-15719460D01*
X8602920Y-15719460D02*
X8583872Y-15728984D01*
X8583872Y-15728984D02*
X8564825Y-15728984D01*
X8564825Y-15728984D02*
X8545777Y-15719460D01*
X8545777Y-15719460D02*
X8536253Y-15709936D01*
X8536253Y-15709936D02*
X8526729Y-15690888D01*
X8526729Y-15690888D02*
X8517206Y-15652793D01*
X8517206Y-15652793D02*
X8517206Y-15605174D01*
X8517206Y-15605174D02*
X8526729Y-15567079D01*
X8526729Y-15567079D02*
X8536253Y-15548031D01*
X8536253Y-15548031D02*
X8545777Y-15538508D01*
X8545777Y-15538508D02*
X8564825Y-15528984D01*
X8698158Y-15528984D02*
X8831491Y-15528984D01*
X8831491Y-15528984D02*
X8745777Y-15728984D01*
X8917206Y-15728984D02*
X8955301Y-15728984D01*
X8955301Y-15728984D02*
X8974349Y-15719460D01*
X8974349Y-15719460D02*
X8983872Y-15709936D01*
X8983872Y-15709936D02*
X9002920Y-15681365D01*
X9002920Y-15681365D02*
X9012444Y-15643269D01*
X9012444Y-15643269D02*
X9012444Y-15567079D01*
X9012444Y-15567079D02*
X9002920Y-15548031D01*
X9002920Y-15548031D02*
X8993396Y-15538508D01*
X8993396Y-15538508D02*
X8974349Y-15528984D01*
X8974349Y-15528984D02*
X8936253Y-15528984D01*
X8936253Y-15528984D02*
X8917206Y-15538508D01*
X8917206Y-15538508D02*
X8907682Y-15548031D01*
X8907682Y-15548031D02*
X8898158Y-15567079D01*
X8898158Y-15567079D02*
X8898158Y-15614698D01*
X8898158Y-15614698D02*
X8907682Y-15633746D01*
X8907682Y-15633746D02*
X8917206Y-15643269D01*
X8917206Y-15643269D02*
X8936253Y-15652793D01*
X8936253Y-15652793D02*
X8974349Y-15652793D01*
X8974349Y-15652793D02*
X8993396Y-15643269D01*
X8993396Y-15643269D02*
X9002920Y-15633746D01*
X9002920Y-15633746D02*
X9012444Y-15614698D01*
X9088634Y-15528984D02*
X9088634Y-15567079D01*
X9164825Y-15528984D02*
X9164825Y-15567079D01*
X9460063Y-15805174D02*
X9450539Y-15795650D01*
X9450539Y-15795650D02*
X9431491Y-15767079D01*
X9431491Y-15767079D02*
X9421968Y-15748031D01*
X9421968Y-15748031D02*
X9412444Y-15719460D01*
X9412444Y-15719460D02*
X9402920Y-15671841D01*
X9402920Y-15671841D02*
X9402920Y-15633746D01*
X9402920Y-15633746D02*
X9412444Y-15586127D01*
X9412444Y-15586127D02*
X9421968Y-15557555D01*
X9421968Y-15557555D02*
X9431491Y-15538508D01*
X9431491Y-15538508D02*
X9450539Y-15509936D01*
X9450539Y-15509936D02*
X9460063Y-15500412D01*
X9641015Y-15728984D02*
X9526730Y-15728984D01*
X9583872Y-15728984D02*
X9583872Y-15528984D01*
X9583872Y-15528984D02*
X9564825Y-15557555D01*
X9564825Y-15557555D02*
X9545777Y-15576603D01*
X9545777Y-15576603D02*
X9526730Y-15586127D01*
X9821968Y-15528984D02*
X9726730Y-15528984D01*
X9726730Y-15528984D02*
X9717206Y-15624222D01*
X9717206Y-15624222D02*
X9726730Y-15614698D01*
X9726730Y-15614698D02*
X9745777Y-15605174D01*
X9745777Y-15605174D02*
X9793396Y-15605174D01*
X9793396Y-15605174D02*
X9812444Y-15614698D01*
X9812444Y-15614698D02*
X9821968Y-15624222D01*
X9821968Y-15624222D02*
X9831491Y-15643269D01*
X9831491Y-15643269D02*
X9831491Y-15690888D01*
X9831491Y-15690888D02*
X9821968Y-15709936D01*
X9821968Y-15709936D02*
X9812444Y-15719460D01*
X9812444Y-15719460D02*
X9793396Y-15728984D01*
X9793396Y-15728984D02*
X9745777Y-15728984D01*
X9745777Y-15728984D02*
X9726730Y-15719460D01*
X9726730Y-15719460D02*
X9717206Y-15709936D01*
X9898158Y-15528984D02*
X10021968Y-15528984D01*
X10021968Y-15528984D02*
X9955301Y-15605174D01*
X9955301Y-15605174D02*
X9983872Y-15605174D01*
X9983872Y-15605174D02*
X10002920Y-15614698D01*
X10002920Y-15614698D02*
X10012444Y-15624222D01*
X10012444Y-15624222D02*
X10021968Y-15643269D01*
X10021968Y-15643269D02*
X10021968Y-15690888D01*
X10021968Y-15690888D02*
X10012444Y-15709936D01*
X10012444Y-15709936D02*
X10002920Y-15719460D01*
X10002920Y-15719460D02*
X9983872Y-15728984D01*
X9983872Y-15728984D02*
X9926730Y-15728984D01*
X9926730Y-15728984D02*
X9907682Y-15719460D01*
X9907682Y-15719460D02*
X9898158Y-15709936D01*
X10260063Y-15728984D02*
X10260063Y-15528984D01*
X10345777Y-15728984D02*
X10345777Y-15624222D01*
X10345777Y-15624222D02*
X10336253Y-15605174D01*
X10336253Y-15605174D02*
X10317206Y-15595650D01*
X10317206Y-15595650D02*
X10288634Y-15595650D01*
X10288634Y-15595650D02*
X10269587Y-15605174D01*
X10269587Y-15605174D02*
X10260063Y-15614698D01*
X10469587Y-15728984D02*
X10450539Y-15719460D01*
X10450539Y-15719460D02*
X10441015Y-15709936D01*
X10441015Y-15709936D02*
X10431492Y-15690888D01*
X10431492Y-15690888D02*
X10431492Y-15633746D01*
X10431492Y-15633746D02*
X10441015Y-15614698D01*
X10441015Y-15614698D02*
X10450539Y-15605174D01*
X10450539Y-15605174D02*
X10469587Y-15595650D01*
X10469587Y-15595650D02*
X10498158Y-15595650D01*
X10498158Y-15595650D02*
X10517206Y-15605174D01*
X10517206Y-15605174D02*
X10526730Y-15614698D01*
X10526730Y-15614698D02*
X10536253Y-15633746D01*
X10536253Y-15633746D02*
X10536253Y-15690888D01*
X10536253Y-15690888D02*
X10526730Y-15709936D01*
X10526730Y-15709936D02*
X10517206Y-15719460D01*
X10517206Y-15719460D02*
X10498158Y-15728984D01*
X10498158Y-15728984D02*
X10469587Y-15728984D01*
X10650539Y-15728984D02*
X10631492Y-15719460D01*
X10631492Y-15719460D02*
X10621968Y-15700412D01*
X10621968Y-15700412D02*
X10621968Y-15528984D01*
X10802920Y-15719460D02*
X10783873Y-15728984D01*
X10783873Y-15728984D02*
X10745777Y-15728984D01*
X10745777Y-15728984D02*
X10726730Y-15719460D01*
X10726730Y-15719460D02*
X10717206Y-15700412D01*
X10717206Y-15700412D02*
X10717206Y-15624222D01*
X10717206Y-15624222D02*
X10726730Y-15605174D01*
X10726730Y-15605174D02*
X10745777Y-15595650D01*
X10745777Y-15595650D02*
X10783873Y-15595650D01*
X10783873Y-15595650D02*
X10802920Y-15605174D01*
X10802920Y-15605174D02*
X10812444Y-15624222D01*
X10812444Y-15624222D02*
X10812444Y-15643269D01*
X10812444Y-15643269D02*
X10717206Y-15662317D01*
X10888634Y-15719460D02*
X10907682Y-15728984D01*
X10907682Y-15728984D02*
X10945777Y-15728984D01*
X10945777Y-15728984D02*
X10964825Y-15719460D01*
X10964825Y-15719460D02*
X10974349Y-15700412D01*
X10974349Y-15700412D02*
X10974349Y-15690888D01*
X10974349Y-15690888D02*
X10964825Y-15671841D01*
X10964825Y-15671841D02*
X10945777Y-15662317D01*
X10945777Y-15662317D02*
X10917206Y-15662317D01*
X10917206Y-15662317D02*
X10898158Y-15652793D01*
X10898158Y-15652793D02*
X10888634Y-15633746D01*
X10888634Y-15633746D02*
X10888634Y-15624222D01*
X10888634Y-15624222D02*
X10898158Y-15605174D01*
X10898158Y-15605174D02*
X10917206Y-15595650D01*
X10917206Y-15595650D02*
X10945777Y-15595650D01*
X10945777Y-15595650D02*
X10964825Y-15605174D01*
X11041015Y-15805174D02*
X11050539Y-15795650D01*
X11050539Y-15795650D02*
X11069587Y-15767079D01*
X11069587Y-15767079D02*
X11079111Y-15748031D01*
X11079111Y-15748031D02*
X11088634Y-15719460D01*
X11088634Y-15719460D02*
X11098158Y-15671841D01*
X11098158Y-15671841D02*
X11098158Y-15633746D01*
X11098158Y-15633746D02*
X11088634Y-15586127D01*
X11088634Y-15586127D02*
X11079111Y-15557555D01*
X11079111Y-15557555D02*
X11069587Y-15538508D01*
X11069587Y-15538508D02*
X11050539Y-15509936D01*
X11050539Y-15509936D02*
X11041015Y-15500412D01*
D13*
X5885000Y-15901500D02*
G75*
G02*
X5760000Y-15901500I-62500J0D01*
G01*
X5760000Y-15901500D02*
G75*
G02*
X5885000Y-15901500I62500J0D01*
G01*
D11*
X6250539Y-15992984D02*
X6136253Y-15992984D01*
X6193396Y-15992984D02*
X6193396Y-15792984D01*
X6193396Y-15792984D02*
X6174348Y-15821555D01*
X6174348Y-15821555D02*
X6155301Y-15840603D01*
X6155301Y-15840603D02*
X6136253Y-15850127D01*
X6336253Y-15973936D02*
X6345777Y-15983460D01*
X6345777Y-15983460D02*
X6336253Y-15992984D01*
X6336253Y-15992984D02*
X6326729Y-15983460D01*
X6326729Y-15983460D02*
X6336253Y-15973936D01*
X6336253Y-15973936D02*
X6336253Y-15992984D01*
X6421967Y-15812031D02*
X6431491Y-15802508D01*
X6431491Y-15802508D02*
X6450539Y-15792984D01*
X6450539Y-15792984D02*
X6498158Y-15792984D01*
X6498158Y-15792984D02*
X6517205Y-15802508D01*
X6517205Y-15802508D02*
X6526729Y-15812031D01*
X6526729Y-15812031D02*
X6536253Y-15831079D01*
X6536253Y-15831079D02*
X6536253Y-15850127D01*
X6536253Y-15850127D02*
X6526729Y-15878698D01*
X6526729Y-15878698D02*
X6412443Y-15992984D01*
X6412443Y-15992984D02*
X6536253Y-15992984D01*
X6717205Y-15792984D02*
X6621967Y-15792984D01*
X6621967Y-15792984D02*
X6612443Y-15888222D01*
X6612443Y-15888222D02*
X6621967Y-15878698D01*
X6621967Y-15878698D02*
X6641015Y-15869174D01*
X6641015Y-15869174D02*
X6688634Y-15869174D01*
X6688634Y-15869174D02*
X6707682Y-15878698D01*
X6707682Y-15878698D02*
X6717205Y-15888222D01*
X6717205Y-15888222D02*
X6726729Y-15907269D01*
X6726729Y-15907269D02*
X6726729Y-15954888D01*
X6726729Y-15954888D02*
X6717205Y-15973936D01*
X6717205Y-15973936D02*
X6707682Y-15983460D01*
X6707682Y-15983460D02*
X6688634Y-15992984D01*
X6688634Y-15992984D02*
X6641015Y-15992984D01*
X6641015Y-15992984D02*
X6621967Y-15983460D01*
X6621967Y-15983460D02*
X6612443Y-15973936D01*
X6850539Y-15792984D02*
X6869586Y-15792984D01*
X6869586Y-15792984D02*
X6888634Y-15802508D01*
X6888634Y-15802508D02*
X6898158Y-15812031D01*
X6898158Y-15812031D02*
X6907682Y-15831079D01*
X6907682Y-15831079D02*
X6917205Y-15869174D01*
X6917205Y-15869174D02*
X6917205Y-15916793D01*
X6917205Y-15916793D02*
X6907682Y-15954888D01*
X6907682Y-15954888D02*
X6898158Y-15973936D01*
X6898158Y-15973936D02*
X6888634Y-15983460D01*
X6888634Y-15983460D02*
X6869586Y-15992984D01*
X6869586Y-15992984D02*
X6850539Y-15992984D01*
X6850539Y-15992984D02*
X6831491Y-15983460D01*
X6831491Y-15983460D02*
X6821967Y-15973936D01*
X6821967Y-15973936D02*
X6812443Y-15954888D01*
X6812443Y-15954888D02*
X6802920Y-15916793D01*
X6802920Y-15916793D02*
X6802920Y-15869174D01*
X6802920Y-15869174D02*
X6812443Y-15831079D01*
X6812443Y-15831079D02*
X6821967Y-15812031D01*
X6821967Y-15812031D02*
X6831491Y-15802508D01*
X6831491Y-15802508D02*
X6850539Y-15792984D01*
X7002920Y-15992984D02*
X7002920Y-15859650D01*
X7002920Y-15878698D02*
X7012443Y-15869174D01*
X7012443Y-15869174D02*
X7031491Y-15859650D01*
X7031491Y-15859650D02*
X7060063Y-15859650D01*
X7060063Y-15859650D02*
X7079110Y-15869174D01*
X7079110Y-15869174D02*
X7088634Y-15888222D01*
X7088634Y-15888222D02*
X7088634Y-15992984D01*
X7088634Y-15888222D02*
X7098158Y-15869174D01*
X7098158Y-15869174D02*
X7117205Y-15859650D01*
X7117205Y-15859650D02*
X7145777Y-15859650D01*
X7145777Y-15859650D02*
X7164824Y-15869174D01*
X7164824Y-15869174D02*
X7174348Y-15888222D01*
X7174348Y-15888222D02*
X7174348Y-15992984D01*
X7269586Y-15992984D02*
X7269586Y-15859650D01*
X7269586Y-15878698D02*
X7279110Y-15869174D01*
X7279110Y-15869174D02*
X7298158Y-15859650D01*
X7298158Y-15859650D02*
X7326729Y-15859650D01*
X7326729Y-15859650D02*
X7345777Y-15869174D01*
X7345777Y-15869174D02*
X7355301Y-15888222D01*
X7355301Y-15888222D02*
X7355301Y-15992984D01*
X7355301Y-15888222D02*
X7364824Y-15869174D01*
X7364824Y-15869174D02*
X7383872Y-15859650D01*
X7383872Y-15859650D02*
X7412443Y-15859650D01*
X7412443Y-15859650D02*
X7431491Y-15869174D01*
X7431491Y-15869174D02*
X7441015Y-15888222D01*
X7441015Y-15888222D02*
X7441015Y-15992984D01*
X7831491Y-15783460D02*
X7660063Y-16040603D01*
X8088634Y-15792984D02*
X8107682Y-15792984D01*
X8107682Y-15792984D02*
X8126729Y-15802508D01*
X8126729Y-15802508D02*
X8136253Y-15812031D01*
X8136253Y-15812031D02*
X8145777Y-15831079D01*
X8145777Y-15831079D02*
X8155301Y-15869174D01*
X8155301Y-15869174D02*
X8155301Y-15916793D01*
X8155301Y-15916793D02*
X8145777Y-15954888D01*
X8145777Y-15954888D02*
X8136253Y-15973936D01*
X8136253Y-15973936D02*
X8126729Y-15983460D01*
X8126729Y-15983460D02*
X8107682Y-15992984D01*
X8107682Y-15992984D02*
X8088634Y-15992984D01*
X8088634Y-15992984D02*
X8069586Y-15983460D01*
X8069586Y-15983460D02*
X8060063Y-15973936D01*
X8060063Y-15973936D02*
X8050539Y-15954888D01*
X8050539Y-15954888D02*
X8041015Y-15916793D01*
X8041015Y-15916793D02*
X8041015Y-15869174D01*
X8041015Y-15869174D02*
X8050539Y-15831079D01*
X8050539Y-15831079D02*
X8060063Y-15812031D01*
X8060063Y-15812031D02*
X8069586Y-15802508D01*
X8069586Y-15802508D02*
X8088634Y-15792984D01*
X8241015Y-15973936D02*
X8250539Y-15983460D01*
X8250539Y-15983460D02*
X8241015Y-15992984D01*
X8241015Y-15992984D02*
X8231491Y-15983460D01*
X8231491Y-15983460D02*
X8241015Y-15973936D01*
X8241015Y-15973936D02*
X8241015Y-15992984D01*
X8374348Y-15792984D02*
X8393396Y-15792984D01*
X8393396Y-15792984D02*
X8412444Y-15802508D01*
X8412444Y-15802508D02*
X8421968Y-15812031D01*
X8421968Y-15812031D02*
X8431491Y-15831079D01*
X8431491Y-15831079D02*
X8441015Y-15869174D01*
X8441015Y-15869174D02*
X8441015Y-15916793D01*
X8441015Y-15916793D02*
X8431491Y-15954888D01*
X8431491Y-15954888D02*
X8421968Y-15973936D01*
X8421968Y-15973936D02*
X8412444Y-15983460D01*
X8412444Y-15983460D02*
X8393396Y-15992984D01*
X8393396Y-15992984D02*
X8374348Y-15992984D01*
X8374348Y-15992984D02*
X8355301Y-15983460D01*
X8355301Y-15983460D02*
X8345777Y-15973936D01*
X8345777Y-15973936D02*
X8336253Y-15954888D01*
X8336253Y-15954888D02*
X8326729Y-15916793D01*
X8326729Y-15916793D02*
X8326729Y-15869174D01*
X8326729Y-15869174D02*
X8336253Y-15831079D01*
X8336253Y-15831079D02*
X8345777Y-15812031D01*
X8345777Y-15812031D02*
X8355301Y-15802508D01*
X8355301Y-15802508D02*
X8374348Y-15792984D01*
X8612444Y-15859650D02*
X8612444Y-15992984D01*
X8564825Y-15783460D02*
X8517206Y-15926317D01*
X8517206Y-15926317D02*
X8641015Y-15926317D01*
X8726729Y-15992984D02*
X8764825Y-15992984D01*
X8764825Y-15992984D02*
X8783872Y-15983460D01*
X8783872Y-15983460D02*
X8793396Y-15973936D01*
X8793396Y-15973936D02*
X8812444Y-15945365D01*
X8812444Y-15945365D02*
X8821968Y-15907269D01*
X8821968Y-15907269D02*
X8821968Y-15831079D01*
X8821968Y-15831079D02*
X8812444Y-15812031D01*
X8812444Y-15812031D02*
X8802920Y-15802508D01*
X8802920Y-15802508D02*
X8783872Y-15792984D01*
X8783872Y-15792984D02*
X8745777Y-15792984D01*
X8745777Y-15792984D02*
X8726729Y-15802508D01*
X8726729Y-15802508D02*
X8717206Y-15812031D01*
X8717206Y-15812031D02*
X8707682Y-15831079D01*
X8707682Y-15831079D02*
X8707682Y-15878698D01*
X8707682Y-15878698D02*
X8717206Y-15897746D01*
X8717206Y-15897746D02*
X8726729Y-15907269D01*
X8726729Y-15907269D02*
X8745777Y-15916793D01*
X8745777Y-15916793D02*
X8783872Y-15916793D01*
X8783872Y-15916793D02*
X8802920Y-15907269D01*
X8802920Y-15907269D02*
X8812444Y-15897746D01*
X8812444Y-15897746D02*
X8821968Y-15878698D01*
X8898158Y-15812031D02*
X8907682Y-15802508D01*
X8907682Y-15802508D02*
X8926729Y-15792984D01*
X8926729Y-15792984D02*
X8974349Y-15792984D01*
X8974349Y-15792984D02*
X8993396Y-15802508D01*
X8993396Y-15802508D02*
X9002920Y-15812031D01*
X9002920Y-15812031D02*
X9012444Y-15831079D01*
X9012444Y-15831079D02*
X9012444Y-15850127D01*
X9012444Y-15850127D02*
X9002920Y-15878698D01*
X9002920Y-15878698D02*
X8888634Y-15992984D01*
X8888634Y-15992984D02*
X9012444Y-15992984D01*
X9088634Y-15792984D02*
X9088634Y-15831079D01*
X9164825Y-15792984D02*
X9164825Y-15831079D01*
X9460063Y-16069174D02*
X9450539Y-16059650D01*
X9450539Y-16059650D02*
X9431491Y-16031079D01*
X9431491Y-16031079D02*
X9421968Y-16012031D01*
X9421968Y-16012031D02*
X9412444Y-15983460D01*
X9412444Y-15983460D02*
X9402920Y-15935841D01*
X9402920Y-15935841D02*
X9402920Y-15897746D01*
X9402920Y-15897746D02*
X9412444Y-15850127D01*
X9412444Y-15850127D02*
X9421968Y-15821555D01*
X9421968Y-15821555D02*
X9431491Y-15802508D01*
X9431491Y-15802508D02*
X9450539Y-15773936D01*
X9450539Y-15773936D02*
X9460063Y-15764412D01*
X9621968Y-15859650D02*
X9621968Y-15992984D01*
X9574349Y-15783460D02*
X9526730Y-15926317D01*
X9526730Y-15926317D02*
X9650539Y-15926317D01*
X9879111Y-15992984D02*
X9879111Y-15792984D01*
X9964825Y-15992984D02*
X9964825Y-15888222D01*
X9964825Y-15888222D02*
X9955301Y-15869174D01*
X9955301Y-15869174D02*
X9936253Y-15859650D01*
X9936253Y-15859650D02*
X9907682Y-15859650D01*
X9907682Y-15859650D02*
X9888634Y-15869174D01*
X9888634Y-15869174D02*
X9879111Y-15878698D01*
X10088634Y-15992984D02*
X10069587Y-15983460D01*
X10069587Y-15983460D02*
X10060063Y-15973936D01*
X10060063Y-15973936D02*
X10050539Y-15954888D01*
X10050539Y-15954888D02*
X10050539Y-15897746D01*
X10050539Y-15897746D02*
X10060063Y-15878698D01*
X10060063Y-15878698D02*
X10069587Y-15869174D01*
X10069587Y-15869174D02*
X10088634Y-15859650D01*
X10088634Y-15859650D02*
X10117206Y-15859650D01*
X10117206Y-15859650D02*
X10136253Y-15869174D01*
X10136253Y-15869174D02*
X10145777Y-15878698D01*
X10145777Y-15878698D02*
X10155301Y-15897746D01*
X10155301Y-15897746D02*
X10155301Y-15954888D01*
X10155301Y-15954888D02*
X10145777Y-15973936D01*
X10145777Y-15973936D02*
X10136253Y-15983460D01*
X10136253Y-15983460D02*
X10117206Y-15992984D01*
X10117206Y-15992984D02*
X10088634Y-15992984D01*
X10269587Y-15992984D02*
X10250539Y-15983460D01*
X10250539Y-15983460D02*
X10241015Y-15964412D01*
X10241015Y-15964412D02*
X10241015Y-15792984D01*
X10421968Y-15983460D02*
X10402920Y-15992984D01*
X10402920Y-15992984D02*
X10364825Y-15992984D01*
X10364825Y-15992984D02*
X10345777Y-15983460D01*
X10345777Y-15983460D02*
X10336253Y-15964412D01*
X10336253Y-15964412D02*
X10336253Y-15888222D01*
X10336253Y-15888222D02*
X10345777Y-15869174D01*
X10345777Y-15869174D02*
X10364825Y-15859650D01*
X10364825Y-15859650D02*
X10402920Y-15859650D01*
X10402920Y-15859650D02*
X10421968Y-15869174D01*
X10421968Y-15869174D02*
X10431492Y-15888222D01*
X10431492Y-15888222D02*
X10431492Y-15907269D01*
X10431492Y-15907269D02*
X10336253Y-15926317D01*
X10507682Y-15983460D02*
X10526730Y-15992984D01*
X10526730Y-15992984D02*
X10564825Y-15992984D01*
X10564825Y-15992984D02*
X10583873Y-15983460D01*
X10583873Y-15983460D02*
X10593396Y-15964412D01*
X10593396Y-15964412D02*
X10593396Y-15954888D01*
X10593396Y-15954888D02*
X10583873Y-15935841D01*
X10583873Y-15935841D02*
X10564825Y-15926317D01*
X10564825Y-15926317D02*
X10536253Y-15926317D01*
X10536253Y-15926317D02*
X10517206Y-15916793D01*
X10517206Y-15916793D02*
X10507682Y-15897746D01*
X10507682Y-15897746D02*
X10507682Y-15888222D01*
X10507682Y-15888222D02*
X10517206Y-15869174D01*
X10517206Y-15869174D02*
X10536253Y-15859650D01*
X10536253Y-15859650D02*
X10564825Y-15859650D01*
X10564825Y-15859650D02*
X10583873Y-15869174D01*
X10660063Y-16069174D02*
X10669587Y-16059650D01*
X10669587Y-16059650D02*
X10688634Y-16031079D01*
X10688634Y-16031079D02*
X10698158Y-16012031D01*
X10698158Y-16012031D02*
X10707682Y-15983460D01*
X10707682Y-15983460D02*
X10717206Y-15935841D01*
X10717206Y-15935841D02*
X10717206Y-15897746D01*
X10717206Y-15897746D02*
X10707682Y-15850127D01*
X10707682Y-15850127D02*
X10698158Y-15821555D01*
X10698158Y-15821555D02*
X10688634Y-15802508D01*
X10688634Y-15802508D02*
X10669587Y-15773936D01*
X10669587Y-15773936D02*
X10660063Y-15764412D01*
M02*
