%TF.GenerationSoftware,KiCad,Pcbnew,9.0.2-9.0.2-0~ubuntu25.04.1*%
%TF.CreationDate,2025-05-27T06:32:49+10:00*%
%TF.ProjectId,front_board,66726f6e-745f-4626-9f61-72642e6b6963,rev?*%
%TF.SameCoordinates,Original*%
%TF.FileFunction,Legend,Top*%
%TF.FilePolarity,Positive*%
%FSLAX46Y46*%
G04 Gerber Fmt 4.6, Leading zero omitted, Abs format (unit mm)*
G04 Created by KiCad (PCBNEW 9.0.2-9.0.2-0~ubuntu25.04.1) date 2025-05-27 06:32:49*
%MOMM*%
%LPD*%
G01*
G04 APERTURE LIST*
%ADD10C,0.100000*%
%ADD11C,0.120000*%
%ADD12C,0.152400*%
G04 APERTURE END LIST*
D10*
X62250000Y-134450000D02*
X74250000Y-134450000D01*
X74250000Y-141450000D01*
X62250000Y-141450000D01*
X62250000Y-134450000D01*
X75500000Y-107850000D02*
X85000000Y-107850000D01*
X85000000Y-117350000D01*
X75500000Y-117350000D01*
X75500000Y-107850000D01*
X62250000Y-127450000D02*
X74250000Y-127450000D01*
X74250000Y-134450000D01*
X62250000Y-134450000D01*
X62250000Y-127450000D01*
X74250000Y-141450000D02*
X86250000Y-141450000D01*
X86250000Y-148450000D01*
X74250000Y-148450000D01*
X74250000Y-141450000D01*
X60300000Y-105600000D02*
X72300000Y-105600000D01*
X72300000Y-112600000D01*
X60300000Y-112600000D01*
X60300000Y-105600000D01*
X85000000Y-107825000D02*
X87800000Y-107825000D01*
X87800000Y-117375000D01*
X85000000Y-117375000D01*
X85000000Y-107825000D01*
X86250000Y-134450000D02*
X98250000Y-134450000D01*
X98250000Y-141450000D01*
X86250000Y-141450000D01*
X86250000Y-134450000D01*
X75475000Y-117350000D02*
X85025000Y-117350000D01*
X85025000Y-120150000D01*
X75475000Y-120150000D01*
X75475000Y-117350000D01*
X62250000Y-141450000D02*
X74250000Y-141450000D01*
X74250000Y-148450000D01*
X62250000Y-148450000D01*
X62250000Y-141450000D01*
X86250000Y-120450000D02*
X98250000Y-120450000D01*
X98250000Y-127450000D01*
X86250000Y-127450000D01*
X86250000Y-120450000D01*
X88200000Y-112600000D02*
X100200000Y-112600000D01*
X100200000Y-119600000D01*
X88200000Y-119600000D01*
X88200000Y-112600000D01*
X60300000Y-112600000D02*
X72300000Y-112600000D01*
X72300000Y-119600000D01*
X60300000Y-119600000D01*
X60300000Y-112600000D01*
X74250000Y-120450000D02*
X86250000Y-120450000D01*
X86250000Y-127450000D01*
X74250000Y-127450000D01*
X74250000Y-120450000D01*
X88200000Y-105600000D02*
X100200000Y-105600000D01*
X100200000Y-112600000D01*
X88200000Y-112600000D01*
X88200000Y-105600000D01*
X74250000Y-134450000D02*
X86250000Y-134450000D01*
X86250000Y-141450000D01*
X74250000Y-141450000D01*
X74250000Y-134450000D01*
X62250000Y-120450000D02*
X74250000Y-120450000D01*
X74250000Y-127450000D01*
X62250000Y-127450000D01*
X62250000Y-120450000D01*
X75475000Y-105050000D02*
X85025000Y-105050000D01*
X85025000Y-107850000D01*
X75475000Y-107850000D01*
X75475000Y-105050000D01*
X74250000Y-127450000D02*
X86250000Y-127450000D01*
X86250000Y-134450000D01*
X74250000Y-134450000D01*
X74250000Y-127450000D01*
X86250000Y-141450000D02*
X98250000Y-141450000D01*
X98250000Y-148450000D01*
X86250000Y-148450000D01*
X86250000Y-141450000D01*
X72650000Y-107825000D02*
X75500000Y-107825000D01*
X75500000Y-117375000D01*
X72650000Y-117375000D01*
X72650000Y-107825000D01*
X86250000Y-127450000D02*
X98250000Y-127450000D01*
X98250000Y-134450000D01*
X86250000Y-134450000D01*
X86250000Y-127450000D01*
%TO.C,LED9*%
X80787500Y-130130000D02*
G75*
G02*
X80687500Y-130130000I-50000J0D01*
G01*
X80687500Y-130130000D02*
G75*
G02*
X80787500Y-130130000I50000J0D01*
G01*
%TO.C,SW40*%
X65025000Y-117275000D02*
X67625000Y-117275000D01*
X65025000Y-118875000D02*
X67625000Y-118875000D01*
%TO.C,SW24*%
X90925000Y-125125000D02*
X93525000Y-125125000D01*
X90925000Y-126725000D02*
X93525000Y-126725000D01*
%TO.C,SW18*%
X90925000Y-132125000D02*
X93525000Y-132125000D01*
X90925000Y-133725000D02*
X93525000Y-133725000D01*
%TO.C,LED8*%
X80787500Y-123130000D02*
G75*
G02*
X80687500Y-123130000I-50000J0D01*
G01*
X80687500Y-123130000D02*
G75*
G02*
X80787500Y-123130000I50000J0D01*
G01*
%TO.C,SW6*%
X90925000Y-146125000D02*
X93525000Y-146125000D01*
X90925000Y-147725000D02*
X93525000Y-147725000D01*
%TO.C,SW4*%
X78975000Y-146125000D02*
X81575000Y-146125000D01*
X78975000Y-147725000D02*
X81575000Y-147725000D01*
%TO.C,SW41*%
X92925000Y-113275000D02*
X95525000Y-113275000D01*
X92925000Y-114875000D02*
X95525000Y-114875000D01*
%TO.C,SW39*%
X65025000Y-113275000D02*
X67625000Y-113275000D01*
X65025000Y-114875000D02*
X67625000Y-114875000D01*
%TO.C,SW15*%
X78975000Y-128125000D02*
X81575000Y-128125000D01*
X78975000Y-129725000D02*
X81575000Y-129725000D01*
D11*
%TO.C,R23*%
X61912258Y-104027500D02*
X61437742Y-104027500D01*
X61912258Y-105072500D02*
X61437742Y-105072500D01*
D10*
%TO.C,SW35*%
X65025000Y-106275000D02*
X67625000Y-106275000D01*
X65025000Y-107875000D02*
X67625000Y-107875000D01*
%TO.C,SW22*%
X78975000Y-125125000D02*
X81575000Y-125125000D01*
X78975000Y-126725000D02*
X81575000Y-126725000D01*
%TO.C,LED11*%
X80787500Y-144112500D02*
G75*
G02*
X80687500Y-144112500I-50000J0D01*
G01*
X80687500Y-144112500D02*
G75*
G02*
X80787500Y-144112500I50000J0D01*
G01*
%TO.C,SW19*%
X66975000Y-121125000D02*
X69575000Y-121125000D01*
X66975000Y-122725000D02*
X69575000Y-122725000D01*
%TO.C,SW1*%
X66975000Y-142125000D02*
X69575000Y-142125000D01*
X66975000Y-143725000D02*
X69575000Y-143725000D01*
%TO.C,LED14*%
X92737500Y-123130000D02*
G75*
G02*
X92637500Y-123130000I-50000J0D01*
G01*
X92637500Y-123130000D02*
G75*
G02*
X92737500Y-123130000I50000J0D01*
G01*
%TO.C,LED17*%
X92737500Y-144130000D02*
G75*
G02*
X92637500Y-144130000I-50000J0D01*
G01*
X92637500Y-144130000D02*
G75*
G02*
X92737500Y-144130000I50000J0D01*
G01*
%TO.C,SW8*%
X66975000Y-139125000D02*
X69575000Y-139125000D01*
X66975000Y-140725000D02*
X69575000Y-140725000D01*
%TO.C,LED16*%
X92737500Y-137130000D02*
G75*
G02*
X92637500Y-137130000I-50000J0D01*
G01*
X92637500Y-137130000D02*
G75*
G02*
X92737500Y-137130000I50000J0D01*
G01*
%TO.C,SW31*%
X78975000Y-117925000D02*
X81575000Y-117925000D01*
X78975000Y-119525000D02*
X81575000Y-119525000D01*
%TO.C,LED2*%
X66837500Y-115280000D02*
G75*
G02*
X66737500Y-115280000I-50000J0D01*
G01*
X66737500Y-115280000D02*
G75*
G02*
X66837500Y-115280000I50000J0D01*
G01*
%TO.C,LED1*%
X66837500Y-108280000D02*
G75*
G02*
X66737500Y-108280000I-50000J0D01*
G01*
X66737500Y-108280000D02*
G75*
G02*
X66837500Y-108280000I50000J0D01*
G01*
%TO.C,LED13*%
X94737500Y-115280000D02*
G75*
G02*
X94637500Y-115280000I-50000J0D01*
G01*
X94637500Y-115280000D02*
G75*
G02*
X94737500Y-115280000I50000J0D01*
G01*
%TO.C,SW9*%
X78975000Y-135125000D02*
X81575000Y-135125000D01*
X78975000Y-136725000D02*
X81575000Y-136725000D01*
%TO.C,SW5*%
X90925000Y-142125000D02*
X93525000Y-142125000D01*
X90925000Y-143725000D02*
X93525000Y-143725000D01*
%TO.C,SW36*%
X65025000Y-110275000D02*
X67625000Y-110275000D01*
X65025000Y-111875000D02*
X67625000Y-111875000D01*
%TO.C,SW16*%
X78975000Y-132125000D02*
X81575000Y-132125000D01*
X78975000Y-133725000D02*
X81575000Y-133725000D01*
%TO.C,SW23*%
X90925000Y-121125000D02*
X93525000Y-121125000D01*
X90925000Y-122725000D02*
X93525000Y-122725000D01*
%TO.C,SW42*%
X92925000Y-117275000D02*
X95525000Y-117275000D01*
X92925000Y-118875000D02*
X95525000Y-118875000D01*
%TO.C,SW37*%
X92925000Y-106275000D02*
X95525000Y-106275000D01*
X92925000Y-107875000D02*
X95525000Y-107875000D01*
%TO.C,LED15*%
X92737500Y-130130000D02*
G75*
G02*
X92637500Y-130130000I-50000J0D01*
G01*
X92637500Y-130130000D02*
G75*
G02*
X92737500Y-130130000I50000J0D01*
G01*
%TO.C,SW34*%
X78975000Y-113775000D02*
X81575000Y-113775000D01*
X78975000Y-115375000D02*
X81575000Y-115375000D01*
%TO.C,LED12*%
X94737500Y-108280000D02*
G75*
G02*
X94637500Y-108280000I-50000J0D01*
G01*
X94637500Y-108280000D02*
G75*
G02*
X94737500Y-108280000I50000J0D01*
G01*
D12*
%TO.C,J9*%
X66254600Y-77856000D02*
X66254600Y-80142000D01*
X66254600Y-82377200D02*
X66254600Y-83444000D01*
X66254600Y-83444000D02*
X94245400Y-83444000D01*
X68286600Y-75011200D02*
X69302600Y-76205000D01*
X68286600Y-75011200D02*
X70318600Y-75011200D01*
X68794600Y-77856000D02*
X66254600Y-77856000D01*
X70318600Y-75011200D02*
X69302600Y-76205000D01*
X94245400Y-77854400D02*
X94245400Y-80140400D01*
X94245400Y-77856000D02*
X91705400Y-77856000D01*
X94245400Y-82377200D02*
X94245400Y-83444000D01*
D10*
%TO.C,SW12*%
X90925000Y-139125000D02*
X93525000Y-139125000D01*
X90925000Y-140725000D02*
X93525000Y-140725000D01*
%TO.C,SW14*%
X66975000Y-132125000D02*
X69575000Y-132125000D01*
X66975000Y-133725000D02*
X69575000Y-133725000D01*
%TO.C,SW17*%
X90925000Y-128125000D02*
X93525000Y-128125000D01*
X90925000Y-129725000D02*
X93525000Y-129725000D01*
%TO.C,LED4*%
X68787500Y-130130000D02*
G75*
G02*
X68687500Y-130130000I-50000J0D01*
G01*
X68687500Y-130130000D02*
G75*
G02*
X68787500Y-130130000I50000J0D01*
G01*
%TO.C,SW20*%
X66975000Y-125125000D02*
X69575000Y-125125000D01*
X66975000Y-126725000D02*
X69575000Y-126725000D01*
%TO.C,SW38*%
X92925000Y-110275000D02*
X95525000Y-110275000D01*
X92925000Y-111875000D02*
X95525000Y-111875000D01*
%TO.C,SW29*%
X85775000Y-111325000D02*
X85775000Y-113925000D01*
X87375000Y-111325000D02*
X87375000Y-113925000D01*
%TO.C,LED7*%
X80787500Y-111912500D02*
G75*
G02*
X80687500Y-111912500I-50000J0D01*
G01*
X80687500Y-111912500D02*
G75*
G02*
X80787500Y-111912500I50000J0D01*
G01*
%TO.C,SW21*%
X78975000Y-121125000D02*
X81575000Y-121125000D01*
X78975000Y-122725000D02*
X81575000Y-122725000D01*
%TO.C,LED6*%
X68787500Y-144112500D02*
G75*
G02*
X68687500Y-144112500I-50000J0D01*
G01*
X68687500Y-144112500D02*
G75*
G02*
X68787500Y-144112500I50000J0D01*
G01*
%TO.C,SW10*%
X78975000Y-139125000D02*
X81575000Y-139125000D01*
X78975000Y-140725000D02*
X81575000Y-140725000D01*
%TO.C,SW13*%
X66975000Y-128125000D02*
X69575000Y-128125000D01*
X66975000Y-129725000D02*
X69575000Y-129725000D01*
%TO.C,SW3*%
X78975000Y-142125000D02*
X81575000Y-142125000D01*
X78975000Y-143725000D02*
X81575000Y-143725000D01*
%TO.C,LED5*%
X68787500Y-137130000D02*
G75*
G02*
X68687500Y-137130000I-50000J0D01*
G01*
X68687500Y-137130000D02*
G75*
G02*
X68787500Y-137130000I50000J0D01*
G01*
%TO.C,SW27*%
X78975000Y-105575000D02*
X81575000Y-105575000D01*
X78975000Y-107175000D02*
X81575000Y-107175000D01*
%TO.C,SW2*%
X66975000Y-146125000D02*
X69575000Y-146125000D01*
X66975000Y-147725000D02*
X69575000Y-147725000D01*
%TO.C,SW7*%
X66975000Y-135125000D02*
X69575000Y-135125000D01*
X66975000Y-136725000D02*
X69575000Y-136725000D01*
%TO.C,SW11*%
X90925000Y-135125000D02*
X93525000Y-135125000D01*
X90925000Y-136725000D02*
X93525000Y-136725000D01*
%TO.C,SW25*%
X73225000Y-113875000D02*
X73225000Y-111275000D01*
X74825000Y-113875000D02*
X74825000Y-111275000D01*
%TO.C,LED10*%
X80787500Y-137130000D02*
G75*
G02*
X80687500Y-137130000I-50000J0D01*
G01*
X80687500Y-137130000D02*
G75*
G02*
X80787500Y-137130000I50000J0D01*
G01*
%TO.C,SW33*%
X78975000Y-109775000D02*
X81575000Y-109775000D01*
X78975000Y-111375000D02*
X81575000Y-111375000D01*
%TO.C,LED3*%
X68787500Y-123130000D02*
G75*
G02*
X68687500Y-123130000I-50000J0D01*
G01*
X68687500Y-123130000D02*
G75*
G02*
X68787500Y-123130000I50000J0D01*
G01*
%TD*%
M02*
