%TF.GenerationSoftware,KiCad,Pcbnew,9.0.2-9.0.2-0~ubuntu25.04.1*%
%TF.CreationDate,2025-05-27T06:35:41+10:00*%
%TF.ProjectId,uq_phone,75715f70-686f-46e6-952e-6b696361645f,rev?*%
%TF.SameCoordinates,Original*%
%TF.FileFunction,Legend,Top*%
%TF.FilePolarity,Positive*%
%FSLAX46Y46*%
G04 Gerber Fmt 4.6, Leading zero omitted, Abs format (unit mm)*
G04 Created by KiCad (PCBNEW 9.0.2-9.0.2-0~ubuntu25.04.1) date 2025-05-27 06:35:41*
%MOMM*%
%LPD*%
G01*
G04 APERTURE LIST*
%ADD10C,0.150000*%
%ADD11C,0.120000*%
%ADD12C,0.127000*%
%ADD13C,0.200000*%
%ADD14C,0.100000*%
%ADD15C,0.152400*%
%ADD16C,0.280000*%
%ADD17C,0.000000*%
G04 APERTURE END LIST*
D10*
X50382799Y-105645180D02*
X50382799Y-105407085D01*
X50620894Y-105502323D02*
X50382799Y-105407085D01*
X50382799Y-105407085D02*
X50144704Y-105502323D01*
X50525656Y-105216609D02*
X50382799Y-105407085D01*
X50382799Y-105407085D02*
X50239942Y-105216609D01*
X50382800Y-104554819D02*
X50382800Y-104792914D01*
X50144705Y-104697676D02*
X50382800Y-104792914D01*
X50382800Y-104792914D02*
X50620895Y-104697676D01*
X50239943Y-104983390D02*
X50382800Y-104792914D01*
X50382800Y-104792914D02*
X50525657Y-104983390D01*
D11*
%TO.C,C42*%
X68607836Y-96640000D02*
X68392164Y-96640000D01*
X68607836Y-97360000D02*
X68392164Y-97360000D01*
D12*
%TO.C,U10*%
X66175000Y-103070000D02*
X64825000Y-103070000D01*
X66175000Y-105130000D02*
X64825000Y-105130000D01*
D13*
X67175000Y-104700000D02*
G75*
G02*
X66975000Y-104700000I-100000J0D01*
G01*
X66975000Y-104700000D02*
G75*
G02*
X67175000Y-104700000I100000J0D01*
G01*
D11*
%TO.C,C2*%
X42392164Y-165390000D02*
X42607836Y-165390000D01*
X42392164Y-166110000D02*
X42607836Y-166110000D01*
%TO.C,R12*%
X55520000Y-103896359D02*
X55520000Y-104203641D01*
X56280000Y-103896359D02*
X56280000Y-104203641D01*
%TO.C,C33*%
X65940000Y-102107836D02*
X65940000Y-101892164D01*
X66660000Y-102107836D02*
X66660000Y-101892164D01*
%TO.C,C44*%
X63040000Y-88067164D02*
X63040000Y-88282836D01*
X63760000Y-88067164D02*
X63760000Y-88282836D01*
%TO.C,R27*%
X39620000Y-153153641D02*
X39620000Y-152846359D01*
X40380000Y-153153641D02*
X40380000Y-152846359D01*
%TO.C,R37*%
X54227500Y-168587742D02*
X54227500Y-169062258D01*
X55272500Y-168587742D02*
X55272500Y-169062258D01*
%TO.C,D2*%
X46400000Y-145140000D02*
X46400000Y-147800000D01*
X48100000Y-145140000D02*
X46400000Y-145140000D01*
X48100000Y-145140000D02*
X48100000Y-147800000D01*
%TO.C,R28*%
X53162742Y-152892500D02*
X53637258Y-152892500D01*
X53162742Y-153937500D02*
X53637258Y-153937500D01*
%TO.C,R9*%
X42020000Y-153153641D02*
X42020000Y-152846359D01*
X42780000Y-153153641D02*
X42780000Y-152846359D01*
%TO.C,R42*%
X61677500Y-77537258D02*
X61677500Y-77062742D01*
X62722500Y-77537258D02*
X62722500Y-77062742D01*
%TO.C,C11*%
X30545336Y-88657500D02*
X30329664Y-88657500D01*
X30545336Y-89377500D02*
X30329664Y-89377500D01*
D14*
%TO.C,M1*%
X59200000Y-151800000D02*
X59200000Y-154200000D01*
X59200000Y-154200000D02*
X60900000Y-154200000D01*
X61000000Y-151800000D02*
X59200000Y-151800000D01*
D13*
X68800000Y-153000000D02*
G75*
G02*
X60800000Y-153000000I-4000000J0D01*
G01*
X60800000Y-153000000D02*
G75*
G02*
X68800000Y-153000000I4000000J0D01*
G01*
D11*
%TO.C,C18*%
X67840000Y-134792164D02*
X67840000Y-135007836D01*
X68560000Y-134792164D02*
X68560000Y-135007836D01*
D12*
%TO.C,J8*%
X51220000Y-107370000D02*
X51220000Y-117630000D01*
X63370000Y-118450000D02*
X66600000Y-118450000D01*
X66600000Y-106550000D02*
X64870000Y-106550000D01*
X69120000Y-117830000D02*
X69120000Y-107170000D01*
D11*
%TO.C,R18*%
X53545000Y-103678641D02*
X53545000Y-103371359D01*
X54305000Y-103678641D02*
X54305000Y-103371359D01*
%TO.C,C25*%
X64417164Y-145715000D02*
X64632836Y-145715000D01*
X64417164Y-146435000D02*
X64632836Y-146435000D01*
%TO.C,R7*%
X35420000Y-169253641D02*
X35420000Y-168946359D01*
X36180000Y-169253641D02*
X36180000Y-168946359D01*
D12*
%TO.C,J3*%
X40625000Y-68987500D02*
X40625000Y-69237500D01*
X40625000Y-69237500D02*
X40225000Y-69237500D01*
X41225000Y-68987500D02*
X40625000Y-68987500D01*
X41225000Y-69237500D02*
X41225000Y-68987500D01*
X41625000Y-69237500D02*
X41225000Y-69237500D01*
D13*
X41005000Y-73147500D02*
G75*
G02*
X40805000Y-73147500I-100000J0D01*
G01*
X40805000Y-73147500D02*
G75*
G02*
X41005000Y-73147500I100000J0D01*
G01*
D11*
%TO.C,C10*%
X30545336Y-89657500D02*
X30329664Y-89657500D01*
X30545336Y-90377500D02*
X30329664Y-90377500D01*
%TO.C,R45*%
X61853641Y-119520000D02*
X61546359Y-119520000D01*
X61853641Y-120280000D02*
X61546359Y-120280000D01*
%TO.C,R4*%
X38646359Y-170170000D02*
X38953641Y-170170000D01*
X38646359Y-170930000D02*
X38953641Y-170930000D01*
%TO.C,C24*%
X67840000Y-137562836D02*
X67840000Y-137347164D01*
X68560000Y-137562836D02*
X68560000Y-137347164D01*
%TO.C,R6*%
X51820000Y-162346359D02*
X51820000Y-162653641D01*
X52580000Y-162346359D02*
X52580000Y-162653641D01*
%TO.C,C12*%
X29961252Y-86765000D02*
X29438748Y-86765000D01*
X29961252Y-88235000D02*
X29438748Y-88235000D01*
%TO.C,C15*%
X61890000Y-121754664D02*
X61890000Y-121970336D01*
X62610000Y-121754664D02*
X62610000Y-121970336D01*
%TO.C,C48*%
X63992164Y-97740000D02*
X64207836Y-97740000D01*
X63992164Y-98460000D02*
X64207836Y-98460000D01*
%TO.C,R47*%
X63162742Y-85977500D02*
X63637258Y-85977500D01*
X63162742Y-87022500D02*
X63637258Y-87022500D01*
%TO.C,R29*%
X50477500Y-152377742D02*
X50477500Y-152852258D01*
X51522500Y-152377742D02*
X51522500Y-152852258D01*
%TO.C,R8*%
X34457936Y-165790000D02*
X34912064Y-165790000D01*
X34457936Y-167260000D02*
X34912064Y-167260000D01*
%TO.C,C38*%
X53890000Y-159642164D02*
X53890000Y-159857836D01*
X54610000Y-159642164D02*
X54610000Y-159857836D01*
D12*
%TO.C,U13*%
X63900000Y-75835000D02*
X64170000Y-75835000D01*
X63900000Y-77895000D02*
X64170000Y-77895000D01*
X66500000Y-75835000D02*
X66230000Y-75835000D01*
X66500000Y-77895000D02*
X66230000Y-77895000D01*
D13*
X65900000Y-75010000D02*
G75*
G02*
X65700000Y-75010000I-100000J0D01*
G01*
X65700000Y-75010000D02*
G75*
G02*
X65900000Y-75010000I100000J0D01*
G01*
D11*
%TO.C,C1*%
X43425000Y-161415580D02*
X43425000Y-161134420D01*
X44445000Y-161415580D02*
X44445000Y-161134420D01*
%TO.C,C17*%
X61590000Y-124432836D02*
X61590000Y-124217164D01*
X62310000Y-124432836D02*
X62310000Y-124217164D01*
%TO.C,R34*%
X58356250Y-147237258D02*
X58356250Y-146762742D01*
X59401250Y-147237258D02*
X59401250Y-146762742D01*
%TO.C,C28*%
X47292164Y-101640000D02*
X47507836Y-101640000D01*
X47292164Y-102360000D02*
X47507836Y-102360000D01*
%TO.C,C47*%
X62307836Y-98740000D02*
X62092164Y-98740000D01*
X62307836Y-99460000D02*
X62092164Y-99460000D01*
%TO.C,C30*%
X60807836Y-104440000D02*
X60592164Y-104440000D01*
X60807836Y-105160000D02*
X60592164Y-105160000D01*
%TO.C,C21*%
X49207836Y-140615000D02*
X48992164Y-140615000D01*
X49207836Y-141335000D02*
X48992164Y-141335000D01*
%TO.C,R38*%
X54195000Y-165278641D02*
X54195000Y-164971359D01*
X54955000Y-165278641D02*
X54955000Y-164971359D01*
D12*
%TO.C,U2*%
X43500000Y-156290000D02*
X45500000Y-156290000D01*
X43500000Y-158710000D02*
X45500000Y-158710000D01*
D13*
X42675000Y-156750000D02*
G75*
G02*
X42475000Y-156750000I-100000J0D01*
G01*
X42475000Y-156750000D02*
G75*
G02*
X42675000Y-156750000I100000J0D01*
G01*
D11*
%TO.C,R31*%
X63053641Y-104420000D02*
X62746359Y-104420000D01*
X63053641Y-105180000D02*
X62746359Y-105180000D01*
%TO.C,R19*%
X42977500Y-104037742D02*
X42977500Y-104512258D01*
X44022500Y-104037742D02*
X44022500Y-104512258D01*
D15*
%TO.C,U12*%
X54971300Y-146636739D02*
X54971300Y-147363261D01*
X54971300Y-148676400D02*
X57028700Y-148676400D01*
X57028700Y-145323600D02*
X54971300Y-145323600D01*
D12*
%TO.C,L1*%
X47150000Y-156440000D02*
X47150000Y-156060000D01*
X49350000Y-156440000D02*
X49350000Y-156060000D01*
D11*
%TO.C,C14*%
X54690000Y-121667164D02*
X54690000Y-121882836D01*
X55410000Y-121667164D02*
X55410000Y-121882836D01*
%TO.C,R26*%
X40620000Y-153153641D02*
X40620000Y-152846359D01*
X41380000Y-153153641D02*
X41380000Y-152846359D01*
%TO.C,C5*%
X42400000Y-168667164D02*
X42400000Y-168882836D01*
X43120000Y-168667164D02*
X43120000Y-168882836D01*
%TO.C,R43*%
X65437258Y-78877500D02*
X64962742Y-78877500D01*
X65437258Y-79922500D02*
X64962742Y-79922500D01*
D13*
%TO.C,L2*%
X50350000Y-145400000D02*
X50150000Y-145400000D01*
X50350000Y-148600000D02*
X50150000Y-148600000D01*
D11*
%TO.C,C34*%
X52490000Y-147140580D02*
X52490000Y-146859420D01*
X53510000Y-147140580D02*
X53510000Y-146859420D01*
%TO.C,C3*%
X41932836Y-158115000D02*
X41717164Y-158115000D01*
X41932836Y-158835000D02*
X41717164Y-158835000D01*
D13*
%TO.C,J10*%
X55650000Y-169900000D02*
G75*
G02*
X55450000Y-169900000I-100000J0D01*
G01*
X55450000Y-169900000D02*
G75*
G02*
X55650000Y-169900000I100000J0D01*
G01*
D11*
%TO.C,C7*%
X44875580Y-154490000D02*
X44594420Y-154490000D01*
X44875580Y-155510000D02*
X44594420Y-155510000D01*
D12*
%TO.C,D1*%
X48020000Y-159972500D02*
X48120000Y-159972500D01*
X48020000Y-161372500D02*
X48020000Y-159972500D01*
X48020000Y-161372500D02*
X48120000Y-161372500D01*
X51060000Y-159972500D02*
X50960000Y-159972500D01*
X51060000Y-161372500D02*
X50960000Y-161372500D01*
X51060000Y-161372500D02*
X51060000Y-159972500D01*
D13*
X50467000Y-158572500D02*
G75*
G02*
X50267000Y-158572500I-100000J0D01*
G01*
X50267000Y-158572500D02*
G75*
G02*
X50467000Y-158572500I100000J0D01*
G01*
D11*
%TO.C,R24*%
X61670000Y-145996359D02*
X61670000Y-146303641D01*
X62430000Y-145996359D02*
X62430000Y-146303641D01*
%TO.C,R21*%
X44477500Y-104037742D02*
X44477500Y-104512258D01*
X45522500Y-104037742D02*
X45522500Y-104512258D01*
%TO.C,C9*%
X30545336Y-90657500D02*
X30329664Y-90657500D01*
X30545336Y-91377500D02*
X30329664Y-91377500D01*
D13*
%TO.C,U9*%
X51655000Y-149895000D02*
G75*
G02*
X51455000Y-149895000I-100000J0D01*
G01*
X51455000Y-149895000D02*
G75*
G02*
X51655000Y-149895000I100000J0D01*
G01*
D11*
%TO.C,R35*%
X68146359Y-75885000D02*
X68453641Y-75885000D01*
X68146359Y-76645000D02*
X68453641Y-76645000D01*
%TO.C,C26*%
X49240000Y-142292164D02*
X49240000Y-142507836D01*
X49960000Y-142292164D02*
X49960000Y-142507836D01*
%TO.C,R11*%
X45831359Y-159120000D02*
X46138641Y-159120000D01*
X45831359Y-159880000D02*
X46138641Y-159880000D01*
%TO.C,U7*%
X51690000Y-128790000D02*
X51690000Y-129490000D01*
X51690000Y-143010000D02*
X51690000Y-142310000D01*
X52390000Y-128790000D02*
X51690000Y-128790000D01*
X52390000Y-143010000D02*
X51690000Y-143010000D01*
X65210000Y-128790000D02*
X65910000Y-128790000D01*
X65210000Y-143010000D02*
X65910000Y-143010000D01*
X65910000Y-128790000D02*
X65910000Y-129490000D01*
X65910000Y-143010000D02*
X65910000Y-142310000D01*
X66877500Y-142780000D02*
X66197500Y-142780000D01*
X66537500Y-142310000D01*
X66877500Y-142780000D01*
G36*
X66877500Y-142780000D02*
G01*
X66197500Y-142780000D01*
X66537500Y-142310000D01*
X66877500Y-142780000D01*
G37*
D12*
%TO.C,MK1*%
X30885000Y-167700000D02*
X34905000Y-167700000D01*
X30885000Y-170990000D02*
X30885000Y-167700000D01*
X34905000Y-167700000D02*
X34905000Y-170990000D01*
X34905000Y-170990000D02*
X30885000Y-170990000D01*
D13*
X31528000Y-171400000D02*
G75*
G02*
X31328000Y-171400000I-100000J0D01*
G01*
X31328000Y-171400000D02*
G75*
G02*
X31528000Y-171400000I100000J0D01*
G01*
D11*
%TO.C,C49*%
X62307836Y-97740000D02*
X62092164Y-97740000D01*
X62307836Y-98460000D02*
X62092164Y-98460000D01*
D12*
%TO.C,U1*%
X38250000Y-160500000D02*
X38250000Y-161050000D01*
X38250000Y-160500000D02*
X38800000Y-160500000D01*
X38250000Y-164500000D02*
X38250000Y-163950000D01*
X38800000Y-164500000D02*
X38250000Y-164500000D01*
X42250000Y-160500000D02*
X41700000Y-160500000D01*
X42250000Y-160500000D02*
X42250000Y-161050000D01*
X42250000Y-163950000D02*
X42250000Y-164500000D01*
X42250000Y-164500000D02*
X41700000Y-164500000D01*
D13*
X41450000Y-159600000D02*
G75*
G02*
X41250000Y-159600000I-100000J0D01*
G01*
X41250000Y-159600000D02*
G75*
G02*
X41450000Y-159600000I100000J0D01*
G01*
D11*
%TO.C,R39*%
X54870000Y-159903641D02*
X54870000Y-159596359D01*
X55630000Y-159903641D02*
X55630000Y-159596359D01*
%TO.C,C16*%
X54190000Y-124432836D02*
X54190000Y-124217164D01*
X54910000Y-124432836D02*
X54910000Y-124217164D01*
%TO.C,C23*%
X64907836Y-126265000D02*
X64692164Y-126265000D01*
X64907836Y-126985000D02*
X64692164Y-126985000D01*
%TO.C,C22*%
X50942164Y-127615000D02*
X51157836Y-127615000D01*
X50942164Y-128335000D02*
X51157836Y-128335000D01*
%TO.C,R25*%
X62670000Y-145996359D02*
X62670000Y-146303641D01*
X63430000Y-145996359D02*
X63430000Y-146303641D01*
%TO.C,R2*%
X39363641Y-156620000D02*
X39056359Y-156620000D01*
X39363641Y-157380000D02*
X39056359Y-157380000D01*
D13*
%TO.C,J1*%
X44280000Y-166600000D02*
X44280000Y-167850000D01*
X44280000Y-170570000D02*
X44280000Y-171850000D01*
X53220000Y-166600000D02*
X53220000Y-167850000D01*
X53220000Y-171850000D02*
X53220000Y-170570000D01*
X45600000Y-163250000D02*
G75*
G02*
X45400000Y-163250000I-100000J0D01*
G01*
X45400000Y-163250000D02*
G75*
G02*
X45600000Y-163250000I100000J0D01*
G01*
D11*
%TO.C,C19*%
X64632836Y-144765000D02*
X64417164Y-144765000D01*
X64632836Y-145485000D02*
X64417164Y-145485000D01*
%TO.C,R49*%
X60471359Y-145145000D02*
X60778641Y-145145000D01*
X60471359Y-145905000D02*
X60778641Y-145905000D01*
%TO.C,R20*%
X39977500Y-104037742D02*
X39977500Y-104512258D01*
X41022500Y-104037742D02*
X41022500Y-104512258D01*
%TO.C,C46*%
X62040000Y-88067164D02*
X62040000Y-88282836D01*
X62760000Y-88067164D02*
X62760000Y-88282836D01*
%TO.C,R10*%
X29365000Y-161560436D02*
X29365000Y-162014564D01*
X30835000Y-161560436D02*
X30835000Y-162014564D01*
%TO.C,C39*%
X53890000Y-162412164D02*
X53890000Y-162627836D01*
X54610000Y-162412164D02*
X54610000Y-162627836D01*
%TO.C,C41*%
X68392164Y-92140000D02*
X68607836Y-92140000D01*
X68392164Y-92860000D02*
X68607836Y-92860000D01*
%TO.C,C6*%
X42567164Y-166865000D02*
X42782836Y-166865000D01*
X42567164Y-167585000D02*
X42782836Y-167585000D01*
D12*
%TO.C,J2*%
X28850000Y-153775000D02*
X28850000Y-153925000D01*
X28850000Y-157575000D02*
X28850000Y-157525000D01*
X30350000Y-153525000D02*
X30350000Y-153775000D01*
X30350000Y-153775000D02*
X28850000Y-153775000D01*
X30350000Y-157575000D02*
X28850000Y-157575000D01*
X30350000Y-157725000D02*
X30350000Y-157575000D01*
X31200000Y-157725000D02*
X30350000Y-157725000D01*
X35050000Y-157725000D02*
X35850000Y-157725000D01*
X35850000Y-153525000D02*
X30350000Y-153525000D01*
X35850000Y-153775000D02*
X35850000Y-153525000D01*
X35850000Y-157575000D02*
X37350000Y-157575000D01*
X35850000Y-157725000D02*
X35850000Y-157575000D01*
X37350000Y-153775000D02*
X35850000Y-153775000D01*
X37350000Y-153975000D02*
X37350000Y-153775000D01*
X37350000Y-157575000D02*
X37350000Y-157525000D01*
D16*
X31140000Y-158625000D02*
G75*
G02*
X30860000Y-158625000I-140000J0D01*
G01*
X30860000Y-158625000D02*
G75*
G02*
X31140000Y-158625000I140000J0D01*
G01*
X31140000Y-158625000D02*
G75*
G02*
X30860000Y-158625000I-140000J0D01*
G01*
X30860000Y-158625000D02*
G75*
G02*
X31140000Y-158625000I140000J0D01*
G01*
D11*
%TO.C,R33*%
X65970000Y-124246359D02*
X65970000Y-124553641D01*
X66730000Y-124246359D02*
X66730000Y-124553641D01*
%TO.C,C31*%
X60807836Y-102440000D02*
X60592164Y-102440000D01*
X60807836Y-103160000D02*
X60592164Y-103160000D01*
D12*
%TO.C,U5*%
X49100000Y-121300000D02*
X49160000Y-121300000D01*
X49100000Y-121860000D02*
X49100000Y-121300000D01*
X49100000Y-124800000D02*
X49100000Y-124240000D01*
X49100000Y-124800000D02*
X49160000Y-124800000D01*
X53540000Y-121300000D02*
X53600000Y-121300000D01*
X53540000Y-124800000D02*
X53600000Y-124800000D01*
X53600000Y-121860000D02*
X53600000Y-121300000D01*
X53600000Y-124800000D02*
X53600000Y-124240000D01*
D13*
X54500000Y-122300000D02*
G75*
G02*
X54300000Y-122300000I-100000J0D01*
G01*
X54300000Y-122300000D02*
G75*
G02*
X54500000Y-122300000I100000J0D01*
G01*
D15*
%TO.C,U8*%
X46623600Y-102677600D02*
X46623600Y-102955818D01*
X46623600Y-105244182D02*
X46623600Y-105522400D01*
X46623600Y-105522400D02*
X47405820Y-105522400D01*
X47405820Y-102677600D02*
X46623600Y-102677600D01*
X49194180Y-105522400D02*
X49976400Y-105522400D01*
X49976400Y-102677600D02*
X49194180Y-102677600D01*
X49976400Y-102955818D02*
X49976400Y-102677600D01*
X49976400Y-105522400D02*
X49976400Y-105244182D01*
D17*
G36*
X46598200Y-104540500D02*
G01*
X46344200Y-104540500D01*
X46344200Y-104159499D01*
X46598200Y-104159499D01*
X46598200Y-104540500D01*
G37*
D11*
%TO.C,J6*%
X41964000Y-139305000D02*
X42599000Y-139305000D01*
X41964000Y-139940000D02*
X41964000Y-139305000D01*
%TO.C,C45*%
X66492164Y-97740000D02*
X66707836Y-97740000D01*
X66492164Y-98460000D02*
X66707836Y-98460000D01*
%TO.C,C36*%
X68192164Y-76905000D02*
X68407836Y-76905000D01*
X68192164Y-77625000D02*
X68407836Y-77625000D01*
%TO.C,Q1*%
D14*
X57730000Y-104085000D02*
G75*
G02*
X57630000Y-104085000I-50000J0D01*
G01*
X57630000Y-104085000D02*
G75*
G02*
X57730000Y-104085000I50000J0D01*
G01*
D11*
%TO.C,R40*%
X66737258Y-72977500D02*
X66262742Y-72977500D01*
X66737258Y-74022500D02*
X66262742Y-74022500D01*
%TO.C,R17*%
X52520000Y-103371359D02*
X52520000Y-103678641D01*
X53280000Y-103371359D02*
X53280000Y-103678641D01*
%TO.C,R22*%
X41477500Y-104037742D02*
X41477500Y-104512258D01*
X42522500Y-104037742D02*
X42522500Y-104512258D01*
%TO.C,Q2*%
D14*
X54755000Y-104110000D02*
G75*
G02*
X54655000Y-104110000I-50000J0D01*
G01*
X54655000Y-104110000D02*
G75*
G02*
X54755000Y-104110000I50000J0D01*
G01*
D11*
%TO.C,R15*%
X51377500Y-156062742D02*
X51377500Y-156537258D01*
X52422500Y-156062742D02*
X52422500Y-156537258D01*
%TO.C,R16*%
X52977500Y-156062742D02*
X52977500Y-156537258D01*
X54022500Y-156062742D02*
X54022500Y-156537258D01*
%TO.C,R44*%
X54870000Y-162673641D02*
X54870000Y-162366359D01*
X55630000Y-162673641D02*
X55630000Y-162366359D01*
%TO.C,C27*%
X49327836Y-101640000D02*
X49112164Y-101640000D01*
X49327836Y-102360000D02*
X49112164Y-102360000D01*
%TO.C,R41*%
X63437258Y-72977500D02*
X62962742Y-72977500D01*
X63437258Y-74022500D02*
X62962742Y-74022500D01*
%TO.C,R32*%
X63063641Y-103420000D02*
X62756359Y-103420000D01*
X63063641Y-104180000D02*
X62756359Y-104180000D01*
%TO.C,C20*%
X53407836Y-126115000D02*
X53192164Y-126115000D01*
X53407836Y-126835000D02*
X53192164Y-126835000D01*
%TO.C,C43*%
X68607836Y-95140000D02*
X68392164Y-95140000D01*
X68607836Y-95860000D02*
X68392164Y-95860000D01*
%TO.C,R3*%
X40846359Y-170145000D02*
X41153641Y-170145000D01*
X40846359Y-170905000D02*
X41153641Y-170905000D01*
%TO.C,C4*%
X41315000Y-156359420D02*
X41315000Y-156640580D01*
X42335000Y-156359420D02*
X42335000Y-156640580D01*
%TO.C,R1*%
X39046359Y-157620000D02*
X39353641Y-157620000D01*
X39046359Y-158380000D02*
X39353641Y-158380000D01*
%TO.C,R5*%
X52820000Y-162346359D02*
X52820000Y-162653641D01*
X53580000Y-162346359D02*
X53580000Y-162653641D01*
D12*
%TO.C,U4*%
X31937500Y-73537500D02*
X31937500Y-75237500D01*
X31937500Y-100937500D02*
X31937500Y-99237500D01*
X33637500Y-73537500D02*
X31937500Y-73537500D01*
X33637500Y-100937500D02*
X31937500Y-100937500D01*
X34637500Y-76237500D02*
X57637500Y-76237500D01*
X34637500Y-98237500D02*
X34637500Y-76237500D01*
X36537500Y-73537500D02*
X55637500Y-73537500D01*
X36537500Y-100937500D02*
X55737500Y-100937500D01*
X57637500Y-76237500D02*
X57637500Y-98237500D01*
X57637500Y-98237500D02*
X34637500Y-98237500D01*
X58637500Y-73537500D02*
X60337500Y-73537500D01*
X58637500Y-100937500D02*
X60337500Y-100937500D01*
X60337500Y-73537500D02*
X60337500Y-75237500D01*
X60337500Y-100937500D02*
X60337500Y-99237500D01*
D11*
%TO.C,C32*%
X65007836Y-102040000D02*
X64792164Y-102040000D01*
X65007836Y-102760000D02*
X64792164Y-102760000D01*
%TO.C,R46*%
X62837258Y-89915000D02*
X62362742Y-89915000D01*
X62837258Y-90960000D02*
X62362742Y-90960000D01*
D12*
%TO.C,U14*%
X61850000Y-91935000D02*
X61850000Y-92235000D01*
X61850000Y-91935000D02*
X62150000Y-91935000D01*
X61850000Y-96935000D02*
X61850000Y-96635000D01*
X61850000Y-96935000D02*
X62150000Y-96935000D01*
X66850000Y-91935000D02*
X66550000Y-91935000D01*
X66850000Y-91935000D02*
X66850000Y-92235000D01*
X66850000Y-96935000D02*
X66550000Y-96935000D01*
X66850000Y-96935000D02*
X66850000Y-96635000D01*
D13*
X67925000Y-96185000D02*
G75*
G02*
X67725000Y-96185000I-100000J0D01*
G01*
X67725000Y-96185000D02*
G75*
G02*
X67925000Y-96185000I100000J0D01*
G01*
D12*
%TO.C,U3*%
X37490000Y-166855000D02*
X37035000Y-166855000D01*
X37490000Y-169695000D02*
X37035000Y-169695000D01*
X39690000Y-166855000D02*
X38380000Y-166855000D01*
X39690000Y-169695000D02*
X38380000Y-169695000D01*
X41035000Y-166855000D02*
X40580000Y-166855000D01*
X41035000Y-169695000D02*
X40580000Y-169695000D01*
D13*
X42045000Y-169275000D02*
G75*
G02*
X41845000Y-169275000I-100000J0D01*
G01*
X41845000Y-169275000D02*
G75*
G02*
X42045000Y-169275000I100000J0D01*
G01*
D11*
%TO.C,R14*%
X49877500Y-156062742D02*
X49877500Y-156537258D01*
X50922500Y-156062742D02*
X50922500Y-156537258D01*
%TO.C,C13*%
X29961252Y-84765000D02*
X29438748Y-84765000D01*
X29961252Y-86235000D02*
X29438748Y-86235000D01*
D12*
%TO.C,U6*%
X56150000Y-121275000D02*
X56210000Y-121275000D01*
X56150000Y-121835000D02*
X56150000Y-121275000D01*
X56150000Y-124775000D02*
X56150000Y-124215000D01*
X56150000Y-124775000D02*
X56210000Y-124775000D01*
X60590000Y-121275000D02*
X60650000Y-121275000D01*
X60590000Y-124775000D02*
X60650000Y-124775000D01*
X60650000Y-121835000D02*
X60650000Y-121275000D01*
X60650000Y-124775000D02*
X60650000Y-124215000D01*
D13*
X61550000Y-122275000D02*
G75*
G02*
X61350000Y-122275000I-100000J0D01*
G01*
X61350000Y-122275000D02*
G75*
G02*
X61550000Y-122275000I100000J0D01*
G01*
D12*
%TO.C,J4*%
X64617500Y-83000000D02*
X64617500Y-82600000D01*
X64617500Y-83600000D02*
X64867500Y-83600000D01*
X64617500Y-84000000D02*
X64617500Y-83600000D01*
X64867500Y-83000000D02*
X64617500Y-83000000D01*
X64867500Y-83600000D02*
X64867500Y-83000000D01*
D13*
X60807500Y-83280000D02*
G75*
G02*
X60607500Y-83280000I-100000J0D01*
G01*
X60607500Y-83280000D02*
G75*
G02*
X60807500Y-83280000I100000J0D01*
G01*
D11*
%TO.C,C8*%
X30545336Y-91657500D02*
X30329664Y-91657500D01*
X30545336Y-92377500D02*
X30329664Y-92377500D01*
%TO.C,R30*%
X63053641Y-102420000D02*
X62746359Y-102420000D01*
X63053641Y-103180000D02*
X62746359Y-103180000D01*
%TO.C,C37*%
X68392164Y-94140000D02*
X68607836Y-94140000D01*
X68392164Y-94860000D02*
X68607836Y-94860000D01*
%TO.C,R13*%
X56520000Y-104203641D02*
X56520000Y-103896359D01*
X57280000Y-104203641D02*
X57280000Y-103896359D01*
%TO.C,C35*%
X45390000Y-146392164D02*
X45390000Y-146607836D01*
X46110000Y-146392164D02*
X46110000Y-146607836D01*
%TO.C,R36*%
X68353641Y-78385000D02*
X68046359Y-78385000D01*
X68353641Y-79145000D02*
X68046359Y-79145000D01*
%TO.C,C29*%
X60807836Y-103440000D02*
X60592164Y-103440000D01*
X60807836Y-104160000D02*
X60592164Y-104160000D01*
%TO.C,C40*%
X64340000Y-90327836D02*
X64340000Y-90112164D01*
X65060000Y-90327836D02*
X65060000Y-90112164D01*
%TD*%
M02*
