M48
; DRILL file {KiCad 9.0.2-9.0.2-0~ubuntu25.04.1} date 2025-05-27T06:37:47+1000
; FORMAT={-:-/ absolute / metric / decimal}
; #@! TF.CreationDate,2025-05-27T06:37:47+10:00
; #@! TF.GenerationSoftware,Kicad,Pcbnew,9.0.2-9.0.2-0~ubuntu25.04.1
; #@! TF.FileFunction,Plated,1,4,PTH
FMAT,2
METRIC
; #@! TA.AperFunction,Plated,PTH,ViaDrill
T1C0.200
; #@! TA.AperFunction,Plated,PTH,ComponentDrill
T2C0.200
; #@! TA.AperFunction,Plated,PTH,ViaDrill
T3C0.300
; #@! TA.AperFunction,Plated,PTH,ComponentDrill
T4C0.300
; #@! TA.AperFunction,Plated,PTH,ViaDrill
T5C0.400
; #@! TA.AperFunction,Plated,PTH,ComponentDrill
T6C0.400
; #@! TA.AperFunction,Plated,PTH,ComponentDrill
T7C0.450
; #@! TA.AperFunction,Plated,PTH,ComponentDrill
T8C0.600
; #@! TA.AperFunction,Plated,PTH,ComponentDrill
T9C0.850
; #@! TA.AperFunction,Plated,PTH,ViaDrill
T10C1.250
%
G90
G05
T1
X27.936Y-69.463
X27.936Y-70.463
X27.936Y-71.464
X27.936Y-72.464
X27.936Y-73.465
X27.936Y-74.465
X27.936Y-75.465
X27.936Y-76.466
X27.936Y-77.466
X27.936Y-78.467
X27.936Y-79.467
X27.936Y-80.467
X27.936Y-81.468
X27.936Y-82.468
X27.936Y-83.468
X27.936Y-84.469
X27.936Y-85.469
X27.936Y-86.47
X27.936Y-87.47
X27.936Y-88.47
X27.936Y-89.471
X27.936Y-90.471
X27.936Y-91.472
X27.936Y-92.472
X27.936Y-93.472
X27.936Y-94.473
X27.936Y-95.473
X27.936Y-96.473
X27.936Y-97.474
X27.936Y-98.474
X27.936Y-99.475
X27.936Y-100.475
X27.936Y-101.475
X27.936Y-102.476
X27.936Y-103.476
X27.936Y-104.477
X27.936Y-105.477
X27.936Y-106.477
X27.936Y-107.478
X27.936Y-108.478
X27.936Y-109.478
X27.936Y-110.479
X27.936Y-111.479
X27.936Y-112.48
X27.936Y-113.48
X27.936Y-116.481
X27.936Y-117.482
X27.936Y-118.482
X27.936Y-121.483
X27.936Y-122.483
X27.936Y-123.484
X27.936Y-126.485
X27.936Y-127.485
X27.936Y-128.486
X27.936Y-131.487
X27.936Y-132.487
X27.936Y-133.488
X27.936Y-136.489
X27.936Y-137.489
X27.936Y-138.49
X27.936Y-141.491
X27.936Y-142.491
X27.936Y-143.492
X27.936Y-144.492
X27.936Y-145.492
X27.936Y-146.493
X27.936Y-147.493
X27.936Y-148.493
X27.936Y-149.494
X27.936Y-150.494
X27.936Y-151.495
X27.936Y-152.495
X27.936Y-153.495
X27.936Y-154.496
X27.936Y-155.496
X27.936Y-156.497
X27.936Y-157.497
X27.936Y-158.497
X27.936Y-159.498
X27.936Y-160.498
X27.936Y-161.498
X27.936Y-162.499
X27.936Y-163.499
X27.936Y-164.5
X27.936Y-165.5
X27.936Y-166.5
X27.936Y-167.501
X27.936Y-168.501
X27.936Y-169.501
X27.936Y-170.502
X28.22Y-171.391
X28.498Y-68.811
X29.214Y-171.439
X29.499Y-68.811
X29.65Y-168.05
X30.214Y-171.439
X30.499Y-68.811
X31.22Y-171.44
X31.499Y-68.811
X31.875Y-159.7
X32.118Y-170.903
X32.22Y-171.44
X32.375Y-168.0
X32.42Y-170.29
X32.5Y-68.811
X33.221Y-171.44
X33.5Y-68.811
X34.221Y-171.44
X34.501Y-68.811
X34.825Y-115.0
X34.825Y-115.5
X34.825Y-116.0
X34.825Y-116.5
X34.825Y-117.0
X34.825Y-117.5
X34.825Y-118.0
X34.825Y-118.5
X34.825Y-119.0
X34.825Y-119.5
X34.825Y-120.0
X34.825Y-120.5
X34.825Y-121.0
X34.825Y-121.5
X34.825Y-122.0
X34.825Y-122.5
X34.825Y-123.0
X34.825Y-123.5
X34.825Y-124.0
X34.825Y-124.5
X34.825Y-125.0
X34.825Y-125.5
X34.825Y-126.0
X34.825Y-132.0
X34.825Y-132.5
X34.825Y-133.0
X34.825Y-133.5
X34.825Y-134.0
X34.825Y-134.5
X34.825Y-135.0
X34.825Y-135.5
X34.825Y-136.0
X34.825Y-136.5
X34.85Y-137.0
X34.85Y-137.5
X34.85Y-138.0
X34.85Y-138.5
X35.1Y-159.075
X35.222Y-171.44
X35.501Y-68.811
X36.222Y-171.44
X36.375Y-161.425
X36.501Y-68.811
X36.7Y-92.05
X36.7Y-95.55
X36.775Y-160.7
X36.8Y-169.8
X37.0Y-87.8
X37.1Y-87.0
X37.2Y-160.975
X37.22Y-171.44
X37.502Y-68.811
X38.22Y-171.44
X38.502Y-68.811
X38.675Y-159.075
X38.825Y-139.5
X38.875Y-141.025
X39.2Y-96.288
X39.221Y-171.44
X39.26Y-158.8
X39.4Y-169.9
X39.502Y-68.811
X39.646Y-106.219
X39.7Y-165.3
X39.8Y-153.9
X40.2Y-94.9
X40.2Y-165.3
X40.221Y-171.44
X40.237Y-73.123
X40.237Y-74.171
X40.237Y-75.218
X40.237Y-76.266
X40.237Y-77.314
X40.237Y-78.362
X40.237Y-79.41
X40.364Y-106.937
X40.4Y-96.2
X40.4Y-105.7
X40.5Y-102.6
X40.503Y-68.811
X40.555Y-153.955
X40.7Y-169.9
X40.75Y-159.725
X40.9Y-94.9
X41.082Y-107.655
X41.222Y-171.44
X41.325Y-131.575
X41.375Y-166.575
X41.503Y-68.811
X41.637Y-73.123
X41.637Y-74.171
X41.637Y-75.218
X41.637Y-76.266
X41.637Y-77.314
X41.637Y-78.362
X41.637Y-79.41
X41.7Y-94.9
X41.7Y-105.8
X41.703Y-96.305
X41.8Y-108.373
X41.8Y-109.406
X41.8Y-110.438
X41.8Y-111.471
X41.8Y-112.504
X41.8Y-113.536
X41.8Y-114.569
X41.8Y-115.602
X41.8Y-169.6
X41.825Y-131.575
X41.854Y-116.626
X41.9Y-102.5
X41.9Y-168.7
X42.2Y-140.7
X42.222Y-171.44
X42.35Y-131.575
X42.504Y-68.811
X42.565Y-117.372
X42.6Y-94.9
X42.8Y-155.2
X42.85Y-131.575
X42.9Y-96.287
X43.0Y-79.4
X43.2Y-105.8
X43.222Y-171.44
X43.295Y-118.102
X43.3Y-102.5
X43.35Y-131.575
X43.4Y-94.9
X43.504Y-68.811
X43.575Y-137.675
X43.625Y-135.65
X43.7Y-154.0
X43.925Y-131.55
X44.025Y-130.425
X44.025Y-131.0
X44.025Y-118.833
X44.075Y-129.9
X44.1Y-129.35
X44.125Y-128.8
X44.133Y-96.315
X44.15Y-127.625
X44.15Y-128.2
X44.175Y-127.025
X44.22Y-171.44
X44.3Y-85.0
X44.3Y-86.5
X44.3Y-88.0
X44.3Y-89.5
X44.3Y-94.9
X44.5Y-140.75
X44.504Y-68.811
X44.6Y-79.4
X44.6Y-145.05
X44.6Y-145.55
X44.6Y-146.05
X44.6Y-146.55
X44.6Y-147.05
X44.6Y-147.775
X44.65Y-158.925
X44.7Y-105.9
X44.756Y-119.563
X44.8Y-102.5
X44.9Y-107.907
X44.9Y-108.977
X44.9Y-110.046
X44.9Y-111.115
X44.9Y-112.185
X44.9Y-113.254
X44.9Y-114.323
X44.9Y-115.393
X45.0Y-94.9
X45.2Y-144.625
X45.221Y-171.44
X45.3Y-96.287
X45.3Y-156.2
X45.486Y-120.293
X45.5Y-148.401
X45.5Y-149.05
X45.5Y-149.65
X45.505Y-68.811
X45.654Y-107.153
X45.779Y-116.272
X45.8Y-94.9
X45.925Y-144.55
X46.1Y-88.0
X46.2Y-85.0
X46.2Y-86.5
X46.2Y-89.5
X46.216Y-121.023
X46.221Y-171.44
X46.408Y-106.4
X46.505Y-68.811
X46.533Y-96.315
X46.658Y-117.151
X46.7Y-126.9
X46.7Y-127.4
X46.7Y-127.9
X46.725Y-126.4
X46.725Y-128.4
X46.75Y-125.45
X46.946Y-121.754
X47.222Y-171.44
X47.503Y-166.703
X47.51Y-68.81
X47.537Y-118.03
X47.55Y-144.55
X47.7Y-93.2
X47.8Y-103.8
X47.8Y-120.4
X47.9Y-85.0
X47.9Y-120.9
X47.925Y-142.75
X48.0Y-86.5
X48.0Y-88.0
X48.0Y-89.5
X48.0Y-119.8
X48.0Y-162.8
X48.05Y-142.25
X48.075Y-122.8
X48.075Y-123.3
X48.075Y-123.8
X48.075Y-124.3
X48.2Y-105.8
X48.212Y-95.132
X48.222Y-171.44
X48.225Y-121.625
X48.225Y-150.475
X48.237Y-144.237
X48.4Y-98.425
X48.511Y-68.81
X48.74Y-118.078
X48.8Y-105.8
X48.8Y-124.7
X48.85Y-141.625
X48.862Y-95.132
X49.025Y-138.025
X49.15Y-126.05
X49.22Y-171.44
X49.228Y-126.544
X49.511Y-68.81
X49.55Y-125.55
X49.613Y-118.91
X49.65Y-129.925
X49.8Y-133.8
X49.8Y-134.4
X49.9Y-137.8
X49.9Y-138.85
X49.9Y-139.4
X49.9Y-139.9
X50.1Y-135.9
X50.2Y-126.725
X50.22Y-171.44
X50.4Y-143.75
X50.475Y-149.8
X50.512Y-68.81
X50.825Y-154.535
X50.9Y-120.1
X50.946Y-78.546
X51.0Y-95.1
X51.221Y-171.44
X51.3Y-78.9
X51.321Y-120.579
X51.475Y-154.535
X51.5Y-162.325
X51.5Y-163.01
X51.512Y-68.81
X51.9Y-158.025
X51.975Y-101.625
X52.1Y-78.9
X52.161Y-95.568
X52.2Y-149.4
X52.221Y-171.44
X52.3Y-131.875
X52.3Y-137.7
X52.35Y-125.35
X52.4Y-129.9
X52.5Y-145.0
X52.512Y-68.81
X52.6Y-120.7
X52.8Y-137.7
X52.8Y-149.4
X52.875Y-96.282
X52.9Y-125.3
X52.962Y-130.312
X53.07Y-76.423
X53.075Y-104.75
X53.1Y-154.5
X53.222Y-171.44
X53.3Y-78.6
X53.3Y-79.1
X53.3Y-137.7
X53.4Y-85.0
X53.4Y-85.8
X53.4Y-86.6
X53.4Y-87.4
X53.5Y-160.475
X53.513Y-68.81
X53.575Y-104.75
X53.7Y-124.3
X53.7Y-145.1
X53.778Y-75.715
X53.798Y-94.56
X53.8Y-142.46
X54.0Y-121.9
X54.15Y-149.475
X54.2Y-161.2
X54.222Y-171.44
X54.3Y-142.3
X54.329Y-78.6
X54.5Y-163.8
X54.513Y-68.81
X54.552Y-95.314
X54.575Y-157.3
X54.6Y-125.6
X54.75Y-166.3
X54.757Y-129.503
X54.8Y-102.2
X54.8Y-161.2
X54.95Y-104.025
X55.0Y-123.0
X55.0Y-158.6
X55.018Y-98.425
X55.1Y-141.8
X55.22Y-171.44
X55.225Y-125.175
X55.3Y-129.5
X55.3Y-130.5
X55.306Y-96.068
X55.322Y-76.085
X55.357Y-78.6
X55.376Y-82.537
X55.376Y-83.938
X55.431Y-89.737
X55.431Y-91.138
X55.513Y-68.81
X55.585Y-141.921
X55.6Y-80.9
X55.6Y-123.0
X55.732Y-99.139
X55.8Y-129.5
X55.9Y-85.0
X55.9Y-130.5
X55.901Y-73.592
X56.039Y-75.368
X56.1Y-141.9
X56.125Y-120.45
X56.2Y-116.8
X56.2Y-117.5
X56.22Y-171.44
X56.3Y-142.4
X56.3Y-129.5
X56.4Y-144.8
X56.45Y-106.05
X56.5Y-148.0
X56.514Y-68.81
X56.609Y-72.884
X56.65Y-119.4
X56.7Y-125.4
X56.8Y-129.4
X56.8Y-130.2
X57.05Y-135.85
X57.075Y-132.2
X57.15Y-119.425
X57.2Y-125.4
X57.2Y-144.9
X57.3Y-129.4
X57.317Y-72.176
X57.514Y-68.81
X57.526Y-142.458
X57.568Y-98.33
X57.65Y-119.425
X57.659Y-89.737
X57.659Y-91.138
X57.662Y-144.709
X57.688Y-80.4
X57.7Y-102.2
X57.8Y-129.4
X58.025Y-71.468
X58.15Y-119.425
X58.2Y-125.4
X58.3Y-129.4
X58.3Y-142.4
X58.3Y-144.7
X58.322Y-99.084
X58.443Y-78.6
X58.515Y-68.81
X58.553Y-83.938
X58.589Y-101.996
X58.601Y-113.4
X58.65Y-120.575
X58.773Y-89.737
X58.773Y-91.138
X58.8Y-129.4
X58.895Y-71.1
X58.907Y-72.5
X59.076Y-99.838
X59.2Y-120.6
X59.2Y-125.4
X59.291Y-129.502
X59.3Y-144.8
X59.304Y-102.711
X59.471Y-78.6
X59.515Y-68.81
X59.612Y-83.938
X59.7Y-106.3
X59.7Y-120.6
X59.775Y-129.375
X59.8Y-142.4
X59.83Y-100.592
X59.886Y-89.737
X59.886Y-91.138
X59.896Y-71.1
X59.9Y-146.225
X60.0Y-111.475
X60.0Y-119.55
X60.049Y-72.5
X60.075Y-125.525
X60.3Y-142.4
X60.35Y-129.4
X60.5Y-78.6
X60.515Y-68.81
X60.584Y-101.346
X60.595Y-95.705
X60.671Y-82.537
X60.671Y-83.938
X60.8Y-142.4
X60.897Y-71.1
X60.95Y-80.4
X61.0Y-89.737
X61.0Y-91.138
X61.05Y-130.175
X61.05Y-132.125
X61.055Y-95.245
X61.1Y-78.5
X61.1Y-122.0
X61.191Y-72.5
X61.2Y-126.2
X61.25Y-124.225
X61.3Y-142.4
X61.4Y-76.4
X61.4Y-91.525
X61.516Y-68.81
X61.6Y-127.0
X61.725Y-97.325
X61.8Y-102.8
X61.8Y-103.8
X61.8Y-104.8
X61.8Y-129.4
X61.875Y-135.825
X61.898Y-71.1
X61.9Y-126.6
X62.0Y-92.0
X62.037Y-80.4
X62.188Y-144.912
X62.225Y-120.65
X62.333Y-72.5
X62.516Y-68.81
X62.653Y-92.924
X62.8Y-129.4
X62.8Y-144.925
X62.899Y-71.1
X62.9Y-74.4
X62.9Y-103.25
X63.1Y-92.7
X63.125Y-80.4
X63.125Y-99.65
X63.15Y-129.9
X63.3Y-122.95
X63.3Y-142.5
X63.326Y-130.368
X63.474Y-72.5
X63.5Y-131.05
X63.52Y-68.81
X63.7Y-122.6
X63.725Y-98.825
X63.8Y-133.5
X63.8Y-142.5
X63.9Y-71.1
X63.9Y-71.6
X63.9Y-92.685
X64.1Y-122.9
X64.2Y-140.3
X64.212Y-80.4
X64.3Y-136.8
X64.3Y-137.4
X64.3Y-138.0
X64.3Y-138.6
X64.3Y-139.3
X64.321Y-139.815
X64.45Y-71.5
X64.52Y-68.81
X64.55Y-123.15
X64.6Y-141.9
X64.616Y-72.5
X64.65Y-132.675
X64.7Y-87.9
X64.7Y-134.4
X64.7Y-134.9
X64.7Y-141.4
X64.8Y-75.0
X64.8Y-135.7
X64.8Y-140.9
X65.1Y-98.7
X65.175Y-79.8
X65.175Y-153.4
X65.2Y-125.5
X65.3Y-80.4
X65.3Y-101.6
X65.3Y-125.0
X65.375Y-74.2
X65.375Y-81.343
X65.375Y-82.156
X65.375Y-82.968
X65.375Y-83.781
X65.375Y-84.593
X65.375Y-85.406
X65.375Y-86.218
X65.375Y-87.031
X65.375Y-87.844
X65.516Y-98.977
X65.521Y-68.81
X65.675Y-71.5
X65.758Y-72.5
X65.775Y-96.15
X66.1Y-99.1
X66.25Y-78.575
X66.275Y-122.6
X66.325Y-123.2
X66.521Y-68.81
X66.575Y-117.35
X66.6Y-103.025
X66.7Y-122.175
X66.775Y-107.65
X66.825Y-81.133
X66.825Y-81.933
X66.825Y-82.734
X66.825Y-83.534
X66.825Y-84.335
X66.825Y-85.135
X66.825Y-85.936
X66.825Y-86.736
X66.825Y-87.537
X66.825Y-88.337
X66.875Y-105.575
X66.875Y-121.4
X66.9Y-71.5
X66.9Y-72.0
X66.9Y-72.5
X66.95Y-120.0
X67.0Y-89.8
X67.0Y-90.3
X67.0Y-90.9
X67.0Y-104.3
X67.1Y-102.2
X67.275Y-103.875
X67.4Y-81.6
X67.4Y-82.714
X67.4Y-83.829
X67.4Y-84.943
X67.4Y-86.057
X67.4Y-87.171
X67.4Y-88.286
X67.4Y-89.4
X67.487Y-91.312
X67.522Y-68.81
X67.7Y-79.966
X67.8Y-77.965
X68.227Y-75.828
X68.4Y-75.215
X68.45Y-120.75
X68.522Y-68.81
X68.8Y-157.8
X69.2Y-93.8
X69.28Y-78.306
X69.28Y-79.332
X69.28Y-80.358
X69.28Y-81.385
X69.28Y-82.411
X69.28Y-83.437
X69.28Y-84.463
X69.28Y-85.489
X69.28Y-86.515
X69.28Y-87.542
X69.28Y-88.568
X69.28Y-89.594
X69.525Y-69.825
X69.525Y-70.826
X69.525Y-71.826
X69.525Y-72.827
X69.525Y-73.827
X69.525Y-74.827
X69.525Y-97.575
T2
X44.5Y-156.95
X44.5Y-158.05
X50.075Y-123.05
X51.35Y-122.275
X51.35Y-123.825
X52.625Y-123.05
X57.125Y-123.025
X58.4Y-122.25
X58.4Y-123.8
X59.675Y-123.025
T3
X37.125Y-163.0
X40.0Y-159.45
X41.5Y-140.25
X43.0Y-162.1
X46.495Y-158.38
X46.5Y-155.0
X46.6Y-129.945
X47.4Y-160.0
X47.8Y-124.9
X48.4Y-101.0
X48.5Y-122.2
X48.9Y-143.25
X48.9Y-153.8
X52.8Y-158.1
X54.446Y-120.354
X55.2Y-153.4
X55.5Y-90.438
X58.946Y-147.025
X60.2Y-120.249
X61.0Y-90.438
X61.5Y-86.5
X62.2Y-113.0
X62.8Y-123.4
X65.75Y-144.25
X66.1Y-126.05
X68.2Y-136.3
T4
X38.135Y-167.775
X38.135Y-168.775
X39.035Y-167.775
X39.035Y-168.775
X39.25Y-161.5
X39.25Y-162.5
X39.25Y-163.5
X39.935Y-167.775
X39.935Y-168.775
X40.25Y-161.5
X40.25Y-162.5
X40.25Y-163.5
X41.25Y-161.5
X41.25Y-162.5
X41.25Y-163.5
T5
X29.7Y-82.6
X30.1Y-164.4
X30.2Y-159.2
X30.4Y-93.4
X34.251Y-140.475
X36.3Y-164.6
T8
X56.6Y-151.4
X56.6Y-155.0
T9
X47.3Y-70.3
X51.5Y-70.3
T10
X29.875Y-169.5
X29.875Y-70.75
X67.625Y-169.5
X67.625Y-70.75
T6
X56.5Y-162.38G85X56.5Y-161.58
G05
X56.5Y-167.17G85X56.5Y-166.37
G05
X56.5Y-170.26G85X56.5Y-169.46
G05
X65.9Y-163.43G85X65.9Y-162.63
G05
X65.9Y-166.23G85X65.9Y-165.43
G05
X65.9Y-170.18G85X65.9Y-169.38
G05
T7
X52.27Y-106.6G85X51.57Y-106.6
G05
X52.27Y-118.4G85X51.57Y-118.4
G05
T8
X44.43Y-164.52G85X44.43Y-165.62
G05
X44.43Y-168.85G85X44.43Y-169.65
G05
X53.07Y-164.52G85X53.07Y-165.62
G05
X53.07Y-168.85G85X53.07Y-169.65
G05
M30
