%TF.GenerationSoftware,KiCad,Pcbnew,8.0.8*%
%TF.CreationDate,2025-04-16T08:52:23+10:00*%
%TF.ProjectId,display,64697370-6c61-4792-9e6b-696361645f70,rev?*%
%TF.SameCoordinates,Original*%
%TF.FileFunction,Legend,Bot*%
%TF.FilePolarity,Positive*%
%FSLAX46Y46*%
G04 Gerber Fmt 4.6, Leading zero omitted, Abs format (unit mm)*
G04 Created by KiCad (PCBNEW 8.0.8) date 2025-04-16 08:52:23*
%MOMM*%
%LPD*%
G01*
G04 APERTURE LIST*
%ADD10C,0.152400*%
G04 APERTURE END LIST*
D10*
X73946095Y-55161353D02*
X74671810Y-55161353D01*
X74671810Y-55161353D02*
X74816953Y-55112972D01*
X74816953Y-55112972D02*
X74913715Y-55016210D01*
X74913715Y-55016210D02*
X74962095Y-54871067D01*
X74962095Y-54871067D02*
X74962095Y-54774305D01*
X74042857Y-55596781D02*
X73994476Y-55645162D01*
X73994476Y-55645162D02*
X73946095Y-55741924D01*
X73946095Y-55741924D02*
X73946095Y-55983829D01*
X73946095Y-55983829D02*
X73994476Y-56080591D01*
X73994476Y-56080591D02*
X74042857Y-56128972D01*
X74042857Y-56128972D02*
X74139619Y-56177353D01*
X74139619Y-56177353D02*
X74236381Y-56177353D01*
X74236381Y-56177353D02*
X74381524Y-56128972D01*
X74381524Y-56128972D02*
X74962095Y-55548400D01*
X74962095Y-55548400D02*
X74962095Y-56177353D01*
%TO.C,J2*%
X68859190Y-45318600D02*
X68859190Y-43286600D01*
X70052990Y-44302600D02*
X68859190Y-43286600D01*
X70052990Y-44302600D02*
X68859190Y-45318600D01*
X71703990Y-41254600D02*
X71703990Y-43794600D01*
X71703990Y-66705400D02*
X71703990Y-69245400D01*
X73988390Y-69245400D02*
X71702390Y-69245400D01*
X73989990Y-41254600D02*
X71703990Y-41254600D01*
X77291990Y-41254600D02*
X76225190Y-41254600D01*
X77291990Y-69245400D02*
X76225190Y-69245400D01*
X77291990Y-69245400D02*
X77291990Y-41254600D01*
%TD*%
M02*
