%TF.GenerationSoftware,KiCad,Pcbnew,8.0.8*%
%TF.CreationDate,2025-04-16T08:52:23+10:00*%
%TF.ProjectId,display,64697370-6c61-4792-9e6b-696361645f70,rev?*%
%TF.SameCoordinates,Original*%
%TF.FileFunction,Copper,L1,Top*%
%TF.FilePolarity,Positive*%
%FSLAX46Y46*%
G04 Gerber Fmt 4.6, Leading zero omitted, Abs format (unit mm)*
G04 Created by KiCad (PCBNEW 8.0.8) date 2025-04-16 08:52:23*
%MOMM*%
%LPD*%
G01*
G04 APERTURE LIST*
G04 Aperture macros list*
%AMRoundRect*
0 Rectangle with rounded corners*
0 $1 Rounding radius*
0 $2 $3 $4 $5 $6 $7 $8 $9 X,Y pos of 4 corners*
0 Add a 4 corners polygon primitive as box body*
4,1,4,$2,$3,$4,$5,$6,$7,$8,$9,$2,$3,0*
0 Add four circle primitives for the rounded corners*
1,1,$1+$1,$2,$3*
1,1,$1+$1,$4,$5*
1,1,$1+$1,$6,$7*
1,1,$1+$1,$8,$9*
0 Add four rect primitives between the rounded corners*
20,1,$1+$1,$2,$3,$4,$5,0*
20,1,$1+$1,$4,$5,$6,$7,0*
20,1,$1+$1,$6,$7,$8,$9,0*
20,1,$1+$1,$8,$9,$2,$3,0*%
%AMFreePoly0*
4,1,14,0.800000,-1.200000,-0.787300,-1.200000,-0.791020,-1.208980,-0.800000,-1.212700,-1.600000,-1.212700,-1.608980,-1.208980,-1.612700,-1.200000,-1.612700,0.400000,-1.608980,0.408980,-1.600000,0.412700,-0.800000,0.412700,-0.800000,1.200000,0.800000,1.200000,0.800000,-1.200000,0.800000,-1.200000,$1*%
%AMFreePoly1*
4,1,14,0.800000,0.412700,1.600000,0.412700,1.608980,0.408980,1.612700,0.400000,1.612700,-1.200000,1.608980,-1.208980,1.600000,-1.212700,0.800000,-1.212700,0.791020,-1.208980,0.787300,-1.200000,-0.800000,-1.200000,-0.800000,1.200000,0.800000,1.200000,0.800000,0.412700,0.800000,0.412700,$1*%
G04 Aperture macros list end*
%TA.AperFunction,SMDPad,CuDef*%
%ADD10R,1.300000X3.400000*%
%TD*%
%TA.AperFunction,SMDPad,CuDef*%
%ADD11R,1.054100X0.508000*%
%TD*%
%TA.AperFunction,SMDPad,CuDef*%
%ADD12R,1.200000X0.300000*%
%TD*%
%TA.AperFunction,SMDPad,CuDef*%
%ADD13FreePoly0,90.000000*%
%TD*%
%TA.AperFunction,SMDPad,CuDef*%
%ADD14FreePoly1,90.000000*%
%TD*%
%TA.AperFunction,SMDPad,CuDef*%
%ADD15RoundRect,0.140000X0.140000X0.170000X-0.140000X0.170000X-0.140000X-0.170000X0.140000X-0.170000X0*%
%TD*%
%TA.AperFunction,SMDPad,CuDef*%
%ADD16RoundRect,0.112500X0.187500X0.112500X-0.187500X0.112500X-0.187500X-0.112500X0.187500X-0.112500X0*%
%TD*%
%TA.AperFunction,SMDPad,CuDef*%
%ADD17RoundRect,0.200000X0.275000X-0.200000X0.275000X0.200000X-0.275000X0.200000X-0.275000X-0.200000X0*%
%TD*%
%TA.AperFunction,SMDPad,CuDef*%
%ADD18RoundRect,0.225000X-0.250000X0.225000X-0.250000X-0.225000X0.250000X-0.225000X0.250000X0.225000X0*%
%TD*%
%TA.AperFunction,ComponentPad*%
%ADD19R,1.700000X1.700000*%
%TD*%
%TA.AperFunction,ComponentPad*%
%ADD20O,1.700000X1.700000*%
%TD*%
%TA.AperFunction,ViaPad*%
%ADD21C,0.600000*%
%TD*%
%TA.AperFunction,Conductor*%
%ADD22C,0.200000*%
%TD*%
%TA.AperFunction,Conductor*%
%ADD23C,0.300000*%
%TD*%
G04 APERTURE END LIST*
D10*
%TO.P,L1,1,1*%
%TO.N,+3.3V*%
X63700000Y-62250000D03*
%TO.P,L1,2,2*%
%TO.N,Net-(D1-A)*%
X65800000Y-62250000D03*
%TD*%
D11*
%TO.P,U1,1,SW*%
%TO.N,Net-(D1-A)*%
X66178750Y-58700001D03*
%TO.P,U1,2,GND*%
%TO.N,GND*%
X66178750Y-57750000D03*
%TO.P,U1,3,VFB*%
%TO.N,DISP_LEDK*%
X66178750Y-56799999D03*
%TO.P,U1,4,EN*%
%TO.N,DISP_BL*%
X63321250Y-56799999D03*
%TO.P,U1,5,VIN*%
%TO.N,+3.3V*%
X63321250Y-58700001D03*
%TD*%
D12*
%TO.P,J1,1,GND*%
%TO.N,GND*%
X72000000Y-44250020D03*
%TO.P,J1,2,VCI*%
%TO.N,+3.3V*%
X72000000Y-44750020D03*
%TO.P,J1,3,IOVCC*%
X72000000Y-45250020D03*
%TO.P,J1,4,IM2*%
%TO.N,GND*%
X72000000Y-45750000D03*
%TO.P,J1,5,IM1*%
X72000000Y-46250000D03*
%TO.P,J1,6,IM0*%
%TO.N,+3.3V*%
X72000000Y-46750000D03*
%TO.P,J1,7,RESET*%
%TO.N,DISP_RES*%
X72000000Y-47250000D03*
%TO.P,J1,8,CS*%
%TO.N,DISP_CS*%
X72000000Y-47750000D03*
%TO.P,J1,9,DC*%
%TO.N,DISP_DC*%
X72000000Y-48250000D03*
%TO.P,J1,10,WR*%
%TO.N,DISP_WR*%
X72000000Y-48750000D03*
%TO.P,J1,11,RD*%
%TO.N,DISP_RD*%
X72000000Y-49250000D03*
%TO.P,J1,12,VSYNC*%
%TO.N,GND*%
X72000000Y-49750000D03*
%TO.P,J1,13,HSYNC*%
X72000000Y-50250000D03*
%TO.P,J1,14,ENABLE*%
X72000000Y-50750000D03*
%TO.P,J1,15,DOTCLK*%
X72000000Y-51250000D03*
%TO.P,J1,16,SDA*%
X72000000Y-51750000D03*
%TO.P,J1,17,DB0*%
%TO.N,DISP_DB0*%
X72000000Y-52250000D03*
%TO.P,J1,18,DB1*%
%TO.N,DISP_DB1*%
X72000000Y-52750000D03*
%TO.P,J1,19,DB2*%
%TO.N,DISP_DB2*%
X72000000Y-53250000D03*
%TO.P,J1,20,DB3*%
%TO.N,DISP_DB3*%
X72000000Y-53750000D03*
%TO.P,J1,21,DB4*%
%TO.N,DISP_DB4*%
X72000000Y-54250000D03*
%TO.P,J1,22,DB5*%
%TO.N,DISP_DB5*%
X72000000Y-54749998D03*
%TO.P,J1,23,DB6*%
%TO.N,DISP_DB6*%
X72000000Y-55249998D03*
%TO.P,J1,24,DB7*%
%TO.N,DISP_DB7*%
X72000000Y-55749998D03*
%TO.P,J1,25,DB8*%
%TO.N,DISP_DB8*%
X72000000Y-56249998D03*
%TO.P,J1,26,DB9*%
%TO.N,DISP_DB9*%
X72000000Y-56750000D03*
%TO.P,J1,27,DB10*%
%TO.N,DISP_DB10*%
X72000000Y-57250000D03*
%TO.P,J1,28,DB11*%
%TO.N,DISP_DB11*%
X72000000Y-57750000D03*
%TO.P,J1,29,DB12*%
%TO.N,DISP_DB12*%
X72000000Y-58250000D03*
%TO.P,J1,30,DB13*%
%TO.N,DISP_DB13*%
X72000000Y-58750000D03*
%TO.P,J1,31,DB14*%
%TO.N,DISP_DB14*%
X72000000Y-59250000D03*
%TO.P,J1,32,DB15*%
%TO.N,DISP_DB15*%
X72000000Y-59750000D03*
%TO.P,J1,33,DB16*%
%TO.N,unconnected-(J1-DB16-Pad33)*%
X72000000Y-60250000D03*
%TO.P,J1,34,DB17*%
%TO.N,unconnected-(J1-DB17-Pad34)*%
X72000000Y-60750000D03*
%TO.P,J1,35,SDO*%
%TO.N,unconnected-(J1-SDO-Pad35)*%
X72000000Y-61250000D03*
%TO.P,J1,36,LEDA*%
%TO.N,DISP_LEDA*%
X72000000Y-61750000D03*
%TO.P,J1,37,LEDK1*%
%TO.N,DISP_LEDK*%
X72000000Y-62250000D03*
%TO.P,J1,38,LEDK2*%
X72000000Y-62750000D03*
%TO.P,J1,39,LEDK3*%
X72000000Y-63250000D03*
%TO.P,J1,40,LEDK4*%
X72000000Y-63750000D03*
%TO.P,J1,41,XR(NC)*%
%TO.N,unconnected-(J1-XR(NC)-Pad41)*%
X72000000Y-64250000D03*
%TO.P,J1,42,YU(NC)*%
%TO.N,unconnected-(J1-YU(NC)-Pad42)*%
X72000000Y-64750000D03*
%TO.P,J1,43,XL(NC)*%
%TO.N,unconnected-(J1-XL(NC)-Pad43)*%
X72000000Y-65250000D03*
%TO.P,J1,44,YD(NC)*%
%TO.N,unconnected-(J1-YD(NC)-Pad44)*%
X72000000Y-65750020D03*
%TO.P,J1,45,GND*%
%TO.N,GND*%
X72000000Y-66250020D03*
D13*
%TO.P,J1,P1*%
X74699590Y-67950020D03*
D14*
%TO.P,J1,P2*%
X74697990Y-42550020D03*
%TD*%
D15*
%TO.P,C2,1*%
%TO.N,DISP_LEDA*%
X69480000Y-60000000D03*
%TO.P,C2,2*%
%TO.N,GND*%
X68520000Y-60000000D03*
%TD*%
D16*
%TO.P,D1,1,K*%
%TO.N,DISP_LEDA*%
X69550000Y-61750000D03*
%TO.P,D1,2,A*%
%TO.N,Net-(D1-A)*%
X67450000Y-61750000D03*
%TD*%
D17*
%TO.P,R1,1*%
%TO.N,GND*%
X68000000Y-57575000D03*
%TO.P,R1,2*%
%TO.N,DISP_LEDK*%
X68000000Y-55925000D03*
%TD*%
D18*
%TO.P,C1,1*%
%TO.N,+3.3V*%
X61750000Y-59475000D03*
%TO.P,C1,2*%
%TO.N,GND*%
X61750000Y-61025000D03*
%TD*%
D19*
%TO.P,J3,1,Pin_1*%
%TO.N,+3.3V*%
X58000000Y-41970000D03*
D20*
%TO.P,J3,2,Pin_2*%
%TO.N,GND*%
X55460000Y-41970000D03*
%TO.P,J3,3,Pin_3*%
%TO.N,DISP_DB6*%
X58000000Y-44510000D03*
%TO.P,J3,4,Pin_4*%
%TO.N,DISP_RES*%
X55460000Y-44510000D03*
%TO.P,J3,5,Pin_5*%
%TO.N,DISP_DB7*%
X58000000Y-47050000D03*
%TO.P,J3,6,Pin_6*%
%TO.N,DISP_CS*%
X55460000Y-47050000D03*
%TO.P,J3,7,Pin_7*%
%TO.N,DISP_DB8*%
X58000000Y-49590000D03*
%TO.P,J3,8,Pin_8*%
%TO.N,DISP_DC*%
X55460000Y-49590000D03*
%TO.P,J3,9,Pin_9*%
%TO.N,DISP_DB9*%
X58000000Y-52130000D03*
%TO.P,J3,10,Pin_10*%
%TO.N,DISP_WR*%
X55460000Y-52130000D03*
%TO.P,J3,11,Pin_11*%
%TO.N,DISP_DB10*%
X58000000Y-54670000D03*
%TO.P,J3,12,Pin_12*%
%TO.N,DISP_RD*%
X55460000Y-54670000D03*
%TO.P,J3,13,Pin_13*%
%TO.N,DISP_DB11*%
X58000000Y-57210000D03*
%TO.P,J3,14,Pin_14*%
%TO.N,DISP_DB0*%
X55460000Y-57210000D03*
%TO.P,J3,15,Pin_15*%
%TO.N,DISP_DB12*%
X58000000Y-59750000D03*
%TO.P,J3,16,Pin_16*%
%TO.N,DISP_DB1*%
X55460000Y-59750000D03*
%TO.P,J3,17,Pin_17*%
%TO.N,DISP_DB13*%
X58000000Y-62290000D03*
%TO.P,J3,18,Pin_18*%
%TO.N,DISP_DB2*%
X55460000Y-62290000D03*
%TO.P,J3,19,Pin_19*%
%TO.N,DISP_DB14*%
X58000000Y-64830000D03*
%TO.P,J3,20,Pin_20*%
%TO.N,DISP_DB3*%
X55460000Y-64830000D03*
%TO.P,J3,21,Pin_21*%
%TO.N,DISP_DB15*%
X58000000Y-67370000D03*
%TO.P,J3,22,Pin_22*%
%TO.N,DISP_DB4*%
X55460000Y-67370000D03*
%TO.P,J3,23,Pin_23*%
%TO.N,DISP_BL*%
X58000000Y-69910000D03*
%TO.P,J3,24,Pin_24*%
%TO.N,DISP_DB5*%
X55460000Y-69910000D03*
%TD*%
D21*
%TO.N,GND*%
X70500000Y-43250000D03*
X64750000Y-59000000D03*
X68750000Y-50750000D03*
X73750000Y-47000000D03*
X70250000Y-65500000D03*
X62000000Y-62250000D03*
%TO.N,+3.3V*%
X70600010Y-46099990D03*
%TO.N,DISP_LEDA*%
X73100000Y-61900000D03*
%TO.N,DISP_LEDK*%
X73100000Y-63000000D03*
X67250000Y-60000000D03*
X65000000Y-56750000D03*
%TO.N,DISP_RES*%
X73096164Y-47250000D03*
%TO.N,DISP_DB3*%
X74446610Y-54462712D03*
%TO.N,DISP_DB10*%
X69673020Y-58218931D03*
%TO.N,DISP_WR*%
X74150000Y-49450000D03*
%TO.N,DISP_DB2*%
X74500000Y-53700000D03*
%TO.N,DISP_DB12*%
X70164277Y-59292831D03*
%TO.N,DISP_DB9*%
X69250000Y-57500000D03*
%TO.N,DISP_CS*%
X74107108Y-47992892D03*
%TO.N,DISP_DB4*%
X73900000Y-54900000D03*
%TO.N,DISP_DB5*%
X73300000Y-55300000D03*
%TO.N,DISP_DB6*%
X69750000Y-55349978D03*
%TO.N,DISP_DB11*%
X69500000Y-59000000D03*
%TO.N,DISP_DB14*%
X73950184Y-59750000D03*
%TO.N,DISP_DB8*%
X69549060Y-56628540D03*
%TO.N,DISP_DB1*%
X74503554Y-52996446D03*
%TO.N,DISP_DB15*%
X73250000Y-60250000D03*
%TO.N,DISP_DB7*%
X69125317Y-55949978D03*
%TO.N,DISP_DC*%
X74103554Y-48696446D03*
%TO.N,DISP_RD*%
X73400000Y-49500000D03*
%TO.N,DISP_DB0*%
X74499383Y-52296456D03*
%TO.N,DISP_DB13*%
X74542048Y-59211762D03*
%TO.N,DISP_BL*%
X62000000Y-58000000D03*
%TD*%
D22*
%TO.N,GND*%
X72000000Y-44250000D02*
X71500000Y-44250000D01*
X72499980Y-45749980D02*
X73750000Y-47000000D01*
X72000000Y-45749980D02*
X72499980Y-45749980D01*
X72000000Y-66250000D02*
X71000000Y-66250000D01*
X72000000Y-51749980D02*
X72000000Y-49749980D01*
X72000000Y-45749980D02*
X72000000Y-46249980D01*
X71000000Y-66250000D02*
X70250000Y-65500000D01*
X71500000Y-44250000D02*
X70500000Y-43250000D01*
D23*
%TO.N,+3.3V*%
X71250000Y-46749980D02*
X70600010Y-46099990D01*
X76000000Y-63500000D02*
X76000000Y-47000000D01*
X66200000Y-66750000D02*
X72750000Y-66750000D01*
X70499980Y-45249980D02*
X72002010Y-45249980D01*
X72750000Y-66750000D02*
X76000000Y-63500000D01*
X73749980Y-44750020D02*
X72000000Y-44750020D01*
X69750000Y-44750000D02*
X70000000Y-44750000D01*
X76000000Y-47000000D02*
X73750000Y-44750000D01*
X63321250Y-58700001D02*
X63321250Y-61871250D01*
X63321250Y-58700001D02*
X62274999Y-58700001D01*
X72002010Y-44750000D02*
X69750000Y-44750000D01*
X70000000Y-44750000D02*
X70499980Y-45249980D01*
X63700000Y-64250000D02*
X66200000Y-66750000D01*
X62274999Y-58700001D02*
X61500000Y-59475000D01*
X60780000Y-44750000D02*
X58000000Y-41970000D01*
X63321250Y-61871250D02*
X63700000Y-62250000D01*
X73750000Y-44750000D02*
X73749980Y-44750020D01*
X69750000Y-44750000D02*
X60780000Y-44750000D01*
X63700000Y-62250000D02*
X63700000Y-64250000D01*
X70600010Y-46099990D02*
X70499980Y-45999960D01*
X70499980Y-45999960D02*
X70499980Y-45249980D01*
X72002010Y-46749980D02*
X71250000Y-46749980D01*
D22*
%TO.N,DISP_LEDA*%
X72000000Y-61750000D02*
X72950000Y-61750000D01*
D23*
X69550000Y-61750000D02*
X72001990Y-61750000D01*
D22*
X72950000Y-61750000D02*
X73100000Y-61900000D01*
D23*
X69550000Y-61750000D02*
X69550000Y-60070000D01*
X69550000Y-60070000D02*
X69480000Y-60000000D01*
%TO.N,DISP_LEDK*%
X67250000Y-60000000D02*
X67421404Y-60000000D01*
X65000000Y-56750000D02*
X65049999Y-56799999D01*
X67421404Y-60000000D02*
X69000000Y-61578596D01*
D22*
X72850000Y-62750000D02*
X73100000Y-63000000D01*
D23*
X67175000Y-56750000D02*
X68000000Y-55925000D01*
X65049999Y-56799999D02*
X66178750Y-56799999D01*
X69734210Y-62749980D02*
X72002010Y-62749980D01*
X69000000Y-61578596D02*
X69000000Y-62015770D01*
X72002010Y-63749980D02*
X72002010Y-62250000D01*
X65000000Y-56750000D02*
X67175000Y-56750000D01*
X69000000Y-62015770D02*
X69734210Y-62749980D01*
D22*
X72000000Y-62750000D02*
X72850000Y-62750000D01*
%TO.N,DISP_RES*%
X56720000Y-43250000D02*
X55460000Y-44510000D01*
X72000000Y-47250000D02*
X73096164Y-47250000D01*
X72002010Y-47249980D02*
X62643584Y-47249980D01*
X58643604Y-43250000D02*
X56720000Y-43250000D01*
X62643584Y-47249980D02*
X58643604Y-43250000D01*
%TO.N,DISP_DB3*%
X55460000Y-64830000D02*
X56850000Y-63440000D01*
X56850000Y-63440000D02*
X58476346Y-63440000D01*
X72000000Y-53750000D02*
X73733898Y-53750000D01*
X58476346Y-63440000D02*
X60000000Y-61916346D01*
X60000000Y-61916346D02*
X60000000Y-57250000D01*
X73733898Y-53750000D02*
X74446610Y-54462712D01*
X60000000Y-57250000D02*
X63500020Y-53749980D01*
X63500020Y-53749980D02*
X72002010Y-53749980D01*
%TO.N,DISP_DB10*%
X70641971Y-57249980D02*
X72002010Y-57249980D01*
X69673020Y-58218931D02*
X70641971Y-57249980D01*
%TO.N,DISP_WR*%
X56610000Y-50980000D02*
X55460000Y-52130000D01*
X72002010Y-48749980D02*
X60500020Y-48749980D01*
X74150000Y-49450000D02*
X73450000Y-48750000D01*
X73450000Y-48750000D02*
X72000000Y-48750000D01*
X58270000Y-50980000D02*
X56610000Y-50980000D01*
X60500020Y-48749980D02*
X58270000Y-50980000D01*
%TO.N,DISP_DB2*%
X59550000Y-56950000D02*
X63250020Y-53249980D01*
X59550000Y-59826346D02*
X59550000Y-56950000D01*
X56850000Y-60900000D02*
X58476346Y-60900000D01*
X63250020Y-53249980D02*
X72002010Y-53249980D01*
X74050000Y-53250000D02*
X74500000Y-53700000D01*
X58476346Y-60900000D02*
X59550000Y-59826346D01*
X72000000Y-53250000D02*
X74050000Y-53250000D01*
X55460000Y-62290000D02*
X56850000Y-60900000D01*
%TO.N,DISP_DB12*%
X70164277Y-59292831D02*
X70164277Y-59235703D01*
X70164277Y-59235703D02*
X71150000Y-58249980D01*
X71150000Y-58249980D02*
X72002010Y-58249980D01*
%TO.N,DISP_DB9*%
X70576285Y-56749980D02*
X72000000Y-56749980D01*
X69826265Y-57500000D02*
X70576285Y-56749980D01*
X69250000Y-57500000D02*
X69826265Y-57500000D01*
%TO.N,DISP_CS*%
X73864216Y-47750000D02*
X72000000Y-47750000D01*
X60326326Y-47749980D02*
X58326346Y-45750000D01*
X72002010Y-47749980D02*
X60326326Y-47749980D01*
X56760000Y-45750000D02*
X55460000Y-47050000D01*
X58326346Y-45750000D02*
X56760000Y-45750000D01*
X74107108Y-47992892D02*
X73864216Y-47750000D01*
%TO.N,DISP_DB4*%
X72000000Y-54250000D02*
X73250000Y-54250000D01*
X73250000Y-54250000D02*
X73900000Y-54900000D01*
X60400000Y-57600000D02*
X63750020Y-54249980D01*
X55460000Y-67370000D02*
X56610000Y-66220000D01*
X60400000Y-64056346D02*
X60400000Y-57600000D01*
X56610000Y-66220000D02*
X58236346Y-66220000D01*
X58236346Y-66220000D02*
X60400000Y-64056346D01*
X63750020Y-54249980D02*
X72002010Y-54249980D01*
%TO.N,DISP_DB5*%
X55460000Y-69910000D02*
X56610000Y-68760000D01*
X58240000Y-68760000D02*
X60800000Y-66200000D01*
X64000022Y-54749978D02*
X72002010Y-54749978D01*
X60800000Y-57950000D02*
X64000022Y-54749978D01*
X60800000Y-66200000D02*
X60800000Y-57950000D01*
X72749998Y-54749998D02*
X73300000Y-55300000D01*
X56610000Y-68760000D02*
X58240000Y-68760000D01*
X72000000Y-54749998D02*
X72749998Y-54749998D01*
%TO.N,DISP_DB6*%
X69850000Y-55249978D02*
X72002010Y-55249978D01*
X69750000Y-55349978D02*
X69850000Y-55249978D01*
%TO.N,DISP_DB11*%
X71000020Y-57749980D02*
X72002010Y-57749980D01*
X69750000Y-59000000D02*
X71000020Y-57749980D01*
X69500000Y-59000000D02*
X69750000Y-59000000D01*
%TO.N,DISP_DB14*%
X73950184Y-59750000D02*
X73450164Y-59249980D01*
X73450164Y-59249980D02*
X72002010Y-59249980D01*
%TO.N,DISP_DB8*%
X69885653Y-56628540D02*
X70264215Y-56249978D01*
X69549060Y-56628540D02*
X69885653Y-56628540D01*
X70264215Y-56249978D02*
X72002010Y-56249978D01*
%TO.N,DISP_DB1*%
X59150000Y-56518173D02*
X59150000Y-57686346D01*
X62918193Y-52749980D02*
X59150000Y-56518173D01*
X59150000Y-57686346D02*
X58336346Y-58500000D01*
X72002010Y-52749980D02*
X62918193Y-52749980D01*
X72000000Y-52750000D02*
X74257108Y-52750000D01*
X56710000Y-58500000D02*
X55460000Y-59750000D01*
X58336346Y-58500000D02*
X56710000Y-58500000D01*
X74257108Y-52750000D02*
X74503554Y-52996446D01*
%TO.N,DISP_DB15*%
X72749980Y-59749980D02*
X72002010Y-59749980D01*
X73250000Y-60250000D02*
X72749980Y-59749980D01*
%TO.N,DISP_DB7*%
X69125317Y-55949978D02*
X69998529Y-55949978D01*
X69998529Y-55949978D02*
X70198529Y-55749978D01*
X70198529Y-55749978D02*
X72002010Y-55749978D01*
%TO.N,DISP_DC*%
X56800020Y-48249980D02*
X55460000Y-49590000D01*
X73657108Y-48250000D02*
X72000000Y-48250000D01*
X74103554Y-48696446D02*
X73657108Y-48250000D01*
X72002010Y-48249980D02*
X56800020Y-48249980D01*
%TO.N,DISP_RD*%
X73400000Y-49500000D02*
X73150000Y-49250000D01*
X58256346Y-53500000D02*
X56630000Y-53500000D01*
X72002010Y-49249980D02*
X62506366Y-49249980D01*
X56630000Y-53500000D02*
X55460000Y-54670000D01*
X73150000Y-49250000D02*
X72000000Y-49250000D01*
X62506366Y-49249980D02*
X58256346Y-53500000D01*
%TO.N,DISP_DB0*%
X72000000Y-52250000D02*
X74452927Y-52250000D01*
X56850000Y-55820000D02*
X58930000Y-55820000D01*
X62500020Y-52249980D02*
X72002010Y-52249980D01*
X74452927Y-52250000D02*
X74499383Y-52296456D01*
X55460000Y-57210000D02*
X56850000Y-55820000D01*
X58930000Y-55820000D02*
X62500020Y-52249980D01*
%TO.N,DISP_DB13*%
X74080266Y-58749980D02*
X72002010Y-58749980D01*
X74542048Y-59211762D02*
X74080266Y-58749980D01*
%TO.N,DISP_BL*%
X62121249Y-58000000D02*
X63321250Y-56799999D01*
X62000000Y-58000000D02*
X62121249Y-58000000D01*
D23*
%TO.N,Net-(D1-A)*%
X66300000Y-61750000D02*
X65800000Y-62250000D01*
X66178750Y-58700001D02*
X66178750Y-61871250D01*
X66178750Y-61871250D02*
X65800000Y-62250000D01*
X67450000Y-61750000D02*
X66300000Y-61750000D01*
%TD*%
%TA.AperFunction,Conductor*%
%TO.N,GND*%
G36*
X68338790Y-62159165D02*
G01*
X68375684Y-62208376D01*
X68423533Y-62323895D01*
X68441454Y-62350715D01*
X68494132Y-62429555D01*
X68494726Y-62430443D01*
X69319538Y-63255255D01*
X69319541Y-63255257D01*
X69372287Y-63290500D01*
X69426083Y-63326445D01*
X69544466Y-63375481D01*
X69544470Y-63375481D01*
X69544471Y-63375482D01*
X69670138Y-63400480D01*
X69670141Y-63400480D01*
X69798279Y-63400480D01*
X70777757Y-63400480D01*
X70844796Y-63420165D01*
X70890551Y-63472969D01*
X70901047Y-63537732D01*
X70899500Y-63552120D01*
X70899500Y-63947869D01*
X70899501Y-63947878D01*
X70903679Y-63986745D01*
X70903679Y-64013250D01*
X70899500Y-64052122D01*
X70899500Y-64447869D01*
X70899501Y-64447878D01*
X70903679Y-64486745D01*
X70903679Y-64513250D01*
X70899500Y-64552122D01*
X70899500Y-64947869D01*
X70899501Y-64947878D01*
X70903679Y-64986745D01*
X70903679Y-65013250D01*
X70899500Y-65052122D01*
X70899500Y-65447869D01*
X70899501Y-65447880D01*
X70903680Y-65486756D01*
X70903680Y-65513260D01*
X70899500Y-65552142D01*
X70899500Y-65947890D01*
X70899501Y-65947894D01*
X70901044Y-65962246D01*
X70888637Y-66031006D01*
X70841026Y-66082143D01*
X70777754Y-66099500D01*
X66520808Y-66099500D01*
X66453769Y-66079815D01*
X66433127Y-66063181D01*
X65032126Y-64662180D01*
X64998641Y-64600857D01*
X65003625Y-64531165D01*
X65045497Y-64475232D01*
X65110961Y-64450815D01*
X65119779Y-64450499D01*
X66497872Y-64450499D01*
X66557483Y-64444091D01*
X66692331Y-64393796D01*
X66807546Y-64307546D01*
X66893796Y-64192331D01*
X66944091Y-64057483D01*
X66950500Y-63997873D01*
X66950500Y-62575354D01*
X66970185Y-62508315D01*
X67022989Y-62462560D01*
X67092147Y-62452616D01*
X67109094Y-62456277D01*
X67165844Y-62472765D01*
X67200595Y-62475500D01*
X67699404Y-62475499D01*
X67734156Y-62472765D01*
X67882887Y-62429555D01*
X68016198Y-62350715D01*
X68125715Y-62241198D01*
X68154391Y-62192708D01*
X68205458Y-62145025D01*
X68274200Y-62132520D01*
X68338790Y-62159165D01*
G37*
%TD.AperFunction*%
%TA.AperFunction,Conductor*%
G36*
X68627327Y-56824858D02*
G01*
X68657395Y-56887927D01*
X68648593Y-56957240D01*
X68622652Y-56995269D01*
X68620187Y-56997733D01*
X68620184Y-56997737D01*
X68524211Y-57150476D01*
X68464631Y-57320745D01*
X68464630Y-57320750D01*
X68444435Y-57499996D01*
X68444435Y-57500003D01*
X68464630Y-57679249D01*
X68464631Y-57679254D01*
X68524211Y-57849523D01*
X68584519Y-57945502D01*
X68620184Y-58002262D01*
X68747738Y-58129816D01*
X68815207Y-58172210D01*
X68861498Y-58224543D01*
X68872455Y-58263319D01*
X68887650Y-58398182D01*
X68888234Y-58400736D01*
X68888130Y-58402434D01*
X68888431Y-58405105D01*
X68887963Y-58405157D01*
X68883965Y-58470475D01*
X68872339Y-58494308D01*
X68774211Y-58650476D01*
X68714631Y-58820745D01*
X68714630Y-58820750D01*
X68694435Y-58999996D01*
X68694435Y-59000003D01*
X68714630Y-59179249D01*
X68714631Y-59179254D01*
X68774212Y-59349525D01*
X68788497Y-59372260D01*
X68807497Y-59439497D01*
X68790236Y-59501351D01*
X68747504Y-59573608D01*
X68747504Y-59573609D01*
X68702357Y-59729002D01*
X68702356Y-59729008D01*
X68699500Y-59765302D01*
X68699500Y-60058788D01*
X68679815Y-60125827D01*
X68627011Y-60171582D01*
X68557853Y-60181526D01*
X68494297Y-60152501D01*
X68487819Y-60146469D01*
X67958552Y-59617202D01*
X67941239Y-59595493D01*
X67879816Y-59497738D01*
X67752262Y-59370184D01*
X67599523Y-59274211D01*
X67429254Y-59214631D01*
X67429250Y-59214630D01*
X67308960Y-59201077D01*
X67244546Y-59174010D01*
X67204991Y-59116415D01*
X67199555Y-59064600D01*
X67199889Y-59061487D01*
X67199891Y-59061484D01*
X67206300Y-59001874D01*
X67206299Y-58398129D01*
X67199891Y-58338518D01*
X67174134Y-58269461D01*
X67149597Y-58203672D01*
X67149593Y-58203665D01*
X67063347Y-58088456D01*
X67063344Y-58088453D01*
X66948135Y-58002207D01*
X66948128Y-58002203D01*
X66813282Y-57951909D01*
X66813283Y-57951909D01*
X66753683Y-57945502D01*
X66753681Y-57945501D01*
X66753673Y-57945501D01*
X66753664Y-57945501D01*
X65603829Y-57945501D01*
X65603823Y-57945502D01*
X65544216Y-57951909D01*
X65409371Y-58002203D01*
X65409364Y-58002207D01*
X65294155Y-58088453D01*
X65294152Y-58088456D01*
X65207906Y-58203665D01*
X65207902Y-58203672D01*
X65157610Y-58338514D01*
X65157609Y-58338518D01*
X65151200Y-58398128D01*
X65151200Y-58398135D01*
X65151200Y-58398136D01*
X65151200Y-59001871D01*
X65151201Y-59001877D01*
X65157608Y-59061484D01*
X65207902Y-59196329D01*
X65207906Y-59196336D01*
X65294152Y-59311545D01*
X65294155Y-59311548D01*
X65409366Y-59397795D01*
X65409367Y-59397795D01*
X65409369Y-59397797D01*
X65447583Y-59412049D01*
X65503515Y-59453918D01*
X65527934Y-59519382D01*
X65528250Y-59528231D01*
X65528250Y-59925500D01*
X65508565Y-59992539D01*
X65455761Y-60038294D01*
X65404250Y-60049500D01*
X65102130Y-60049500D01*
X65102123Y-60049501D01*
X65042516Y-60055908D01*
X64907671Y-60106202D01*
X64907669Y-60106203D01*
X64824311Y-60168606D01*
X64758847Y-60193023D01*
X64690574Y-60178172D01*
X64675689Y-60168606D01*
X64592330Y-60106203D01*
X64592328Y-60106202D01*
X64457482Y-60055908D01*
X64457483Y-60055908D01*
X64397883Y-60049501D01*
X64397881Y-60049500D01*
X64397873Y-60049500D01*
X64397865Y-60049500D01*
X64095750Y-60049500D01*
X64028711Y-60029815D01*
X63982956Y-59977011D01*
X63971750Y-59925500D01*
X63971750Y-59528231D01*
X63991435Y-59461192D01*
X64044239Y-59415437D01*
X64052396Y-59412057D01*
X64090631Y-59397797D01*
X64205846Y-59311547D01*
X64292096Y-59196332D01*
X64342391Y-59061484D01*
X64348800Y-59001874D01*
X64348799Y-58398129D01*
X64342391Y-58338518D01*
X64316634Y-58269461D01*
X64292097Y-58203672D01*
X64292093Y-58203665D01*
X64205847Y-58088456D01*
X64205844Y-58088453D01*
X64090635Y-58002207D01*
X64090628Y-58002203D01*
X63955782Y-57951909D01*
X63955783Y-57951909D01*
X63896183Y-57945502D01*
X63896181Y-57945501D01*
X63896173Y-57945501D01*
X63896165Y-57945501D01*
X63324345Y-57945501D01*
X63257306Y-57925816D01*
X63211551Y-57873012D01*
X63201607Y-57803854D01*
X63230632Y-57740298D01*
X63236664Y-57733820D01*
X63379667Y-57590817D01*
X63440990Y-57557332D01*
X63467348Y-57554498D01*
X63896171Y-57554498D01*
X63896172Y-57554498D01*
X63955783Y-57548090D01*
X64090631Y-57497795D01*
X64205846Y-57411545D01*
X64258635Y-57341026D01*
X64314567Y-57299158D01*
X64384258Y-57294174D01*
X64445581Y-57327659D01*
X64497738Y-57379816D01*
X64548238Y-57411547D01*
X64633921Y-57465386D01*
X64650478Y-57475789D01*
X64719678Y-57500003D01*
X64820745Y-57535368D01*
X64820750Y-57535369D01*
X64999996Y-57555565D01*
X65000000Y-57555565D01*
X65000004Y-57555565D01*
X65179249Y-57535369D01*
X65179251Y-57535368D01*
X65179255Y-57535368D01*
X65179258Y-57535366D01*
X65179262Y-57535366D01*
X65309418Y-57489822D01*
X65379196Y-57486259D01*
X65403367Y-57495557D01*
X65544217Y-57548090D01*
X65544216Y-57548090D01*
X65551144Y-57548834D01*
X65603827Y-57554499D01*
X66753672Y-57554498D01*
X66813283Y-57548090D01*
X66948131Y-57497795D01*
X67045061Y-57425232D01*
X67110525Y-57400816D01*
X67119372Y-57400500D01*
X67239071Y-57400500D01*
X67323615Y-57383682D01*
X67364744Y-57375501D01*
X67483127Y-57326465D01*
X67508432Y-57309557D01*
X67523996Y-57299158D01*
X67535511Y-57291463D01*
X67589669Y-57255277D01*
X67983127Y-56861819D01*
X68044450Y-56828334D01*
X68070808Y-56825500D01*
X68331613Y-56825500D01*
X68331616Y-56825500D01*
X68402196Y-56819086D01*
X68498076Y-56789208D01*
X68567935Y-56788057D01*
X68627327Y-56824858D01*
G37*
%TD.AperFunction*%
%TA.AperFunction,Conductor*%
G36*
X73496251Y-45420205D02*
G01*
X73516893Y-45436839D01*
X75313181Y-47233127D01*
X75346666Y-47294450D01*
X75349500Y-47320808D01*
X75349500Y-51716071D01*
X75329815Y-51783110D01*
X75277011Y-51828865D01*
X75207853Y-51838809D01*
X75144297Y-51809784D01*
X75132474Y-51797469D01*
X75001645Y-51666640D01*
X74848906Y-51570667D01*
X74678637Y-51511087D01*
X74678632Y-51511086D01*
X74499387Y-51490891D01*
X74499379Y-51490891D01*
X74320133Y-51511086D01*
X74320128Y-51511087D01*
X74149859Y-51570667D01*
X74054647Y-51630494D01*
X73988675Y-51649500D01*
X72846729Y-51649500D01*
X72803396Y-51641682D01*
X72707482Y-51605908D01*
X72707483Y-51605908D01*
X72647883Y-51599501D01*
X72647881Y-51599500D01*
X72647873Y-51599500D01*
X72647864Y-51599500D01*
X71352129Y-51599500D01*
X71352123Y-51599501D01*
X71292516Y-51605908D01*
X71196658Y-51641662D01*
X71153325Y-51649480D01*
X62586690Y-51649480D01*
X62586674Y-51649479D01*
X62579078Y-51649479D01*
X62420963Y-51649479D01*
X62356919Y-51666640D01*
X62268234Y-51690403D01*
X62268229Y-51690406D01*
X62131310Y-51769455D01*
X62131302Y-51769461D01*
X59514638Y-54386125D01*
X59453315Y-54419610D01*
X59383623Y-54414626D01*
X59327690Y-54372754D01*
X59307182Y-54330537D01*
X59273905Y-54206344D01*
X59273904Y-54206343D01*
X59273903Y-54206337D01*
X59174035Y-53992171D01*
X59038495Y-53798599D01*
X59038494Y-53798597D01*
X59010419Y-53770522D01*
X58976934Y-53709199D01*
X58981918Y-53639507D01*
X59010417Y-53595162D01*
X62718782Y-49886799D01*
X62780105Y-49853314D01*
X62806463Y-49850480D01*
X71153218Y-49850480D01*
X71196551Y-49858298D01*
X71292517Y-49894091D01*
X71292516Y-49894091D01*
X71299444Y-49894835D01*
X71352127Y-49900500D01*
X72637709Y-49900499D01*
X72704748Y-49920184D01*
X72742703Y-49958527D01*
X72770184Y-50002262D01*
X72897738Y-50129816D01*
X73050478Y-50225789D01*
X73170636Y-50267834D01*
X73220745Y-50285368D01*
X73220750Y-50285369D01*
X73399996Y-50305565D01*
X73400000Y-50305565D01*
X73400004Y-50305565D01*
X73579249Y-50285369D01*
X73579252Y-50285368D01*
X73579255Y-50285368D01*
X73749522Y-50225789D01*
X73768295Y-50213992D01*
X73835530Y-50194991D01*
X73875223Y-50201944D01*
X73970737Y-50235366D01*
X73970743Y-50235367D01*
X73970745Y-50235368D01*
X73970746Y-50235368D01*
X73970750Y-50235369D01*
X74149996Y-50255565D01*
X74150000Y-50255565D01*
X74150004Y-50255565D01*
X74329249Y-50235369D01*
X74329252Y-50235368D01*
X74329255Y-50235368D01*
X74499522Y-50175789D01*
X74652262Y-50079816D01*
X74779816Y-49952262D01*
X74875789Y-49799522D01*
X74935368Y-49629255D01*
X74942928Y-49562161D01*
X74955565Y-49450003D01*
X74955565Y-49449996D01*
X74935369Y-49270750D01*
X74935366Y-49270737D01*
X74875790Y-49100480D01*
X74875789Y-49100478D01*
X74865474Y-49084062D01*
X74846474Y-49016828D01*
X74853425Y-48977143D01*
X74888922Y-48875701D01*
X74909119Y-48696446D01*
X74888922Y-48517191D01*
X74844660Y-48390700D01*
X74841098Y-48320926D01*
X74844661Y-48308794D01*
X74892474Y-48172154D01*
X74892477Y-48172141D01*
X74912673Y-47992895D01*
X74912673Y-47992888D01*
X74892477Y-47813642D01*
X74892476Y-47813637D01*
X74832896Y-47643368D01*
X74751397Y-47513664D01*
X74736924Y-47490630D01*
X74609370Y-47363076D01*
X74542101Y-47320808D01*
X74456631Y-47267103D01*
X74286362Y-47207523D01*
X74286357Y-47207522D01*
X74107113Y-47187327D01*
X74100773Y-47187327D01*
X74068680Y-47183102D01*
X74021339Y-47170416D01*
X73968827Y-47156346D01*
X73909166Y-47119980D01*
X73886473Y-47076393D01*
X73883832Y-47077318D01*
X73835012Y-46937799D01*
X73821953Y-46900478D01*
X73725980Y-46747738D01*
X73598426Y-46620184D01*
X73587249Y-46613161D01*
X73445687Y-46524211D01*
X73275418Y-46464631D01*
X73275414Y-46464630D01*
X73150962Y-46450608D01*
X73086548Y-46423541D01*
X73048663Y-46370719D01*
X73043796Y-46357669D01*
X73043793Y-46357664D01*
X72957547Y-46242455D01*
X72957544Y-46242452D01*
X72842335Y-46156206D01*
X72842328Y-46156202D01*
X72735053Y-46116192D01*
X72679120Y-46074321D01*
X72654702Y-46008857D01*
X72669553Y-45940584D01*
X72718958Y-45891178D01*
X72735053Y-45883828D01*
X72842328Y-45843817D01*
X72842327Y-45843817D01*
X72842331Y-45843816D01*
X72957546Y-45757566D01*
X73043796Y-45642351D01*
X73094091Y-45507503D01*
X73094091Y-45507501D01*
X73095874Y-45499958D01*
X73098146Y-45500494D01*
X73120429Y-45446708D01*
X73177823Y-45406863D01*
X73216976Y-45400520D01*
X73429212Y-45400520D01*
X73496251Y-45420205D01*
G37*
%TD.AperFunction*%
%TA.AperFunction,Conductor*%
G36*
X74003032Y-39500648D02*
G01*
X74361433Y-39518256D01*
X74373541Y-39519448D01*
X74725475Y-39571653D01*
X74737389Y-39574023D01*
X75082520Y-39660473D01*
X75094147Y-39664000D01*
X75429151Y-39783867D01*
X75440363Y-39788511D01*
X75762012Y-39940639D01*
X75772720Y-39946363D01*
X76077881Y-40129270D01*
X76087999Y-40136030D01*
X76373769Y-40347971D01*
X76383175Y-40355691D01*
X76646790Y-40594618D01*
X76655381Y-40603209D01*
X76857883Y-40826635D01*
X76894308Y-40866824D01*
X76902028Y-40876230D01*
X77113969Y-41162000D01*
X77120729Y-41172118D01*
X77303629Y-41477267D01*
X77309366Y-41487999D01*
X77461485Y-41809629D01*
X77466136Y-41820858D01*
X77585994Y-42155837D01*
X77589526Y-42167481D01*
X77675973Y-42512597D01*
X77678347Y-42524532D01*
X77730550Y-42876457D01*
X77731743Y-42888567D01*
X77749351Y-43246966D01*
X77749500Y-43253051D01*
X77749500Y-68746948D01*
X77749351Y-68753033D01*
X77731743Y-69111432D01*
X77730550Y-69123542D01*
X77678347Y-69475467D01*
X77675973Y-69487402D01*
X77589526Y-69832518D01*
X77585994Y-69844162D01*
X77478207Y-70145408D01*
X77466142Y-70179127D01*
X77461485Y-70190370D01*
X77309366Y-70512000D01*
X77303629Y-70522732D01*
X77120729Y-70827881D01*
X77113969Y-70837999D01*
X76902028Y-71123769D01*
X76894308Y-71133175D01*
X76655388Y-71396783D01*
X76646783Y-71405388D01*
X76383175Y-71644308D01*
X76373769Y-71652028D01*
X76087999Y-71863969D01*
X76077881Y-71870729D01*
X75772732Y-72053629D01*
X75762000Y-72059366D01*
X75440370Y-72211485D01*
X75429134Y-72216139D01*
X75318365Y-72255773D01*
X75094162Y-72335994D01*
X75082518Y-72339526D01*
X74737402Y-72425973D01*
X74725467Y-72428347D01*
X74373542Y-72480550D01*
X74361432Y-72481743D01*
X74023927Y-72498324D01*
X74003031Y-72499351D01*
X73996949Y-72499500D01*
X56503051Y-72499500D01*
X56496968Y-72499351D01*
X56474856Y-72498264D01*
X56138567Y-72481743D01*
X56126457Y-72480550D01*
X55774532Y-72428347D01*
X55762597Y-72425973D01*
X55417481Y-72339526D01*
X55405837Y-72335994D01*
X55070858Y-72216136D01*
X55059629Y-72211485D01*
X54737999Y-72059366D01*
X54727272Y-72053631D01*
X54422118Y-71870729D01*
X54412000Y-71863969D01*
X54126230Y-71652028D01*
X54116824Y-71644308D01*
X54076635Y-71607883D01*
X53853209Y-71405381D01*
X53844618Y-71396790D01*
X53605691Y-71133175D01*
X53597971Y-71123769D01*
X53568500Y-71084032D01*
X53386028Y-70837996D01*
X53379270Y-70827881D01*
X53196363Y-70522720D01*
X53190639Y-70512012D01*
X53038511Y-70190363D01*
X53033867Y-70179151D01*
X52914000Y-69844147D01*
X52910473Y-69832518D01*
X52870913Y-69674586D01*
X52824023Y-69487389D01*
X52821652Y-69475467D01*
X52769449Y-69123542D01*
X52768256Y-69111431D01*
X52760689Y-68957411D01*
X52750649Y-68753032D01*
X52750500Y-68746948D01*
X52750500Y-44509999D01*
X54104341Y-44509999D01*
X54104341Y-44510000D01*
X54124936Y-44745403D01*
X54124938Y-44745413D01*
X54186094Y-44973655D01*
X54186096Y-44973659D01*
X54186097Y-44973663D01*
X54190000Y-44982032D01*
X54285965Y-45187830D01*
X54285967Y-45187834D01*
X54421501Y-45381395D01*
X54421506Y-45381402D01*
X54588597Y-45548493D01*
X54588603Y-45548498D01*
X54774158Y-45678425D01*
X54817783Y-45733002D01*
X54824977Y-45802500D01*
X54793454Y-45864855D01*
X54774158Y-45881575D01*
X54588597Y-46011505D01*
X54421505Y-46178597D01*
X54285965Y-46372169D01*
X54285964Y-46372171D01*
X54186098Y-46586335D01*
X54186094Y-46586344D01*
X54124938Y-46814586D01*
X54124936Y-46814596D01*
X54104341Y-47049999D01*
X54104341Y-47050000D01*
X54124936Y-47285403D01*
X54124938Y-47285413D01*
X54186094Y-47513655D01*
X54186096Y-47513659D01*
X54186097Y-47513663D01*
X54246580Y-47643368D01*
X54285965Y-47727830D01*
X54285967Y-47727834D01*
X54421501Y-47921395D01*
X54421506Y-47921402D01*
X54588597Y-48088493D01*
X54588603Y-48088498D01*
X54774158Y-48218425D01*
X54817783Y-48273002D01*
X54824977Y-48342500D01*
X54793454Y-48404855D01*
X54774158Y-48421575D01*
X54588597Y-48551505D01*
X54421505Y-48718597D01*
X54285965Y-48912169D01*
X54285964Y-48912171D01*
X54186098Y-49126335D01*
X54186094Y-49126344D01*
X54124938Y-49354586D01*
X54124936Y-49354596D01*
X54104341Y-49589999D01*
X54104341Y-49590000D01*
X54124936Y-49825403D01*
X54124938Y-49825413D01*
X54186094Y-50053655D01*
X54186096Y-50053659D01*
X54186097Y-50053663D01*
X54266361Y-50225789D01*
X54285965Y-50267830D01*
X54285967Y-50267834D01*
X54421501Y-50461395D01*
X54421506Y-50461402D01*
X54588597Y-50628493D01*
X54588603Y-50628498D01*
X54774158Y-50758425D01*
X54817783Y-50813002D01*
X54824977Y-50882500D01*
X54793454Y-50944855D01*
X54774158Y-50961575D01*
X54588597Y-51091505D01*
X54421505Y-51258597D01*
X54285965Y-51452169D01*
X54285964Y-51452171D01*
X54186098Y-51666335D01*
X54186094Y-51666344D01*
X54124938Y-51894586D01*
X54124936Y-51894596D01*
X54104341Y-52129999D01*
X54104341Y-52130000D01*
X54124936Y-52365403D01*
X54124938Y-52365413D01*
X54186094Y-52593655D01*
X54186096Y-52593659D01*
X54186097Y-52593663D01*
X54190000Y-52602032D01*
X54285965Y-52807830D01*
X54285967Y-52807834D01*
X54350152Y-52899499D01*
X54418035Y-52996446D01*
X54421501Y-53001395D01*
X54421506Y-53001402D01*
X54588597Y-53168493D01*
X54588603Y-53168498D01*
X54774158Y-53298425D01*
X54817783Y-53353002D01*
X54824977Y-53422500D01*
X54793454Y-53484855D01*
X54774158Y-53501575D01*
X54588597Y-53631505D01*
X54421505Y-53798597D01*
X54285965Y-53992169D01*
X54285964Y-53992171D01*
X54186098Y-54206335D01*
X54186094Y-54206344D01*
X54124938Y-54434586D01*
X54124936Y-54434596D01*
X54104341Y-54669999D01*
X54104341Y-54670000D01*
X54124936Y-54905403D01*
X54124938Y-54905413D01*
X54186094Y-55133655D01*
X54186096Y-55133659D01*
X54186097Y-55133663D01*
X54232594Y-55233376D01*
X54285965Y-55347830D01*
X54285967Y-55347834D01*
X54394281Y-55502521D01*
X54413392Y-55529815D01*
X54421501Y-55541395D01*
X54421506Y-55541402D01*
X54588597Y-55708493D01*
X54588603Y-55708498D01*
X54774158Y-55838425D01*
X54817783Y-55893002D01*
X54824977Y-55962500D01*
X54793454Y-56024855D01*
X54774158Y-56041575D01*
X54588597Y-56171505D01*
X54421505Y-56338597D01*
X54285965Y-56532169D01*
X54285964Y-56532171D01*
X54186098Y-56746335D01*
X54186094Y-56746344D01*
X54124938Y-56974586D01*
X54124936Y-56974596D01*
X54104341Y-57209999D01*
X54104341Y-57210000D01*
X54124936Y-57445403D01*
X54124938Y-57445413D01*
X54186094Y-57673655D01*
X54186096Y-57673659D01*
X54186097Y-57673663D01*
X54188705Y-57679255D01*
X54285965Y-57887830D01*
X54285967Y-57887834D01*
X54421501Y-58081395D01*
X54421506Y-58081402D01*
X54588597Y-58248493D01*
X54588603Y-58248498D01*
X54774158Y-58378425D01*
X54817783Y-58433002D01*
X54824977Y-58502500D01*
X54793454Y-58564855D01*
X54774158Y-58581575D01*
X54588597Y-58711505D01*
X54421505Y-58878597D01*
X54285965Y-59072169D01*
X54285964Y-59072171D01*
X54186098Y-59286335D01*
X54186094Y-59286344D01*
X54124938Y-59514586D01*
X54124936Y-59514596D01*
X54104341Y-59749999D01*
X54104341Y-59750000D01*
X54124936Y-59985403D01*
X54124938Y-59985413D01*
X54186094Y-60213655D01*
X54186096Y-60213659D01*
X54186097Y-60213663D01*
X54280145Y-60415348D01*
X54285965Y-60427830D01*
X54285967Y-60427834D01*
X54421501Y-60621395D01*
X54421506Y-60621402D01*
X54588597Y-60788493D01*
X54588603Y-60788498D01*
X54774158Y-60918425D01*
X54817783Y-60973002D01*
X54824977Y-61042500D01*
X54793454Y-61104855D01*
X54774158Y-61121575D01*
X54588597Y-61251505D01*
X54421505Y-61418597D01*
X54285965Y-61612169D01*
X54285964Y-61612171D01*
X54186098Y-61826335D01*
X54186094Y-61826344D01*
X54124938Y-62054586D01*
X54124936Y-62054596D01*
X54104341Y-62289999D01*
X54104341Y-62290000D01*
X54124936Y-62525403D01*
X54124938Y-62525413D01*
X54186094Y-62753655D01*
X54186096Y-62753659D01*
X54186097Y-62753663D01*
X54237127Y-62863097D01*
X54285965Y-62967830D01*
X54285967Y-62967834D01*
X54421501Y-63161395D01*
X54421506Y-63161402D01*
X54588597Y-63328493D01*
X54588603Y-63328498D01*
X54774158Y-63458425D01*
X54817783Y-63513002D01*
X54824977Y-63582500D01*
X54793454Y-63644855D01*
X54774158Y-63661575D01*
X54588597Y-63791505D01*
X54421505Y-63958597D01*
X54285965Y-64152169D01*
X54285964Y-64152171D01*
X54186098Y-64366335D01*
X54186094Y-64366344D01*
X54124938Y-64594586D01*
X54124936Y-64594596D01*
X54104341Y-64829999D01*
X54104341Y-64830000D01*
X54124936Y-65065403D01*
X54124938Y-65065413D01*
X54186094Y-65293655D01*
X54186096Y-65293659D01*
X54186097Y-65293663D01*
X54234096Y-65396596D01*
X54285965Y-65507830D01*
X54285967Y-65507834D01*
X54421501Y-65701395D01*
X54421506Y-65701402D01*
X54588597Y-65868493D01*
X54588603Y-65868498D01*
X54774158Y-65998425D01*
X54817783Y-66053002D01*
X54824977Y-66122500D01*
X54793454Y-66184855D01*
X54774158Y-66201575D01*
X54588597Y-66331505D01*
X54421505Y-66498597D01*
X54285965Y-66692169D01*
X54285964Y-66692171D01*
X54186098Y-66906335D01*
X54186094Y-66906344D01*
X54124938Y-67134586D01*
X54124936Y-67134596D01*
X54104341Y-67369999D01*
X54104341Y-67370000D01*
X54124936Y-67605403D01*
X54124938Y-67605413D01*
X54186094Y-67833655D01*
X54186096Y-67833659D01*
X54186097Y-67833663D01*
X54190000Y-67842032D01*
X54285965Y-68047830D01*
X54285967Y-68047834D01*
X54421501Y-68241395D01*
X54421506Y-68241402D01*
X54588597Y-68408493D01*
X54588603Y-68408498D01*
X54774158Y-68538425D01*
X54817783Y-68593002D01*
X54824977Y-68662500D01*
X54793454Y-68724855D01*
X54774158Y-68741575D01*
X54588597Y-68871505D01*
X54421505Y-69038597D01*
X54285965Y-69232169D01*
X54285964Y-69232171D01*
X54186098Y-69446335D01*
X54186094Y-69446344D01*
X54124938Y-69674586D01*
X54124936Y-69674596D01*
X54104341Y-69909999D01*
X54104341Y-69910000D01*
X54124936Y-70145403D01*
X54124938Y-70145413D01*
X54186094Y-70373655D01*
X54186096Y-70373659D01*
X54186097Y-70373663D01*
X54255609Y-70522732D01*
X54285965Y-70587830D01*
X54285967Y-70587834D01*
X54394281Y-70742521D01*
X54421505Y-70781401D01*
X54588599Y-70948495D01*
X54685384Y-71016265D01*
X54782165Y-71084032D01*
X54782167Y-71084033D01*
X54782170Y-71084035D01*
X54996337Y-71183903D01*
X55224592Y-71245063D01*
X55412918Y-71261539D01*
X55459999Y-71265659D01*
X55460000Y-71265659D01*
X55460001Y-71265659D01*
X55499234Y-71262226D01*
X55695408Y-71245063D01*
X55923663Y-71183903D01*
X56137830Y-71084035D01*
X56331401Y-70948495D01*
X56498495Y-70781401D01*
X56628425Y-70595842D01*
X56683002Y-70552217D01*
X56752500Y-70545023D01*
X56814855Y-70576546D01*
X56831575Y-70595842D01*
X56961500Y-70781395D01*
X56961505Y-70781401D01*
X57128599Y-70948495D01*
X57225384Y-71016265D01*
X57322165Y-71084032D01*
X57322167Y-71084033D01*
X57322170Y-71084035D01*
X57536337Y-71183903D01*
X57764592Y-71245063D01*
X57952918Y-71261539D01*
X57999999Y-71265659D01*
X58000000Y-71265659D01*
X58000001Y-71265659D01*
X58039234Y-71262226D01*
X58235408Y-71245063D01*
X58463663Y-71183903D01*
X58677830Y-71084035D01*
X58871401Y-70948495D01*
X59038495Y-70781401D01*
X59174035Y-70587830D01*
X59273903Y-70373663D01*
X59335063Y-70145408D01*
X59355659Y-69910000D01*
X59335063Y-69674592D01*
X59273903Y-69446337D01*
X59174035Y-69232171D01*
X59097973Y-69123542D01*
X59038494Y-69038597D01*
X59012246Y-69012349D01*
X58978761Y-68951026D01*
X58983745Y-68881334D01*
X59012244Y-68836990D01*
X61280520Y-66568716D01*
X61359577Y-66431784D01*
X61400501Y-66279057D01*
X61400501Y-66120942D01*
X61400501Y-66113347D01*
X61400500Y-66113329D01*
X61400500Y-60549499D01*
X61420185Y-60482460D01*
X61472989Y-60436705D01*
X61524495Y-60425499D01*
X62048344Y-60425499D01*
X62048352Y-60425498D01*
X62048355Y-60425498D01*
X62102760Y-60419940D01*
X62147708Y-60415349D01*
X62308697Y-60362003D01*
X62367294Y-60325859D01*
X62434684Y-60307419D01*
X62501348Y-60328341D01*
X62546118Y-60381982D01*
X62555679Y-60444650D01*
X62549500Y-60502127D01*
X62549500Y-60502134D01*
X62549500Y-60502135D01*
X62549500Y-63997870D01*
X62549501Y-63997876D01*
X62555908Y-64057483D01*
X62606202Y-64192328D01*
X62606206Y-64192335D01*
X62692452Y-64307544D01*
X62692455Y-64307547D01*
X62807664Y-64393793D01*
X62807671Y-64393797D01*
X62942516Y-64444091D01*
X63002107Y-64450498D01*
X63002109Y-64450498D01*
X63002127Y-64450500D01*
X63002143Y-64450499D01*
X63002639Y-64450527D01*
X63002756Y-64450568D01*
X63005431Y-64450856D01*
X63005363Y-64451487D01*
X63068536Y-64473752D01*
X63110599Y-64526897D01*
X63123534Y-64558126D01*
X63194726Y-64664673D01*
X65785326Y-67255273D01*
X65785329Y-67255275D01*
X65785331Y-67255277D01*
X65891873Y-67326465D01*
X66010256Y-67375501D01*
X66010260Y-67375501D01*
X66010261Y-67375502D01*
X66135928Y-67400500D01*
X66135931Y-67400500D01*
X72814071Y-67400500D01*
X72898615Y-67383682D01*
X72939744Y-67375501D01*
X73058127Y-67326465D01*
X73164669Y-67255277D01*
X76505277Y-63914669D01*
X76576465Y-63808127D01*
X76625501Y-63689744D01*
X76650500Y-63564069D01*
X76650500Y-46935931D01*
X76650500Y-46935928D01*
X76625502Y-46810261D01*
X76625501Y-46810260D01*
X76625501Y-46810256D01*
X76599605Y-46747738D01*
X76576466Y-46691874D01*
X76523872Y-46613161D01*
X76505278Y-46585332D01*
X76505272Y-46585325D01*
X74164673Y-44244726D01*
X74164669Y-44244723D01*
X74058127Y-44173535D01*
X73939744Y-44124499D01*
X73939736Y-44124497D01*
X73814073Y-44099501D01*
X73814069Y-44099501D01*
X73685931Y-44099501D01*
X73680064Y-44099501D01*
X73679675Y-44099520D01*
X72072348Y-44099520D01*
X72071939Y-44099500D01*
X72066079Y-44099500D01*
X69814069Y-44099500D01*
X61100808Y-44099500D01*
X61033769Y-44079815D01*
X61013127Y-44063181D01*
X59386818Y-42436872D01*
X59353333Y-42375549D01*
X59350499Y-42349191D01*
X59350499Y-41072129D01*
X59350498Y-41072123D01*
X59350497Y-41072116D01*
X59344091Y-41012517D01*
X59293796Y-40877669D01*
X59293795Y-40877668D01*
X59293793Y-40877664D01*
X59207547Y-40762455D01*
X59207544Y-40762452D01*
X59092335Y-40676206D01*
X59092328Y-40676202D01*
X58957482Y-40625908D01*
X58957483Y-40625908D01*
X58897883Y-40619501D01*
X58897881Y-40619500D01*
X58897873Y-40619500D01*
X58897864Y-40619500D01*
X57102129Y-40619500D01*
X57102123Y-40619501D01*
X57042516Y-40625908D01*
X56907671Y-40676202D01*
X56907664Y-40676206D01*
X56792455Y-40762452D01*
X56792452Y-40762455D01*
X56706206Y-40877664D01*
X56706202Y-40877671D01*
X56655908Y-41012517D01*
X56649501Y-41072116D01*
X56649501Y-41072123D01*
X56649500Y-41072135D01*
X56649500Y-42552058D01*
X56629815Y-42619097D01*
X56577011Y-42664852D01*
X56557594Y-42671833D01*
X56488210Y-42690424D01*
X56488209Y-42690425D01*
X56438096Y-42719359D01*
X56438095Y-42719360D01*
X56394689Y-42744420D01*
X56351285Y-42769479D01*
X56351282Y-42769481D01*
X56239478Y-42881286D01*
X55943530Y-43177233D01*
X55882207Y-43210718D01*
X55823756Y-43209327D01*
X55695413Y-43174938D01*
X55695403Y-43174936D01*
X55460001Y-43154341D01*
X55459999Y-43154341D01*
X55224596Y-43174936D01*
X55224586Y-43174938D01*
X54996344Y-43236094D01*
X54996335Y-43236098D01*
X54782171Y-43335964D01*
X54782169Y-43335965D01*
X54588597Y-43471505D01*
X54421505Y-43638597D01*
X54285965Y-43832169D01*
X54285964Y-43832171D01*
X54186098Y-44046335D01*
X54186094Y-44046344D01*
X54124938Y-44274586D01*
X54124936Y-44274596D01*
X54104341Y-44509999D01*
X52750500Y-44509999D01*
X52750500Y-43253051D01*
X52750649Y-43246967D01*
X52755199Y-43154341D01*
X52768256Y-42888564D01*
X52769449Y-42876457D01*
X52821654Y-42524520D01*
X52824022Y-42512613D01*
X52910475Y-42167473D01*
X52913998Y-42155858D01*
X53033869Y-41820840D01*
X53038508Y-41809643D01*
X53190643Y-41487979D01*
X53196358Y-41477287D01*
X53379278Y-41172105D01*
X53386021Y-41162012D01*
X53597979Y-40876219D01*
X53605682Y-40866834D01*
X53844628Y-40603198D01*
X53853198Y-40594628D01*
X54116834Y-40355682D01*
X54126219Y-40347979D01*
X54412012Y-40136021D01*
X54422105Y-40129278D01*
X54727287Y-39946358D01*
X54737979Y-39940643D01*
X55059643Y-39788508D01*
X55070840Y-39783869D01*
X55405858Y-39663998D01*
X55417473Y-39660475D01*
X55762613Y-39574022D01*
X55774520Y-39571654D01*
X56126460Y-39519448D01*
X56138564Y-39518256D01*
X56496967Y-39500648D01*
X56503051Y-39500500D01*
X56565892Y-39500500D01*
X73934108Y-39500500D01*
X73996949Y-39500500D01*
X74003032Y-39500648D01*
G37*
%TD.AperFunction*%
%TD*%
M02*
